<svg width="488" height="417" viewBox="0 0 488 417" fill="none" xmlns="http://www.w3.org/2000/svg">
<mask id="mask0_266_4079" style="mask-type:luminance" maskUnits="userSpaceOnUse" x="10" y="33" width="478" height="358">
<path d="M374.004 390.084C417.702 368.872 465.094 343.8 482.754 298.549C490.754 278.049 490.608 252.322 475.239 236.573C457.665 218.563 427.056 219.565 408.744 202.306C388.907 183.61 391.191 152 394.999 125.008C398.806 98.0149 401.147 66.4271 381.369 47.6692C370.665 37.5169 355.365 33.5322 340.618 33.1356C308.851 32.2811 277.044 47.2264 257.425 72.2251C239.111 95.5599 231.89 125.387 221.937 153.33C218.047 164.251 213.174 175.649 203.576 182.15C192.809 189.441 178.434 188.839 165.955 185.184C136.993 176.702 112.355 153.631 82.1957 152.507C56.4661 151.548 32.3412 168.526 20.1143 191.185C-11.6283 250.008 44.1457 373.846 64.1279 390.084H374.004Z" fill="white"/>
</mask>
<g mask="url(#mask0_266_4079)">
<path d="M374.004 390.084C417.702 368.872 465.094 343.8 482.754 298.549C490.754 278.049 490.608 252.322 475.239 236.573C457.665 218.563 427.056 219.565 408.744 202.306C388.907 183.61 391.191 152 394.999 125.008C398.806 98.0149 401.147 66.4271 381.369 47.6692C370.665 37.5169 355.365 33.5322 340.618 33.1356C308.851 32.2811 277.044 47.2264 257.425 72.2251C239.111 95.5599 231.89 125.387 221.937 153.33C218.047 164.251 213.174 175.649 203.576 182.15C192.809 189.441 178.434 188.839 165.955 185.184C136.993 176.702 112.355 153.631 82.1957 152.507C56.4661 151.548 32.3412 168.526 20.1143 191.185C-11.6283 250.008 44.1457 373.846 64.1279 390.084H374.004Z" fill="#C1DEFD"/>
</g>
<mask id="mask1_266_4079" style="mask-type:luminance" maskUnits="userSpaceOnUse" x="10" y="33" width="478" height="358">
<path d="M374.004 390.084C417.702 368.872 465.094 343.8 482.754 298.549C490.754 278.049 490.608 252.322 475.239 236.573C457.665 218.563 427.056 219.565 408.744 202.306C388.907 183.61 391.191 152 394.999 125.008C398.806 98.0149 401.147 66.4271 381.369 47.6692C370.665 37.5169 355.365 33.5322 340.618 33.1356C308.851 32.2811 277.044 47.2264 257.425 72.2251C239.111 95.5599 231.89 125.387 221.937 153.33C218.047 164.251 213.174 175.649 203.576 182.15C192.809 189.441 178.434 188.839 165.955 185.184C136.993 176.702 112.355 153.631 82.1957 152.507C56.4661 151.548 32.3412 168.526 20.1143 191.185C-11.6283 250.008 44.1457 373.846 64.1279 390.084H374.004Z" fill="white"/>
</mask>
<g mask="url(#mask1_266_4079)">
<path d="M13.7699 341.368C-2.10405 310.245 -0.0563877 271.022 18.6811 241.566C23.5396 233.928 29.5547 226.182 37.6207 221.746C44.9665 217.705 54.8899 217.06 61.6606 222.698C67.609 227.651 68.1798 237.244 62.3851 242.636C55.5864 248.961 45.5469 242.636 41.5537 236.134C37.6572 229.789 36.9725 221.721 38.8052 214.595C40.84 206.68 46.2811 200.308 53.0916 195.965C67.8391 186.562 86.7937 186.534 103.408 189.822C137.328 196.535 166.56 217.214 200.347 224.388C218.786 228.302 237.29 226.799 255.133 220.837C272.866 214.913 290.207 205.793 304.764 194.024C318.932 182.569 330.455 167.545 335.184 149.737C337.433 141.263 338.157 132.153 336.511 123.501C335.232 116.777 330.685 108.726 322.614 109.982C318.728 110.586 316.369 114.043 314.652 117.285C312.899 120.595 311.831 124.236 311.387 127.951C310.418 136.049 312.308 144.387 316.02 151.596C324.326 167.732 341.087 177.302 356.399 185.734C364.843 190.384 373.383 194.975 381.103 200.787C388.692 206.5 395.163 213.451 400.013 221.637C404.592 229.365 407.709 237.949 409.153 246.815C410.58 255.568 410.738 265.323 407.758 273.781C404.894 281.914 396.894 289.357 387.656 286.433C379.103 283.725 379.169 273.92 383.846 267.783C389.761 260.021 399.905 260.321 408.132 264.023C416.034 267.579 422.863 273.567 428.711 279.872C450.331 303.184 459.47 337.404 453.101 368.47C451.546 376.059 449.049 383.422 445.643 390.38C445.397 390.882 446.149 391.325 446.396 390.82C460.609 361.782 458.479 326.292 442.975 298.193C439.062 291.102 434.276 284.478 428.708 278.593C422.795 272.344 415.88 266.391 407.907 262.978C400.853 259.959 392.141 259.131 385.909 264.356C381.274 268.243 377.991 275.254 380.509 281.191C383.304 287.784 391.396 289.085 397.489 286.701C405.212 283.68 408.863 275.545 410.157 267.848C413.108 250.288 408.077 231.385 397.993 216.877C386.604 200.494 368.847 191.782 351.937 182.259C335.288 172.885 317.568 160.729 313.025 140.922C310.956 131.903 311.825 121.225 317.922 113.834C321.511 109.483 327.593 110.127 331.313 114.014C335.026 117.892 335.93 123.778 336.331 128.911C337.921 149.295 328.527 169.049 314.769 183.616C300.914 198.286 282.685 208.931 264.138 216.552C244.897 224.458 224.419 227.963 203.81 224.188C168.039 217.636 137.5 195.072 101.706 188.617C85.2201 185.644 66.5514 186.056 52.1134 195.56C45.764 199.739 40.5798 205.705 38.3333 213.045C36.3265 219.603 36.4641 226.96 39.132 233.314C41.8461 239.777 47.9289 245.703 55.2585 246.074C61.8519 246.407 66.4267 240.738 67.2156 234.612C68.1035 227.722 63.8899 221.894 57.6384 219.308C50.0163 216.155 41.5462 217.953 34.855 222.406C27.6435 227.204 22.1229 234.423 17.5718 241.689C12.8584 249.215 9.20702 257.404 6.6563 265.907C1.60969 282.73 0.837919 300.848 4.54199 318.021C6.32416 326.285 9.17477 334.281 13.0143 341.811C13.2723 342.309 14.0247 341.868 13.7699 341.368Z" fill="white"/>
</g>
<path opacity="0.5" d="M482.128 390.527H1.41993C0.490151 391.356 0 392.197 0 393.05C0 405.894 108.246 416.305 241.774 416.305C375.302 416.305 483.548 405.894 483.548 393.05C483.548 392.197 483.057 391.356 482.128 390.527Z" fill="#6D99BC"/>
<mask id="mask2_266_4079" style="mask-type:luminance" maskUnits="userSpaceOnUse" x="263" y="274" width="103" height="113">
<path d="M270.406 371.911C277.617 385.297 294.417 390.649 307.704 383.254C308.097 383.036 308.483 382.81 308.866 382.575C316.825 377.696 322.426 369.764 326.901 361.571C331.375 353.379 334.971 344.684 340.14 336.91C345.079 329.481 351.361 323.037 356.568 315.793C361.774 308.548 365.987 300.103 365.859 291.182C365.779 285.631 363.726 279.789 359.179 276.607C353.448 272.596 345.333 273.908 339.418 277.639C333.503 281.37 329.175 287.079 324.527 292.305C317.097 300.663 308.559 308.033 299.207 314.164C290.921 319.597 281.925 324.12 274.716 330.917C267.507 337.714 262.19 347.562 263.959 357.312C264.527 360.431 267.411 366.352 270.406 371.911Z" fill="white"/>
</mask>
<g mask="url(#mask2_266_4079)">
<path d="M270.406 371.911C277.617 385.297 294.417 390.649 307.704 383.254C308.097 383.036 308.483 382.81 308.866 382.575C316.825 377.696 322.426 369.764 326.901 361.571C331.375 353.379 334.971 344.684 340.14 336.91C345.079 329.481 351.361 323.037 356.568 315.793C361.774 308.548 365.987 300.103 365.859 291.182C365.779 285.631 363.726 279.789 359.179 276.607C353.448 272.596 345.333 273.908 339.418 277.639C333.503 281.37 329.175 287.079 324.527 292.305C317.097 300.663 308.559 308.033 299.207 314.164C290.921 319.597 281.925 324.12 274.716 330.917C267.507 337.714 262.19 347.562 263.959 357.312C264.527 360.431 267.411 366.352 270.406 371.911Z" fill="#514297"/>
</g>
<mask id="mask3_266_4079" style="mask-type:luminance" maskUnits="userSpaceOnUse" x="263" y="274" width="103" height="113">
<path d="M270.406 371.911C277.617 385.297 294.417 390.649 307.704 383.254C308.097 383.036 308.483 382.81 308.866 382.575C316.825 377.696 322.426 369.764 326.901 361.571C331.375 353.379 334.971 344.684 340.14 336.91C345.079 329.481 351.361 323.037 356.568 315.793C361.774 308.548 365.987 300.103 365.859 291.182C365.779 285.631 363.726 279.789 359.179 276.607C353.448 272.596 345.333 273.908 339.418 277.639C333.503 281.37 329.175 287.079 324.527 292.305C317.097 300.663 308.559 308.033 299.207 314.164C290.921 319.597 281.925 324.12 274.716 330.917C267.507 337.714 262.19 347.562 263.959 357.312C264.527 360.431 267.411 366.352 270.406 371.911Z" fill="white"/>
</mask>
<g mask="url(#mask3_266_4079)">
<path d="M362.406 271.409C355.132 277.984 349.217 285.842 343.596 293.832C337.863 301.982 332.225 310.166 325.987 317.946C313.563 333.443 299.65 347.705 284.863 360.95C276.516 368.426 267.885 375.578 259.057 382.478C257.864 383.411 259.542 385.069 260.723 384.144C276.383 371.903 291.434 358.852 305.358 344.657C312.306 337.575 318.971 330.212 325.271 322.545C331.533 314.928 337.311 306.972 342.937 298.878C349.292 289.734 355.767 280.581 364.072 273.074C365.199 272.056 363.529 270.394 362.406 271.409Z" fill="white"/>
</g>
<mask id="mask4_266_4079" style="mask-type:luminance" maskUnits="userSpaceOnUse" x="263" y="274" width="103" height="113">
<path d="M270.406 371.911C277.617 385.297 294.417 390.649 307.704 383.254C308.097 383.036 308.483 382.81 308.866 382.575C316.825 377.696 322.426 369.764 326.901 361.571C331.375 353.379 334.971 344.684 340.14 336.91C345.079 329.481 351.361 323.037 356.568 315.793C361.774 308.548 365.987 300.103 365.859 291.182C365.779 285.631 363.726 279.789 359.179 276.607C353.448 272.596 345.333 273.908 339.418 277.639C333.503 281.37 329.175 287.079 324.527 292.305C317.097 300.663 308.559 308.033 299.207 314.164C290.921 319.597 281.925 324.12 274.716 330.917C267.507 337.714 262.19 347.562 263.959 357.312C264.527 360.431 267.411 366.352 270.406 371.911Z" fill="white"/>
</mask>
<g mask="url(#mask4_266_4079)">
<path d="M345.361 336.585C333.357 341.697 320.03 343.424 307.12 341.542C306.378 341.433 306.058 342.568 306.807 342.678C320.068 344.611 333.628 342.852 345.957 337.602C346.651 337.306 346.051 336.291 345.361 336.585Z" fill="white"/>
</g>
<mask id="mask5_266_4079" style="mask-type:luminance" maskUnits="userSpaceOnUse" x="263" y="274" width="103" height="113">
<path d="M270.406 371.911C277.617 385.297 294.417 390.649 307.704 383.254C308.097 383.036 308.483 382.81 308.866 382.575C316.825 377.696 322.426 369.764 326.901 361.571C331.375 353.379 334.971 344.684 340.14 336.91C345.079 329.481 351.361 323.037 356.568 315.793C361.774 308.548 365.987 300.103 365.859 291.182C365.779 285.631 363.726 279.789 359.179 276.607C353.448 272.596 345.333 273.908 339.418 277.639C333.503 281.37 329.175 287.079 324.527 292.305C317.097 300.663 308.559 308.033 299.207 314.164C290.921 319.597 281.925 324.12 274.716 330.917C267.507 337.714 262.19 347.562 263.959 357.312C264.527 360.431 267.411 366.352 270.406 371.911Z" fill="white"/>
</mask>
<g mask="url(#mask5_266_4079)">
<path d="M296.141 352.236C294.355 333.978 297.806 315.395 306.077 299.016C306.417 298.341 305.402 297.743 305.06 298.422C296.699 314.98 293.156 333.771 294.963 352.237C295.036 352.984 296.215 352.992 296.141 352.236Z" fill="white"/>
</g>
<mask id="mask6_266_4079" style="mask-type:luminance" maskUnits="userSpaceOnUse" x="263" y="274" width="103" height="113">
<path d="M270.406 371.911C277.617 385.297 294.417 390.649 307.704 383.254C308.097 383.036 308.483 382.81 308.866 382.575C316.825 377.696 322.426 369.764 326.901 361.571C331.375 353.379 334.971 344.684 340.14 336.91C345.079 329.481 351.361 323.037 356.568 315.793C361.774 308.548 365.987 300.103 365.859 291.182C365.779 285.631 363.726 279.789 359.179 276.607C353.448 272.596 345.333 273.908 339.418 277.639C333.503 281.37 329.175 287.079 324.527 292.305C317.097 300.663 308.559 308.033 299.207 314.164C290.921 319.597 281.925 324.12 274.716 330.917C267.507 337.714 262.19 347.562 263.959 357.312C264.527 360.431 267.411 366.352 270.406 371.911Z" fill="white"/>
</mask>
<g mask="url(#mask6_266_4079)">
<path d="M330.427 314.199C327.742 298.105 334.16 282.491 342.207 268.895C342.594 268.242 341.576 267.649 341.19 268.301C332.964 282.199 326.551 298.08 329.292 314.512C329.415 315.258 330.551 314.942 330.427 314.199Z" fill="white"/>
</g>
<mask id="mask7_266_4079" style="mask-type:luminance" maskUnits="userSpaceOnUse" x="263" y="274" width="103" height="113">
<path d="M270.406 371.911C277.617 385.297 294.417 390.649 307.704 383.254C308.097 383.036 308.483 382.81 308.866 382.575C316.825 377.696 322.426 369.764 326.901 361.571C331.375 353.379 334.971 344.684 340.14 336.91C345.079 329.481 351.361 323.037 356.568 315.793C361.774 308.548 365.987 300.103 365.859 291.182C365.779 285.631 363.726 279.789 359.179 276.607C353.448 272.596 345.333 273.908 339.418 277.639C333.503 281.37 329.175 287.079 324.527 292.305C317.097 300.663 308.559 308.033 299.207 314.164C290.921 319.597 281.925 324.12 274.716 330.917C267.507 337.714 262.19 347.562 263.959 357.312C264.527 360.431 267.411 366.352 270.406 371.911Z" fill="white"/>
</mask>
<g mask="url(#mask7_266_4079)">
<path d="M341.473 300.433C352.357 301.164 364.558 301.661 373.253 293.878C373.819 293.372 372.983 292.54 372.42 293.045C363.99 300.591 351.997 299.961 341.473 299.254C340.716 299.203 340.719 300.382 341.473 300.433Z" fill="white"/>
</g>
<path d="M92.509 330.397C89.3499 319.783 83.9475 309.844 76.7618 301.42C70.7672 294.392 63.3322 288.05 60.4891 279.261C59.3078 275.609 59.2368 271.051 62.1229 268.52C64.1329 266.756 67.1158 266.474 69.7073 267.133C72.2989 267.792 74.5981 269.262 76.8468 270.71C75.6794 267.128 74.7464 263.47 74.0553 259.766C73.3286 255.872 72.8697 251.862 73.5458 247.959C74.2208 244.056 76.1524 240.238 79.4082 237.983C82.6641 235.728 87.3377 235.357 90.5473 237.677C93.658 239.924 94.7877 243.974 95.5466 247.737C97.9544 259.669 98.7057 271.933 97.7738 284.07C98.5208 279.856 99.5549 275.606 101.795 271.961C104.035 268.315 107.663 265.318 111.904 264.749C113.016 264.599 114.177 264.623 115.219 265.037C117.278 265.853 118.479 267.999 119.19 270.096C120.43 273.761 120.666 277.692 120.554 281.558C120.083 297.854 113.708 313.329 107.349 328.339L99.6656 353.856L92.509 330.397Z" fill="#0D548A"/>
<mask id="mask8_266_4079" style="mask-type:luminance" maskUnits="userSpaceOnUse" x="19" y="274" width="104" height="113">
<path d="M115.455 371.911C108.244 385.298 91.4434 390.65 78.1567 383.255C77.7643 383.036 77.3774 382.811 76.9947 382.575C69.0362 377.696 63.435 369.765 58.9602 361.572C54.4854 353.379 50.8899 344.684 45.7208 336.911C40.7816 329.481 34.5 323.037 29.2932 315.793C24.0864 308.549 19.8739 300.103 20.0019 291.183C20.0814 285.632 22.1344 279.79 26.6823 276.607C32.4125 272.597 40.528 273.908 46.4431 277.639C52.3582 281.37 56.6857 287.08 61.3335 292.306C68.7643 300.663 77.3021 308.034 86.6537 314.165C94.94 319.597 103.936 324.121 111.145 330.917C118.354 337.715 123.671 347.563 121.901 357.312C121.334 360.431 118.449 366.353 115.455 371.911Z" fill="white"/>
</mask>
<g mask="url(#mask8_266_4079)">
<path d="M115.455 371.911C108.244 385.298 91.4434 390.65 78.1567 383.255C77.7643 383.036 77.3774 382.811 76.9947 382.575C69.0362 377.696 63.435 369.765 58.9602 361.572C54.4854 353.379 50.8899 344.684 45.7208 336.911C40.7816 329.481 34.5 323.037 29.2932 315.793C24.0864 308.549 19.8739 300.103 20.0019 291.183C20.0814 285.632 22.1344 279.79 26.6823 276.607C32.4125 272.597 40.528 273.908 46.4431 277.639C52.3582 281.37 56.6857 287.08 61.3335 292.306C68.7643 300.663 77.3021 308.034 86.6537 314.165C94.94 319.597 103.936 324.121 111.145 330.917C118.354 337.715 123.671 347.563 121.901 357.312C121.334 360.431 118.449 366.353 115.455 371.911Z" fill="#514297"/>
</g>
<mask id="mask9_266_4079" style="mask-type:luminance" maskUnits="userSpaceOnUse" x="19" y="274" width="104" height="113">
<path d="M115.455 371.911C108.244 385.298 91.4434 390.65 78.1567 383.255C77.7643 383.036 77.3774 382.811 76.9947 382.575C69.0362 377.696 63.435 369.765 58.9602 361.572C54.4854 353.379 50.8899 344.684 45.7208 336.911C40.7816 329.481 34.5 323.037 29.2932 315.793C24.0864 308.549 19.8739 300.103 20.0019 291.183C20.0814 285.632 22.1344 279.79 26.6823 276.607C32.4125 272.597 40.528 273.908 46.4431 277.639C52.3582 281.37 56.6857 287.08 61.3335 292.306C68.7643 300.663 77.3021 308.034 86.6537 314.165C94.94 319.597 103.936 324.121 111.145 330.917C118.354 337.715 123.671 347.563 121.901 357.312C121.334 360.431 118.449 366.353 115.455 371.911Z" fill="white"/>
</mask>
<g mask="url(#mask9_266_4079)">
<path d="M21.7907 273.076C29.1548 279.732 35.0989 287.696 40.7722 295.793C46.4261 303.861 52.0424 311.923 58.209 319.613C70.6337 335.11 84.546 349.373 99.3333 362.618C107.68 370.094 116.311 377.246 125.139 384.146C126.321 385.069 128 383.413 126.805 382.479C111.145 370.239 96.0946 357.187 82.1705 342.992C75.2224 335.91 68.557 328.547 62.2571 320.881C55.9227 313.174 50.1173 305.104 44.4225 296.918C38.1312 287.875 31.6689 278.832 23.4568 271.41C22.3346 270.394 20.6631 272.056 21.7907 273.076Z" fill="white"/>
</g>
<mask id="mask10_266_4079" style="mask-type:luminance" maskUnits="userSpaceOnUse" x="19" y="274" width="104" height="113">
<path d="M115.455 371.911C108.244 385.298 91.4434 390.65 78.1567 383.255C77.7643 383.036 77.3774 382.811 76.9947 382.575C69.0362 377.696 63.435 369.765 58.9602 361.572C54.4854 353.379 50.8899 344.684 45.7208 336.911C40.7816 329.481 34.5 323.037 29.2932 315.793C24.0864 308.549 19.8739 300.103 20.0019 291.183C20.0814 285.632 22.1344 279.79 26.6823 276.607C32.4125 272.597 40.528 273.908 46.4431 277.639C52.3582 281.37 56.6857 287.08 61.3335 292.306C68.7643 300.663 77.3021 308.034 86.6537 314.165C94.94 319.597 103.936 324.121 111.145 330.917C118.354 337.715 123.671 347.563 121.901 357.312C121.334 360.431 118.449 366.353 115.455 371.911Z" fill="white"/>
</mask>
<g mask="url(#mask10_266_4079)">
<path d="M39.9035 337.603C52.2325 342.854 65.7922 344.612 79.0532 342.678C79.8002 342.57 79.4831 341.434 78.7404 341.542C65.8288 343.424 52.5034 341.697 40.499 336.585C39.8078 336.291 39.207 337.306 39.9035 337.603Z" fill="white"/>
</g>
<mask id="mask11_266_4079" style="mask-type:luminance" maskUnits="userSpaceOnUse" x="19" y="274" width="104" height="113">
<path d="M115.455 371.911C108.244 385.298 91.4434 390.65 78.1567 383.255C77.7643 383.036 77.3774 382.811 76.9947 382.575C69.0362 377.696 63.435 369.765 58.9602 361.572C54.4854 353.379 50.8899 344.684 45.7208 336.911C40.7816 329.481 34.5 323.037 29.2932 315.793C24.0864 308.549 19.8739 300.103 20.0019 291.183C20.0814 285.632 22.1344 279.79 26.6823 276.607C32.4125 272.597 40.528 273.908 46.4431 277.639C52.3582 281.37 56.6857 287.08 61.3335 292.306C68.7643 300.663 77.3021 308.034 86.6537 314.165C94.94 319.597 103.936 324.121 111.145 330.917C118.354 337.715 123.671 347.563 121.901 357.312C121.334 360.431 118.449 366.353 115.455 371.911Z" fill="white"/>
</mask>
<g mask="url(#mask11_266_4079)">
<path d="M90.8984 352.236C92.7053 333.772 89.1624 314.98 80.8019 298.421C80.4601 297.744 79.4433 298.339 79.7851 299.015C88.0553 315.394 91.5068 333.977 89.7203 352.235C89.6461 352.991 90.8253 352.985 90.8984 352.236Z" fill="white"/>
</g>
<mask id="mask12_266_4079" style="mask-type:luminance" maskUnits="userSpaceOnUse" x="19" y="274" width="104" height="113">
<path d="M115.455 371.911C108.244 385.298 91.4434 390.65 78.1567 383.255C77.7643 383.036 77.3774 382.811 76.9947 382.575C69.0362 377.696 63.435 369.765 58.9602 361.572C54.4854 353.379 50.8899 344.684 45.7208 336.911C40.7816 329.481 34.5 323.037 29.2932 315.793C24.0864 308.549 19.8739 300.103 20.0019 291.183C20.0814 285.632 22.1344 279.79 26.6823 276.607C32.4125 272.597 40.528 273.908 46.4431 277.639C52.3582 281.37 56.6857 287.08 61.3335 292.306C68.7643 300.663 77.3021 308.034 86.6537 314.165C94.94 319.597 103.936 324.121 111.145 330.917C118.354 337.715 123.671 347.563 121.901 357.312C121.334 360.431 118.449 366.353 115.455 371.911Z" fill="white"/>
</mask>
<g mask="url(#mask12_266_4079)">
<path d="M56.5678 314.512C59.3088 298.08 52.896 282.199 44.6699 268.301C44.284 267.649 43.265 268.241 43.653 268.896C51.6997 282.49 58.1178 298.105 55.4328 314.199C55.3081 314.941 56.4432 315.259 56.5678 314.512Z" fill="white"/>
</g>
<mask id="mask13_266_4079" style="mask-type:luminance" maskUnits="userSpaceOnUse" x="19" y="274" width="104" height="113">
<path d="M115.455 371.911C108.244 385.298 91.4434 390.65 78.1567 383.255C77.7643 383.036 77.3774 382.811 76.9947 382.575C69.0362 377.696 63.435 369.765 58.9602 361.572C54.4854 353.379 50.8899 344.684 45.7208 336.911C40.7816 329.481 34.5 323.037 29.2932 315.793C24.0864 308.549 19.8739 300.103 20.0019 291.183C20.0814 285.632 22.1344 279.79 26.6823 276.607C32.4125 272.597 40.528 273.908 46.4431 277.639C52.3582 281.37 56.6857 287.08 61.3335 292.306C68.7643 300.663 77.3021 308.034 86.6537 314.165C94.94 319.597 103.936 324.121 111.145 330.917C118.354 337.715 123.671 347.563 121.901 357.312C121.334 360.431 118.449 366.353 115.455 371.911Z" fill="white"/>
</mask>
<g mask="url(#mask13_266_4079)">
<path d="M44.3879 299.255C33.8647 299.962 21.8711 300.592 13.4407 293.046C12.8775 292.542 12.0412 293.372 12.6077 293.879C21.3024 301.663 33.5035 301.165 44.3879 300.434C45.1403 300.383 45.1457 299.203 44.3879 299.255Z" fill="white"/>
</g>
<path d="M269.851 345.095C276 335.886 284.093 327.982 293.444 322.051C301.246 317.105 310.22 313.237 315.528 305.678C317.735 302.536 319.146 298.203 317.135 294.932C315.734 292.654 312.968 291.505 310.298 291.37C307.627 291.235 304.996 291.962 302.421 292.682C304.592 289.604 306.563 286.383 308.316 283.048C310.158 279.543 311.779 275.845 312.285 271.917C312.79 267.99 312.071 263.772 309.626 260.657C307.18 257.542 302.824 255.809 299.073 257.079C295.437 258.308 293.163 261.846 291.329 265.217C285.51 275.907 281.173 287.406 278.485 299.278C279.014 295.032 279.28 290.666 278.214 286.521C277.149 282.377 274.567 278.442 270.683 276.647C269.665 276.176 268.548 275.857 267.43 275.944C265.222 276.117 263.441 277.812 262.144 279.607C259.878 282.743 258.493 286.43 257.459 290.157C253.103 305.867 254.63 322.533 256.279 338.753L256.094 365.401L269.851 345.095Z" fill="#0D548A"/>
<path d="M247.233 390.084H123.137C108.595 390.084 96.8057 378.295 96.8057 363.753V63.5595C96.8057 49.0173 108.595 37.2279 123.137 37.2279H247.232C261.775 37.2279 273.564 49.0173 273.564 63.5595V363.753C273.564 378.295 261.776 390.084 247.233 390.084Z" fill="#0C1A1E"/>
<path d="M262.472 390.084H133.495C120.301 390.084 109.604 379.388 109.604 366.194V61.1184C109.604 47.9241 120.301 37.2279 133.495 37.2279H262.473C275.668 37.2279 286.364 47.9241 286.364 61.1184V366.195C286.363 379.388 275.666 390.084 262.472 390.084Z" fill="#1A2E35"/>
<path d="M255.176 368.979H141.556C129.38 368.979 119.509 359.108 119.509 346.932V66.9056C119.509 54.7292 129.38 44.8585 141.556 44.8585H255.176C267.352 44.8585 277.223 54.7292 277.223 66.9056V346.933C277.223 359.108 267.352 368.979 255.176 368.979Z" fill="white"/>
<path d="M262.942 278.932H132.821C128.27 278.932 124.58 275.243 124.58 270.691V103.16C124.58 98.6084 128.269 94.9183 132.821 94.9183H262.943C267.494 94.9183 271.184 98.6074 271.184 103.16V270.691C271.183 275.242 267.494 278.932 262.942 278.932Z" fill="#E6E6E6"/>
<path d="M266.221 303.115H132.553C129.475 303.115 126.979 300.62 126.979 297.542V292.419C126.979 289.341 129.474 286.845 132.553 286.845H266.221C269.298 286.845 271.794 289.34 271.794 292.419V297.542C271.793 300.62 269.298 303.115 266.221 303.115Z" fill="#5660DA"/>
<path d="M266.221 349.723H132.553C129.475 349.723 126.979 347.228 126.979 344.15V316.603C126.979 313.525 129.474 311.029 132.553 311.029H266.221C269.298 311.029 271.794 313.524 271.794 316.603V344.15C271.793 347.228 269.298 349.723 266.221 349.723Z" fill="#E6E6E6"/>
<path d="M271.183 123.495V103.161C271.183 98.6095 267.494 94.9194 262.942 94.9194H132.821C128.27 94.9194 124.58 98.6085 124.58 103.161V123.495H271.183Z" fill="#5660DA"/>
<path d="M150.211 130.737H132.148V148.799H150.211V130.737Z" fill="#BFBFC1"/>
<path d="M178.563 130.737H160.501V148.799H178.563V130.737Z" fill="#BFBFC1"/>
<path d="M206.913 130.737H188.851V148.799H206.913V130.737Z" fill="#BFBFC1"/>
<path d="M235.267 130.737H217.204V148.799H235.267V130.737Z" fill="#BFBFC1"/>
<path d="M263.617 130.737H245.555V148.799H263.617V130.737Z" fill="#BFBFC1"/>
<path d="M150.211 158.05H132.148V176.113H150.211V158.05Z" fill="#BFBFC1"/>
<path d="M178.563 158.05H160.501V176.113H178.563V158.05Z" fill="#BFBFC1"/>
<path d="M206.913 158.05H188.851V176.113H206.913V158.05Z" fill="#BFBFC1"/>
<path d="M235.267 158.05H217.204V176.113H235.267V158.05Z" fill="#FE7966"/>
<path d="M263.617 158.05H245.555V176.113H263.617V158.05Z" fill="#BFBFC1"/>
<path d="M150.211 185.364H132.148V203.426H150.211V185.364Z" fill="#BFBFC1"/>
<path d="M178.563 185.364H160.501V203.426H178.563V185.364Z" fill="#BFBFC1"/>
<path d="M206.913 185.364H188.851V203.426H206.913V185.364Z" fill="#BFBFC1"/>
<path d="M235.267 185.364H217.204V203.426H235.267V185.364Z" fill="#BFBFC1"/>
<path d="M263.617 185.364H245.555V203.426H263.617V185.364Z" fill="#BFBFC1"/>
<path d="M150.211 212.677H132.148V230.739H150.211V212.677Z" fill="#BFBFC1"/>
<path d="M178.563 212.677H160.501V230.739H178.563V212.677Z" fill="#BFBFC1"/>
<path d="M206.913 212.677H188.851V230.739H206.913V212.677Z" fill="#BFBFC1"/>
<path d="M235.267 212.677H217.204V230.739H235.267V212.677Z" fill="#BFBFC1"/>
<path d="M263.617 212.677H245.555V230.739H263.617V212.677Z" fill="#BFBFC1"/>
<path d="M248.329 81.6005C248.329 84.3328 250.543 86.5471 253.276 86.5471C256.008 86.5471 258.222 84.3328 258.222 81.6005C258.222 78.8681 256.008 76.6538 253.276 76.6538C250.543 76.6538 248.329 78.8681 248.329 81.6005Z" fill="#BFBFC1"/>
<path d="M230.319 81.6005C230.319 84.3328 232.534 86.5471 235.266 86.5471C237.998 86.5471 240.213 84.3328 240.213 81.6005C240.213 78.8681 237.998 76.6538 235.266 76.6538C232.534 76.6538 230.319 78.8681 230.319 81.6005Z" fill="#BFBFC1"/>
<path d="M212.312 81.6005C212.312 84.3328 214.526 86.5471 217.258 86.5471C219.991 86.5471 222.205 84.3328 222.205 81.6005C222.205 78.8681 219.991 76.6538 217.258 76.6538C214.526 76.6538 212.312 78.8681 212.312 81.6005Z" fill="#BFBFC1"/>
<path d="M137.325 105.25V115.363L130.246 110.307L137.325 105.25Z" fill="white"/>
<path d="M256.538 105.25V115.363L263.617 110.307L256.538 105.25Z" fill="white"/>
<g opacity="0.5">
<path d="M277.223 181.413C237.14 247.954 189.91 309.764 139.608 368.88C140.251 368.936 140.899 368.978 141.556 368.978H208.415C230.322 337.657 258.914 304.967 277.222 272.608V181.413H277.223Z" fill="white"/>
<path d="M277.223 87.738V66.9056C277.223 54.7303 267.352 44.8585 255.176 44.8585H232.739C198.235 101.821 158.483 153.956 119.509 209.257V297.957C174.481 241.936 275.637 90.4629 277.223 87.738Z" fill="white"/>
</g>
<path d="M168.03 56.5748H228.709C234.051 56.5748 238.382 52.244 238.382 46.9018C238.382 41.5596 234.051 37.2289 228.709 37.2289H168.03C162.688 37.2289 158.357 41.5596 158.357 46.9018C158.356 52.244 162.688 56.5748 168.03 56.5748Z" fill="#1A2E35"/>
<path d="M203.592 51.9485H175.891C173.941 51.9485 172.346 50.3534 172.346 48.4035C172.346 46.4537 173.941 44.8585 175.891 44.8585H203.592C205.542 44.8585 207.137 46.4537 207.137 48.4035C207.137 50.3534 205.542 51.9485 203.592 51.9485Z" fill="#0C1A1E"/>
<path d="M218.661 51.9485H215.857C213.908 51.9485 212.312 50.3534 212.312 48.4035C212.312 46.4537 213.908 44.8585 215.857 44.8585H218.661C220.611 44.8585 222.206 46.4537 222.206 48.4035C222.206 50.3534 220.611 51.9485 218.661 51.9485Z" fill="#0C1A1E"/>
<path d="M104.346 140.819V88.5508C98.9736 88.5508 94.6182 92.9062 94.6182 98.2796V131.092C94.6182 136.464 98.9736 140.819 104.346 140.819Z" fill="#193B44"/>
<path d="M102.749 170.445C103.631 170.445 104.346 169.73 104.346 168.847V148.468C104.346 147.586 103.631 146.871 102.749 146.871C98.2577 146.871 94.6182 150.512 94.6182 155.002V162.314C94.6182 166.804 98.2577 170.445 102.749 170.445Z" fill="#193B44"/>
<path d="M422.557 390.084H35.623C35.623 384.787 39.9172 380.493 45.2143 380.493H412.966C418.263 380.493 422.557 384.787 422.557 390.084Z" fill="#0C1A1E"/>
<mask id="mask14_266_4079" style="mask-type:luminance" maskUnits="userSpaceOnUse" x="17" y="347" width="36" height="25">
<path d="M17.0078 347.152C17.0078 347.152 51.931 348.492 52.1051 371.388C52.1051 371.387 30.8503 377.74 17.0078 347.152Z" fill="white"/>
</mask>
<g mask="url(#mask14_266_4079)">
<path d="M17.0078 347.152C17.0078 347.152 51.931 348.492 52.1051 371.388C52.1051 371.388 30.8503 377.74 17.0078 347.152Z" fill="#5660DA"/>
</g>
<mask id="mask15_266_4079" style="mask-type:luminance" maskUnits="userSpaceOnUse" x="17" y="347" width="36" height="25">
<path d="M17.0078 347.152C17.0078 347.152 51.931 348.492 52.1051 371.388C52.1051 371.387 30.8503 377.74 17.0078 347.152Z" fill="white"/>
</mask>
<g mask="url(#mask15_266_4079)">
<path d="M16.0559 347.032C26.9434 353.828 37.7988 360.795 48.0468 368.529C50.849 370.643 53.6512 372.818 56.1385 375.303C56.5362 375.7 57.1532 375.084 56.7555 374.686C51.9432 369.878 46.155 365.952 40.5935 362.078C34.5053 357.838 28.2999 353.765 22.043 349.777C20.1996 348.603 18.3508 347.435 16.4955 346.279C16.0182 345.981 15.5797 346.735 16.0559 347.032Z" fill="white"/>
</g>
<path d="M9.2513 6.54498L28.0436 27.6816L0.771484 17.54L9.2513 6.54498Z" fill="#C1DEFD"/>
<path d="M31.2019 0L33.2495 17.3111L23.0381 2.56899L31.2019 0Z" fill="#C1DEFD"/>
<path d="M5.77637 32.9862L23.038 35.4047L6.1859 41.5337L5.77637 32.9862Z" fill="#C1DEFD"/>
<path d="M72.665 134.605C72.665 137.457 74.9761 139.768 77.8277 139.768C80.6794 139.768 82.9904 137.457 82.9904 134.605C82.9904 131.754 80.6794 129.443 77.8277 129.443C74.9761 129.443 72.665 131.754 72.665 134.605Z" fill="#C1DEFD"/>
<path d="M258.222 26.7336C265.48 26.7336 271.363 20.8499 271.363 13.592C271.363 6.33408 265.48 0.450378 258.222 0.450378C250.964 0.450378 245.08 6.33408 245.08 13.592C245.08 20.8499 250.964 26.7336 258.222 26.7336Z" fill="#C1DEFD"/>
<path d="M459.241 86.5471H308.414C301.734 86.5471 296.317 81.1318 296.317 74.4503V12.3786C296.317 5.69811 301.733 0.281738 308.414 0.281738H459.24C465.92 0.281738 471.336 5.69811 471.336 12.3786V74.4503C471.337 81.1307 465.921 86.5471 459.241 86.5471Z" fill="#5660DA"/>
<path d="M367.738 21.8344H311.817C309.542 21.8344 307.696 19.9899 307.696 17.7132C307.696 15.4377 309.541 13.5921 311.817 13.5921H367.738C370.013 13.5921 371.859 15.4377 371.859 17.7132C371.859 19.9888 370.014 21.8344 367.738 21.8344Z" fill="#E6E6E6"/>
<path d="M350.998 34.2043H311.817C309.542 34.2043 307.696 32.3598 307.696 30.0832C307.696 27.8076 309.541 25.962 311.817 25.962H350.998C353.274 25.962 355.119 27.8065 355.119 30.0832C355.119 32.3587 353.274 34.2043 350.998 34.2043Z" fill="#E6E6E6"/>
<path d="M59.7254 81.595C78.3373 81.595 93.4253 66.507 93.4253 47.895C93.4253 29.2831 78.3373 14.1951 59.7254 14.1951C41.1134 14.1951 26.0254 29.2831 26.0254 47.895C26.0254 66.507 41.1134 81.595 59.7254 81.595Z" fill="#0D548A"/>
<path d="M59.7238 75.0231C74.7062 75.0231 86.8519 62.8775 86.8519 47.8951C86.8519 32.9126 74.7062 20.767 59.7238 20.767C44.7414 20.767 32.5957 32.9126 32.5957 47.8951C32.5957 62.8775 44.7414 75.0231 59.7238 75.0231Z" fill="white"/>
<path d="M59.7261 53.9424C59.1511 53.9424 58.6846 53.4759 58.6846 52.9008V28.0214C58.6846 27.4464 59.1511 26.9799 59.7261 26.9799C60.3012 26.9799 60.7677 27.4464 60.7677 28.0214V52.9008C60.7677 53.4759 60.3012 53.9424 59.7261 53.9424Z" fill="#0D548A"/>
<path d="M58.9746 53.1459V52.6568C58.9746 52.2172 59.3315 51.8604 59.7711 51.8604H73.9597C74.3993 51.8604 74.7562 52.2172 74.7562 52.6568V53.1459C74.7562 53.5855 74.3993 53.9424 73.9597 53.9424H59.7711C59.3315 53.9424 58.9746 53.5855 58.9746 53.1459Z" fill="#0D548A"/>
<path d="M346.033 135.65C346.033 135.65 358.478 139.466 363.865 136.058C369.251 132.65 364.799 126.824 362.491 126.934C360.182 127.045 347.109 129.417 346.033 135.65Z" fill="#C9600A"/>
<path d="M349.708 132.831L341.682 157.921L347.296 172.458C347.296 172.458 352.182 176.034 360.017 154.171C364.327 142.145 368.805 127.527 368.805 127.527L349.708 132.831Z" fill="#FD9697"/>
<path d="M363.859 142.978C364.001 142.549 363.89 142.796 364.287 141.688C366.854 133.898 368.806 127.526 368.806 127.526L349.708 132.83L347.153 140.819C352.591 139.453 358.517 139.961 363.859 142.978Z" fill="#DD5152"/>
<path d="M349.259 159.068C348.871 158.878 330.361 142.244 319.467 134.648L316.671 140.346C316.671 140.346 335.015 180.487 349.478 172.335L349.259 159.068Z" fill="#FD9697"/>
<path d="M321.819 136.335C321.819 136.335 318.87 133.072 315.733 131.737C312.595 130.403 314.409 125.893 312.61 126.299C310.813 126.703 309.222 128.657 310.146 132.579C311.069 136.503 309.989 139.2 304.048 137.84C298.107 136.48 295.962 134.356 294.647 136.723C293.331 139.089 297.261 143.003 308.579 142.092C308.579 142.092 302.366 143.652 296.932 141.45C296.932 141.45 294.203 140.025 293.618 142.398C293.033 144.772 298.745 148.979 308.491 145.812C308.491 145.812 307.424 146.575 305.469 147.157C303.07 147.87 300.515 147.819 298.104 147.148C296.579 146.725 294.648 146.357 294.158 147.032C293.317 148.191 298.957 153.404 310.572 150.591C322.188 147.778 321.706 141.102 321.706 141.102L321.819 136.335Z" fill="#FD9697"/>
<path d="M403.841 20.7337C403.841 20.7337 404.047 11.423 414.831 14.064C427.466 17.1576 436.34 37.5052 418.233 37.8675C400.127 38.2297 403.841 20.7337 403.841 20.7337Z" fill="#000A28"/>
<path d="M394.052 14.6972C394.052 14.6972 411.409 14.0673 418.126 29.8166C424.842 45.5659 440.92 50.9221 437.952 64.8828C434.984 78.8434 424.542 80.4923 424.542 80.4923H419.249L419.846 74.6933C419.846 74.6933 418.276 80.43 414.429 80.9556C410.582 81.4812 379.688 80.3816 379.688 80.3816L380.572 77.1935C380.572 77.1935 378.426 80.9782 371.859 80.9545C365.292 80.9309 354.19 66.9992 358.808 56.9812C363.425 46.9633 372.983 43.0915 374.417 34.4279C375.849 25.7643 380.601 15.4055 394.052 14.6972Z" fill="#010C39"/>
<path d="M417.87 366.448L418.984 388.749C418.984 388.749 401.794 392.992 394.434 399.466C392.548 401.126 393.664 404.318 396.14 404.348C408.295 404.496 438.904 404.616 439.368 402.072C439.946 398.896 438.1 370.78 438.1 370.78L417.87 366.448Z" fill="#010C39"/>
<path d="M418.704 383.144L417.87 366.448L438.101 370.78C438.101 370.78 438.327 374.234 438.596 378.853C432.524 384.225 425.277 385.848 418.704 383.144Z" fill="#020921"/>
<path d="M439.477 399.353C439.48 400.656 439.449 401.621 439.366 402.072C438.903 404.616 408.293 404.497 396.139 404.348C394.522 404.329 393.492 402.959 393.492 401.55C401.127 402.921 425.335 404.589 439.477 399.353Z" fill="white"/>
<path d="M420.514 392.359C420.209 393.318 418.876 392.199 416.894 391.523C414.912 390.846 413.032 390.869 413.337 389.91C413.643 388.951 415.497 388.722 417.479 389.399C419.461 390.075 420.82 391.4 420.514 392.359Z" fill="white"/>
<path d="M415.273 393.901C414.968 394.86 413.635 393.741 411.653 393.065C409.671 392.389 407.791 392.411 408.096 391.453C408.401 390.494 410.256 390.265 412.238 390.941C414.22 391.616 415.579 392.942 415.273 393.901Z" fill="white"/>
<path d="M410.016 396.211C409.711 397.17 408.378 396.051 406.396 395.375C404.414 394.699 402.534 394.721 402.839 393.763C403.145 392.804 404.999 392.575 406.981 393.251C408.963 393.927 410.323 395.252 410.016 396.211Z" fill="white"/>
<path d="M365.993 366.448L367.108 388.749C367.108 388.749 349.917 392.992 342.557 399.466C340.671 401.126 341.787 404.318 344.263 404.348C356.418 404.496 387.027 404.616 387.491 402.072C388.069 398.896 386.223 370.78 386.223 370.78L365.993 366.448Z" fill="#010C39"/>
<path d="M366.827 383.144L365.993 366.448L386.224 370.78C386.224 370.78 386.45 374.234 386.719 378.853C380.648 384.225 373.4 385.848 366.827 383.144Z" fill="#020921"/>
<path d="M387.6 399.353C387.603 400.656 387.572 401.621 387.489 402.072C387.026 404.616 356.416 404.497 344.262 404.348C342.645 404.329 341.615 402.959 341.615 401.55C349.249 402.921 373.458 404.589 387.6 399.353Z" fill="white"/>
<path d="M368.638 392.359C368.332 393.318 366.999 392.199 365.017 391.523C363.035 390.846 361.155 390.869 361.46 389.91C361.766 388.951 363.62 388.722 365.602 389.399C367.585 390.075 368.944 391.4 368.638 392.359Z" fill="white"/>
<path d="M363.396 393.901C363.091 394.86 361.758 393.741 359.776 393.065C357.794 392.389 355.914 392.411 356.219 391.453C356.525 390.494 358.379 390.265 360.361 390.941C362.343 391.616 363.702 392.942 363.396 393.901Z" fill="white"/>
<path d="M358.139 396.211C357.834 397.17 356.501 396.051 354.519 395.375C352.537 394.699 350.657 394.721 350.962 393.763C351.268 392.804 353.122 392.575 355.104 393.251C357.086 393.927 358.445 395.252 358.139 396.211Z" fill="white"/>
<mask id="mask16_266_4079" style="mask-type:luminance" maskUnits="userSpaceOnUse" x="355" y="178" width="89" height="194">
<path d="M431.749 179.37L390.277 178.473V179.207L360.778 178.473C345.103 250.874 366.29 371.495 366.29 371.495H387.002C384.7 282.581 392.181 218.937 392.181 218.937L393.121 218.918L396.779 218.844C396.779 218.844 400.094 261.484 416.931 371.495L439.478 371.296C439.479 371.296 452.591 201.031 431.749 179.37Z" fill="white"/>
</mask>
<g mask="url(#mask16_266_4079)">
<path d="M431.749 179.37L390.277 178.473V179.207L360.778 178.473C345.103 250.874 366.29 371.495 366.29 371.495H387.002C384.7 282.581 392.181 218.937 392.181 218.937L393.121 218.918L396.779 218.844C396.779 218.844 400.094 261.484 416.931 371.495L439.478 371.296C439.478 371.296 452.591 201.031 431.749 179.37Z" fill="#404156"/>
</g>
<mask id="mask17_266_4079" style="mask-type:luminance" maskUnits="userSpaceOnUse" x="355" y="178" width="89" height="194">
<path d="M431.749 179.37L390.277 178.473V179.207L360.778 178.473C345.103 250.874 366.29 371.495 366.29 371.495H387.002C384.7 282.581 392.181 218.937 392.181 218.937L393.121 218.918L396.779 218.844C396.779 218.844 400.094 261.484 416.931 371.495L439.478 371.296C439.479 371.296 452.591 201.031 431.749 179.37Z" fill="white"/>
</mask>
<g mask="url(#mask17_266_4079)">
<path d="M428.315 178.472C428.315 178.472 434.223 334.675 432.185 373.018" stroke="#8A8B96" stroke-width="1.16335" stroke-miterlimit="10"/>
</g>
<mask id="mask18_266_4079" style="mask-type:luminance" maskUnits="userSpaceOnUse" x="355" y="178" width="89" height="194">
<path d="M431.749 179.37L390.277 178.473V179.207L360.778 178.473C345.103 250.874 366.29 371.495 366.29 371.495H387.002C384.7 282.581 392.181 218.937 392.181 218.937L393.121 218.918L396.779 218.844C396.779 218.844 400.094 261.484 416.931 371.495L439.478 371.296C439.479 371.296 452.591 201.031 431.749 179.37Z" fill="white"/>
</mask>
<g mask="url(#mask18_266_4079)">
<path d="M368.677 177.335C368.677 177.335 361.509 288.38 368.677 340.858C375.844 393.335 375.844 393.335 375.844 393.335" stroke="#8A8B96" stroke-width="1.16335" stroke-miterlimit="10"/>
</g>
<path d="M423.013 187.961C426.243 185.268 429.224 182.577 432.186 179.884C432.041 179.714 431.899 179.525 431.751 179.37L390.278 178.473V179.207L360.779 178.473C360.529 179.625 360.29 180.79 360.059 181.967C376.516 197.491 404.783 202.773 423.013 187.961Z" fill="#2B2C3F"/>
<path d="M413.476 48.4949C410.927 52.5279 410.567 59.0288 413.872 61.1184C417.176 63.2069 422.895 60.093 425.444 56.06C427.994 52.027 427.381 47.0642 424.077 44.9746C420.772 42.8861 416.026 44.4619 413.476 48.4949Z" fill="#FD9697"/>
<path d="M381.255 49.4806C384.084 53.3233 384.905 59.7823 381.756 62.0998C378.608 64.4172 372.683 61.7171 369.854 57.8744C367.025 54.0316 367.284 49.0388 370.432 46.7202C373.581 44.4028 378.426 45.6378 381.255 49.4806Z" fill="#FD9697"/>
<path d="M423.239 94.9431C403.474 88.7829 408.865 68.3761 408.865 68.3761L399.752 67.2646V67.0927L399.046 67.1786L398.339 67.0927V67.2646L389.227 68.3761C389.227 68.3761 394.617 88.7829 374.852 94.9431C355.087 101.103 350.595 107.263 349.055 131.65H449.035C447.496 107.263 443.004 101.103 423.239 94.9431Z" fill="#FD9697"/>
<path d="M423.238 94.943C422.228 94.6281 421.299 94.2669 420.416 93.8821C406.673 101.996 388.001 102.949 374.467 95.0655C355.035 101.186 350.585 107.426 349.055 131.648H449.035C447.495 107.263 443.003 101.103 423.238 94.943Z" fill="white"/>
<path d="M425.553 95.6923C409.555 109.363 385.891 113.241 369.918 96.6124C354.322 102.354 350.457 109.448 349.055 131.649H449.035C447.558 108.249 443.353 101.632 425.553 95.6923Z" fill="#D8D8D8"/>
<path d="M449.037 131.648C447.496 107.263 443.004 101.103 423.239 94.9419C421.698 94.4614 420.309 93.8939 419.06 93.2565C412.94 101.511 402.329 113.775 395.688 113.531C391.92 113.949 379.232 98.9975 376.251 94.4636C375.799 94.6302 375.337 94.7914 374.855 94.9419C355.09 101.102 347.575 111.264 346.035 135.649C346.035 135.649 348.311 133.801 353.629 132.402C358.063 131.235 362.946 132.077 362.946 132.077L359.333 180.36C359.333 180.36 373.433 187.701 395.38 187.621C423.209 187.52 433.605 180.36 433.605 180.36L431.142 132.193L449.037 131.648Z" fill="#FE7966"/>
<path d="M408.22 73.2142C408.347 70.3313 408.863 68.3761 408.863 68.3761L399.75 67.2646V67.0927L399.044 67.1786L398.338 67.0927V67.2646L389.225 68.3761C389.225 68.3761 390.105 71.7093 389.849 76.0884C391.851 80.1698 399.045 85.8301 408.22 73.2142Z" fill="#DD5152"/>
<path d="M376.617 30.6743C376.478 31.0817 372.093 58.8773 382.297 69.1769C392.501 79.4765 410.147 73.3797 414.447 62.8243C418.157 53.7135 418.874 36.5464 411.655 26.0533C404.435 15.5624 383.739 9.78701 376.617 30.6743Z" fill="#FD9697"/>
<path opacity="0.3" d="M391.602 37.8868C399.693 37.0785 408.344 38.5156 415.994 36.3379C415.112 32.5962 413.717 29.0501 411.655 26.0544C404.436 15.5624 383.74 9.78699 376.617 30.6753C376.569 30.8129 376.035 34.1032 375.746 38.7886C380.012 38.1963 388.108 37.3472 388.108 37.3472C388.108 37.3472 389.628 35.206 390.438 34.3977C390.871 35.4296 391.057 36.0681 391.602 37.8868Z" fill="#DD5152"/>
<path opacity="0.3" d="M376.982 58.4001C377.994 62.6459 379.649 66.5037 382.299 69.1769C392.502 79.4765 410.149 73.3797 414.449 62.8243C415.453 60.3585 416.234 57.3015 416.699 53.9479C416.244 69.4166 387.408 83.6794 376.982 58.4001Z" fill="#DD5152"/>
<path d="M389.366 38.2394C389.782 42.8303 390.197 47.4201 390.613 52.0109C390.674 52.6763 390.734 53.3416 390.794 54.007C390.804 54.1123 390.866 54.2295 390.981 54.2521C391.983 54.4477 392.986 54.6433 393.987 54.839C394.307 54.9013 394.444 54.4112 394.123 54.3488C393.121 54.1532 392.118 53.9576 391.116 53.7619C391.179 53.8436 391.241 53.9253 391.303 54.007C390.887 49.4161 390.472 44.8264 390.057 40.2355C389.996 39.5702 389.936 38.9048 389.876 38.2394C389.846 37.9159 389.337 37.9137 389.366 38.2394Z" fill="#DD5152"/>
<path d="M421.466 49.9385C420.807 49.9783 420.126 50.1965 419.555 50.5211C419.051 50.807 418.611 51.2123 418.319 51.7153C417.953 52.342 417.833 53.089 417.884 53.8071C417.928 54.4283 418.112 55.1001 418.61 55.5151C419.004 55.844 419.506 55.9536 420.007 55.8698C420.506 55.787 420.98 55.5022 421.305 55.1184C421.669 54.6885 421.941 54.0736 421.774 53.505C421.584 52.8558 420.91 52.5462 420.281 52.5043C419.57 52.457 418.824 52.7472 418.375 53.3094C418.172 53.5631 418.53 53.9253 418.735 53.6695C419.068 53.2524 419.567 53.0202 420.1 53.0095C420.509 53.002 421.019 53.1234 421.231 53.5125C421.439 53.8973 421.233 54.3864 420.989 54.7046C420.745 55.0249 420.388 55.2614 419.997 55.3538C419.647 55.4366 419.264 55.3882 418.968 55.155C418.577 54.8454 418.432 54.309 418.394 53.8329C418.304 52.6881 418.717 51.6218 419.718 51.0134C420.093 50.7855 420.505 50.6318 420.932 50.534C421.009 50.5157 421.088 50.4996 421.166 50.4856C421.2 50.4792 421.235 50.4738 421.27 50.4684C421.292 50.4652 421.384 50.4534 421.298 50.4641C421.354 50.4566 421.409 50.4502 421.465 50.4469C421.792 50.4276 421.794 49.9192 421.466 49.9385Z" fill="#DD5152"/>
<path d="M371.964 51.7831C372.005 51.7853 372.047 51.7906 372.089 51.796C372.162 51.8035 372.081 51.7939 372.108 51.7982C372.133 51.8025 372.159 51.8057 372.185 51.81C372.254 51.8207 372.323 51.8336 372.39 51.8476C372.749 51.9228 373.104 52.0346 373.433 52.198C374.393 52.6763 374.989 53.5459 375.042 54.6262C375.086 55.5377 374.795 56.7674 373.694 56.7265C373.319 56.7126 372.934 56.5331 372.65 56.2686C372.343 55.9816 372.058 55.5216 372.12 55.083C372.189 54.6004 372.715 54.3768 373.148 54.3489C373.742 54.3102 374.321 54.5359 374.695 55.0046C374.899 55.2604 375.257 54.8981 375.055 54.6445C374.337 53.7459 372.584 53.4449 371.833 54.4779C371.115 55.4678 372.137 56.7641 373.08 57.1135C373.548 57.2865 374.082 57.2779 374.528 57.0479C375.037 56.7856 375.339 56.2525 375.463 55.7118C375.776 54.3521 375.348 52.9031 374.209 52.0712C373.577 51.6101 372.747 51.3209 371.964 51.2736C371.637 51.2543 371.638 51.7627 371.964 51.7831Z" fill="#DD5152"/>
<path d="M378.362 56.5673C378.33 58.242 379.984 59.6308 382.057 59.6706C384.131 59.7103 385.837 58.385 385.869 56.7114C385.901 55.0367 384.247 53.6479 382.173 53.6082C380.1 53.5684 378.394 54.8927 378.362 56.5673Z" fill="#DD5152"/>
<path d="M402.272 56.5673C402.24 58.2419 403.894 59.6307 405.967 59.6705C408.041 59.7102 409.747 58.3849 409.779 56.7113C409.811 55.0366 408.157 53.6479 406.083 53.6081C404.01 53.5673 402.303 54.8926 402.272 56.5673Z" fill="#DD5152"/>
<path d="M407.213 42.5165C407.049 43.3785 405.419 42.9486 403.383 42.5595C401.346 42.1704 399.674 41.9683 399.838 41.1073C400.003 40.2452 401.787 39.8626 403.824 40.2517C405.861 40.6408 407.378 41.6544 407.213 42.5165Z" fill="#010C39"/>
<path d="M387.372 40.9309C387.664 41.7585 386.04 42.2078 384.085 42.8979C382.13 43.588 380.584 44.2566 380.292 43.43C379.999 42.6023 381.348 41.3726 383.303 40.6826C385.258 39.9925 387.08 40.1032 387.372 40.9309Z" fill="#010C39"/>
<path d="M430.598 135.851C430.598 135.851 444.252 138.039 453.484 125.946C453.484 125.946 439.589 124.455 430.598 135.851Z" fill="#C9600A"/>
<path d="M432.234 130.274L436.08 156.333L447.524 166.911C447.524 166.911 453.486 167.969 450.889 144.89C449.461 132.194 447.043 117.099 447.043 117.099L432.234 130.274Z" fill="#FD9697"/>
<path d="M449.408 133.15C449.347 132.702 449.356 132.974 449.224 131.803C448.097 123.679 447.043 117.099 447.043 117.099L432.234 130.272L433.46 138.571C437.739 134.949 443.282 132.793 449.408 133.15Z" fill="#DD5152"/>
<path d="M426.559 113.541L430.597 135.85C430.597 135.85 442.233 128.638 453.484 125.945C453.484 125.945 444.829 94.0196 426.559 96.0383V113.541Z" fill="#FE7966"/>
<path d="M385.699 50.6652C385.666 49.4967 386.301 48.5315 387.118 48.5078C387.935 48.4853 388.624 49.4129 388.657 50.5813C388.69 51.7497 388.053 52.715 387.237 52.7386C386.421 52.7612 385.732 51.8325 385.699 50.6652Z" fill="#010C39"/>
<path d="M400.357 50.2351C400.324 49.0667 400.96 48.1014 401.776 48.0778C402.592 48.0552 403.281 48.9829 403.314 50.1513C403.347 51.3197 402.711 52.2849 401.895 52.3086C401.079 52.3311 400.39 51.4024 400.357 50.2351Z" fill="#010C39"/>
<path d="M401.139 57.8496C399.008 61.9009 392.709 62.921 389.666 59.391C389.298 58.9654 388.907 58.3903 388.724 57.9055C388.619 57.6271 388.168 57.7475 388.274 58.0302C388.87 59.6157 390.321 60.9034 391.864 61.5182C394.676 62.6404 398.026 61.874 400.185 59.8016C400.702 59.305 401.206 58.7246 401.542 58.0861C401.682 57.8195 401.279 57.5831 401.139 57.8496Z" fill="#DD5152"/>
<path d="M375.326 31.0634C375.503 32.837 376.056 34.7696 377.217 36.7689L388.499 35.2845C388.499 35.2845 388.211 30.0079 390.437 27.0401C390.437 27.0401 390.19 34.2129 393.24 35.1201L409.646 34.4278L412.903 24.9387C412.903 24.9387 407.67 15.5818 396.375 14.7573C389.952 14.2887 384.782 16.6448 381.518 18.7656C377.379 21.4518 374.838 26.1555 375.326 31.0634Z" fill="#010C39"/>
<path d="M377.217 30.6677C377.217 30.6677 376.174 44.2802 377.934 48.7549C379.692 53.2297 377.604 53.6414 376.175 50.1931C374.747 46.7449 373.465 31.3009 375.563 26.5735L377.218 30.3657" fill="#010C39"/>
<path d="M410.472 26.9583C410.472 26.9583 416.208 33.4206 415.274 46.4171C415.274 46.4171 415.045 47.3963 415.455 47.8951C415.731 48.2326 416.432 48.6443 417.187 47.2566C417.32 47.0115 417.463 46.732 417.618 46.4171C419.926 41.6886 419.352 36.9613 418.127 34.0483C416.903 31.1354 411.846 24.155 411.846 24.155L410.472 26.9583Z" fill="#010C39"/>
<path d="M382.171 58.946C386.284 58.946 389.618 55.612 389.618 51.4992C389.618 47.3864 386.284 44.0524 382.171 44.0524C378.059 44.0524 374.725 47.3864 374.725 51.4992C374.725 55.612 378.059 58.946 382.171 58.946Z" stroke="white" stroke-width="0.581731" stroke-miterlimit="10"/>
<path d="M396.375 50.1932C396.375 54.3057 399.709 57.64 403.822 57.64C407.934 57.64 411.269 54.3057 411.269 50.1932C411.269 46.0807 407.934 42.7463 403.822 42.7463C399.709 42.7463 396.375 46.0807 396.375 50.1932Z" stroke="white" stroke-width="0.581731" stroke-miterlimit="10"/>
<path d="M389.543 50.4362C389.543 50.4362 391.059 46.8278 396.376 49.8364" stroke="white" stroke-width="0.581731" stroke-miterlimit="10"/>
<mask id="mask19_266_4079" style="mask-type:luminance" maskUnits="userSpaceOnUse" x="349" y="93" width="101" height="95">
<path d="M449.033 131.648C447.493 107.263 443.001 101.103 423.236 94.9419C421.695 94.4614 420.306 93.8939 419.057 93.2565C412.937 101.511 402.326 113.775 395.685 113.531C391.917 113.949 379.229 98.9975 376.248 94.4636C375.796 94.6302 375.334 94.7914 374.852 94.9419C355.087 101.102 350.595 107.262 349.055 131.648L362.944 132.077L359.331 180.36C359.331 180.36 373.431 187.701 395.378 187.621C423.207 187.52 433.603 180.36 433.603 180.36L431.14 132.193L449.033 131.648Z" fill="white"/>
</mask>
<g mask="url(#mask19_266_4079)">
<path d="M378.251 109.869C379.916 102.555 375.337 95.2765 368.023 93.6112C360.71 91.9459 353.431 96.5249 351.765 103.839C350.1 111.152 354.679 118.431 361.993 120.097C369.307 121.762 376.586 117.183 378.251 109.869Z" fill="#FFAD69"/>
<path d="M388.912 128.803C391.751 128.803 394.052 126.502 394.052 123.664C394.052 120.826 391.751 118.525 388.912 118.525C386.074 118.525 383.773 120.826 383.773 123.664C383.773 126.502 386.074 128.803 388.912 128.803Z" fill="#FFAD69"/>
<path d="M375.353 168.009C381.059 168.009 385.685 163.383 385.685 157.677C385.685 151.971 381.059 147.345 375.353 147.345C369.647 147.345 365.021 151.971 365.021 157.677C365.021 163.383 369.647 168.009 375.353 168.009Z" fill="#FFAD69"/>
<path d="M411.783 139.768C414.025 139.768 415.842 137.951 415.842 135.708C415.842 133.466 414.025 131.649 411.783 131.649C409.54 131.649 407.723 133.466 407.723 135.708C407.723 137.951 409.54 139.768 411.783 139.768Z" fill="#FFAD69"/>
<path d="M435.344 116.602C436.516 111.654 433.456 106.693 428.508 105.52C423.56 104.347 418.599 107.408 417.426 112.356C416.253 117.304 419.314 122.265 424.262 123.438C429.21 124.611 434.171 121.55 435.344 116.602Z" fill="#FFAD69"/>
<path d="M419.843 184.91C424.702 184.91 428.641 180.971 428.641 176.112C428.641 171.253 424.702 167.314 419.843 167.314C414.984 167.314 411.045 171.253 411.045 176.112C411.045 180.971 414.984 184.91 419.843 184.91Z" fill="#FFAD69"/>
<path d="M388.944 194.395C393.746 194.395 397.639 190.503 397.639 185.701C397.639 180.899 393.746 177.006 388.944 177.006C384.142 177.006 380.249 180.899 380.249 185.701C380.249 190.503 384.142 194.395 388.944 194.395Z" fill="#FFAD69"/>
</g>
<path d="M443.388 154.025C442.955 154.025 419.01 147.246 405.885 145.226V151.573C405.885 151.573 440.035 179.528 449.429 165.839L443.388 154.025Z" fill="#FD9697"/>
<path d="M399.089 162.045L387.523 164.186C386.3 164.413 385.124 163.605 384.897 162.38L379.79 134.791C379.563 133.568 380.372 132.392 381.596 132.165L393.162 130.024C394.385 129.797 395.561 130.606 395.788 131.83L400.894 159.419C401.121 160.643 400.313 161.819 399.089 162.045Z" fill="#294249"/>
<path d="M397.794 162.286L386.228 164.427C385.004 164.654 383.829 163.846 383.602 162.621L378.495 135.032C378.268 133.808 379.077 132.633 380.301 132.406L391.867 130.265C393.09 130.038 394.266 130.846 394.493 132.071L399.6 159.66C399.825 160.883 399.017 162.059 397.794 162.286Z" fill="#1A2E35"/>
<path d="M409.415 146.351C409.415 146.351 406.391 143.157 403.222 141.899C400.053 140.639 401.759 136.089 399.971 136.536C398.184 136.983 396.64 138.974 397.656 142.873C398.672 146.773 397.656 149.496 391.684 148.277C385.712 147.058 383.518 144.987 382.259 147.383C381 149.78 385.022 153.599 396.316 152.421C396.316 152.421 390.14 154.126 384.656 152.055C384.656 152.055 381.894 150.695 381.366 153.082C380.838 155.468 386.647 159.539 396.316 156.143C396.316 156.143 395.267 156.932 393.325 157.559C390.945 158.328 388.388 158.338 385.962 157.725C384.429 157.338 382.489 157.016 382.015 157.703C381.203 158.881 386.964 163.959 398.51 160.871C410.055 157.784 409.415 151.121 409.415 151.121V146.351Z" fill="#FD9697"/>
<path d="M396.863 192.174H391.828V215.093H396.863V192.174Z" fill="#2B2C3F"/>
<path d="M388.61 368.484L362.796 369.434L362.976 374.331L388.79 373.381L388.61 368.484Z" fill="#2B2C3F"/>
<path d="M440.831 368.979H414.999V373.879H440.831V368.979Z" fill="#2B2C3F"/>
</svg>
