<svg width="170" height="160" viewBox="0 0 170 160" fill="none" xmlns="http://www.w3.org/2000/svg">
<g clip-path="url(#clip0_221_1775)">
<path d="M80.0198 69.5761C79.1625 67.6822 79.4851 65.6994 80.7402 65.1475C81.9953 64.5955 83.7074 65.6834 84.5647 67.5781C84.918 68.3302 85.0786 69.1569 85.0329 69.9889L88.5599 78.0599L84.582 79.6566L81.5274 71.5305C80.8686 71.0081 80.3516 70.3379 80.0198 69.5761Z" fill="#FFAFAF"/>
<path d="M104.394 73.003C106.544 75.0305 106.41 78.4899 104.108 80.3442L92.8384 89.4246C91.6084 90.4157 89.783 90.0655 89.007 88.6897C86.0453 83.8948 85.487 83.6319 83.7656 78.7177L88.6199 77.0197L91.3569 80.4469L97.3326 73.3974C99.1386 71.2669 102.362 71.0868 104.394 73.003Z" fill="#6C63FF"/>
<path d="M60.8818 60.742V57.1689H25.476V60.742H60.8818Z" fill="#3E1CC3"/>
<path d="M150.533 60.742V57.1689H115.127V60.742H150.533Z" fill="#3E1CC3"/>
<path d="M45.0891 44.8281H39.0359C36.6883 44.8281 34.7852 46.7312 34.7852 49.0788V71.4332C34.7852 73.7808 36.6883 75.6839 39.0359 75.6839H45.0891C47.4367 75.6839 49.3398 73.7808 49.3398 71.4332V49.0788C49.3398 46.7312 47.4367 44.8281 45.0891 44.8281Z" fill="#3F3D56"/>
<path d="M140.567 44.8281H134.513C132.166 44.8281 130.263 46.7312 130.263 49.0788V71.4332C130.263 73.7808 132.166 75.6839 134.513 75.6839H140.567C142.914 75.6839 144.817 73.7808 144.817 71.4332V49.0788C144.817 46.7312 142.914 44.8281 140.567 44.8281Z" fill="#3F3D56"/>
<path d="M136.73 68.1156H44.2853C41.0713 68.1156 38.3212 65.8204 37.7463 62.6585L34.211 43.2141C32.6735 34.758 35.8592 26.1426 42.5264 20.7213L49.4974 5.72292C51.1133 2.2463 54.6346 0 58.4684 0H110.543C113.311 0 115.971 1.17119 117.84 3.21339L130.65 17.2088C140.021 23.5239 145.338 34.4458 144.527 45.718L143.359 61.9464C143.11 65.4057 140.199 68.1156 136.73 68.1156Z" fill="#3E1CC3"/>
<path d="M120.953 19.3577H51.1097C49.8967 19.3577 48.7774 18.7507 48.1155 17.7345C47.4537 16.7179 47.3514 15.4487 47.8421 14.3394L51.5234 6.01631C52.0837 4.7496 53.3404 3.9147 54.7249 3.8894L114.264 3.96189C115.398 3.9545 116.48 4.46477 117.168 5.36277L123.79 13.6134C124.623 14.701 124.763 16.1392 124.156 17.3672C123.55 18.595 122.322 19.3577 120.953 19.3577Z" fill="white"/>
<path d="M131.427 41.335C134.803 41.335 137.54 38.5982 137.54 35.2221C137.54 31.846 134.803 29.1091 131.427 29.1091C128.051 29.1091 125.314 31.846 125.314 35.2221C125.314 38.5982 128.051 41.335 131.427 41.335Z" fill="white"/>
<path d="M51.0856 41.335C54.4617 41.335 57.1985 38.5982 57.1985 35.2221C57.1985 31.846 54.4617 29.1091 51.0856 29.1091C47.7095 29.1091 44.9727 31.846 44.9727 35.2221C44.9727 38.5982 47.7095 41.335 51.0856 41.335Z" fill="white"/>
<path d="M125.46 58.073H58.7998V57.9274C58.7998 54.4764 61.6073 51.6689 65.0583 51.6689H119.201C122.652 51.6689 125.46 54.4764 125.46 57.9274V58.073Z" fill="#3F3D56"/>
<path d="M43.5062 22.0032C43.1454 22.0032 42.784 21.8884 42.4805 21.6564L40.0399 19.7905C39.7975 19.6051 39.496 19.5031 39.1907 19.5031H33.8608C33.2509 19.5031 32.7044 19.1881 32.3989 18.6602C32.0934 18.1326 32.0922 17.5018 32.3958 16.9731L33.697 14.7063C33.9569 14.2535 34.4211 13.9419 34.9387 13.8728L41.6072 12.9836C42.4384 12.8733 43.2122 13.3756 43.45 14.1784L45.126 19.8348C45.3106 20.4577 45.1171 21.1399 44.6329 21.5734C44.3139 21.8588 43.9105 22.0032 43.5062 22.0032Z" fill="#3E1CC3"/>
<path d="M129.984 20.839C129.579 20.839 129.176 20.6946 128.857 20.4092C128.373 19.9757 128.179 19.2934 128.364 18.6706L130.04 13.0142C130.278 12.2108 131.053 11.7068 131.883 11.8197L138.551 12.7086C139.069 12.7777 139.533 13.0892 139.793 13.5421L141.094 15.8088C141.398 16.3376 141.396 16.9684 141.091 17.496C140.785 18.0239 140.239 18.3389 139.629 18.3389H134.299C133.994 18.3389 133.692 18.4409 133.45 18.6262L131.009 20.4922C130.706 20.7242 130.344 20.839 129.984 20.839Z" fill="#3E1CC3"/>
<path d="M29.0487 11.0439H25.4756V157.54H29.0487V11.0439Z" fill="#3E1CC3"/>
<path d="M152.482 11.0439H148.909V157.54H152.482V11.0439Z" fill="#3E1CC3"/>
<path d="M0 157.682C0 157.794 0.0894273 157.883 0.20079 157.883H169.698C169.809 157.883 169.899 157.794 169.899 157.682C169.899 157.571 169.809 157.481 169.698 157.481H0.20079C0.0894273 157.481 0 157.571 0 157.682Z" fill="#3F3D56"/>
<path d="M111.915 146.601V153.236L116.932 153.398L116.723 146.601H111.915Z" fill="#FFAFAF"/>
<path d="M110.922 150.293C110.854 150.293 110.788 150.302 110.723 150.32C109.818 150.579 104.577 155.258 102.992 156.686C102.796 156.862 102.692 157.114 102.706 157.377C102.721 157.639 102.851 157.877 103.063 158.03C104.265 158.895 106.728 160.265 109.715 159.711C111.089 159.457 112.476 159.297 113.7 159.156C116.319 158.853 118.389 158.614 118.389 157.687C118.389 156.114 117.956 151.967 117.413 151.793C117.363 151.778 117.306 151.816 117.241 151.908C116.41 153.071 113.556 152.452 113.435 152.425L113.403 152.418L113.385 152.391C113.37 152.369 111.973 150.293 110.922 150.293Z" fill="#2F2E41"/>
<path d="M102.528 146.601V153.236L107.545 153.398L107.336 146.601H102.528Z" fill="#FFAFAF"/>
<path d="M100.506 99.0999L97.8351 101.123L97.3496 123.943L101.881 148.866L107.788 149.109L107.95 125.318L115.557 103.631L114.019 98.5334L100.506 99.0999Z" fill="#2F2E41"/>
<path d="M112.967 102.984L115.557 103.631L117.418 148.866L110.702 148.3L106.251 116.336L112.967 102.984Z" fill="#2F2E41"/>
<path d="M98.946 160C96.6437 160 94.773 158.982 93.774 158.296C93.4721 158.089 93.2853 157.76 93.2614 157.393C93.2372 157.023 93.3814 156.669 93.6569 156.422C96.1365 154.191 100.426 150.412 101.292 150.164C102.414 149.843 103.92 151.989 104.114 152.274C104.428 152.338 106.997 152.829 107.722 151.813C107.86 151.62 107.99 151.611 108.075 151.638C108.85 151.887 109.164 156.874 109.164 157.687C109.164 158.758 107.137 158.992 104.332 159.316C103.111 159.457 101.727 159.617 100.358 159.87C99.8726 159.96 99.4008 160 98.946 160Z" fill="#2F2E41"/>
<path d="M106.054 69.543L107.898 73.2567L100.931 76.6216L101.016 70.668L106.054 69.543Z" fill="#FFAFAF"/>
<path d="M100.955 72.3523C104.417 72.3523 107.224 69.5455 107.224 66.0831C107.224 62.6208 104.417 59.814 100.955 59.814C97.4924 59.814 94.6855 62.6208 94.6855 66.0831C94.6855 69.5455 97.4924 72.3523 100.955 72.3523Z" fill="#FFAFAF"/>
<path d="M100.913 75.1737L107.341 71.3752C112.055 74.6816 115.982 75.4552 116.106 81.2123L115.238 94.9452L115.288 100.86C115.31 103.342 113.303 105.367 110.82 105.367H101.641C99.2118 105.367 97.402 103.125 97.9135 100.751L99.6464 92.7051L97.7959 77.0242L100.913 75.1737Z" fill="#6C63FF"/>
<path d="M107.402 69.2374L106.243 70.0678C106.243 70.0678 105.902 66.4487 105.431 66.2881C104.961 66.1275 104.326 66.9616 104.326 66.9616L103.862 68.3203L102.329 67.6812C102.329 67.6812 100.553 66.725 99.926 66.5109C99.2986 66.2967 99.3937 64.4785 99.3937 64.4785C99.3937 64.4785 91.8611 65.5098 92.9928 61.1674C92.9928 61.1674 93.3825 57.9728 94.2166 58.6077C95.0508 59.2427 95.062 57.6703 95.062 57.6703L96.9519 57.2644C96.9519 57.2644 99.5452 53.7711 104.661 56.7428C109.776 59.7146 107.402 69.2374 107.402 69.2374Z" fill="#2F2E41"/>
<path d="M94.3188 83.1142L92.6252 82.8562C92.1524 82.7842 91.8244 82.3383 91.8964 81.8654L92.1034 80.5068C91.4887 80.8867 91.0376 81.5225 90.9202 82.2928C90.7392 83.4813 91.4106 84.6005 92.4762 85.0363L90.9944 94.7632C90.9907 94.7876 90.9915 94.8115 90.9908 94.8356C89.8405 94.9312 88.8623 95.801 88.6808 96.9921C88.5745 97.6903 88.762 98.3653 89.1506 98.8919L89.337 97.6682C89.4091 97.1953 89.855 96.8673 90.3279 96.9394L92.0214 97.1974C92.4943 97.2694 92.8223 97.7153 92.7503 98.1882L92.5433 99.5468C93.158 99.1669 93.6091 98.5311 93.7265 97.7608C93.9079 96.5697 93.2331 95.4481 92.1635 95.0143C92.17 94.9911 92.1779 94.9685 92.1816 94.9441L93.6635 85.2172C94.8105 85.1185 95.7848 84.2499 95.9659 83.0615C96.0722 82.3633 95.8847 81.6883 95.4961 81.1617L95.3096 82.3854C95.2376 82.8583 94.7917 83.1863 94.3188 83.1142Z" fill="#3F3D56"/>
<path d="M91.1636 91.5775C89.1312 91.1399 87.7294 89.701 88.0324 88.3638C88.3354 87.0266 90.2284 86.2977 92.2614 86.7357C93.0761 86.8991 93.836 87.2619 94.4777 87.7935L103.063 89.76L101.98 93.9073L93.6314 91.5284C92.8195 91.7471 91.9733 91.764 91.1636 91.5775Z" fill="#FFAFAF"/>
<path d="M108.419 74.0237C111.328 73.5015 114.029 75.6678 114.15 78.6208L114.744 93.0815C114.809 94.6597 113.442 95.9187 111.874 95.724C106.258 95.2521 106.653 95.8273 101.679 94.2874L102.012 89.0017L106.647 88.9314L104.535 79.9344C103.897 77.2153 105.67 74.5172 108.419 74.0237Z" fill="#6C63FF"/>
</g>
<defs>
<clipPath id="clip0_221_1775">
<rect width="169.899" height="160" fill="white"/>
</clipPath>
</defs>
</svg>
