<svg width="237" height="164" viewBox="0 0 237 164" fill="none" xmlns="http://www.w3.org/2000/svg">
<path d="M54.3588 39.8198L55.6721 39.8831L55.6723 39.8831C55.7699 39.8876 55.8655 39.8677 55.9379 39.8023C56.0106 39.7366 56.0395 39.6435 56.0437 39.5461L56.0437 39.5459L56.0864 38.5318L56.0864 38.5316C56.0903 38.4339 56.0691 38.3389 56.0026 38.2672C55.9364 38.1956 55.8433 38.1667 55.7456 38.1619L55.7454 38.1619L51.2922 37.9474L51.2919 37.9474C51.1945 37.9429 51.0989 37.9625 51.0264 38.028C50.9536 38.0937 50.9249 38.187 50.921 38.2846L50.921 38.2845L51.0359 38.2894L50.921 38.2848L54.3588 39.8198ZM54.3588 39.8198L53.895 50.8828L55.2096 50.9462L55.2098 50.9462C55.3073 50.951 55.4005 50.9797 55.4668 51.0513C55.5334 51.1232 55.5543 51.2184 55.5501 51.3163M54.3588 39.8198L50.6828 52.4524L55.1353 52.6668C55.1354 52.6668 55.1355 52.6668 55.1356 52.6669L55.1358 52.6669L55.1413 52.552C55.3017 52.5604 55.3857 52.4842 55.3925 52.3249L55.4352 51.3113M50.8783 39.2981L50.8783 39.2981L50.9932 39.3029L50.8783 39.298L50.8783 39.2981ZM50.8783 39.2981C50.8741 39.3959 50.8951 39.4912 50.9616 39.5631C51.0279 39.6348 51.1211 39.6636 51.2189 39.6681L51.2187 39.668L51.2243 39.5532L51.219 39.6681L50.8783 39.2981ZM52.5148 39.7309L52.0505 50.794M52.5148 39.7309L50.6825 52.4524C50.5845 52.4478 50.4913 52.4191 50.425 52.3474C50.3585 52.2755 50.3376 52.1803 50.3415 52.0827L50.3415 52.0824L50.3842 51.0689L50.3842 51.0687C50.3884 50.9713 50.417 50.878 50.4898 50.8122C50.5623 50.7465 50.6582 50.7269 50.756 50.7317M52.5148 39.7309L52.6289 39.7364L52.6345 39.6215M52.5148 39.7309L52.5196 39.6167L52.6345 39.6215M52.0505 50.794L50.756 50.7317M52.0505 50.794L52.0456 50.9089L52.6345 39.6215M52.0505 50.794L52.1653 50.7995L52.6345 39.6215M50.756 50.7317L50.7559 50.7317L50.7503 50.8466L50.756 50.7317ZM55.4352 51.3113L55.5501 51.3163M55.4352 51.3113C55.4421 51.152 55.3646 51.069 55.2041 51.0611L55.5501 51.3163M55.4352 51.3113L55.5501 51.3161L55.5501 51.3163" fill="#FFD0A4" stroke="#FFD0A4" stroke-width="0.23"/>
<path d="M91.7401 64.2555L91.74 64.2554C91.661 64.1954 91.5998 64.1197 91.5812 64.0251C91.5622 63.9292 91.5916 63.8374 91.6454 63.7557L91.6455 63.7555L92.1931 62.9275C92.2463 62.847 92.32 62.7821 92.4188 62.7683C92.5156 62.7547 92.6061 62.7946 92.6841 62.8535L92.6843 62.8536L93.7386 63.6537L99.709 54.6207L98.643 53.8118C98.643 53.8117 98.6429 53.8117 98.6429 53.8117C98.5637 53.7519 98.5025 53.6761 98.4839 53.5816C98.4649 53.4857 98.4942 53.3938 98.5481 53.3123C98.5482 53.3122 98.5482 53.3122 98.5482 53.3122L99.0957 52.4837L99.0957 52.4837C99.149 52.4032 99.2227 52.3383 99.3216 52.3245C99.4185 52.311 99.509 52.3511 99.587 52.4103C99.587 52.4103 99.587 52.4103 99.587 52.4103L103.225 55.1708C103.304 55.2307 103.365 55.3065 103.384 55.4009C103.403 55.4966 103.374 55.5884 103.32 55.67L103.32 55.6702L102.772 56.4987L102.772 56.4988C102.719 56.5794 102.645 56.6442 102.546 56.658C102.45 56.6716 102.359 56.6318 102.281 56.5727L102.281 56.5727L101.212 55.761L95.2411 64.794L96.3226 65.6147C96.4015 65.6745 96.4626 65.7502 96.4813 65.8447C96.5003 65.9406 96.4713 66.0325 96.4173 66.1144L96.4172 66.1146L95.8696 66.9426C95.8162 67.0233 95.7422 67.0881 95.6433 67.1018C95.5464 67.1153 95.4558 67.0753 95.3779 67.016L91.7401 64.2555ZM91.7401 64.2555L95.3777 67.0158L91.7401 64.2555Z" fill="#FFD0A4" stroke="#FFD0A4" stroke-width="0.23"/>
<path d="M107.207 60.9452L100.761 69.5939L101.797 70.4802C101.872 70.5447 101.929 70.6239 101.942 70.7192C101.956 70.816 101.922 70.9061 101.864 70.9846L101.273 71.7771C101.215 71.8546 101.137 71.9151 101.038 71.9229C100.94 71.9306 100.852 71.8851 100.778 71.8216M107.207 60.9452L100.853 71.7342M107.207 60.9452L108.231 61.8214L108.231 61.8215L107.207 60.9452ZM100.778 71.8216L100.853 71.7342M100.778 71.8216L100.778 71.8216L100.853 71.7342M100.778 71.8216L97.2945 68.8408L97.2944 68.8407C97.2191 68.7761 97.1624 68.697 97.1488 68.6018C97.135 68.5049 97.1691 68.4149 97.2276 68.3366M100.853 71.7342L97.3693 68.7534C97.2437 68.6457 97.227 68.5295 97.3197 68.4054M97.2276 68.3366L97.2275 68.3367L97.3197 68.4054M97.2276 68.3366L97.3197 68.4054M97.2276 68.3366L97.8188 67.5434L97.8189 67.5433C97.8766 67.4661 97.9539 67.4058 98.0535 67.3981C98.1508 67.3906 98.2387 67.4359 98.3132 67.4993L98.3135 67.4995L99.3231 68.3637M97.3197 68.4054L97.911 67.6121C98.0037 67.488 98.1126 67.4796 98.2387 67.5869L99.2542 68.4561L99.3231 68.3637M99.3231 68.3637L99.4106 68.4386L104.68 58.3371C104.622 58.4154 104.588 58.5054 104.602 58.6022C104.615 58.6973 104.672 58.7765 104.747 58.8411L104.747 58.8412L105.769 59.715L99.3231 68.3637ZM105.271 57.5444L104.68 58.337L109.25 60.4806L105.766 57.5004L105.766 57.5004C105.692 57.4368 105.604 57.3911 105.506 57.3986C105.406 57.4063 105.329 57.467 105.271 57.5444ZM109.317 60.9849C109.375 60.9065 109.41 60.8164 109.396 60.7195C109.382 60.6243 109.325 60.5451 109.25 60.4807L109.317 60.9849Z" fill="#FFD0A4" stroke="#FFD0A4" stroke-width="0.23"/>
<path d="M131.019 93.756L131.59 95.0269L131.59 95.027C131.63 95.1171 131.69 95.1964 131.778 95.2341C131.871 95.2733 131.967 95.2555 132.053 95.2114L132.053 95.2113L132.907 94.7713L132.907 94.7713C132.993 94.7268 133.062 94.6598 133.089 94.5651C133.115 94.4733 133.096 94.3771 133.055 94.2856L133.055 94.2855L131.123 89.9811C131.083 89.8905 131.024 89.8108 130.935 89.7731C130.842 89.7338 130.746 89.7519 130.66 89.7959L130.66 89.796L129.807 90.236C129.72 90.2804 129.652 90.3474 129.624 90.4423C129.598 90.5342 129.617 90.6303 129.658 90.7217L129.658 90.7218L130.226 91.9855L120.922 96.7792L120.36 95.5267L120.36 95.5267C120.32 95.4364 120.26 95.3569 120.171 95.3193C120.079 95.2801 119.983 95.2981 119.897 95.3422L119.897 95.3423L119.044 95.7822L131.019 93.756ZM131.019 93.756L121.716 98.5496L122.291 99.8313L122.291 99.8314C122.332 99.9227 122.352 100.019 122.325 100.111C122.298 100.206 122.229 100.273 122.143 100.317L121.29 100.757C121.29 100.757 121.29 100.757 121.29 100.757C121.204 100.802 121.108 100.82 121.015 100.781C120.926 100.743 120.867 100.663 120.827 100.573L131.019 93.756ZM118.895 96.2681L120.827 100.573L119.044 95.7823C118.957 95.8268 118.888 95.8936 118.861 95.9884C118.835 96.0803 118.854 96.1765 118.895 96.268L118.895 96.2681Z" fill="#FFD0A4" stroke="#FFD0A4" stroke-width="0.23"/>
<path d="M134.298 102.225L134.736 103.556C134.736 103.556 134.736 103.556 134.736 103.556C134.767 103.65 134.818 103.736 134.901 103.783C134.989 103.833 135.086 103.826 135.177 103.792L135.177 103.792L136.07 103.454L136.07 103.454C136.16 103.419 136.236 103.36 136.273 103.269C136.308 103.18 136.299 103.082 136.268 102.987L136.268 102.987L134.783 98.4829L134.783 98.4828L134.298 102.225ZM134.298 102.225L124.564 105.907L134.298 102.225ZM123.522 102.743C123.491 102.649 123.44 102.563 123.356 102.516C123.269 102.466 123.171 102.473 123.081 102.507L123.081 102.507L122.188 102.845L122.188 102.845C122.097 102.88 122.022 102.939 121.985 103.031C121.949 103.119 121.959 103.217 121.99 103.312L121.99 103.312L123.474 107.816L123.474 107.816L123.583 107.78L123.522 102.743Z" fill="#FFD0A4" stroke="#FFD0A4" stroke-width="0.23"/>
<path d="M124.954 115.347L124.954 115.347L123.948 110.694C123.948 110.694 123.948 110.694 123.948 110.694C123.926 110.595 123.927 110.497 123.972 110.412C124.018 110.325 124.101 110.275 124.195 110.252L124.195 110.252L124.222 110.363L124.195 110.252L124.954 115.347ZM124.954 115.347C124.976 115.444 125.017 115.534 125.094 115.59C125.175 115.649 125.272 115.655 125.366 115.632L125.367 115.632L126.29 115.403L126.29 115.403C126.384 115.379 126.466 115.329 126.513 115.241C126.557 115.157 126.558 115.059 126.537 114.961L126.537 114.961L126.237 113.577L124.954 115.347ZM125.117 110.022L125.145 110.134L125.118 110.022L125.117 110.022ZM125.117 110.022C125.211 109.999 125.308 110.004 125.39 110.063C125.467 110.12 125.509 110.21 125.53 110.308M125.117 110.022L125.53 110.308M125.53 110.308L125.417 110.332L125.53 110.308L125.53 110.308ZM125.712 111.693L125.736 111.806L125.848 111.778L125.823 111.666L125.712 111.693ZM136.403 111.051L136.379 110.938L136.267 110.966L136.291 111.079L136.403 111.051ZM136.702 112.431L136.59 112.455C136.59 112.455 136.59 112.455 136.59 112.455L136.59 112.455L136.702 112.431ZM137.051 107.441L137.164 107.416L137.051 107.441ZM135.878 109.167L135.901 109.276L136.014 109.251L135.986 109.14L135.878 109.167ZM135.829 107.361L135.829 107.361L135.857 107.472L135.829 107.361C135.829 107.361 135.829 107.361 135.829 107.361ZM136.752 107.131L136.78 107.243L136.752 107.131L136.752 107.131Z" fill="#FFD0A4" stroke="#FFD0A4" stroke-width="0.23"/>
<path d="M125.6 145.262L125.6 145.262L126.444 140.573C126.444 140.573 126.444 140.573 126.444 140.573L126.444 140.573L126.557 140.593C126.587 140.423 126.676 140.354 126.821 140.384L125.6 145.262ZM125.6 145.262C125.582 145.361 125.586 145.46 125.634 145.542C125.684 145.628 125.768 145.675 125.863 145.695L125.6 145.262Z" fill="#FFD0A4" stroke="#FFD0A4" stroke-width="0.23"/>
<path d="M122.727 155.546L122.727 155.546L136.638 151.915C136.496 151.868 136.401 151.926 136.353 152.091L136.243 152.059L136.243 152.059L135.913 153.199L124.013 154.065C123.717 154.08 123.477 154.135 123.31 154.242C123.134 154.354 123.015 154.55 122.942 154.805L122.942 154.805L122.727 155.546ZM133.367 166.618L133.403 166.509L132.246 165.859C132.218 165.955 132.212 166.053 132.251 166.14C132.291 166.23 132.369 166.287 132.461 166.317L132.462 166.317L133.367 166.618L133.367 166.618ZM132.588 164.676L132.246 165.859L132.588 164.676Z" fill="#FFD0A4" stroke="#FFD0A4" stroke-width="0.23"/>
<path d="M13.4192 63.7808L13.4192 63.7808L9.68625 66.4288C9.68623 66.4288 9.68622 66.4289 9.68621 66.4289C9.60977 66.4831 9.52004 66.5171 9.42518 66.4964C9.33128 66.4759 9.26276 66.4083 9.21324 66.3283L9.21321 66.3282L8.69018 65.4819C8.6399 65.4006 8.61171 65.3103 8.62931 65.2176C8.64703 65.1242 8.70673 65.0514 8.78421 64.9964L8.78428 64.9964L9.63661 64.3921L5.0207 62.4909L4.77961 67.8373L5.62528 67.2375C5.70504 67.1809 5.7968 67.144 5.89323 67.1608C5.99144 67.1778 6.06319 67.2449 6.11402 67.3271L6.11405 67.3271L6.63661 68.173L6.63669 68.1731C6.68801 68.2564 6.71456 68.3491 6.69285 68.4443C6.67143 68.5383 6.60809 68.6121 6.52736 68.6694L6.52731 68.6695L2.8105 71.3064L2.81039 71.3065C2.73055 71.363 2.6388 71.3999 2.5424 71.3832C2.44417 71.3661 2.37257 71.2989 2.32182 71.2169L2.32177 71.2168L1.79926 70.3705C1.74784 70.2874 1.72124 70.1947 1.74308 70.0994C1.76463 70.0055 1.82818 69.9317 1.90913 69.8744L3.0562 69.0606L3.45061 62.0651L-2.65474 59.8361L-3.78229 60.6358C-3.78234 60.6358 -3.78238 60.6359 -3.78243 60.6359L-3.78261 60.636L-3.84914 60.5422C-3.98309 60.6379 -4.09103 60.619 -4.17346 60.486L13.4192 63.7808ZM13.4192 63.7808C13.4967 63.7258 13.5563 63.6533 13.5743 63.5602C13.5921 63.4678 13.5646 63.3778 13.5153 63.2963L13.5148 63.2954L12.9918 62.4491C12.9423 62.3687 12.8737 62.301 12.7796 62.2806C12.6847 62.26 12.595 62.2942 12.5187 62.3483C12.5187 62.3484 12.5187 62.3484 12.5187 62.3484L11.3299 63.1915L5.23957 60.8112L5.69459 53.9136L6.93531 53.0333C6.93538 53.0332 6.93544 53.0332 6.93551 53.0332C7.01302 52.9784 7.07274 52.9058 7.09047 52.8124C7.10809 52.7197 7.07988 52.6295 7.0296 52.5482L6.50657 51.7018L6.50655 51.7018C6.45702 51.6217 6.38848 51.5542 6.29451 51.5337C6.19964 51.513 6.10984 51.5469 6.03322 51.6011L6.03309 51.6012L2.30059 54.2487L2.30055 54.2487C2.22307 54.3037 2.16336 54.3765 2.14564 54.4699C2.12805 54.5626 2.15622 54.6528 2.20649 54.7341C2.2065 54.7341 2.20651 54.7342 2.20652 54.7342L2.72941 55.5803C2.72945 55.5804 2.72948 55.5804 2.72952 55.5805C2.77888 55.6607 2.84743 55.7282 2.94136 55.7487C3.03621 55.7694 3.12603 55.7355 3.20254 55.6812C3.20255 55.6812 3.20257 55.6811 3.20258 55.6811L3.95282 55.149L3.65952 60.372L-0.942948 58.6219L13.4192 63.7808ZM-4.85058 59.4291C-4.8723 59.5243 -4.84574 59.6169 -4.79434 59.7L-0.0538216 57.5635L0.0440059 57.5031L0.043982 57.503L-0.47905 56.6567L-0.479074 56.6566C-0.529899 56.5745 -0.601649 56.5074 -0.699859 56.4903C-0.796267 56.4736 -0.888011 56.5104 -0.967751 56.5671C-0.967771 56.5671 -0.967792 56.5671 -0.967812 56.5671L-4.68504 59.2041L-4.6851 59.2041C-4.76581 59.2614 -4.82915 59.3352 -4.85058 59.4291Z" fill="#FFD0A4" stroke="#FFD0A4" stroke-width="0.23"/>
<path d="M-18.9917 131.499C-18.9917 173.497 12.9021 207.693 52.1382 207.693C91.3713 207.693 123.262 173.497 123.262 131.499C123.262 89.4999 91.3713 55.3044 52.1382 55.3044C12.9021 55.3044 -18.9917 89.4999 -18.9917 131.499ZM-18.0411 131.498C-18.0411 90.0127 13.4559 56.2896 52.1382 56.2896C90.817 56.2896 122.311 90.0132 122.311 131.499C122.311 172.984 90.817 206.707 52.1382 206.707C13.4559 206.707 -18.0411 172.983 -18.0411 131.498Z" fill="#FFD0A4" stroke="#FFD0A4" stroke-width="0.46"/>
<path d="M28.5131 60.1412L28.5131 60.1411L21.9161 39.7815C21.9161 39.7815 21.9161 39.7814 21.9161 39.7813L21.916 39.7812L22.1348 39.7103C22.0902 39.5731 22.1579 39.4233 22.286 39.376L28.5131 60.1412ZM28.5131 60.1412C28.5775 60.3395 28.7567 60.4768 28.9634 60.4768C29.0167 60.4768 29.0714 60.4674 29.1241 60.4477L28.5131 60.1412ZM22.8167 39.4667C22.7364 39.2199 22.47 39.0603 22.2051 39.1607L29.0439 60.2321C29.172 60.1848 29.2397 60.035 29.195 59.8978L29.4138 59.8269L29.4138 59.8267C29.4138 59.8267 29.4138 59.8266 29.4138 59.8266L22.8168 39.467L22.8167 39.4667Z" fill="#FFD0A4" stroke="#FFD0A4" stroke-width="0.46"/>
<path d="M78.5384 38.1446C78.2731 38.0583 78.0116 38.2242 77.9404 38.4759L77.9404 38.4759L72.1643 58.9036L72.1642 58.9038C72.0948 59.1502 72.2196 59.4292 72.4787 59.513L72.4809 59.5137C72.5261 59.5279 72.5732 59.5352 72.6206 59.5352C72.8349 59.5352 73.0182 59.388 73.0765 59.1817C73.0765 59.1817 73.0765 59.1816 73.0765 59.1816L78.8526 38.754L78.8527 38.7538C78.9221 38.5075 78.7973 38.2285 78.5384 38.1446ZM78.5384 38.1446C78.5383 38.1446 78.5383 38.1446 78.5382 38.1446L78.4674 38.3634L78.5387 38.1447C78.5386 38.1447 78.5385 38.1447 78.5384 38.1446Z" fill="#FFD0A4" stroke="#FFD0A4" stroke-width="0.46"/>
<path d="M124.837 72.505L124.837 72.5048L108.23 85.9648L108.041 86.0971C108.042 86.0972 108.042 86.0973 108.042 86.0974C108.133 86.2266 108.276 86.2989 108.425 86.2989C108.529 86.2989 108.632 86.2638 108.718 86.1946L108.718 86.1944L124.746 73.1851C124.746 73.185 124.746 73.1849 124.746 73.1848C124.952 73.0186 124.987 72.7162 124.837 72.505ZM108.133 85.4176C108.133 85.4177 108.133 85.4178 108.133 85.4179L124.161 72.4084L124.161 72.4086C124.16 72.4087 124.16 72.4087 124.16 72.4087L108.133 85.4176Z" fill="#FFD0A4" stroke="#FFD0A4" stroke-width="0.46"/>
<path d="M122.31 129.992L122.31 129.992C122.315 130.245 122.513 130.475 122.785 130.475H122.785H122.785H122.785H122.785H122.785H122.785H122.785H122.786H122.786H122.786H122.786H122.786H122.786H122.786H122.786H122.786H122.786H122.786H122.786H122.786H122.786H122.786H122.786H122.786H122.786H122.786H122.786H122.786H122.786H122.786H122.786H122.786H122.786H122.786H122.786H122.786H122.786H122.786H122.786H122.786H122.786H122.786H122.786H122.786H122.786H122.786H122.786H122.786H122.786H122.786H122.786H122.786H122.786H122.786H122.786H122.786H122.786H122.786H122.786H122.786H122.786H122.786H122.786H122.786H122.786H122.786H122.786H122.786H122.786H122.786H122.786H122.786H122.786H122.786H122.786H122.786H122.786H122.786H122.786H122.786H122.786H122.786H122.786H122.786H122.786H122.786H122.786H122.786H122.786H122.786H122.786H122.786H122.786H122.786H122.786H122.786H122.786H122.786H122.786H122.786H122.786H122.786H122.786H122.786H122.786H122.786H122.786H122.786H122.786H122.786H122.786H122.786H122.786H122.786H122.786H122.786H122.787H122.787H122.787H122.787H122.787H122.787H122.787H122.787H122.787H122.787H122.787H122.787H122.787H122.787H122.787H122.787H122.787H122.787H122.787H122.787H122.787H122.787H122.787H122.787H122.787H122.787H122.787H122.787H122.787H122.787H122.787H122.787H122.787H122.787H122.787H122.787H122.787H122.787H122.787H122.787H122.787H122.787H122.787H122.787H122.787H122.787H122.787H122.787H122.787H122.787H122.787H122.787H122.787H122.787H122.787H122.787H122.787H122.787H122.787H122.787H122.787H122.787H122.787H122.787H122.787H122.787H122.787H122.787H122.787H122.787H122.787H122.787H122.787H122.787H122.787H122.787H122.787H122.787H122.787H122.787H122.787H122.787H122.787H122.787H122.787H122.787H122.787H122.787H122.787H122.787H122.787H122.787H122.787H122.787H122.787H122.787H122.787H122.787H122.787H122.787H122.787H122.788H122.788H122.788H122.788H122.788H122.788H122.788H122.788H122.788H122.788H122.788H122.788H122.788H122.788H122.788H122.788H122.788H122.788H122.788H122.788H122.788H122.788H122.788H122.788H122.788H122.788H122.788H122.788H122.788H122.788H122.788H122.788H122.788H122.788H122.788H122.788H122.788H122.788H122.788H122.788H122.788H122.788H122.788H122.788H122.788H122.788H122.788H122.788H122.788H122.788H122.788H122.788H122.788H122.788H122.788H122.788H122.788H122.788H122.788H122.788H122.788H122.788H122.788H122.788H122.788H122.788H122.788H122.788H122.788H122.788H122.788H122.788H122.788H122.788H122.788H122.788H122.788H122.788H122.788H122.788H122.788H122.788H122.788H122.788H122.788H122.788H122.788H122.788H122.788H122.788H122.788H122.788H122.788H122.788H122.788H122.788H122.788H122.788H122.788H122.788H122.789H122.789H122.789H122.789H122.789H122.789H122.789H122.789H122.789H122.789H122.789H122.789H122.789H122.789H122.789H122.789H122.789H122.789H122.789H122.789H122.789H122.789H122.789H122.789H122.789H122.789H122.789H122.789H122.789H122.789H122.789H122.789H122.789H122.789H122.789H122.789H122.789H122.789H122.789H122.789H122.789H122.789H122.789H122.789H122.789H122.789H122.789H122.789H122.789H122.789H122.789H122.789H122.789H122.789H122.789H122.789H122.789H122.789H122.789H122.789H122.789H122.789H122.789H122.789H122.789H122.789H122.789H122.789H122.789H122.789H122.789H122.789H122.789H122.789H122.789H122.789H122.789H122.789H122.789H122.789H122.789H122.789H122.789H122.789H122.789H122.789H122.789H122.789H122.789H122.789H122.789H122.789H122.789H122.789H122.789H122.789H122.789H122.789H122.789H122.789H122.789H122.789H122.79H122.79H122.79H122.79H122.79H122.79H122.79H122.79H122.79H122.79H122.79H122.79H122.79H122.79H122.79H122.79H122.79H122.79H122.79H122.79H122.79H122.79H122.79H122.79H122.79H122.79H122.79H122.79H122.79H122.79H122.79H122.79H122.79H122.79H122.79H122.79H122.79H122.79H122.79H122.79H122.79H122.79H122.79H122.79H122.79H122.79H122.79H122.79H122.79H122.79H122.79H122.79H122.79H122.79H122.79H122.79H122.79H122.79H122.79H122.79H122.79H122.79H122.79H122.79H122.79H122.79H122.79H122.79H122.79H122.79H122.79H122.79H122.79H122.79H122.79H122.79H122.79H122.79H122.79H122.79H122.79H122.79H122.79H122.79H122.79H122.79H122.79H122.79H122.79H122.79H122.79H122.79H122.79V130.475L122.795 130.475L142.892 130.044L142.892 130.044C143.168 130.038 143.363 129.799 143.357 129.542C143.355 129.421 143.314 129.3 143.227 129.206C143.138 129.11 143.013 129.057 142.875 129.059L142.872 129.059L122.776 129.489L122.776 129.489L122.775 129.489C122.499 129.495 122.305 129.735 122.31 129.992Z" fill="#FFD0A4" stroke="#FFD0A4" stroke-width="0.46"/>
<path d="M-39.1089 131.517C-39.1089 185.409 1.8161 229.281 52.153 229.281C102.49 229.281 143.415 185.409 143.415 131.517C143.415 77.6245 102.49 33.7522 52.153 33.7522C1.8161 33.7522 -39.1089 77.6245 -39.1089 131.517ZM-38.1582 131.516C-38.1582 78.1373 2.36989 34.7374 52.153 34.7374C101.936 34.7374 142.464 78.1373 142.464 131.516C142.464 184.895 101.936 228.295 52.153 228.295C2.37037 228.295 -38.1582 184.895 -38.1582 131.516Z" fill="#FFD0A4" stroke="#FFD0A4" stroke-width="0.46"/>
<path d="M15.8284 184.374L15.8284 184.374L-6.32716 111.315C-6.38617 111.12 -6.32464 110.901 -6.1585 110.772C-6.15849 110.772 -6.15848 110.772 -6.15847 110.772L51.8455 65.6195C51.8455 65.6195 51.8456 65.6195 51.8456 65.6195C52.015 65.4875 52.2472 65.4875 52.4167 65.6195L15.8284 184.374ZM15.8284 184.374C15.888 184.57 16.0652 184.719 16.282 184.719H87.9797C88.1973 184.719 88.3727 184.569 88.4333 184.376L88.4339 184.374L110.589 111.315L110.59 111.314C110.648 111.12 110.586 110.901 110.421 110.773C110.421 110.773 110.421 110.772 110.421 110.772L52.4168 65.6195L15.8284 184.374ZM87.631 183.733H16.6312L-5.31906 111.352L52.1311 66.6302L109.581 111.352L87.631 183.733Z" fill="#FFD0A4" stroke="#FFD0A4" stroke-width="0.46"/>
<mask id="path-17-outside-1_261_1601" maskUnits="userSpaceOnUse" x="-8.83496" y="62.91" width="132" height="135" fill="black">
<rect fill="white" x="-8.83496" y="62.91" width="132" height="135"/>
<path d="M18.3814 196.976C17.9419 196.976 17.5025 196.829 17.127 196.537C16.3777 195.954 16.0662 194.927 16.3521 193.981L30.7574 146.481L-6.95512 117.125C-7.70446 116.541 -8.01593 115.514 -7.73006 114.569C-7.44313 113.624 -6.6282 112.989 -5.70073 112.989H40.9137L55.3185 65.4895C55.6054 64.5449 56.4203 63.91 57.3478 63.91C58.2747 63.91 59.0902 64.5443 59.3771 65.4889L73.7819 112.989H120.397C121.324 112.989 122.139 113.623 122.426 114.568C122.712 115.513 122.401 116.54 121.651 117.124L83.9382 146.481L98.3435 193.98C98.6294 194.925 98.3179 195.952 97.5686 196.536C96.8353 197.108 95.7937 197.108 95.0603 196.536L57.3478 167.181L19.6358 196.537C19.2609 196.829 18.8209 196.976 18.3814 196.976ZM-5.70073 113.562C-6.3962 113.562 -7.00793 114.038 -7.22286 114.747C-7.43726 115.455 -7.20366 116.225 -6.64153 116.664L31.2278 146.142C31.3211 146.215 31.3606 146.344 31.3249 146.461L16.8598 194.159C16.6454 194.868 16.879 195.639 17.4411 196.076C18.0038 196.514 18.7601 196.514 19.3222 196.076L57.191 166.597C57.2849 166.525 57.4107 166.525 57.5046 166.597L95.3734 196.076C95.9233 196.504 96.7046 196.504 97.2545 196.076C97.8166 195.638 98.0502 194.868 97.8358 194.159L83.3707 146.462C83.3355 146.344 83.3745 146.215 83.4678 146.143L121.338 116.664C121.9 116.226 122.133 115.456 121.919 114.747C121.704 114.039 121.092 113.563 120.397 113.563H73.5878C73.4721 113.563 73.3702 113.483 73.3339 113.365L58.8694 65.6677C58.6545 64.9597 58.0427 64.4837 57.3473 64.4837C56.6518 64.4837 56.0406 64.9597 55.8257 65.6683L41.3611 113.365C41.3254 113.483 41.223 113.563 41.1073 113.563H-5.70073V113.562ZM92.7633 189.738C92.7083 189.738 92.6534 189.72 92.6065 189.683L60.367 164.587C60.2977 164.533 60.2571 164.447 60.2571 164.356C60.2571 164.264 60.2977 164.178 60.367 164.125L80.2918 148.614C80.3611 148.559 80.4491 148.545 80.5307 148.573C80.6118 148.602 80.6758 148.67 80.7019 148.757L93.0166 189.364C93.0518 189.482 93.0129 189.611 92.9195 189.684C92.8731 189.72 92.8187 189.738 92.7633 189.738ZM60.9771 164.356L92.2555 188.704L80.3083 149.307L60.9771 164.356ZM21.9318 189.738C21.8769 189.738 21.8219 189.72 21.775 189.683C21.6817 189.611 21.6422 189.481 21.6779 189.364L33.9926 148.756C34.0187 148.669 34.0827 148.601 34.1638 148.573C34.2449 148.544 34.3339 148.56 34.4027 148.613L54.3281 164.125C54.3974 164.179 54.4379 164.264 54.4379 164.356C54.4379 164.447 54.3974 164.533 54.3281 164.587L22.0881 189.683C22.0422 189.72 21.9867 189.738 21.9318 189.738ZM34.3867 149.307L22.4395 188.704L53.7185 164.356L34.3867 149.307ZM57.3478 162.169C57.2929 162.169 57.2379 162.151 57.191 162.115L35.303 145.076C35.2097 145.003 35.1702 144.874 35.2059 144.756L43.5665 117.188C43.6022 117.07 43.7046 116.99 43.8198 116.99H70.8753C70.991 116.99 71.0929 117.07 71.1291 117.188L79.4897 144.757C79.5249 144.875 79.4859 145.004 79.3926 145.076L57.5046 162.115C57.4577 162.151 57.4027 162.169 57.3478 162.169ZM35.7734 144.735L57.3478 161.531L78.9222 144.736L70.6817 117.562H44.0139L35.7734 144.735ZM82.4113 142.659C82.3835 142.659 82.3558 142.654 82.3291 142.645C82.2481 142.616 82.1846 142.548 82.1579 142.461L74.5473 117.365C74.5206 117.278 74.535 117.183 74.5851 117.109C74.6353 117.035 74.7153 116.991 74.8006 116.991H114.652C114.768 116.991 114.869 117.071 114.906 117.189C114.941 117.307 114.902 117.436 114.809 117.508L82.5681 142.605C82.5217 142.64 82.4667 142.659 82.4113 142.659ZM75.1681 117.562L82.5515 141.911L113.831 117.562H75.1681ZM32.2843 142.658C32.2289 142.658 32.1734 142.64 32.1275 142.603L-0.112464 117.507C-0.205797 117.435 -0.245268 117.305 -0.209534 117.188C-0.173801 117.07 -0.071394 116.99 0.0443392 116.99H39.895C39.9803 116.99 40.0609 117.034 40.1105 117.108C40.1606 117.181 40.175 117.277 40.1483 117.364L32.5377 142.46C32.5115 142.547 32.4475 142.615 32.3665 142.643C32.3398 142.653 32.3116 142.658 32.2843 142.658ZM0.864603 117.562L32.1435 141.911L39.527 117.562H0.864603ZM69.6625 113.562H45.0331C44.9478 113.562 44.8673 113.518 44.8177 113.444C44.7675 113.371 44.7531 113.275 44.7798 113.188L57.0945 72.5809C57.1665 72.3455 57.5297 72.3455 57.6017 72.5809L69.9163 113.188C69.943 113.275 69.9286 113.371 69.8785 113.444C69.8278 113.518 69.7478 113.562 69.6625 113.562ZM45.4001 112.991H69.295L57.3478 73.5935L45.4001 112.991Z"/>
</mask>
<path d="M18.3814 196.976C17.9419 196.976 17.5025 196.829 17.127 196.537C16.3777 195.954 16.0662 194.927 16.3521 193.981L30.7574 146.481L-6.95512 117.125C-7.70446 116.541 -8.01593 115.514 -7.73006 114.569C-7.44313 113.624 -6.6282 112.989 -5.70073 112.989H40.9137L55.3185 65.4895C55.6054 64.5449 56.4203 63.91 57.3478 63.91C58.2747 63.91 59.0902 64.5443 59.3771 65.4889L73.7819 112.989H120.397C121.324 112.989 122.139 113.623 122.426 114.568C122.712 115.513 122.401 116.54 121.651 117.124L83.9382 146.481L98.3435 193.98C98.6294 194.925 98.3179 195.952 97.5686 196.536C96.8353 197.108 95.7937 197.108 95.0603 196.536L57.3478 167.181L19.6358 196.537C19.2609 196.829 18.8209 196.976 18.3814 196.976ZM-5.70073 113.562C-6.3962 113.562 -7.00793 114.038 -7.22286 114.747C-7.43726 115.455 -7.20366 116.225 -6.64153 116.664L31.2278 146.142C31.3211 146.215 31.3606 146.344 31.3249 146.461L16.8598 194.159C16.6454 194.868 16.879 195.639 17.4411 196.076C18.0038 196.514 18.7601 196.514 19.3222 196.076L57.191 166.597C57.2849 166.525 57.4107 166.525 57.5046 166.597L95.3734 196.076C95.9233 196.504 96.7046 196.504 97.2545 196.076C97.8166 195.638 98.0502 194.868 97.8358 194.159L83.3707 146.462C83.3355 146.344 83.3745 146.215 83.4678 146.143L121.338 116.664C121.9 116.226 122.133 115.456 121.919 114.747C121.704 114.039 121.092 113.563 120.397 113.563H73.5878C73.4721 113.563 73.3702 113.483 73.3339 113.365L58.8694 65.6677C58.6545 64.9597 58.0427 64.4837 57.3473 64.4837C56.6518 64.4837 56.0406 64.9597 55.8257 65.6683L41.3611 113.365C41.3254 113.483 41.223 113.563 41.1073 113.563H-5.70073V113.562ZM92.7633 189.738C92.7083 189.738 92.6534 189.72 92.6065 189.683L60.367 164.587C60.2977 164.533 60.2571 164.447 60.2571 164.356C60.2571 164.264 60.2977 164.178 60.367 164.125L80.2918 148.614C80.3611 148.559 80.4491 148.545 80.5307 148.573C80.6118 148.602 80.6758 148.67 80.7019 148.757L93.0166 189.364C93.0518 189.482 93.0129 189.611 92.9195 189.684C92.8731 189.72 92.8187 189.738 92.7633 189.738ZM60.9771 164.356L92.2555 188.704L80.3083 149.307L60.9771 164.356ZM21.9318 189.738C21.8769 189.738 21.8219 189.72 21.775 189.683C21.6817 189.611 21.6422 189.481 21.6779 189.364L33.9926 148.756C34.0187 148.669 34.0827 148.601 34.1638 148.573C34.2449 148.544 34.3339 148.56 34.4027 148.613L54.3281 164.125C54.3974 164.179 54.4379 164.264 54.4379 164.356C54.4379 164.447 54.3974 164.533 54.3281 164.587L22.0881 189.683C22.0422 189.72 21.9867 189.738 21.9318 189.738ZM34.3867 149.307L22.4395 188.704L53.7185 164.356L34.3867 149.307ZM57.3478 162.169C57.2929 162.169 57.2379 162.151 57.191 162.115L35.303 145.076C35.2097 145.003 35.1702 144.874 35.2059 144.756L43.5665 117.188C43.6022 117.07 43.7046 116.99 43.8198 116.99H70.8753C70.991 116.99 71.0929 117.07 71.1291 117.188L79.4897 144.757C79.5249 144.875 79.4859 145.004 79.3926 145.076L57.5046 162.115C57.4577 162.151 57.4027 162.169 57.3478 162.169ZM35.7734 144.735L57.3478 161.531L78.9222 144.736L70.6817 117.562H44.0139L35.7734 144.735ZM82.4113 142.659C82.3835 142.659 82.3558 142.654 82.3291 142.645C82.2481 142.616 82.1846 142.548 82.1579 142.461L74.5473 117.365C74.5206 117.278 74.535 117.183 74.5851 117.109C74.6353 117.035 74.7153 116.991 74.8006 116.991H114.652C114.768 116.991 114.869 117.071 114.906 117.189C114.941 117.307 114.902 117.436 114.809 117.508L82.5681 142.605C82.5217 142.64 82.4667 142.659 82.4113 142.659ZM75.1681 117.562L82.5515 141.911L113.831 117.562H75.1681ZM32.2843 142.658C32.2289 142.658 32.1734 142.64 32.1275 142.603L-0.112464 117.507C-0.205797 117.435 -0.245268 117.305 -0.209534 117.188C-0.173801 117.07 -0.071394 116.99 0.0443392 116.99H39.895C39.9803 116.99 40.0609 117.034 40.1105 117.108C40.1606 117.181 40.175 117.277 40.1483 117.364L32.5377 142.46C32.5115 142.547 32.4475 142.615 32.3665 142.643C32.3398 142.653 32.3116 142.658 32.2843 142.658ZM0.864603 117.562L32.1435 141.911L39.527 117.562H0.864603ZM69.6625 113.562H45.0331C44.9478 113.562 44.8673 113.518 44.8177 113.444C44.7675 113.371 44.7531 113.275 44.7798 113.188L57.0945 72.5809C57.1665 72.3455 57.5297 72.3455 57.6017 72.5809L69.9163 113.188C69.943 113.275 69.9286 113.371 69.8785 113.444C69.8278 113.518 69.7478 113.562 69.6625 113.562ZM45.4001 112.991H69.295L57.3478 73.5935L45.4001 112.991Z" fill="#FFD0A4"/>
<path d="M18.3814 196.976C17.9419 196.976 17.5025 196.829 17.127 196.537C16.3777 195.954 16.0662 194.927 16.3521 193.981L30.7574 146.481L-6.95512 117.125C-7.70446 116.541 -8.01593 115.514 -7.73006 114.569C-7.44313 113.624 -6.6282 112.989 -5.70073 112.989H40.9137L55.3185 65.4895C55.6054 64.5449 56.4203 63.91 57.3478 63.91C58.2747 63.91 59.0902 64.5443 59.3771 65.4889L73.7819 112.989H120.397C121.324 112.989 122.139 113.623 122.426 114.568C122.712 115.513 122.401 116.54 121.651 117.124L83.9382 146.481L98.3435 193.98C98.6294 194.925 98.3179 195.952 97.5686 196.536C96.8353 197.108 95.7937 197.108 95.0603 196.536L57.3478 167.181L19.6358 196.537C19.2609 196.829 18.8209 196.976 18.3814 196.976ZM-5.70073 113.562C-6.3962 113.562 -7.00793 114.038 -7.22286 114.747C-7.43726 115.455 -7.20366 116.225 -6.64153 116.664L31.2278 146.142C31.3211 146.215 31.3606 146.344 31.3249 146.461L16.8598 194.159C16.6454 194.868 16.879 195.639 17.4411 196.076C18.0038 196.514 18.7601 196.514 19.3222 196.076L57.191 166.597C57.2849 166.525 57.4107 166.525 57.5046 166.597L95.3734 196.076C95.9233 196.504 96.7046 196.504 97.2545 196.076C97.8166 195.638 98.0502 194.868 97.8358 194.159L83.3707 146.462C83.3355 146.344 83.3745 146.215 83.4678 146.143L121.338 116.664C121.9 116.226 122.133 115.456 121.919 114.747C121.704 114.039 121.092 113.563 120.397 113.563H73.5878C73.4721 113.563 73.3702 113.483 73.3339 113.365L58.8694 65.6677C58.6545 64.9597 58.0427 64.4837 57.3473 64.4837C56.6518 64.4837 56.0406 64.9597 55.8257 65.6683L41.3611 113.365C41.3254 113.483 41.223 113.563 41.1073 113.563H-5.70073V113.562ZM92.7633 189.738C92.7083 189.738 92.6534 189.72 92.6065 189.683L60.367 164.587C60.2977 164.533 60.2571 164.447 60.2571 164.356C60.2571 164.264 60.2977 164.178 60.367 164.125L80.2918 148.614C80.3611 148.559 80.4491 148.545 80.5307 148.573C80.6118 148.602 80.6758 148.67 80.7019 148.757L93.0166 189.364C93.0518 189.482 93.0129 189.611 92.9195 189.684C92.8731 189.72 92.8187 189.738 92.7633 189.738ZM60.9771 164.356L92.2555 188.704L80.3083 149.307L60.9771 164.356ZM21.9318 189.738C21.8769 189.738 21.8219 189.72 21.775 189.683C21.6817 189.611 21.6422 189.481 21.6779 189.364L33.9926 148.756C34.0187 148.669 34.0827 148.601 34.1638 148.573C34.2449 148.544 34.3339 148.56 34.4027 148.613L54.3281 164.125C54.3974 164.179 54.4379 164.264 54.4379 164.356C54.4379 164.447 54.3974 164.533 54.3281 164.587L22.0881 189.683C22.0422 189.72 21.9867 189.738 21.9318 189.738ZM34.3867 149.307L22.4395 188.704L53.7185 164.356L34.3867 149.307ZM57.3478 162.169C57.2929 162.169 57.2379 162.151 57.191 162.115L35.303 145.076C35.2097 145.003 35.1702 144.874 35.2059 144.756L43.5665 117.188C43.6022 117.07 43.7046 116.99 43.8198 116.99H70.8753C70.991 116.99 71.0929 117.07 71.1291 117.188L79.4897 144.757C79.5249 144.875 79.4859 145.004 79.3926 145.076L57.5046 162.115C57.4577 162.151 57.4027 162.169 57.3478 162.169ZM35.7734 144.735L57.3478 161.531L78.9222 144.736L70.6817 117.562H44.0139L35.7734 144.735ZM82.4113 142.659C82.3835 142.659 82.3558 142.654 82.3291 142.645C82.2481 142.616 82.1846 142.548 82.1579 142.461L74.5473 117.365C74.5206 117.278 74.535 117.183 74.5851 117.109C74.6353 117.035 74.7153 116.991 74.8006 116.991H114.652C114.768 116.991 114.869 117.071 114.906 117.189C114.941 117.307 114.902 117.436 114.809 117.508L82.5681 142.605C82.5217 142.64 82.4667 142.659 82.4113 142.659ZM75.1681 117.562L82.5515 141.911L113.831 117.562H75.1681ZM32.2843 142.658C32.2289 142.658 32.1734 142.64 32.1275 142.603L-0.112464 117.507C-0.205797 117.435 -0.245268 117.305 -0.209534 117.188C-0.173801 117.07 -0.071394 116.99 0.0443392 116.99H39.895C39.9803 116.99 40.0609 117.034 40.1105 117.108C40.1606 117.181 40.175 117.277 40.1483 117.364L32.5377 142.46C32.5115 142.547 32.4475 142.615 32.3665 142.643C32.3398 142.653 32.3116 142.658 32.2843 142.658ZM0.864603 117.562L32.1435 141.911L39.527 117.562H0.864603ZM69.6625 113.562H45.0331C44.9478 113.562 44.8673 113.518 44.8177 113.444C44.7675 113.371 44.7531 113.275 44.7798 113.188L57.0945 72.5809C57.1665 72.3455 57.5297 72.3455 57.6017 72.5809L69.9163 113.188C69.943 113.275 69.9286 113.371 69.8785 113.444C69.8278 113.518 69.7478 113.562 69.6625 113.562ZM45.4001 112.991H69.295L57.3478 73.5935L45.4001 112.991Z" stroke="#FFD0A4" stroke-width="0.8" mask="url(#path-17-outside-1_261_1601)"/>
<mask id="path-18-outside-2_261_1601" maskUnits="userSpaceOnUse" x="-16.335" y="60.3333" width="133" height="142" fill="black">
<rect fill="white" x="-16.335" y="60.3333" width="133" height="142"/>
<path d="M50.1265 201.524H50.0877C48.1996 201.524 46.2946 201.437 44.427 201.265C44.2955 201.253 44.198 201.128 44.2095 200.987C44.2205 200.847 44.3319 200.743 44.4681 200.754C46.3223 200.925 48.2129 201.012 50.0877 201.012C50.2197 201.012 50.3463 201.126 50.3463 201.268C50.3463 201.409 50.2584 201.524 50.1265 201.524ZM55.8059 201.258C55.6835 201.258 55.5788 201.158 55.5683 201.024C55.5568 200.884 55.6543 200.759 55.7858 200.747C57.6596 200.573 59.5492 200.308 61.4006 199.96C61.5268 199.932 61.6545 200.028 61.6774 200.167C61.7003 200.306 61.6133 200.439 61.4838 200.464C59.6181 200.814 57.7151 201.082 55.8269 201.257C55.8197 201.258 55.8125 201.258 55.8059 201.258ZM38.8102 200.482C38.7968 200.482 38.783 200.481 38.7691 200.478C36.9029 200.129 35.0281 199.688 33.1968 199.165C33.0692 199.128 32.9936 198.988 33.0276 198.851C33.0615 198.715 33.193 198.636 33.3201 198.669C35.1381 199.189 36.9985 199.627 38.8513 199.973C38.9813 199.997 39.0684 200.13 39.0459 200.269C39.0253 200.394 38.9245 200.482 38.8102 200.482ZM66.9926 199.152C66.8869 199.152 66.7903 199.077 66.7617 198.963C66.7277 198.826 66.8032 198.686 66.9309 198.649C68.7502 198.127 70.5672 197.512 72.333 196.823C72.4578 196.774 72.594 196.843 72.6394 196.976C72.6848 197.109 72.6208 197.256 72.4965 197.305C70.7178 198 68.8869 198.618 67.0552 199.145C67.0337 199.149 67.0131 199.152 66.9926 199.152ZM27.8348 197.348C27.8076 197.348 27.7803 197.343 27.7536 197.333C25.9744 196.641 24.1999 195.854 22.4786 194.995C22.3591 194.935 22.3074 194.783 22.3629 194.655C22.4193 194.526 22.5613 194.471 22.6803 194.531C24.3888 195.384 26.1503 196.164 27.9161 196.852C28.0404 196.9 28.1044 197.047 28.0595 197.18C28.0241 197.284 27.9328 197.348 27.8348 197.348ZM77.6625 194.985C77.5726 194.985 77.4866 194.931 77.446 194.837C77.39 194.709 77.4416 194.557 77.5611 194.497C79.2644 193.644 80.9532 192.699 82.5809 191.69C82.6937 191.618 82.8409 191.659 82.9078 191.783C82.9743 191.905 82.9351 192.062 82.8208 192.133C81.1803 193.151 79.4795 194.102 77.7638 194.961C77.7313 194.978 77.6969 194.985 77.6625 194.985ZM17.5344 192.204C17.4937 192.204 17.4526 192.194 17.4153 192.17C15.7738 191.154 14.1543 190.048 12.6021 188.883C12.4936 188.803 12.4678 188.643 12.5433 188.527C12.6189 188.412 12.769 188.383 12.876 188.464C14.4172 189.621 16.0248 190.718 17.6544 191.727C17.7686 191.798 17.8078 191.954 17.7418 192.077C17.6974 192.158 17.6171 192.204 17.5344 192.204ZM87.4916 188.889C87.4166 188.889 87.3425 188.851 87.2961 188.779C87.2201 188.664 87.2464 188.504 87.3544 188.423C88.8936 187.265 90.4047 186.021 91.8454 184.724C91.9463 184.632 92.0969 184.647 92.182 184.755C92.2671 184.863 92.2537 185.025 92.1528 185.116C90.702 186.422 89.18 187.676 87.6293 188.842C87.5872 188.874 87.5389 188.889 87.4916 188.889ZM8.22726 185.221C8.17325 185.221 8.11876 185.201 8.07383 185.161C6.62064 183.855 5.20425 182.466 3.86436 181.032C3.77114 180.933 3.77114 180.77 3.86436 180.67C3.95757 180.57 4.10909 180.57 4.20279 180.67C5.53264 182.093 6.93899 183.472 8.38166 184.769C8.48253 184.859 8.49592 185.021 8.41131 185.129C8.36303 185.19 8.29562 185.221 8.22726 185.221ZM96.1888 181.059C96.1276 181.059 96.0664 181.033 96.0195 180.983C95.9263 180.883 95.9263 180.721 96.0195 180.621C97.3499 179.195 98.6381 177.69 99.8475 176.146C99.9326 176.038 100.083 176.024 100.184 176.115C100.285 176.206 100.298 176.367 100.213 176.475C98.9947 178.03 97.6974 179.547 96.3575 180.983C96.3111 181.033 96.2499 181.059 96.1888 181.059ZM0.187394 176.621C0.119038 176.621 0.0516376 176.589 0.00431347 176.529C-1.21464 174.978 -2.38579 173.347 -3.47664 171.685C-3.55265 171.569 -3.52637 171.41 -3.41833 171.328C-3.31078 171.247 -3.16115 171.275 -3.08514 171.391C-2.00242 173.041 -0.839868 174.659 0.370008 176.2C0.455096 176.308 0.442187 176.47 0.340847 176.561C0.296391 176.601 0.241411 176.621 0.187394 176.621ZM103.494 171.735C103.447 171.735 103.399 171.72 103.357 171.688C103.249 171.607 103.223 171.447 103.299 171.331C104.379 169.681 105.404 167.959 106.347 166.214C106.414 166.092 106.56 166.051 106.673 166.121C106.787 166.191 106.827 166.348 106.761 166.47C105.812 168.229 104.779 169.963 103.69 171.625C103.644 171.697 103.57 171.735 103.494 171.735ZM-6.34335 166.663C-6.42557 166.663 -6.50588 166.617 -6.55033 166.536C-7.50112 164.779 -8.39025 162.957 -9.19333 161.119C-9.24925 160.991 -9.19763 160.839 -9.07812 160.779C-8.9591 160.718 -8.81664 160.774 -8.76023 160.902C-7.96289 162.726 -7.07998 164.535 -6.13637 166.278C-6.06992 166.401 -6.10912 166.558 -6.22337 166.629C-6.26113 166.652 -6.30224 166.663 -6.34335 166.663ZM109.183 161.196C109.149 161.196 109.114 161.188 109.082 161.172C108.962 161.112 108.91 160.96 108.966 160.831C109.763 159.003 110.493 157.116 111.136 155.222C111.181 155.089 111.318 155.021 111.442 155.069C111.567 155.118 111.631 155.264 111.585 155.397C110.938 157.305 110.202 159.206 109.4 161.048C109.359 161.141 109.272 161.196 109.183 161.196ZM-11.1585 155.644C-11.256 155.644 -11.3478 155.58 -11.3831 155.476C-12.0333 153.568 -12.6121 151.607 -13.1035 149.647C-13.138 149.51 -13.0624 149.37 -12.9348 149.333C-12.8086 149.298 -12.6762 149.378 -12.6423 149.514C-12.1547 151.461 -11.5801 153.408 -10.9348 155.301C-10.8894 155.434 -10.9534 155.581 -11.0772 155.629C-11.1035 155.639 -11.1312 155.644 -11.1585 155.644ZM113.068 149.756C113.048 149.756 113.027 149.753 113.007 149.747C112.879 149.711 112.803 149.57 112.837 149.434C113.323 147.488 113.733 145.494 114.058 143.508C114.08 143.369 114.206 143.271 114.334 143.301C114.464 143.325 114.551 143.458 114.528 143.597C114.201 145.597 113.788 147.605 113.3 149.566C113.271 149.68 113.174 149.756 113.068 149.756ZM-14.1036 143.891C-14.2173 143.891 -14.3182 143.803 -14.3388 143.68C-14.6672 141.684 -14.9177 139.645 -15.083 137.62C-15.0945 137.479 -14.9975 137.355 -14.8655 137.342C-14.7355 137.333 -14.6179 137.434 -14.6065 137.575C-14.442 139.585 -14.1934 141.609 -13.8679 143.59C-13.845 143.73 -13.9315 143.862 -14.0615 143.887C-14.0759 143.89 -14.0902 143.891 -14.1036 143.891ZM115.027 137.769C115.02 137.769 115.013 137.768 115.006 137.768C114.875 137.756 114.778 137.631 114.789 137.491C114.95 135.487 115.032 133.446 115.032 131.428V131.264C115.032 131.122 115.139 131.007 115.271 131.007C115.403 131.007 115.51 131.122 115.51 131.264V131.428C115.51 133.462 115.427 135.516 115.265 137.535C115.254 137.668 115.15 137.769 115.027 137.769ZM-15.0959 131.768C-15.2279 131.768 -15.335 131.653 -15.335 131.511L-15.3345 131.426C-15.3345 129.423 -15.2547 127.396 -15.0959 125.405C-15.085 125.264 -14.9717 125.162 -14.8373 125.171C-14.7059 125.184 -14.6084 125.308 -14.6194 125.448C-14.7762 127.425 -14.856 129.437 -14.856 131.428L-14.8565 131.511C-14.8569 131.653 -14.9635 131.768 -15.0959 131.768ZM115.013 125.435C114.89 125.435 114.786 125.335 114.775 125.202C114.609 123.194 114.359 121.17 114.03 119.186C114.007 119.047 114.094 118.914 114.224 118.89C114.351 118.866 114.477 118.957 114.5 119.097C114.831 121.095 115.084 123.134 115.251 125.156C115.262 125.297 115.165 125.422 115.034 125.434C115.027 125.434 115.02 125.435 115.013 125.435ZM-14.1299 119.642C-14.1433 119.642 -14.1571 119.641 -14.171 119.638C-14.301 119.614 -14.3885 119.482 -14.3655 119.342C-14.041 117.341 -13.6294 115.332 -13.1432 113.372C-13.1093 113.235 -12.9783 113.152 -12.8507 113.19C-12.723 113.226 -12.647 113.366 -12.681 113.503C-13.1638 115.449 -13.572 117.443 -13.8947 119.43C-13.9148 119.555 -14.0156 119.642 -14.1299 119.642ZM113.028 113.453C112.922 113.453 112.825 113.378 112.797 113.263C112.307 111.317 111.731 109.371 111.083 107.48C111.038 107.347 111.101 107.2 111.225 107.151C111.349 107.103 111.486 107.171 111.532 107.303C112.184 109.209 112.765 111.17 113.258 113.131C113.293 113.268 113.217 113.408 113.09 113.444C113.069 113.45 113.048 113.453 113.028 113.453ZM-11.2115 107.881C-11.2388 107.881 -11.266 107.875 -11.2928 107.865C-11.4171 107.817 -11.4807 107.67 -11.4362 107.537C-10.7904 105.629 -10.0576 103.727 -9.25643 101.884C-9.20098 101.756 -9.05948 101.7 -8.93902 101.76C-8.81951 101.819 -8.76741 101.972 -8.82333 102.1C-9.61829 103.93 -10.3458 105.818 -10.9864 107.712C-11.0218 107.816 -11.1135 107.881 -11.2115 107.881ZM109.119 102.028C109.029 102.028 108.944 101.974 108.903 101.881C108.103 100.056 107.219 98.2488 106.274 96.5074C106.207 96.385 106.246 96.2282 106.361 96.1571C106.473 96.0864 106.621 96.1268 106.688 96.2498C107.639 98.0039 108.53 99.8252 109.336 101.663C109.392 101.791 109.341 101.943 109.222 102.003C109.188 102.02 109.153 102.028 109.119 102.028ZM-6.41697 96.8418C-6.4576 96.8418 -6.49823 96.8311 -6.53599 96.8075C-6.65024 96.7368 -6.68944 96.5801 -6.62347 96.4577C-5.67698 94.6994 -4.6459 92.9637 -3.55887 91.2986C-3.48335 91.1824 -3.3342 91.1547 -3.22616 91.2356C-3.11813 91.3166 -3.09185 91.4764 -3.16737 91.5921C-4.24627 93.2449 -5.26971 94.9678 -6.2095 96.7138C-6.25396 96.7957 -6.33427 96.8418 -6.41697 96.8418ZM103.412 91.5076C103.338 91.5076 103.263 91.4697 103.217 91.399C102.134 89.7524 100.97 88.1355 99.7567 86.5939C99.6712 86.4858 99.6845 86.3245 99.7854 86.2328C99.8858 86.1426 100.037 86.1554 100.122 86.2635C101.345 87.8164 102.517 89.4446 103.608 91.1035C103.684 91.2192 103.658 91.379 103.55 91.4605C103.508 91.4922 103.459 91.5076 103.412 91.5076ZM0.0951395 86.8658C0.0411224 86.8658 -0.0133791 86.8464 -0.0583134 86.8059C-0.159654 86.7153 -0.172551 86.5534 -0.0879412 86.4453C1.12863 84.8889 2.42407 83.3708 3.76253 81.9326C3.85575 81.8322 4.00728 81.8328 4.10049 81.9321C4.19419 82.032 4.19419 82.1943 4.10098 82.2942C2.77255 83.7216 1.48618 85.2289 0.27822 86.7742C0.231374 86.8346 0.163497 86.8658 0.0951395 86.8658ZM96.0884 82.2031C96.0272 82.2031 95.9665 82.1785 95.9196 82.1283C94.585 80.7039 93.1772 79.3272 91.7355 78.035C91.6346 77.9444 91.6213 77.7831 91.7054 77.6745C91.7914 77.5664 91.9415 77.5515 92.0424 77.6422C93.4941 78.9436 94.912 80.3311 96.2562 81.7652C96.3499 81.865 96.3499 82.0274 96.2571 82.1278C96.2112 82.178 96.1496 82.2031 96.0884 82.2031ZM8.11827 78.2466C8.0504 78.2466 7.98252 78.2153 7.93568 78.1554C7.85059 78.0473 7.86349 77.8855 7.96436 77.7943C9.41372 76.4862 10.9343 75.2309 12.4841 74.0622C12.5921 73.9802 12.7412 74.0084 12.8168 74.1241C12.8928 74.2399 12.867 74.3997 12.7589 74.4806C11.2206 75.6407 9.71104 76.8873 8.27219 78.1856C8.22726 78.2266 8.17229 78.2466 8.11827 78.2466ZM87.374 74.392C87.3262 74.392 87.2789 74.3771 87.2373 74.3459C85.6947 73.1915 84.0857 72.0954 82.4552 71.0895C82.3409 71.0188 82.3017 70.8626 82.3672 70.7397C82.4332 70.6168 82.5785 70.5748 82.6942 70.6455C84.3367 71.6591 85.9571 72.7628 87.5107 73.9259C87.6192 74.0068 87.6455 74.1666 87.57 74.2824C87.5232 74.3541 87.4491 74.392 87.374 74.392ZM17.4082 71.2432C17.326 71.2432 17.2457 71.1976 17.2012 71.1157C17.1348 70.9932 17.174 70.8365 17.2882 70.7653C18.9269 69.7461 20.6272 68.7925 22.3423 67.9305C22.4628 67.87 22.6043 67.9254 22.6602 68.0534C22.7161 68.1814 22.665 68.3341 22.5455 68.394C20.8432 69.2493 19.1553 70.1963 17.5282 71.2084C17.4899 71.2319 17.4488 71.2432 17.4082 71.2432ZM77.5277 68.3161C77.4938 68.3161 77.4593 68.3085 77.4268 68.2926C75.7179 67.4419 73.9545 66.6629 72.1877 65.9781C72.0634 65.93 71.9989 65.783 72.0443 65.6503C72.0892 65.5171 72.2274 65.448 72.3502 65.4967C74.1309 66.1871 75.9062 66.9712 77.6286 67.828C77.7481 67.888 77.7997 68.0396 77.7442 68.1681C77.7041 68.2613 77.618 68.3161 77.5277 68.3161ZM27.689 66.0775C27.5915 66.0775 27.4997 66.0134 27.4643 65.9095C27.4189 65.7768 27.483 65.6298 27.6068 65.5807C29.3855 64.8836 31.2159 64.2623 33.0467 63.7343C33.1739 63.6974 33.3053 63.7789 33.3397 63.9151C33.3741 64.0518 33.2981 64.1922 33.171 64.229C31.3535 64.753 29.5371 65.3696 27.7712 66.0621C27.7445 66.0729 27.7167 66.0775 27.689 66.0775ZM66.8434 64.1742C66.8233 64.1742 66.8028 64.1717 66.7822 64.1655C64.9653 63.6493 63.1038 63.2129 61.2496 62.8687C61.1196 62.8447 61.0321 62.712 61.0545 62.5727C61.0775 62.4334 61.2032 62.3397 61.3308 62.3642C63.199 62.711 65.0742 63.1504 66.9046 63.6703C67.0327 63.7066 67.1082 63.847 67.0743 63.9837C67.0456 64.0984 66.949 64.1742 66.8434 64.1742ZM38.6573 62.9153C38.5435 62.9153 38.4426 62.8283 38.4221 62.7038C38.3991 62.565 38.4856 62.4319 38.6157 62.4073C40.479 62.0539 42.382 61.7845 44.2716 61.6062C44.4084 61.5924 44.5192 61.6979 44.5307 61.8388C44.5422 61.9796 44.4452 62.1041 44.3137 62.1164C42.4379 62.2936 40.5488 62.5609 38.6988 62.9112C38.685 62.9143 38.6711 62.9153 38.6573 62.9153ZM55.6519 62.0964C55.6448 62.0964 55.6385 62.0959 55.6314 62.0954C53.7996 61.9294 51.9343 61.8454 50.0873 61.8454H49.9721C49.8401 61.8454 49.733 61.7307 49.733 61.5893C49.733 61.448 49.8401 61.3333 49.9721 61.3333H50.0873C51.9477 61.3333 53.8264 61.4178 55.6715 61.5852C55.803 61.597 55.9005 61.721 55.8895 61.8618C55.8795 61.995 55.7748 62.0964 55.6519 62.0964Z"/>
</mask>
<path d="M50.1265 201.524H50.0877C48.1996 201.524 46.2946 201.437 44.427 201.265C44.2955 201.253 44.198 201.128 44.2095 200.987C44.2205 200.847 44.3319 200.743 44.4681 200.754C46.3223 200.925 48.2129 201.012 50.0877 201.012C50.2197 201.012 50.3463 201.126 50.3463 201.268C50.3463 201.409 50.2584 201.524 50.1265 201.524ZM55.8059 201.258C55.6835 201.258 55.5788 201.158 55.5683 201.024C55.5568 200.884 55.6543 200.759 55.7858 200.747C57.6596 200.573 59.5492 200.308 61.4006 199.96C61.5268 199.932 61.6545 200.028 61.6774 200.167C61.7003 200.306 61.6133 200.439 61.4838 200.464C59.6181 200.814 57.7151 201.082 55.8269 201.257C55.8197 201.258 55.8125 201.258 55.8059 201.258ZM38.8102 200.482C38.7968 200.482 38.783 200.481 38.7691 200.478C36.9029 200.129 35.0281 199.688 33.1968 199.165C33.0692 199.128 32.9936 198.988 33.0276 198.851C33.0615 198.715 33.193 198.636 33.3201 198.669C35.1381 199.189 36.9985 199.627 38.8513 199.973C38.9813 199.997 39.0684 200.13 39.0459 200.269C39.0253 200.394 38.9245 200.482 38.8102 200.482ZM66.9926 199.152C66.8869 199.152 66.7903 199.077 66.7617 198.963C66.7277 198.826 66.8032 198.686 66.9309 198.649C68.7502 198.127 70.5672 197.512 72.333 196.823C72.4578 196.774 72.594 196.843 72.6394 196.976C72.6848 197.109 72.6208 197.256 72.4965 197.305C70.7178 198 68.8869 198.618 67.0552 199.145C67.0337 199.149 67.0131 199.152 66.9926 199.152ZM27.8348 197.348C27.8076 197.348 27.7803 197.343 27.7536 197.333C25.9744 196.641 24.1999 195.854 22.4786 194.995C22.3591 194.935 22.3074 194.783 22.3629 194.655C22.4193 194.526 22.5613 194.471 22.6803 194.531C24.3888 195.384 26.1503 196.164 27.9161 196.852C28.0404 196.9 28.1044 197.047 28.0595 197.18C28.0241 197.284 27.9328 197.348 27.8348 197.348ZM77.6625 194.985C77.5726 194.985 77.4866 194.931 77.446 194.837C77.39 194.709 77.4416 194.557 77.5611 194.497C79.2644 193.644 80.9532 192.699 82.5809 191.69C82.6937 191.618 82.8409 191.659 82.9078 191.783C82.9743 191.905 82.9351 192.062 82.8208 192.133C81.1803 193.151 79.4795 194.102 77.7638 194.961C77.7313 194.978 77.6969 194.985 77.6625 194.985ZM17.5344 192.204C17.4937 192.204 17.4526 192.194 17.4153 192.17C15.7738 191.154 14.1543 190.048 12.6021 188.883C12.4936 188.803 12.4678 188.643 12.5433 188.527C12.6189 188.412 12.769 188.383 12.876 188.464C14.4172 189.621 16.0248 190.718 17.6544 191.727C17.7686 191.798 17.8078 191.954 17.7418 192.077C17.6974 192.158 17.6171 192.204 17.5344 192.204ZM87.4916 188.889C87.4166 188.889 87.3425 188.851 87.2961 188.779C87.2201 188.664 87.2464 188.504 87.3544 188.423C88.8936 187.265 90.4047 186.021 91.8454 184.724C91.9463 184.632 92.0969 184.647 92.182 184.755C92.2671 184.863 92.2537 185.025 92.1528 185.116C90.702 186.422 89.18 187.676 87.6293 188.842C87.5872 188.874 87.5389 188.889 87.4916 188.889ZM8.22726 185.221C8.17325 185.221 8.11876 185.201 8.07383 185.161C6.62064 183.855 5.20425 182.466 3.86436 181.032C3.77114 180.933 3.77114 180.77 3.86436 180.67C3.95757 180.57 4.10909 180.57 4.20279 180.67C5.53264 182.093 6.93899 183.472 8.38166 184.769C8.48253 184.859 8.49592 185.021 8.41131 185.129C8.36303 185.19 8.29562 185.221 8.22726 185.221ZM96.1888 181.059C96.1276 181.059 96.0664 181.033 96.0195 180.983C95.9263 180.883 95.9263 180.721 96.0195 180.621C97.3499 179.195 98.6381 177.69 99.8475 176.146C99.9326 176.038 100.083 176.024 100.184 176.115C100.285 176.206 100.298 176.367 100.213 176.475C98.9947 178.03 97.6974 179.547 96.3575 180.983C96.3111 181.033 96.2499 181.059 96.1888 181.059ZM0.187394 176.621C0.119038 176.621 0.0516376 176.589 0.00431347 176.529C-1.21464 174.978 -2.38579 173.347 -3.47664 171.685C-3.55265 171.569 -3.52637 171.41 -3.41833 171.328C-3.31078 171.247 -3.16115 171.275 -3.08514 171.391C-2.00242 173.041 -0.839868 174.659 0.370008 176.2C0.455096 176.308 0.442187 176.47 0.340847 176.561C0.296391 176.601 0.241411 176.621 0.187394 176.621ZM103.494 171.735C103.447 171.735 103.399 171.72 103.357 171.688C103.249 171.607 103.223 171.447 103.299 171.331C104.379 169.681 105.404 167.959 106.347 166.214C106.414 166.092 106.56 166.051 106.673 166.121C106.787 166.191 106.827 166.348 106.761 166.47C105.812 168.229 104.779 169.963 103.69 171.625C103.644 171.697 103.57 171.735 103.494 171.735ZM-6.34335 166.663C-6.42557 166.663 -6.50588 166.617 -6.55033 166.536C-7.50112 164.779 -8.39025 162.957 -9.19333 161.119C-9.24925 160.991 -9.19763 160.839 -9.07812 160.779C-8.9591 160.718 -8.81664 160.774 -8.76023 160.902C-7.96289 162.726 -7.07998 164.535 -6.13637 166.278C-6.06992 166.401 -6.10912 166.558 -6.22337 166.629C-6.26113 166.652 -6.30224 166.663 -6.34335 166.663ZM109.183 161.196C109.149 161.196 109.114 161.188 109.082 161.172C108.962 161.112 108.91 160.96 108.966 160.831C109.763 159.003 110.493 157.116 111.136 155.222C111.181 155.089 111.318 155.021 111.442 155.069C111.567 155.118 111.631 155.264 111.585 155.397C110.938 157.305 110.202 159.206 109.4 161.048C109.359 161.141 109.272 161.196 109.183 161.196ZM-11.1585 155.644C-11.256 155.644 -11.3478 155.58 -11.3831 155.476C-12.0333 153.568 -12.6121 151.607 -13.1035 149.647C-13.138 149.51 -13.0624 149.37 -12.9348 149.333C-12.8086 149.298 -12.6762 149.378 -12.6423 149.514C-12.1547 151.461 -11.5801 153.408 -10.9348 155.301C-10.8894 155.434 -10.9534 155.581 -11.0772 155.629C-11.1035 155.639 -11.1312 155.644 -11.1585 155.644ZM113.068 149.756C113.048 149.756 113.027 149.753 113.007 149.747C112.879 149.711 112.803 149.57 112.837 149.434C113.323 147.488 113.733 145.494 114.058 143.508C114.08 143.369 114.206 143.271 114.334 143.301C114.464 143.325 114.551 143.458 114.528 143.597C114.201 145.597 113.788 147.605 113.3 149.566C113.271 149.68 113.174 149.756 113.068 149.756ZM-14.1036 143.891C-14.2173 143.891 -14.3182 143.803 -14.3388 143.68C-14.6672 141.684 -14.9177 139.645 -15.083 137.62C-15.0945 137.479 -14.9975 137.355 -14.8655 137.342C-14.7355 137.333 -14.6179 137.434 -14.6065 137.575C-14.442 139.585 -14.1934 141.609 -13.8679 143.59C-13.845 143.73 -13.9315 143.862 -14.0615 143.887C-14.0759 143.89 -14.0902 143.891 -14.1036 143.891ZM115.027 137.769C115.02 137.769 115.013 137.768 115.006 137.768C114.875 137.756 114.778 137.631 114.789 137.491C114.95 135.487 115.032 133.446 115.032 131.428V131.264C115.032 131.122 115.139 131.007 115.271 131.007C115.403 131.007 115.51 131.122 115.51 131.264V131.428C115.51 133.462 115.427 135.516 115.265 137.535C115.254 137.668 115.15 137.769 115.027 137.769ZM-15.0959 131.768C-15.2279 131.768 -15.335 131.653 -15.335 131.511L-15.3345 131.426C-15.3345 129.423 -15.2547 127.396 -15.0959 125.405C-15.085 125.264 -14.9717 125.162 -14.8373 125.171C-14.7059 125.184 -14.6084 125.308 -14.6194 125.448C-14.7762 127.425 -14.856 129.437 -14.856 131.428L-14.8565 131.511C-14.8569 131.653 -14.9635 131.768 -15.0959 131.768ZM115.013 125.435C114.89 125.435 114.786 125.335 114.775 125.202C114.609 123.194 114.359 121.17 114.03 119.186C114.007 119.047 114.094 118.914 114.224 118.89C114.351 118.866 114.477 118.957 114.5 119.097C114.831 121.095 115.084 123.134 115.251 125.156C115.262 125.297 115.165 125.422 115.034 125.434C115.027 125.434 115.02 125.435 115.013 125.435ZM-14.1299 119.642C-14.1433 119.642 -14.1571 119.641 -14.171 119.638C-14.301 119.614 -14.3885 119.482 -14.3655 119.342C-14.041 117.341 -13.6294 115.332 -13.1432 113.372C-13.1093 113.235 -12.9783 113.152 -12.8507 113.19C-12.723 113.226 -12.647 113.366 -12.681 113.503C-13.1638 115.449 -13.572 117.443 -13.8947 119.43C-13.9148 119.555 -14.0156 119.642 -14.1299 119.642ZM113.028 113.453C112.922 113.453 112.825 113.378 112.797 113.263C112.307 111.317 111.731 109.371 111.083 107.48C111.038 107.347 111.101 107.2 111.225 107.151C111.349 107.103 111.486 107.171 111.532 107.303C112.184 109.209 112.765 111.17 113.258 113.131C113.293 113.268 113.217 113.408 113.09 113.444C113.069 113.45 113.048 113.453 113.028 113.453ZM-11.2115 107.881C-11.2388 107.881 -11.266 107.875 -11.2928 107.865C-11.4171 107.817 -11.4807 107.67 -11.4362 107.537C-10.7904 105.629 -10.0576 103.727 -9.25643 101.884C-9.20098 101.756 -9.05948 101.7 -8.93902 101.76C-8.81951 101.819 -8.76741 101.972 -8.82333 102.1C-9.61829 103.93 -10.3458 105.818 -10.9864 107.712C-11.0218 107.816 -11.1135 107.881 -11.2115 107.881ZM109.119 102.028C109.029 102.028 108.944 101.974 108.903 101.881C108.103 100.056 107.219 98.2488 106.274 96.5074C106.207 96.385 106.246 96.2282 106.361 96.1571C106.473 96.0864 106.621 96.1268 106.688 96.2498C107.639 98.0039 108.53 99.8252 109.336 101.663C109.392 101.791 109.341 101.943 109.222 102.003C109.188 102.02 109.153 102.028 109.119 102.028ZM-6.41697 96.8418C-6.4576 96.8418 -6.49823 96.8311 -6.53599 96.8075C-6.65024 96.7368 -6.68944 96.5801 -6.62347 96.4577C-5.67698 94.6994 -4.6459 92.9637 -3.55887 91.2986C-3.48335 91.1824 -3.3342 91.1547 -3.22616 91.2356C-3.11813 91.3166 -3.09185 91.4764 -3.16737 91.5921C-4.24627 93.2449 -5.26971 94.9678 -6.2095 96.7138C-6.25396 96.7957 -6.33427 96.8418 -6.41697 96.8418ZM103.412 91.5076C103.338 91.5076 103.263 91.4697 103.217 91.399C102.134 89.7524 100.97 88.1355 99.7567 86.5939C99.6712 86.4858 99.6845 86.3245 99.7854 86.2328C99.8858 86.1426 100.037 86.1554 100.122 86.2635C101.345 87.8164 102.517 89.4446 103.608 91.1035C103.684 91.2192 103.658 91.379 103.55 91.4605C103.508 91.4922 103.459 91.5076 103.412 91.5076ZM0.0951395 86.8658C0.0411224 86.8658 -0.0133791 86.8464 -0.0583134 86.8059C-0.159654 86.7153 -0.172551 86.5534 -0.0879412 86.4453C1.12863 84.8889 2.42407 83.3708 3.76253 81.9326C3.85575 81.8322 4.00728 81.8328 4.10049 81.9321C4.19419 82.032 4.19419 82.1943 4.10098 82.2942C2.77255 83.7216 1.48618 85.2289 0.27822 86.7742C0.231374 86.8346 0.163497 86.8658 0.0951395 86.8658ZM96.0884 82.2031C96.0272 82.2031 95.9665 82.1785 95.9196 82.1283C94.585 80.7039 93.1772 79.3272 91.7355 78.035C91.6346 77.9444 91.6213 77.7831 91.7054 77.6745C91.7914 77.5664 91.9415 77.5515 92.0424 77.6422C93.4941 78.9436 94.912 80.3311 96.2562 81.7652C96.3499 81.865 96.3499 82.0274 96.2571 82.1278C96.2112 82.178 96.1496 82.2031 96.0884 82.2031ZM8.11827 78.2466C8.0504 78.2466 7.98252 78.2153 7.93568 78.1554C7.85059 78.0473 7.86349 77.8855 7.96436 77.7943C9.41372 76.4862 10.9343 75.2309 12.4841 74.0622C12.5921 73.9802 12.7412 74.0084 12.8168 74.1241C12.8928 74.2399 12.867 74.3997 12.7589 74.4806C11.2206 75.6407 9.71104 76.8873 8.27219 78.1856C8.22726 78.2266 8.17229 78.2466 8.11827 78.2466ZM87.374 74.392C87.3262 74.392 87.2789 74.3771 87.2373 74.3459C85.6947 73.1915 84.0857 72.0954 82.4552 71.0895C82.3409 71.0188 82.3017 70.8626 82.3672 70.7397C82.4332 70.6168 82.5785 70.5748 82.6942 70.6455C84.3367 71.6591 85.9571 72.7628 87.5107 73.9259C87.6192 74.0068 87.6455 74.1666 87.57 74.2824C87.5232 74.3541 87.4491 74.392 87.374 74.392ZM17.4082 71.2432C17.326 71.2432 17.2457 71.1976 17.2012 71.1157C17.1348 70.9932 17.174 70.8365 17.2882 70.7653C18.9269 69.7461 20.6272 68.7925 22.3423 67.9305C22.4628 67.87 22.6043 67.9254 22.6602 68.0534C22.7161 68.1814 22.665 68.3341 22.5455 68.394C20.8432 69.2493 19.1553 70.1963 17.5282 71.2084C17.4899 71.2319 17.4488 71.2432 17.4082 71.2432ZM77.5277 68.3161C77.4938 68.3161 77.4593 68.3085 77.4268 68.2926C75.7179 67.4419 73.9545 66.6629 72.1877 65.9781C72.0634 65.93 71.9989 65.783 72.0443 65.6503C72.0892 65.5171 72.2274 65.448 72.3502 65.4967C74.1309 66.1871 75.9062 66.9712 77.6286 67.828C77.7481 67.888 77.7997 68.0396 77.7442 68.1681C77.7041 68.2613 77.618 68.3161 77.5277 68.3161ZM27.689 66.0775C27.5915 66.0775 27.4997 66.0134 27.4643 65.9095C27.4189 65.7768 27.483 65.6298 27.6068 65.5807C29.3855 64.8836 31.2159 64.2623 33.0467 63.7343C33.1739 63.6974 33.3053 63.7789 33.3397 63.9151C33.3741 64.0518 33.2981 64.1922 33.171 64.229C31.3535 64.753 29.5371 65.3696 27.7712 66.0621C27.7445 66.0729 27.7167 66.0775 27.689 66.0775ZM66.8434 64.1742C66.8233 64.1742 66.8028 64.1717 66.7822 64.1655C64.9653 63.6493 63.1038 63.2129 61.2496 62.8687C61.1196 62.8447 61.0321 62.712 61.0545 62.5727C61.0775 62.4334 61.2032 62.3397 61.3308 62.3642C63.199 62.711 65.0742 63.1504 66.9046 63.6703C67.0327 63.7066 67.1082 63.847 67.0743 63.9837C67.0456 64.0984 66.949 64.1742 66.8434 64.1742ZM38.6573 62.9153C38.5435 62.9153 38.4426 62.8283 38.4221 62.7038C38.3991 62.565 38.4856 62.4319 38.6157 62.4073C40.479 62.0539 42.382 61.7845 44.2716 61.6062C44.4084 61.5924 44.5192 61.6979 44.5307 61.8388C44.5422 61.9796 44.4452 62.1041 44.3137 62.1164C42.4379 62.2936 40.5488 62.5609 38.6988 62.9112C38.685 62.9143 38.6711 62.9153 38.6573 62.9153ZM55.6519 62.0964C55.6448 62.0964 55.6385 62.0959 55.6314 62.0954C53.7996 61.9294 51.9343 61.8454 50.0873 61.8454H49.9721C49.8401 61.8454 49.733 61.7307 49.733 61.5893C49.733 61.448 49.8401 61.3333 49.9721 61.3333H50.0873C51.9477 61.3333 53.8264 61.4178 55.6715 61.5852C55.803 61.597 55.9005 61.721 55.8895 61.8618C55.8795 61.995 55.7748 62.0964 55.6519 62.0964Z" fill="#FFD0A4"/>
<path d="M50.1265 201.524H50.0877C48.1996 201.524 46.2946 201.437 44.427 201.265C44.2955 201.253 44.198 201.128 44.2095 200.987C44.2205 200.847 44.3319 200.743 44.4681 200.754C46.3223 200.925 48.2129 201.012 50.0877 201.012C50.2197 201.012 50.3463 201.126 50.3463 201.268C50.3463 201.409 50.2584 201.524 50.1265 201.524ZM55.8059 201.258C55.6835 201.258 55.5788 201.158 55.5683 201.024C55.5568 200.884 55.6543 200.759 55.7858 200.747C57.6596 200.573 59.5492 200.308 61.4006 199.96C61.5268 199.932 61.6545 200.028 61.6774 200.167C61.7003 200.306 61.6133 200.439 61.4838 200.464C59.6181 200.814 57.7151 201.082 55.8269 201.257C55.8197 201.258 55.8125 201.258 55.8059 201.258ZM38.8102 200.482C38.7968 200.482 38.783 200.481 38.7691 200.478C36.9029 200.129 35.0281 199.688 33.1968 199.165C33.0692 199.128 32.9936 198.988 33.0276 198.851C33.0615 198.715 33.193 198.636 33.3201 198.669C35.1381 199.189 36.9985 199.627 38.8513 199.973C38.9813 199.997 39.0684 200.13 39.0459 200.269C39.0253 200.394 38.9245 200.482 38.8102 200.482ZM66.9926 199.152C66.8869 199.152 66.7903 199.077 66.7617 198.963C66.7277 198.826 66.8032 198.686 66.9309 198.649C68.7502 198.127 70.5672 197.512 72.333 196.823C72.4578 196.774 72.594 196.843 72.6394 196.976C72.6848 197.109 72.6208 197.256 72.4965 197.305C70.7178 198 68.8869 198.618 67.0552 199.145C67.0337 199.149 67.0131 199.152 66.9926 199.152ZM27.8348 197.348C27.8076 197.348 27.7803 197.343 27.7536 197.333C25.9744 196.641 24.1999 195.854 22.4786 194.995C22.3591 194.935 22.3074 194.783 22.3629 194.655C22.4193 194.526 22.5613 194.471 22.6803 194.531C24.3888 195.384 26.1503 196.164 27.9161 196.852C28.0404 196.9 28.1044 197.047 28.0595 197.18C28.0241 197.284 27.9328 197.348 27.8348 197.348ZM77.6625 194.985C77.5726 194.985 77.4866 194.931 77.446 194.837C77.39 194.709 77.4416 194.557 77.5611 194.497C79.2644 193.644 80.9532 192.699 82.5809 191.69C82.6937 191.618 82.8409 191.659 82.9078 191.783C82.9743 191.905 82.9351 192.062 82.8208 192.133C81.1803 193.151 79.4795 194.102 77.7638 194.961C77.7313 194.978 77.6969 194.985 77.6625 194.985ZM17.5344 192.204C17.4937 192.204 17.4526 192.194 17.4153 192.17C15.7738 191.154 14.1543 190.048 12.6021 188.883C12.4936 188.803 12.4678 188.643 12.5433 188.527C12.6189 188.412 12.769 188.383 12.876 188.464C14.4172 189.621 16.0248 190.718 17.6544 191.727C17.7686 191.798 17.8078 191.954 17.7418 192.077C17.6974 192.158 17.6171 192.204 17.5344 192.204ZM87.4916 188.889C87.4166 188.889 87.3425 188.851 87.2961 188.779C87.2201 188.664 87.2464 188.504 87.3544 188.423C88.8936 187.265 90.4047 186.021 91.8454 184.724C91.9463 184.632 92.0969 184.647 92.182 184.755C92.2671 184.863 92.2537 185.025 92.1528 185.116C90.702 186.422 89.18 187.676 87.6293 188.842C87.5872 188.874 87.5389 188.889 87.4916 188.889ZM8.22726 185.221C8.17325 185.221 8.11876 185.201 8.07383 185.161C6.62064 183.855 5.20425 182.466 3.86436 181.032C3.77114 180.933 3.77114 180.77 3.86436 180.67C3.95757 180.57 4.10909 180.57 4.20279 180.67C5.53264 182.093 6.93899 183.472 8.38166 184.769C8.48253 184.859 8.49592 185.021 8.41131 185.129C8.36303 185.19 8.29562 185.221 8.22726 185.221ZM96.1888 181.059C96.1276 181.059 96.0664 181.033 96.0195 180.983C95.9263 180.883 95.9263 180.721 96.0195 180.621C97.3499 179.195 98.6381 177.69 99.8475 176.146C99.9326 176.038 100.083 176.024 100.184 176.115C100.285 176.206 100.298 176.367 100.213 176.475C98.9947 178.03 97.6974 179.547 96.3575 180.983C96.3111 181.033 96.2499 181.059 96.1888 181.059ZM0.187394 176.621C0.119038 176.621 0.0516376 176.589 0.00431347 176.529C-1.21464 174.978 -2.38579 173.347 -3.47664 171.685C-3.55265 171.569 -3.52637 171.41 -3.41833 171.328C-3.31078 171.247 -3.16115 171.275 -3.08514 171.391C-2.00242 173.041 -0.839868 174.659 0.370008 176.2C0.455096 176.308 0.442187 176.47 0.340847 176.561C0.296391 176.601 0.241411 176.621 0.187394 176.621ZM103.494 171.735C103.447 171.735 103.399 171.72 103.357 171.688C103.249 171.607 103.223 171.447 103.299 171.331C104.379 169.681 105.404 167.959 106.347 166.214C106.414 166.092 106.56 166.051 106.673 166.121C106.787 166.191 106.827 166.348 106.761 166.47C105.812 168.229 104.779 169.963 103.69 171.625C103.644 171.697 103.57 171.735 103.494 171.735ZM-6.34335 166.663C-6.42557 166.663 -6.50588 166.617 -6.55033 166.536C-7.50112 164.779 -8.39025 162.957 -9.19333 161.119C-9.24925 160.991 -9.19763 160.839 -9.07812 160.779C-8.9591 160.718 -8.81664 160.774 -8.76023 160.902C-7.96289 162.726 -7.07998 164.535 -6.13637 166.278C-6.06992 166.401 -6.10912 166.558 -6.22337 166.629C-6.26113 166.652 -6.30224 166.663 -6.34335 166.663ZM109.183 161.196C109.149 161.196 109.114 161.188 109.082 161.172C108.962 161.112 108.91 160.96 108.966 160.831C109.763 159.003 110.493 157.116 111.136 155.222C111.181 155.089 111.318 155.021 111.442 155.069C111.567 155.118 111.631 155.264 111.585 155.397C110.938 157.305 110.202 159.206 109.4 161.048C109.359 161.141 109.272 161.196 109.183 161.196ZM-11.1585 155.644C-11.256 155.644 -11.3478 155.58 -11.3831 155.476C-12.0333 153.568 -12.6121 151.607 -13.1035 149.647C-13.138 149.51 -13.0624 149.37 -12.9348 149.333C-12.8086 149.298 -12.6762 149.378 -12.6423 149.514C-12.1547 151.461 -11.5801 153.408 -10.9348 155.301C-10.8894 155.434 -10.9534 155.581 -11.0772 155.629C-11.1035 155.639 -11.1312 155.644 -11.1585 155.644ZM113.068 149.756C113.048 149.756 113.027 149.753 113.007 149.747C112.879 149.711 112.803 149.57 112.837 149.434C113.323 147.488 113.733 145.494 114.058 143.508C114.08 143.369 114.206 143.271 114.334 143.301C114.464 143.325 114.551 143.458 114.528 143.597C114.201 145.597 113.788 147.605 113.3 149.566C113.271 149.68 113.174 149.756 113.068 149.756ZM-14.1036 143.891C-14.2173 143.891 -14.3182 143.803 -14.3388 143.68C-14.6672 141.684 -14.9177 139.645 -15.083 137.62C-15.0945 137.479 -14.9975 137.355 -14.8655 137.342C-14.7355 137.333 -14.6179 137.434 -14.6065 137.575C-14.442 139.585 -14.1934 141.609 -13.8679 143.59C-13.845 143.73 -13.9315 143.862 -14.0615 143.887C-14.0759 143.89 -14.0902 143.891 -14.1036 143.891ZM115.027 137.769C115.02 137.769 115.013 137.768 115.006 137.768C114.875 137.756 114.778 137.631 114.789 137.491C114.95 135.487 115.032 133.446 115.032 131.428V131.264C115.032 131.122 115.139 131.007 115.271 131.007C115.403 131.007 115.51 131.122 115.51 131.264V131.428C115.51 133.462 115.427 135.516 115.265 137.535C115.254 137.668 115.15 137.769 115.027 137.769ZM-15.0959 131.768C-15.2279 131.768 -15.335 131.653 -15.335 131.511L-15.3345 131.426C-15.3345 129.423 -15.2547 127.396 -15.0959 125.405C-15.085 125.264 -14.9717 125.162 -14.8373 125.171C-14.7059 125.184 -14.6084 125.308 -14.6194 125.448C-14.7762 127.425 -14.856 129.437 -14.856 131.428L-14.8565 131.511C-14.8569 131.653 -14.9635 131.768 -15.0959 131.768ZM115.013 125.435C114.89 125.435 114.786 125.335 114.775 125.202C114.609 123.194 114.359 121.17 114.03 119.186C114.007 119.047 114.094 118.914 114.224 118.89C114.351 118.866 114.477 118.957 114.5 119.097C114.831 121.095 115.084 123.134 115.251 125.156C115.262 125.297 115.165 125.422 115.034 125.434C115.027 125.434 115.02 125.435 115.013 125.435ZM-14.1299 119.642C-14.1433 119.642 -14.1571 119.641 -14.171 119.638C-14.301 119.614 -14.3885 119.482 -14.3655 119.342C-14.041 117.341 -13.6294 115.332 -13.1432 113.372C-13.1093 113.235 -12.9783 113.152 -12.8507 113.19C-12.723 113.226 -12.647 113.366 -12.681 113.503C-13.1638 115.449 -13.572 117.443 -13.8947 119.43C-13.9148 119.555 -14.0156 119.642 -14.1299 119.642ZM113.028 113.453C112.922 113.453 112.825 113.378 112.797 113.263C112.307 111.317 111.731 109.371 111.083 107.48C111.038 107.347 111.101 107.2 111.225 107.151C111.349 107.103 111.486 107.171 111.532 107.303C112.184 109.209 112.765 111.17 113.258 113.131C113.293 113.268 113.217 113.408 113.09 113.444C113.069 113.45 113.048 113.453 113.028 113.453ZM-11.2115 107.881C-11.2388 107.881 -11.266 107.875 -11.2928 107.865C-11.4171 107.817 -11.4807 107.67 -11.4362 107.537C-10.7904 105.629 -10.0576 103.727 -9.25643 101.884C-9.20098 101.756 -9.05948 101.7 -8.93902 101.76C-8.81951 101.819 -8.76741 101.972 -8.82333 102.1C-9.61829 103.93 -10.3458 105.818 -10.9864 107.712C-11.0218 107.816 -11.1135 107.881 -11.2115 107.881ZM109.119 102.028C109.029 102.028 108.944 101.974 108.903 101.881C108.103 100.056 107.219 98.2488 106.274 96.5074C106.207 96.385 106.246 96.2282 106.361 96.1571C106.473 96.0864 106.621 96.1268 106.688 96.2498C107.639 98.0039 108.53 99.8252 109.336 101.663C109.392 101.791 109.341 101.943 109.222 102.003C109.188 102.02 109.153 102.028 109.119 102.028ZM-6.41697 96.8418C-6.4576 96.8418 -6.49823 96.8311 -6.53599 96.8075C-6.65024 96.7368 -6.68944 96.5801 -6.62347 96.4577C-5.67698 94.6994 -4.6459 92.9637 -3.55887 91.2986C-3.48335 91.1824 -3.3342 91.1547 -3.22616 91.2356C-3.11813 91.3166 -3.09185 91.4764 -3.16737 91.5921C-4.24627 93.2449 -5.26971 94.9678 -6.2095 96.7138C-6.25396 96.7957 -6.33427 96.8418 -6.41697 96.8418ZM103.412 91.5076C103.338 91.5076 103.263 91.4697 103.217 91.399C102.134 89.7524 100.97 88.1355 99.7567 86.5939C99.6712 86.4858 99.6845 86.3245 99.7854 86.2328C99.8858 86.1426 100.037 86.1554 100.122 86.2635C101.345 87.8164 102.517 89.4446 103.608 91.1035C103.684 91.2192 103.658 91.379 103.55 91.4605C103.508 91.4922 103.459 91.5076 103.412 91.5076ZM0.0951395 86.8658C0.0411224 86.8658 -0.0133791 86.8464 -0.0583134 86.8059C-0.159654 86.7153 -0.172551 86.5534 -0.0879412 86.4453C1.12863 84.8889 2.42407 83.3708 3.76253 81.9326C3.85575 81.8322 4.00728 81.8328 4.10049 81.9321C4.19419 82.032 4.19419 82.1943 4.10098 82.2942C2.77255 83.7216 1.48618 85.2289 0.27822 86.7742C0.231374 86.8346 0.163497 86.8658 0.0951395 86.8658ZM96.0884 82.2031C96.0272 82.2031 95.9665 82.1785 95.9196 82.1283C94.585 80.7039 93.1772 79.3272 91.7355 78.035C91.6346 77.9444 91.6213 77.7831 91.7054 77.6745C91.7914 77.5664 91.9415 77.5515 92.0424 77.6422C93.4941 78.9436 94.912 80.3311 96.2562 81.7652C96.3499 81.865 96.3499 82.0274 96.2571 82.1278C96.2112 82.178 96.1496 82.2031 96.0884 82.2031ZM8.11827 78.2466C8.0504 78.2466 7.98252 78.2153 7.93568 78.1554C7.85059 78.0473 7.86349 77.8855 7.96436 77.7943C9.41372 76.4862 10.9343 75.2309 12.4841 74.0622C12.5921 73.9802 12.7412 74.0084 12.8168 74.1241C12.8928 74.2399 12.867 74.3997 12.7589 74.4806C11.2206 75.6407 9.71104 76.8873 8.27219 78.1856C8.22726 78.2266 8.17229 78.2466 8.11827 78.2466ZM87.374 74.392C87.3262 74.392 87.2789 74.3771 87.2373 74.3459C85.6947 73.1915 84.0857 72.0954 82.4552 71.0895C82.3409 71.0188 82.3017 70.8626 82.3672 70.7397C82.4332 70.6168 82.5785 70.5748 82.6942 70.6455C84.3367 71.6591 85.9571 72.7628 87.5107 73.9259C87.6192 74.0068 87.6455 74.1666 87.57 74.2824C87.5232 74.3541 87.4491 74.392 87.374 74.392ZM17.4082 71.2432C17.326 71.2432 17.2457 71.1976 17.2012 71.1157C17.1348 70.9932 17.174 70.8365 17.2882 70.7653C18.9269 69.7461 20.6272 68.7925 22.3423 67.9305C22.4628 67.87 22.6043 67.9254 22.6602 68.0534C22.7161 68.1814 22.665 68.3341 22.5455 68.394C20.8432 69.2493 19.1553 70.1963 17.5282 71.2084C17.4899 71.2319 17.4488 71.2432 17.4082 71.2432ZM77.5277 68.3161C77.4938 68.3161 77.4593 68.3085 77.4268 68.2926C75.7179 67.4419 73.9545 66.6629 72.1877 65.9781C72.0634 65.93 71.9989 65.783 72.0443 65.6503C72.0892 65.5171 72.2274 65.448 72.3502 65.4967C74.1309 66.1871 75.9062 66.9712 77.6286 67.828C77.7481 67.888 77.7997 68.0396 77.7442 68.1681C77.7041 68.2613 77.618 68.3161 77.5277 68.3161ZM27.689 66.0775C27.5915 66.0775 27.4997 66.0134 27.4643 65.9095C27.4189 65.7768 27.483 65.6298 27.6068 65.5807C29.3855 64.8836 31.2159 64.2623 33.0467 63.7343C33.1739 63.6974 33.3053 63.7789 33.3397 63.9151C33.3741 64.0518 33.2981 64.1922 33.171 64.229C31.3535 64.753 29.5371 65.3696 27.7712 66.0621C27.7445 66.0729 27.7167 66.0775 27.689 66.0775ZM66.8434 64.1742C66.8233 64.1742 66.8028 64.1717 66.7822 64.1655C64.9653 63.6493 63.1038 63.2129 61.2496 62.8687C61.1196 62.8447 61.0321 62.712 61.0545 62.5727C61.0775 62.4334 61.2032 62.3397 61.3308 62.3642C63.199 62.711 65.0742 63.1504 66.9046 63.6703C67.0327 63.7066 67.1082 63.847 67.0743 63.9837C67.0456 64.0984 66.949 64.1742 66.8434 64.1742ZM38.6573 62.9153C38.5435 62.9153 38.4426 62.8283 38.4221 62.7038C38.3991 62.565 38.4856 62.4319 38.6157 62.4073C40.479 62.0539 42.382 61.7845 44.2716 61.6062C44.4084 61.5924 44.5192 61.6979 44.5307 61.8388C44.5422 61.9796 44.4452 62.1041 44.3137 62.1164C42.4379 62.2936 40.5488 62.5609 38.6988 62.9112C38.685 62.9143 38.6711 62.9153 38.6573 62.9153ZM55.6519 62.0964C55.6448 62.0964 55.6385 62.0959 55.6314 62.0954C53.7996 61.9294 51.9343 61.8454 50.0873 61.8454H49.9721C49.8401 61.8454 49.733 61.7307 49.733 61.5893C49.733 61.448 49.8401 61.3333 49.9721 61.3333H50.0873C51.9477 61.3333 53.8264 61.4178 55.6715 61.5852C55.803 61.597 55.9005 61.721 55.8895 61.8618C55.8795 61.995 55.7748 62.0964 55.6519 62.0964Z" stroke="#FFD0A4" stroke-width="0.92" mask="url(#path-18-outside-2_261_1601)"/>
<path d="M52.1317 73.1257C54.9486 73.1257 57.2322 70.679 57.2322 67.6608C57.2322 64.6427 54.9486 62.196 52.1317 62.196C49.3148 62.196 47.0312 64.6427 47.0312 67.6608C47.0312 70.679 49.3148 73.1257 52.1317 73.1257Z" fill="#FFD0A4"/>
<path d="M108.572 117.616C111.389 117.616 113.673 115.17 113.673 112.152C113.673 109.133 111.389 106.687 108.572 106.687C105.755 106.687 103.472 109.133 103.472 112.152C103.472 115.17 105.755 117.616 108.572 117.616Z" fill="#FFD0A4"/>
<path d="M-5.01085 117.204C-2.19393 117.204 0.0896292 114.757 0.0896292 111.739C0.0896292 108.721 -2.19393 106.274 -5.01085 106.274C-7.82776 106.274 -10.1113 108.721 -10.1113 111.739C-10.1113 114.757 -7.82776 117.204 -5.01085 117.204Z" fill="#FFD0A4"/>
<path d="M174.591 214.836C174.549 214.836 174.508 214.825 174.47 214.803L157.995 204.832C157.877 204.76 157.835 204.6 157.902 204.473C157.968 204.347 158.117 204.302 158.236 204.373L174.477 214.202L180.775 199.101C180.823 198.988 180.935 198.925 181.051 198.952L214.003 206.634C214.021 206.638 214.037 206.645 214.054 206.652L223.987 211.588L211.438 181.336C211.428 181.31 211.421 181.284 211.419 181.257L207.769 144.276L193.677 134.211C193.565 134.13 193.534 133.967 193.608 133.847L202.304 119.79C202.379 119.671 202.528 119.638 202.64 119.713L220.031 131.482C220.095 131.525 220.136 131.597 220.144 131.677C220.152 131.757 220.125 131.836 220.072 131.893L208.258 144.225L211.903 181.161L224.7 212.015C224.742 212.115 224.721 212.232 224.648 212.309C224.576 212.386 224.466 212.407 224.373 212.36L213.872 207.142L181.142 199.511L174.815 214.68C174.787 214.747 174.733 214.799 174.668 214.823C174.643 214.833 174.617 214.836 174.591 214.836ZM194.153 133.919L207.971 143.79L219.506 131.749L202.581 120.295L194.153 133.919Z" fill="#FFD0A4"/>
<path d="M208.31 138.896L209.398 141.541L212.081 141.229L210.487 143.561L212.081 145.894L209.398 145.581L208.31 148.226L207.221 145.581L204.539 145.894L206.133 143.561L204.539 141.229L207.221 141.541L208.31 138.896Z" fill="#FFD0A4"/>
<path d="M202.188 118.684C200.248 118.684 200.244 121.916 202.188 121.916C204.129 121.916 204.132 118.684 202.188 118.684Z" fill="#FFD0A4"/>
<path d="M194.223 133.057C192.283 133.057 192.28 136.289 194.223 136.289C196.164 136.289 196.167 133.057 194.223 133.057Z" fill="#FFD0A4"/>
<path d="M218.749 130.362C216.808 130.362 216.805 133.594 218.749 133.594C220.689 133.593 220.692 130.362 218.749 130.362Z" fill="#FFD0A4"/>
<path d="M82.5478 26.3495C82.4506 26.3495 82.3623 26.288 82.3236 26.1928L80.9791 22.9266L77.6662 23.3124C77.57 23.3214 77.4758 23.2725 77.4277 23.1826C77.3786 23.0927 77.3845 22.9802 77.4419 22.8961L79.41 20.0157L77.4419 17.1353C77.3845 17.0512 77.3786 16.9387 77.4277 16.8488C77.4763 16.7589 77.571 16.7058 77.6662 16.7189L80.9791 17.1048L82.3236 13.8385C82.3623 13.7434 82.4506 13.6819 82.5478 13.6819C82.645 13.6819 82.7333 13.7434 82.7725 13.8385L84.116 17.1048L87.429 16.7189C87.5232 16.7053 87.6193 16.7589 87.6674 16.8488C87.7165 16.9387 87.7106 17.0512 87.6532 17.1353L85.6851 20.0157L87.6532 22.8961C87.7106 22.9802 87.7165 23.0927 87.6674 23.1826C87.6189 23.2725 87.5237 23.3219 87.429 23.3124L84.116 22.9266L82.7725 26.1928C82.7333 26.288 82.645 26.3495 82.5478 26.3495ZM81.1313 22.3809C81.2274 22.3809 81.3162 22.4419 81.3555 22.5375L82.5483 25.4348L83.7406 22.5375C83.7833 22.4329 83.8873 22.3688 83.9914 22.3825L86.9295 22.7247L85.1837 20.1697C85.1204 20.0772 85.1204 19.9516 85.1837 19.859L86.9295 17.3041L83.9914 17.6463C83.8868 17.6584 83.7833 17.5958 83.7406 17.4912L82.5483 14.594L81.3555 17.4912C81.3123 17.5958 81.2078 17.6589 81.1048 17.6463L78.1666 17.3041L79.9124 19.859C79.9757 19.9516 79.9757 20.0772 79.9124 20.1697L78.1666 22.7247L81.1048 22.3825C81.1131 22.3819 81.1224 22.3809 81.1313 22.3809Z" fill="#FFD0A4"/>
<path d="M87.7039 31.4148C85.4939 31.4148 85.49 35.0948 87.7039 35.0948C89.9138 35.0948 89.9173 31.4148 87.7039 31.4148Z" fill="#FFD0A4"/>
<path d="M92.3409 12.0059C91.3939 12.0059 91.3919 13.583 92.3409 13.583C93.2878 13.583 93.2893 12.0059 92.3409 12.0059Z" fill="#FFD0A4"/>
<path d="M93.7059 23.9895C92.7589 23.9895 92.7575 25.5666 93.7059 25.5666C94.6534 25.5666 94.6549 23.9895 93.7059 23.9895Z" fill="#FFD0A4"/>
<path d="M99.9805 18.144C99.0335 18.144 99.0316 19.7212 99.9805 19.7212C100.927 19.7212 100.929 18.144 99.9805 18.144Z" fill="#FFD0A4"/>
<path d="M205.775 108.489C205.678 108.489 205.59 108.428 205.551 108.332L204.207 105.066L200.894 105.452C200.797 105.461 200.703 105.412 200.655 105.322C200.606 105.232 200.612 105.12 200.669 105.036L202.638 102.155L200.669 99.2744C200.612 99.1903 200.606 99.0778 200.655 98.9873C200.704 98.8974 200.798 98.8449 200.894 98.8575L204.207 99.2434L205.551 95.9771C205.59 95.8819 205.678 95.8204 205.775 95.8204C205.872 95.8204 205.961 95.8819 206 95.9771L207.344 99.2434L210.656 98.8575C210.75 98.8438 210.847 98.8974 210.895 98.9873C210.944 99.0772 210.938 99.1897 210.881 99.2744L208.913 102.155L210.881 105.036C210.938 105.12 210.944 105.232 210.895 105.322C210.846 105.412 210.751 105.462 210.656 105.452L207.344 105.066L206 108.332C205.961 108.428 205.873 108.489 205.775 108.489ZM204.359 104.521C204.455 104.521 204.544 104.582 204.583 104.678L205.776 107.575L206.968 104.678C207.011 104.573 207.115 104.511 207.219 104.523L210.157 104.865L208.411 102.31C208.348 102.217 208.348 102.092 208.411 101.999L210.157 99.4442L207.219 99.7864C207.114 99.7969 207.011 99.7354 206.968 99.6313L205.776 96.7341L204.583 99.6313C204.54 99.736 204.435 99.798 204.332 99.7864L201.394 99.4442L203.14 101.999C203.203 102.092 203.203 102.217 203.14 102.31L201.394 104.865L204.332 104.523C204.341 104.522 204.35 104.521 204.359 104.521Z" fill="#FFD0A4"/>
<path d="M194.402 84.7567C192.192 84.7567 192.188 88.4367 194.402 88.4367C196.612 88.4367 196.616 84.7567 194.402 84.7567Z" fill="#FFD0A4"/>
<path d="M199.039 73.8246C198.092 73.8246 198.09 75.4017 199.039 75.4017C199.987 75.4017 199.988 73.8246 199.039 73.8246Z" fill="#FFD0A4"/>
<path d="M203.95 85.5159C203.003 85.5159 203.001 87.093 203.95 87.093C204.897 87.093 204.899 85.5159 203.95 85.5159Z" fill="#FFD0A4"/>
<path d="M187.307 78.7936C186.36 78.7936 186.359 80.3707 187.307 80.3707C188.254 80.3707 188.256 78.7936 187.307 78.7936Z" fill="#FFD0A4"/>
<path d="M175.62 140.22L176.944 153.691L180.512 151.875L178.815 155.697L185.488 157.115L178.815 158.533L180.512 162.355L176.944 160.538L175.62 174.01L174.297 160.538L170.729 162.355L172.425 158.533L165.753 157.115L172.425 155.697L170.729 151.875L174.297 153.691L175.62 140.22Z" fill="#FFD0A4"/>
<path d="M116.44 21.0869L117.307 29.9116L119.644 28.7213L118.533 31.2253L122.904 32.1543L118.533 33.0837L119.644 35.5872L117.307 34.3969L116.44 43.2221L115.573 34.3969L113.236 35.5872L114.346 33.0837L109.976 32.1543L114.346 31.2253L113.236 28.7213L115.573 29.9116L116.44 21.0869Z" fill="#FFD0A4"/>
<path d="M8.091 7.43042L8.95801 16.2556L11.2951 15.0654L10.1842 17.5693L14.555 18.4983L10.1842 19.4272L11.2951 21.9312L8.95801 20.741L8.091 29.5656L7.22399 20.741L4.88645 21.9312L5.99781 19.4272L1.62695 18.4983L5.99781 17.5693L4.88645 15.0654L7.22399 16.2556L8.091 7.43042Z" fill="#FFD0A4"/>
<path d="M138.808 58.4795H132.4C131.995 58.4795 131.612 58.2897 131.349 57.958C131.086 57.6268 130.973 57.1909 131.039 56.7625L131.057 56.6526C131.138 56.1663 131.291 55.6995 131.511 55.2716C131.731 54.8405 132.043 54.4267 132.436 54.0414C132.825 53.6597 133.326 53.2917 133.923 52.9484C134.335 52.6924 134.735 52.4585 135.109 52.2576C135.47 52.0605 135.793 51.8633 136.068 51.6715C136.328 51.489 136.533 51.294 136.677 51.0921C136.805 50.9118 136.867 50.7015 136.867 50.4481C136.867 50.2089 136.807 49.9918 136.682 49.7847C136.558 49.5765 136.373 49.4025 136.132 49.2658C135.889 49.1302 135.581 49.0608 135.219 49.0608C134.914 49.0608 134.64 49.1044 134.406 49.1906C134.162 49.2795 133.936 49.393 133.732 49.5292C133.525 49.6669 133.336 49.8204 133.17 49.9865C132.991 50.1658 132.762 50.2562 132.526 50.2431C132.288 50.231 132.069 50.1196 131.91 49.9282L131.527 49.464C131.368 49.2721 131.289 49.015 131.311 48.759C131.332 48.5014 131.454 48.2627 131.646 48.1034L131.73 48.034C131.994 47.819 132.317 47.6108 132.69 47.4148C133.063 47.2181 133.496 47.0473 133.975 46.9085C134.457 46.7692 134.99 46.6987 135.559 46.6987C136.354 46.6987 137.053 46.847 137.636 47.1398C138.228 47.4353 138.689 47.8485 139.007 48.3673C139.324 48.8889 139.485 49.4908 139.485 50.1574C139.485 50.6779 139.385 51.1442 139.188 51.5442C138.999 51.9285 138.758 52.275 138.472 52.5725C138.192 52.8643 137.89 53.1182 137.573 53.328C137.264 53.5309 136.968 53.7133 136.691 53.871C136.232 54.1087 135.839 54.331 135.513 54.5361C135.182 54.7458 134.903 54.9482 134.685 55.137C134.468 55.3252 134.283 55.5228 134.135 55.7258C134.059 55.8299 133.99 55.9408 133.928 56.0601H138.808C139.289 56.0601 139.681 56.4796 139.681 56.9948V57.5442C139.682 58.0594 139.29 58.4795 138.808 58.4795ZM135.22 48.5345C135.661 48.5345 136.046 48.6239 136.361 48.8C136.679 48.9803 136.926 49.2158 137.096 49.5008C137.271 49.791 137.359 50.1101 137.359 50.4481C137.359 50.8156 137.26 51.1394 137.067 51.4112C136.89 51.6604 136.644 51.8959 136.337 52.1115C136.047 52.3139 135.709 52.5205 135.331 52.7266C134.966 52.9237 134.573 53.1529 134.162 53.4074C133.594 53.7344 133.127 54.0761 132.767 54.4288C132.414 54.7748 132.136 55.1433 131.941 55.5244C131.747 55.9024 131.611 56.3151 131.539 56.752L131.526 56.8319C131.481 57.1236 131.554 57.4044 131.723 57.6178C131.893 57.8313 132.139 57.9537 132.4 57.9537H138.808C139.019 57.9537 139.191 57.7697 139.191 57.5432V56.9938C139.191 56.7683 139.019 56.5848 138.808 56.5848H133.54C133.458 56.5848 133.382 56.5417 133.337 56.4691C133.29 56.3966 133.282 56.3046 133.312 56.2236C133.428 55.9156 133.575 55.639 133.749 55.4014C133.919 55.1675 134.13 54.9404 134.378 54.7269C134.616 54.5198 134.907 54.3084 135.264 54.0824C135.606 53.8663 136.001 53.6439 136.47 53.4011C136.732 53.2523 137.017 53.0767 137.315 52.8796C137.602 52.6903 137.877 52.46 138.13 52.1951C138.38 51.9354 138.59 51.6341 138.755 51.2987C138.914 50.9754 138.994 50.5911 138.994 50.1569C138.994 49.5933 138.861 49.0881 138.597 48.6544C138.33 48.2186 137.937 47.869 137.429 47.615C136.911 47.3553 136.282 47.2234 135.559 47.2234C135.033 47.2234 134.544 47.2875 134.103 47.4148C133.654 47.5451 133.251 47.7034 132.906 47.8858C132.561 48.0672 132.265 48.258 132.027 48.452L131.976 48.493C131.861 48.5892 131.809 48.6912 131.799 48.8063C131.79 48.9199 131.823 49.0292 131.894 49.1144L132.277 49.5791C132.347 49.6632 132.444 49.7126 132.549 49.7179C132.654 49.7232 132.754 49.6837 132.831 49.607C133.025 49.4125 133.239 49.2379 133.473 49.0818C133.709 48.9251 133.969 48.7942 134.247 48.6928C134.533 48.5876 134.86 48.5345 135.22 48.5345Z" fill="#FFD0A4"/>
<path d="M228.75 106.328C229 106.783 229.125 107.31 229.125 107.908C229.125 108.542 228.983 109.097 228.7 109.575C228.417 110.053 228.036 110.426 227.557 110.694C227.077 110.961 226.533 111.096 225.925 111.096C225.283 111.096 224.708 110.942 224.2 110.634C223.861 110.427 223.575 110.173 223.343 109.869C223.149 109.615 223.17 109.241 223.389 109.01C223.505 108.888 223.656 108.827 223.807 108.827C223.959 108.827 224.111 108.889 224.228 109.012C224.388 109.18 224.567 109.328 224.763 109.455C225.129 109.691 225.521 109.809 225.938 109.809C226.28 109.809 226.584 109.727 226.851 109.562C227.117 109.396 227.328 109.174 227.482 108.892C227.636 108.611 227.713 108.292 227.713 107.934C227.713 107.578 227.64 107.263 227.494 106.99C227.348 106.718 227.148 106.506 226.893 106.354C226.639 106.202 226.354 106.126 226.037 106.126C225.712 106.126 225.412 106.202 225.137 106.354C224.94 106.464 224.769 106.607 224.623 106.784C224.507 106.925 224.343 107.01 224.168 107.01H223.975C223.599 107.01 223.317 106.643 223.389 106.247L224.262 101.452H228.002C228.332 101.452 228.6 101.738 228.6 102.092V102.165C228.6 102.518 228.332 102.805 228.002 102.805H225.262L224.812 105.403C224.954 105.242 225.146 105.113 225.387 105.015C225.629 104.917 225.904 104.867 226.212 104.867C226.771 104.867 227.271 104.997 227.712 105.255C228.154 105.515 228.5 105.872 228.75 106.328Z" fill="#FFD0A4"/>
<path d="M179.18 128.657C178.548 128.657 177.963 128.497 177.441 128.182C177.099 127.976 176.794 127.712 176.533 127.398C176.26 127.068 176.23 126.58 176.461 126.238C176.761 125.792 177.41 125.746 177.769 126.137C177.888 126.268 178.028 126.385 178.183 126.485C178.464 126.666 178.783 126.771 179.105 126.787C179.538 126.804 179.894 126.693 180.194 126.433C180.474 126.188 180.699 125.822 180.862 125.344C180.953 125.077 181.02 124.78 181.065 124.457C181.052 124.47 181.038 124.483 181.024 124.495C180.787 124.719 180.509 124.896 180.198 125.02C179.888 125.142 179.554 125.204 179.206 125.204C178.564 125.204 177.971 125.04 177.446 124.718C176.919 124.397 176.498 123.954 176.195 123.401C175.891 122.847 175.736 122.22 175.736 121.537C175.736 120.845 175.897 120.203 176.215 119.63C176.531 119.06 176.963 118.6 177.502 118.264C178.043 117.927 178.656 117.757 179.323 117.757C180.057 117.757 180.704 117.952 181.246 118.337C181.788 118.722 182.216 119.282 182.516 120.002C182.812 120.712 182.961 121.566 182.961 122.541C182.961 123.853 182.809 124.971 182.51 125.864C182.203 126.776 181.764 127.476 181.203 127.944C180.635 128.417 179.955 128.657 179.18 128.657ZM177.15 126.384C177.082 126.384 176.954 126.405 176.859 126.545C176.763 126.688 176.78 126.905 176.9 127.049C177.124 127.32 177.387 127.547 177.682 127.724C178.13 127.995 178.634 128.132 179.181 128.132C179.844 128.132 180.423 127.929 180.904 127.529C181.389 127.124 181.775 126.504 182.05 125.687C182.33 124.851 182.472 123.793 182.472 122.542C182.472 121.641 182.337 120.859 182.069 120.217C181.808 119.589 181.44 119.105 180.977 118.776C180.516 118.449 179.96 118.283 179.325 118.283C178.745 118.283 178.216 118.43 177.751 118.719C177.286 119.009 176.911 119.407 176.639 119.899C176.367 120.389 176.229 120.94 176.229 121.537C176.229 122.125 176.36 122.663 176.619 123.135C176.879 123.606 177.239 123.986 177.691 124.261C178.142 124.537 178.652 124.677 179.208 124.677C179.499 124.677 179.775 124.626 180.031 124.526C180.283 124.426 180.51 124.282 180.702 124.1C180.894 123.92 181.045 123.708 181.153 123.47C181.203 123.359 181.318 123.298 181.431 123.328C181.542 123.357 181.621 123.465 181.619 123.588C181.61 124.322 181.51 124.974 181.324 125.524C181.13 126.093 180.854 126.535 180.505 126.841C180.113 127.181 179.638 127.34 179.083 127.312C178.68 127.292 178.282 127.161 177.931 126.935C177.74 126.813 177.568 126.668 177.419 126.506C177.347 126.427 177.252 126.384 177.15 126.384ZM179.311 123.973C178.919 123.973 178.548 123.86 178.21 123.636C177.876 123.416 177.606 123.12 177.409 122.754C177.209 122.388 177.108 121.977 177.108 121.536C177.108 121.085 177.211 120.667 177.416 120.294C177.617 119.927 177.886 119.628 178.215 119.408C178.885 118.96 179.764 118.96 180.433 119.408C180.763 119.629 181.032 119.928 181.233 120.296C181.437 120.668 181.54 121.085 181.54 121.536C181.54 121.979 181.436 122.39 181.232 122.758C181.03 123.121 180.764 123.417 180.441 123.635C180.111 123.859 179.73 123.973 179.311 123.973ZM179.324 119.596C179.016 119.596 178.73 119.683 178.475 119.853C178.214 120.028 178 120.266 177.839 120.56C177.679 120.851 177.598 121.179 177.598 121.536C177.598 121.883 177.677 122.204 177.833 122.49C177.99 122.78 178.203 123.015 178.467 123.189C179.016 123.55 179.69 123.522 180.178 123.191C180.435 123.016 180.648 122.78 180.81 122.488C180.969 122.203 181.049 121.882 181.049 121.535C181.049 121.179 180.968 120.851 180.809 120.56C180.648 120.266 180.434 120.028 180.172 119.852C179.914 119.68 179.636 119.596 179.324 119.596Z" fill="#FFD0A4"/>
<path d="M169.624 108.798H168.65V97.5306C168.65 96.731 168.045 96.0828 167.299 96.0828H167.258C166.841 96.0828 166.446 96.2894 166.19 96.6426L157.634 108.465C157.45 108.718 157.35 109.03 157.35 109.351V110.247C157.35 111.047 157.955 111.695 158.701 111.695H165.649V114.852C165.649 115.652 166.254 116.3 167.001 116.3H167.299C168.045 116.3 168.65 115.652 168.65 114.852V111.695H169.678C170.051 111.695 170.389 111.534 170.634 111.271C170.931 110.953 171.09 110.485 171.008 109.986C170.899 109.327 170.249 108.798 169.624 108.798ZM165.975 108.798H160.351L165.975 100.948V108.798Z" fill="#FFD0A4"/>
<path d="M160.35 137.639L155.88 147.083C155.751 147.356 155.49 147.528 155.205 147.528H155.048C154.482 147.528 154.116 146.887 154.373 146.347L158.383 137.938H154.015C153.669 137.938 153.302 137.646 153.239 137.281C153.19 136.998 153.28 136.733 153.448 136.553C153.585 136.407 153.774 136.316 153.983 136.316H159.592C160.226 136.317 160.637 137.033 160.35 137.639Z" fill="#FFD0A4"/>
<mask id="mask0_261_1601" style="mask-type:luminance" maskUnits="userSpaceOnUse" x="-132" y="0" width="369" height="263">
<path d="M236.133 0H-131.867V262.857H236.133V0Z" fill="white"/>
</mask>
<g mask="url(#mask0_261_1601)">
<path d="M162.63 67.7046C162.584 67.7046 162.538 67.6904 162.497 67.6631C162.425 67.6131 162.382 67.5253 162.385 67.4323L162.993 49.5259L152.958 30.3032C152.902 30.1965 152.923 30.0624 153.007 29.9804L172.84 10.693C172.928 10.6068 173.061 10.601 173.156 10.6809L186.913 22.2167L191.933 5.44952L162.811 -13.0772C162.694 -13.1513 162.656 -13.3127 162.725 -13.4373C162.794 -13.5624 162.945 -13.6034 163.061 -13.5288L192.351 5.10465C192.45 5.16721 192.494 5.29444 192.46 5.41114L187.273 22.7366C187.248 22.8186 187.188 22.8822 187.111 22.9074C187.035 22.9322 186.952 22.9159 186.888 22.8633L173.016 11.2313L153.482 30.2291L163.455 49.334C163.477 49.3761 163.488 49.4239 163.486 49.4718L162.89 67.0086L180.827 57.3996C180.948 57.3349 181.096 57.3869 181.156 57.5173C181.217 57.6472 181.168 57.8049 181.047 57.8701L162.74 67.6773C162.705 67.6957 162.668 67.7046 162.63 67.7046Z" fill="#FFD0A4"/>
<path d="M179.107 73.9159C179.08 73.9159 179.052 73.9112 179.025 73.9012L162.55 67.6904C162.422 67.6421 162.355 67.4922 162.4 67.355C162.445 67.2183 162.585 67.1453 162.713 67.1942L179.188 73.4049C179.316 73.4533 179.384 73.6031 179.338 73.7404C179.303 73.8481 179.208 73.9159 179.107 73.9159Z" fill="#FFD0A4"/>
<path d="M224.567 62.1472C224.5 62.1472 224.434 62.1183 224.385 62.061L212.181 47.6775C212.12 47.6054 212.101 47.504 212.131 47.4125L218.204 29.1928L212.13 10.3197C212.122 10.2918 212.117 10.2634 212.117 10.234V-11.9953C212.117 -12.1404 212.227 -12.2582 212.363 -12.2582C212.498 -12.2582 212.608 -12.1404 212.608 -11.9953V10.1898L218.697 29.1087C218.715 29.165 218.714 29.2265 218.696 29.2827L212.643 47.4409L224.748 61.7077C224.839 61.8155 224.832 61.9816 224.732 62.0794C224.685 62.1246 224.626 62.1472 224.567 62.1472Z" fill="#FFD0A4"/>
<path d="M201.077 28.8033C201.046 28.8033 201.016 28.7975 200.987 28.7854L186.952 22.9011C186.826 22.848 186.763 22.6955 186.813 22.5604C186.862 22.4253 187.003 22.3585 187.131 22.4111L200.981 28.2181L212.161 10.0889C212.235 9.96744 212.387 9.93432 212.5 10.0142C212.613 10.0941 212.645 10.2571 212.57 10.378L201.281 28.6845C201.235 28.7607 201.157 28.8033 201.077 28.8033Z" fill="#FFD0A4"/>
<path d="M236.772 35.3417C236.749 35.3417 236.725 35.338 236.701 35.3306L218.395 29.4463C218.265 29.4043 218.191 29.2581 218.23 29.1188C218.269 28.9795 218.406 28.9027 218.535 28.9427L236.755 34.7991L250.402 28.3008C250.526 28.2424 250.671 28.3008 250.726 28.4343C250.781 28.5668 250.725 28.7224 250.601 28.7813L236.871 35.3196C236.84 35.3338 236.806 35.3417 236.772 35.3417Z" fill="#FFD0A4"/>
<path d="M162.28 62.7313L163.368 65.3767L166.05 65.0639L164.457 67.3965L166.05 69.7291L163.368 69.4168L162.28 72.0617L161.191 69.4168L158.509 69.7291L160.102 67.3965L158.509 65.0639L161.191 65.3767L162.28 62.7313Z" fill="#FFD0A4"/>
<path d="M212.364 5.56885L213.452 8.21424L216.134 7.90144L214.541 10.234L216.134 12.5666L213.452 12.2544L212.364 14.8992L211.275 12.2544L208.593 12.5666L210.186 10.234L208.593 7.90144L211.275 8.21424L212.364 5.56885Z" fill="#FFD0A4"/>
<path d="M218.465 23.8752L219.553 26.5206L222.236 26.2078L220.642 28.5404L222.236 30.873L219.553 30.5608L218.465 33.2056L217.376 30.5608L214.694 30.873L216.288 28.5404L214.694 26.2078L217.376 26.5206L218.465 23.8752Z" fill="#FFD0A4"/>
<path d="M187.038 16.3402L188.127 18.9856L190.809 18.6728L189.215 21.0054L190.809 23.338L188.127 23.0257L187.038 25.6706L185.95 23.0257L183.268 23.338L184.861 21.0054L183.268 18.6728L185.95 18.9856L187.038 16.3402Z" fill="#FFD0A4"/>
<path d="M201.376 26.9655C199.435 26.9655 199.432 30.197 201.376 30.197C203.316 30.1965 203.32 26.9655 201.376 26.9655Z" fill="#FFD0A4"/>
<path d="M180.625 56.4974C178.684 56.4974 178.681 59.729 180.625 59.729C182.565 59.7285 182.569 56.4974 180.625 56.4974Z" fill="#FFD0A4"/>
<path d="M163.124 47.9635C161.183 47.9635 161.18 51.1951 163.124 51.1951C165.064 51.1945 165.068 47.9635 163.124 47.9635Z" fill="#FFD0A4"/>
<path d="M152.749 28.3129C150.808 28.3129 150.805 31.5444 152.749 31.5444C154.689 31.5444 154.693 28.3129 152.749 28.3129Z" fill="#FFD0A4"/>
<path d="M172.451 9.67249C170.51 9.67249 170.507 12.9041 172.451 12.9041C174.391 12.9041 174.394 9.67249 172.451 9.67249Z" fill="#FFD0A4"/>
<path d="M191.945 3.83398C190.004 3.83398 190.001 7.06555 191.945 7.06555C193.885 7.06502 193.889 3.83398 191.945 3.83398Z" fill="#FFD0A4"/>
<path d="M236.8 33.5903C234.86 33.5903 234.856 36.8219 236.8 36.8219C238.741 36.8214 238.744 33.5903 236.8 33.5903Z" fill="#FFD0A4"/>
<path d="M212.8 45.4932C210.859 45.4932 210.855 48.7247 212.8 48.7247C214.74 48.7242 214.744 45.4932 212.8 45.4932Z" fill="#FFD0A4"/>
<path d="M224.436 60.0907C222.496 60.0907 222.492 63.3223 224.436 63.3223C226.377 63.3223 226.38 60.0907 224.436 60.0907Z" fill="#FFD0A4"/>
<path d="M179.262 72.4423C177.322 72.4423 177.318 75.6738 179.262 75.6738C181.203 75.6738 181.206 72.4423 179.262 72.4423Z" fill="#FFD0A4"/>
</g>
</svg>
