<svg width="80" height="94" viewBox="0 0 80 94" fill="none" xmlns="http://www.w3.org/2000/svg">
<path d="M40.4829 93.1191L0 70.423L0 23.1795L40.4829 0.000427246L80 23.1795V70.423L40.4829 93.1191Z" fill="#C5E6FF"/>
<path d="M38.4609 32.125C38.5547 32.125 38.6719 32.1719 38.7734 32.3125C38.3203 31.6641 39.2812 31.9453 39.3359 31.3281C39.8828 30.9219 39.6875 30.6562 39.8438 30.6406L40.0156 30.5C39.6797 30.625 39.5625 30.6484 39.4688 30.6484H39.3125C39.1953 30.6484 39 30.6719 38.5391 30.8125C37.4844 30.8906 36.7266 32.0312 36.3672 32.0625C36 32.2578 36.0156 32.2969 36.1016 32.2969C36.125 32.2969 36.1562 32.2891 36.1875 32.2891C36.2188 32.2891 36.2422 32.2812 36.2656 32.2812C36.3516 32.2812 36.3281 32.3203 35.8281 32.5547C35.9453 32.5859 34.9531 33.0234 34.9453 33.7109C34.9141 33.9766 35.0234 34.1562 35.2031 34.1562C35.3594 34.1562 35.5547 34.0391 35.7656 33.7422C36.4688 32.9297 37.9531 32.8516 38.5938 32.3594C38.1953 32.3281 38.2734 32.125 38.4609 32.125ZM34.8906 32.3984C34.8203 32.3984 34.9141 32.3125 35.0156 32.2266C35.125 32.1406 35.25 32.0547 35.25 32.0547L35.2422 32.0625C35.6641 31.8984 35.4062 31.8594 35.6328 31.75H35.6172C35.5703 31.75 35.6562 31.6875 35.7344 31.6172C35.8125 31.5547 35.8828 31.4844 35.8125 31.4844C35.7734 31.4844 35.6719 31.5078 35.5 31.5781C35.5547 31.5 35.7656 31.4453 36.0625 31.2812C35.6328 31.4219 35.2969 31.5078 35.2578 31.5078C35.2266 31.5078 35.4062 31.4453 35.9453 31.2812C35.9688 31.2812 35.9922 31.2891 36.0078 31.2891C36.0625 31.2891 36.0859 31.2734 36.0781 31.2578C36.0703 31.2422 36.0391 31.2344 35.9844 31.2344C35.2109 31.2969 34.6328 31.7812 34.8047 31.8438C34.9062 31.8125 34.9766 31.7969 35.0234 31.7969C35.125 31.7969 35.0781 31.8828 34.875 32.0078C34.9688 32.2266 33.3125 32.7891 33.125 32.9922C33.2188 32.9375 33.2812 32.9219 33.3125 32.9219C33.4375 32.9219 33.2734 33.1641 33.1094 33.2812C33.2109 33.375 33.2891 33.4062 33.3516 33.4062C33.5156 33.4062 33.5859 33.1797 33.7266 33.1094C33.7578 33.1719 33.7891 33.2031 33.8281 33.2031C33.9609 33.2031 34.125 32.875 34.2578 32.7031C34.2969 32.7422 34.3437 32.7734 34.4062 32.7734C34.5312 32.7734 34.7188 32.6719 35.0156 32.3828C34.9531 32.3906 34.9063 32.3984 34.8906 32.3984ZM33.0938 33.8359C32.8125 34.0078 32.6641 34.0781 32.6016 34.0781C32.4844 34.0781 32.6406 33.8594 32.7812 33.6328C32.9219 33.4141 33.0469 33.1953 32.8672 33.1953C32.7812 33.1953 32.625 33.2422 32.375 33.3672C31.6953 33.8203 30.5469 35.0703 30.0391 35.0703H29.9922C30.8125 34.4688 30.5703 33.2891 31.7188 32.9844C32.8516 32.3359 33.625 32.5391 34.6328 31.7969C34.3359 31.9453 33.8984 32.1094 33.7969 32.1094C33.7344 32.1094 33.8281 32.0312 34.2344 31.8359C34.1953 31.8438 34.1641 31.8516 34.1406 31.8516C33.8672 31.8516 35.9375 31.1094 36.0391 31.0938C35.1875 31.2109 33.8125 31.9219 33.625 31.9219C33.6016 31.9219 33.6016 31.9141 33.6016 31.8984C33.6328 31.875 33.6328 31.8594 33.6016 31.8594C33.5 31.8594 33.0781 32 32.6484 32.1406C32.2266 32.2812 31.7969 32.4297 31.7031 32.4297C31.6719 32.4297 31.6719 32.4141 31.7188 32.3828C28.0312 34.4766 24.9531 38.0078 23.9922 42.1953C24.3906 43.1094 24.1172 44.8516 24.7734 45.3594C25.5234 45.9922 24.1328 47.8281 24.5 48.9609C24.875 51.0078 26.4922 52.4062 26.6641 54.5C26.9609 55.9375 28.0469 57.6953 28.5 58.6094C28.8438 58.9531 29.7891 59.9453 29.9531 59.9453C30.0156 59.9453 29.9766 59.7969 29.7266 59.3984C29.5703 58.9531 28.6641 57.7891 29.1016 57.7891C29.125 57.7891 29.1484 57.7891 29.1797 57.7969C28.6406 57.25 30.375 57.3984 29.1641 56.6562C29.0234 56.4844 28.9922 56.4297 29.0234 56.4297C29.0625 56.4297 29.1719 56.4922 29.2969 56.5547C29.4297 56.6172 29.5859 56.6797 29.7109 56.6797C29.9062 56.6797 30.0391 56.5469 29.9609 56.0625C29.9922 56.0781 30.0234 56.0781 30.0469 56.0781C30.25 56.0781 30.1797 55.6797 30.1953 55.2812C30.2109 54.8828 30.3125 54.4844 30.8594 54.4844C30.9219 54.4844 30.9922 54.4922 31.0625 54.5C32.3281 53.8125 31.2266 51.9141 32.6797 51.2188C32.625 49.6406 30.5078 49.5625 29.7109 48.9219C29.5781 49 29.4531 49.0234 29.3281 49.0234C29.1875 49.0234 29.0625 48.9922 28.9531 48.9531C28.8438 48.9219 28.7422 48.8828 28.6719 48.8828C28.6562 48.8828 28.6406 48.8828 28.625 48.8906C29.9844 48.5313 28.9922 46.6406 27.8672 46.6406H27.7891C27.7031 45.8203 27.2812 46.1328 27.2344 45.4531C27.1641 45.4922 27.0938 45.5078 27.0234 45.5078C26.8359 45.5078 26.6641 45.375 26.5156 45.25C26.3672 45.1172 26.2422 44.9922 26.1328 44.9922C26.0469 44.9922 25.9688 45.0781 25.8984 45.3281C25.9766 44.9453 25.9531 44.8203 25.875 44.8203C25.7969 44.8203 25.6562 44.9531 25.5 45.0859C25.3516 45.2188 25.1797 45.3516 25.0469 45.3516H25.0078C24.0938 44.7031 25.0156 43.5547 24.5312 42.6719C24.8438 42.3359 24.9688 41.7656 24.8281 41.7656C24.7578 41.7656 24.6172 41.9062 24.3984 42.2891C24.0859 41.4922 24.9141 39.6875 25.6172 39.5859C25.6406 39.5859 25.6562 39.5781 25.6797 39.5781C25.8047 39.5781 25.9297 39.6406 26.0391 39.7734C26.1016 40.1406 25.9453 40.9141 26.0078 40.9141C26.0391 40.9141 26.1016 40.7578 26.2578 40.3516C26.4609 39.4219 27.8828 38.75 28.0312 38.1797C28.0391 38.1875 28.0391 38.1875 28.0469 38.1875C28.2109 38.1875 29.2656 37.2578 29.7266 37.1562C29.9062 36.9766 30.0312 36.9141 30.125 36.9141C30.2266 36.9141 30.2812 36.9922 30.3203 37.0625C30.3594 37.1406 30.3906 37.2109 30.4297 37.2109C30.4609 37.2109 30.5 37.1641 30.5703 37.0312C30.3281 36.5547 30.9531 36.1016 30.7812 36.1016C30.7188 36.1016 30.5312 36.1641 30.1484 36.3203C30.0859 36.3516 30.0547 36.3594 30.0391 36.3594C29.9922 36.3594 30.1797 36.2344 30.4531 36.1094C30.7266 35.9844 31.0703 35.8594 31.3594 35.8594C31.5 35.8594 31.625 35.8906 31.7188 35.9688C32.9297 35.6797 32.2656 35.2812 32.3281 35.2812H32.3438C32.6875 35.0781 32.5859 34.3125 33.0938 33.8359ZM27.6797 37.0312C27.6641 37.0312 27.7344 36.9297 27.9688 36.6406C28.4531 36.2812 28.8438 36.0391 28.3984 35.8047C28.5938 35.7188 28.7812 35.6172 28.9609 35.5078C28.9531 35.8906 28.6328 36.8203 28.4609 36.8203C28.4219 36.8203 28.3828 36.7656 28.3672 36.6484C28.4688 36.4688 28.4766 36.3984 28.4375 36.3984C28.375 36.3984 28.1953 36.5547 28.0234 36.7188C27.8516 36.8672 27.6953 37.0312 27.6797 37.0312ZM28.125 37.2422C27.9141 37.2422 27.9531 37.1094 28.6016 36.9766C28.8828 36.9375 28.6641 36.9531 29 36.875C28.6719 37.1406 28.3047 37.2422 28.125 37.2422ZM40.2734 36.4531C40.3672 36.4375 40.4375 36.4375 40.4922 36.4375C40.7188 36.4375 40.6172 36.5312 40.4844 36.625C40.3516 36.7188 40.1875 36.8125 40.2812 36.8125C40.3359 36.8125 40.4844 36.7812 40.7891 36.6953C42.3281 36.5859 40.1875 35.2812 40.5312 34.8438L40.4375 34.8125C39.8047 35.6172 40.8594 35.6328 40.2734 36.4531ZM39.6328 36.4844C39.7422 36.4844 39.8828 36.3594 40.0312 36.0078C40.2344 35.7656 40.1484 35.7344 39.9297 35.6172C39.3281 35.7734 39.3828 36.4844 39.6328 36.4844ZM45.0234 38.9609C45 38.9609 44.9844 38.9688 44.9688 38.9766C45.0312 38.9922 45.0938 39.0078 45.1562 39.0078C45.0938 38.9766 45.0547 38.9609 45.0234 38.9609ZM55.5156 40.9062C55.6484 41.1953 55.7188 41.3125 55.7266 41.3125C55.7812 41.3125 54.7422 38.7812 54.3125 38.3281C52.0703 34.6406 48.3828 31.8203 44.1797 30.7656H44.1719C44.0625 30.7656 44.1875 30.8203 44.3359 30.875C44.4844 30.9297 44.6641 30.9844 44.6641 30.9844C44.6641 30.9844 44.5469 30.9453 44.1875 30.8438C43.7891 30.7266 43.3828 30.6406 42.9688 30.6094C42.8984 30.6328 44.6797 31.3359 45.875 31.7031C45.4766 31.5781 45.0625 31.4688 44.9609 31.4688C44.8906 31.4688 44.9609 31.5156 45.25 31.6406C44.8984 31.5391 44.75 31.4922 44.7344 31.4922C44.7109 31.4922 45.2031 31.6562 45.6641 31.8203C46.1328 31.9844 46.5781 32.1484 46.4531 32.1484C46.4219 32.1484 46.3359 32.1328 46.2031 32.1094C46.6016 32.3281 46.7422 32.4141 46.7188 32.4141C46.6797 32.4141 46.1875 32.1797 45.6797 31.9453C45.1797 31.7109 44.6719 31.4766 44.6016 31.4766C44.5625 31.4766 44.6641 31.5547 45.0078 31.7578C45.4766 31.9609 45.9453 32.1641 45.8125 32.1641C45.75 32.1641 45.5703 32.125 45.2188 32.0234C46 32.4219 44.6641 32.2656 45.1172 32.8047C44.8672 32.5703 44.7656 32.4922 44.7422 32.4922C44.7188 32.4922 44.7812 32.5859 44.8438 32.6797C44.9062 32.7734 44.9531 32.8672 44.8984 32.8672H44.8828C45.4297 33.4609 44.5 32.9297 45.1641 33.4609C44.6641 33.2344 43.8125 32.8594 44.1953 32.8594C44.2891 32.8594 44.4688 32.8828 44.75 32.9453C44.2422 32.3516 42.8047 32.3281 42.7734 32.2578C42.4141 32.2813 42.4062 32.5547 42.4688 33.0547C42.4609 33.8438 41.6875 33.8594 41.7891 34.3125C41.7891 34.3047 41.7969 34.3047 41.7969 34.3047C41.8125 34.3047 41.8203 34.4609 41.8672 34.625C41.9219 34.7812 42.0156 34.9453 42.2188 34.9453C42.3281 34.9453 42.4687 34.8984 42.6406 34.7812C42.8828 35.2188 43.1016 35.375 43.2734 35.375C43.5312 35.375 43.6875 35.0234 43.6719 34.7031C43.3906 34.5469 43.0234 33.25 43.4297 33.25C43.4922 33.25 43.5703 33.2813 43.6719 33.3516C43.0391 34.9062 46.1719 33.8672 44.3984 34.5781C44.7969 35.1016 44.1484 35.0781 44.3359 35.7109C44.0312 35.7969 43.6953 35.875 43.3984 35.875C42.9609 35.875 42.625 35.6875 42.6641 35.0312C42.1172 35.3203 43.2109 36.2969 42.125 36.2969H42.0625C41.5391 37.2578 39.5781 36.9297 41.1172 37.9453C41.2031 38.3906 40.9219 38.4688 40.5625 38.4688C40.4688 38.4688 40.3672 38.4609 40.2656 38.4531C40.1641 38.4453 40.0625 38.4453 39.9688 38.4453C39.5625 38.4453 39.2734 38.5469 39.5234 39.1797C39.3438 39.8359 39.7656 40.125 40.2812 40.125C40.9062 40.125 41.6719 39.7188 41.7266 39.0469C42.0625 38.5391 42.4922 38.3281 42.9375 38.3281C43.6406 38.3281 44.3828 38.8594 44.8672 39.5156C44.9062 39.5781 44.9375 39.6016 44.9531 39.6016C44.9922 39.6016 44.9531 39.4453 44.9375 39.2891C44.9219 39.1641 44.9219 39.0391 44.9688 39C44.2734 38.8047 43.7422 37.9609 43.9766 37.9609C44.0547 37.9609 44.2188 38.0547 44.4844 38.3047H44.5234C44.9609 38.3047 45.3047 38.6484 45.5703 38.9922C45.8438 39.3359 46.0469 39.6797 46.2266 39.6797C46.2969 39.6797 46.3672 39.6172 46.4297 39.4766C46.3984 39.4297 46.3203 39.2969 46.2812 39.1641C46.2344 39 46.2344 38.8359 46.4453 38.8359C46.5312 38.8359 46.6484 38.8672 46.8125 38.9297C47.3438 38.7891 46.4766 37.4062 47.1797 37.4062C47.25 37.4062 47.3359 37.4219 47.4453 37.4531C47.4375 37.6953 47.5469 37.7812 47.6484 37.7812C47.8516 37.7812 48.0547 37.4922 47.5625 37.4062C47.75 37.2266 47.8594 37.1562 47.9375 37.1562C48.2109 37.1562 47.9922 38.0625 48.9375 38.0625C49.2578 38.8203 46.1562 38.1172 47.1484 39.5703C47.375 39.7344 47.6562 39.7656 47.9297 39.7656C48.0156 39.7656 48.0938 39.7656 48.1719 39.7578C48.25 39.7578 48.3281 39.75 48.3984 39.75C48.8828 39.75 49.2266 39.8672 49.0156 40.8672C48.7578 41.0547 48.4688 41.1172 48.1719 41.1172C47.9062 41.1172 47.6406 41.0703 47.3828 41.0234C47.125 40.9766 46.875 40.9297 46.6484 40.9297C46.2969 40.9297 46.0156 41.0469 45.8438 41.4531C44.9297 41.0781 43.7266 41.0625 43.8438 39.9297C42.25 40.1562 40.5859 40.0391 39.4141 41.0156C39.3438 42.4453 36.8906 42.9062 37.4844 44.5312C36.7734 46.0312 38.3438 48.1328 39.9453 48.1328C40 48.1328 40.0625 48.1328 40.1172 48.125C40.9922 48.1172 41.875 47.7266 42.6484 47.7266C43.0469 47.7266 43.4062 47.8281 43.7188 48.1406C43.7891 48.1328 43.8516 48.125 43.9062 48.125C45.1016 48.125 43.5234 50.0234 44.9531 50.3438C46.25 51.6875 44.1562 53.0703 45.1797 54.3594C45.2891 55.3672 45.7891 56.2109 45.7891 57.1953C45.9219 57.2109 46.0469 57.2188 46.1797 57.2188C47.8281 57.2188 48.8594 55.7812 49.8281 54.6953C49.5312 53.0703 52.1328 52.75 51.2422 50.9297C50.8281 48.9375 53.2031 47.7578 53.0703 45.7656C53.0938 45.4844 53.0156 45.3984 52.8984 45.3984C52.7812 45.3984 52.6094 45.4844 52.4453 45.5625C52.2734 45.6484 52.0859 45.7266 51.9375 45.7266C51.7422 45.7266 51.5938 45.5938 51.5781 45.1562C50.4297 44.0859 49.9062 42.6328 48.8359 41.4531C50.2266 42.125 51.0156 43.6406 51.6562 45.0156C51.7109 45.0312 51.7656 45.0391 51.8281 45.0391C52.9609 45.0391 54.5391 42.3281 52.8203 41.6719C52.7266 41.9297 52.6016 42.0234 52.4531 42.0234C52.1953 42.0234 51.8984 41.7109 51.6875 41.4062C51.4766 41.0938 51.3672 40.7812 51.4844 40.7812C51.5625 40.7812 51.7344 40.9062 52.0312 41.2344C52.3672 41.4453 52.6953 41.5 53.0391 41.5C53.375 41.5 53.7188 41.4453 54.0781 41.4141C54.5312 41.5938 54.7266 42.1719 54.8672 42.1719C54.8906 42.1719 54.9219 42.1484 54.9453 42.0938C55.3047 42.9531 55.7188 44.4844 56.0938 44.8984C55.8984 43.5859 55.8516 42.1953 55.5156 40.9062ZM51.1562 39.1016C50.2734 38.875 49.9844 37.7812 49.2891 37.1484C49.2812 36.9766 49.5391 37.0078 49.4766 36.7188C50.4141 37.0078 50.1094 37.2969 50.0234 37.3516C50.3672 37.9219 51.3281 38.3125 51.1562 39.1016ZM39.0234 33.1562C38.1719 33.4063 38.0547 33.1328 38.2031 33.6562C38.2656 33.7031 38.3828 33.7188 38.5 33.7188C38.9141 33.7266 39.4766 33.4844 39.0234 33.1562ZM51.5312 54.6797C52.6484 53.7344 52.7891 52.6094 52.8438 51.4688C52.3438 52.4453 50.8594 53.5234 51.5312 54.6797ZM46.4453 39.4453C46.4375 39.4531 46.4375 39.4531 46.4375 39.4609C46.4453 39.4766 46.4531 39.4766 46.4531 39.4766C46.4531 39.4766 46.4531 39.4688 46.4453 39.4453ZM40 27C28.9531 27 20 35.9531 20 47C20 58.0469 28.9531 67 40 67C51.0469 67 60 58.0469 60 47C60 35.9531 51.0469 27 40 27ZM40 65.4609C29.8047 65.4609 21.5391 57.1953 21.5391 47C21.5391 36.8047 29.8047 28.5391 40 28.5391C50.1953 28.5391 58.4609 36.8047 58.4609 47C58.4609 57.1953 50.1953 65.4609 40 65.4609Z" fill="#2C53AA"/>
</svg>
