<svg width="265" height="160" viewBox="0 0 265 160" fill="none" xmlns="http://www.w3.org/2000/svg">
<g clip-path="url(#clip0_221_1941)">
<path d="M223.655 118.221L225.992 100.488C234.629 96.7929 244.037 95.2621 253.399 96.0282C239.605 105.44 239.452 125.878 229.49 139.281C226.351 143.437 222.316 146.834 217.686 149.219C213.056 151.604 207.948 152.917 202.742 153.06L191.39 158.723C190.627 150.349 191.689 141.91 194.502 133.986C197.314 126.063 201.811 118.843 207.683 112.824C211.01 109.481 214.745 106.569 218.8 104.159C220.791 111.19 223.655 118.221 223.655 118.221Z" fill="#F2F2F2"/>
<path d="M198.62 10.3503C199.223 8.95738 200.138 7.72169 201.294 6.73858C202.45 5.75548 203.817 5.05127 205.289 4.68032C208.556 3.8304 213.341 5.1251 215.797 6.98404C220.291 10.3844 221.387 22.066 218.3 25.7575C217.686 25.7328 215.567 25.7145 214.946 25.6969L214.067 23.4719V25.6749C209.216 25.5611 204.166 25.6324 199.113 25.7061C198.66 23.0925 197.581 12.8644 198.62 10.3503Z" fill="#2F2E41"/>
<path d="M199.443 151.211L195.019 151.211L192.914 134.145L199.444 134.145L199.443 151.211Z" fill="#9E616A"/>
<path d="M238.175 148.46L233.893 149.576L227.552 133.593L233.871 131.946L238.175 148.46Z" fill="#9E616A"/>
<path d="M205.376 22.9402C209.246 22.9402 212.383 19.8028 212.383 15.9326C212.383 12.0624 209.246 8.92505 205.376 8.92505C201.506 8.92505 198.368 12.0624 198.368 15.9326C198.368 19.8028 201.506 22.9402 205.376 22.9402Z" fill="#9E616A"/>
<path d="M200.56 6.80744C201.906 5.98658 203.449 5.54255 205.025 5.52176C206.602 5.50097 208.156 5.9042 209.523 6.68927C210.891 7.47434 212.022 8.61242 212.8 9.98452C213.577 11.3566 213.971 12.9123 213.941 14.489C210.122 15.4653 206.051 15.8737 201.737 14.7241L200.751 12.3108L200.17 14.7259C198.85 15.6542 197.576 15.6526 196.349 14.7209C196.297 13.1487 196.658 11.5903 197.397 10.2016C198.136 8.81294 199.227 7.64254 200.56 6.80744Z" fill="#2F2E41"/>
<path d="M201.423 159.612H198.283L197.723 156.648L196.287 159.612H187.961C187.562 159.612 187.173 159.484 186.851 159.248C186.53 159.011 186.292 158.678 186.174 158.297C186.055 157.916 186.061 157.507 186.191 157.13C186.321 156.752 186.569 156.427 186.897 156.2L193.547 151.607V148.611L200.541 149.028L201.423 159.612Z" fill="#2F2E41"/>
<path d="M242.597 155.989L239.559 156.78L238.269 154.054L237.628 157.284L229.571 159.384C229.184 159.485 228.776 159.459 228.405 159.312C228.035 159.164 227.721 158.901 227.51 158.563C227.299 158.224 227.201 157.827 227.232 157.429C227.263 157.031 227.42 156.653 227.681 156.351L232.957 150.23L232.201 147.33L239.074 145.97L242.597 155.989Z" fill="#2F2E41"/>
<path d="M237.631 137.727C234.924 127.661 231.913 117.817 224.663 111.073L222.667 81.7819C225.474 76.5688 218.185 62.8097 218.185 62.8097L215.639 59.103L197.991 62.1658C193.861 73.4311 191.847 76.2086 192.085 97.3619C192.322 118.515 192.898 140.487 192.898 140.487H192.643C192.219 140.487 191.813 140.655 191.514 140.955C191.214 141.254 191.046 141.66 191.046 142.084C191.046 142.508 191.214 142.914 191.514 143.213C191.813 143.513 192.219 143.681 192.643 143.681H200.629C201.052 143.681 201.458 143.513 201.758 143.213C202.057 142.914 202.226 142.508 202.226 142.084C202.226 141.66 202.057 141.254 201.758 140.955C201.458 140.655 201.052 140.487 200.629 140.487H200.423C205.11 127.311 205.947 107.047 206.155 85.6243L212.821 112.698L228.929 137.625C228.518 137.657 228.136 137.847 227.862 138.155C227.588 138.463 227.445 138.865 227.461 139.277C227.478 139.689 227.653 140.078 227.951 140.363C228.248 140.649 228.645 140.807 229.057 140.806H237.042C237.414 140.807 237.774 140.677 238.06 140.441C238.346 140.204 238.541 139.875 238.611 139.511C238.681 139.146 238.621 138.768 238.442 138.443C238.264 138.117 237.977 137.864 237.631 137.727Z" fill="#2F2E41"/>
<path d="M220.011 65.5403C219.945 65.2797 219.798 65.0467 219.591 64.8749C219.384 64.703 219.128 64.6011 218.86 64.5837C216.687 62.3781 215.059 42.8037 216.768 41.4508L216.765 41.4266L216.256 30.5479C216.238 30.1528 216.074 29.7783 215.797 29.4961C215.52 29.2138 215.149 29.0436 214.754 29.0178L212.064 28.8419C212.027 28.8407 211.992 28.8252 211.967 28.7986C211.941 28.7721 211.927 28.7366 211.927 28.6997C211.927 28.4027 211.868 28.1085 211.754 27.8341C211.641 27.5597 211.474 27.3103 211.264 27.1003C211.054 26.8902 210.805 26.7236 210.53 26.6099C210.256 26.4963 209.962 26.4377 209.665 26.4377H201.701C201.185 26.438 200.687 26.6264 200.301 26.9677C199.914 27.3091 199.665 27.7798 199.601 28.2916C199.597 28.3268 199.581 28.3594 199.554 28.3829C199.527 28.4064 199.493 28.4189 199.458 28.4181L199.457 28.4181C198.552 28.3995 197.67 28.7058 196.972 29.2816C196.274 29.8574 195.805 30.6644 195.651 31.5562C194.562 37.8906 195.076 51.1104 196.155 59.1031C196.53 61.8854 193.664 67.2271 193.522 69.5551C193.508 69.7801 193.538 70.0056 193.611 70.2188C193.684 70.432 193.799 70.6287 193.948 70.7975C193.631 70.8891 193.361 71.1004 193.196 71.3868C193.031 71.6733 192.984 72.0126 193.065 72.3332C193.148 72.6618 193.358 72.944 193.648 73.1177C193.939 73.2915 194.287 73.3426 194.616 73.2598L219.085 67.0915C219.413 67.0087 219.695 66.7987 219.869 66.5078C220.043 66.2169 220.094 65.8689 220.011 65.5403Z" fill="#E6E6E6"/>
<path d="M167.381 38.7095C167.806 38.5437 168.261 38.473 168.716 38.5023C169.171 38.5317 169.614 38.6604 170.014 38.8795C170.413 39.0985 170.76 39.4025 171.03 39.7701C171.299 40.1377 171.485 40.5599 171.573 41.0069L196.161 46.2947L192.36 50.6185L168.908 44.7447C168.147 44.8439 167.376 44.6605 166.741 44.2293C166.107 43.7981 165.652 43.1491 165.464 42.4051C165.276 41.6612 165.367 40.8741 165.72 40.193C166.074 39.5119 166.665 38.984 167.381 38.7095Z" fill="#9E616A"/>
<path d="M199.745 52.2572C195.949 54.2442 173.017 46.4707 172.015 46.1294L171.761 46.0426L176.477 41.7076L194.62 44.3644L195.17 33.7413C195.232 32.569 195.655 31.4447 196.381 30.5222C197.107 29.5998 198.1 28.9243 199.225 28.5883C200.221 28.2921 201.279 28.2747 202.284 28.538C203.29 28.8013 204.204 29.3352 204.927 30.0817C205.65 30.8282 206.154 31.7586 206.385 32.7719C206.616 33.7851 206.565 34.8422 206.237 35.8284L201.747 49.3277C201.402 50.364 200.811 51.3015 200.025 52.0606C199.942 52.1391 199.847 52.2053 199.745 52.2572Z" fill="#E6E6E6"/>
<path d="M178.779 159.401H36.8494L36.8143 159.289L36.7791 159.177C36.3151 157.702 35.8908 156.207 35.5089 154.701C35.1269 153.196 34.7874 151.681 34.4929 150.167C34.0927 148.111 33.7721 146.034 33.5326 143.95C33.2931 141.866 33.1348 139.775 33.0593 137.692C32.9282 133.999 33.5435 130.318 34.8684 126.869C36.1934 123.42 38.2007 120.273 40.7702 117.618C43.3397 114.962 46.4186 112.853 49.8225 111.416C53.2265 109.978 56.8855 109.242 60.5805 109.252H157.739C161.602 109.245 165.424 110.053 168.954 111.622C172.485 113.192 175.645 115.488 178.229 118.361C180.812 121.233 182.761 124.618 183.949 128.295C185.136 131.972 185.536 135.857 185.121 139.699C184.844 142.182 184.379 144.642 183.73 147.055C183.06 149.551 182.213 151.997 181.197 154.374C180.851 155.184 180.483 155.995 180.094 156.809C179.705 157.62 179.297 158.428 178.869 159.232L178.824 159.316L178.779 159.401Z" fill="#E6E6E6"/>
<path d="M158.783 119.314H56.8875C54.6425 119.314 52.4895 118.422 50.9021 116.835C49.3147 115.247 48.4229 113.094 48.4229 110.849C48.4229 108.604 49.3147 106.451 50.9021 104.864C52.4895 103.276 54.6425 102.385 56.8875 102.385H158.783C161.028 102.385 163.181 103.276 164.768 104.864C166.355 106.451 167.247 108.604 167.247 110.849C167.247 113.094 166.355 115.247 164.768 116.835C163.181 118.422 161.028 119.314 158.783 119.314Z" fill="#6C63FF"/>
<path d="M160.068 113.46H56.3498L56.2796 113.236C54.6749 108.146 53.7604 102.863 53.5604 97.53C53.4686 94.8241 53.9225 92.1274 54.8953 89.6007C55.868 87.074 57.3397 84.769 59.2224 82.8233C61.1051 80.8776 63.3604 79.3309 65.8538 78.2756C68.3471 77.2203 71.0274 76.6778 73.7349 76.6807H144.658C147.489 76.6777 150.29 77.2712 152.877 78.4224C155.464 79.5736 157.78 81.2568 159.673 83.3624C161.567 85.468 162.996 87.9487 163.867 90.6432C164.738 93.3376 165.032 96.1853 164.73 99.0008C164.207 103.769 162.669 108.577 160.158 113.291L160.068 113.46Z" fill="#E6E6E6"/>
<path d="M146.006 87.3719H70.9422C68.6972 87.3719 66.5442 86.4801 64.9568 84.8927C63.3693 83.3052 62.4775 81.1522 62.4775 78.9073C62.4775 76.6623 63.3693 74.5093 64.9568 72.9219C66.5442 71.3344 68.6972 70.4426 70.9422 70.4426H146.006C148.251 70.4426 150.404 71.3344 151.991 72.9219C153.579 74.5093 154.471 76.6623 154.471 78.9073C154.471 81.1522 153.579 83.3052 151.991 84.8927C150.404 86.4801 148.251 87.3719 146.006 87.3719Z" fill="#6C63FF"/>
<path d="M151.004 57.5986C149.431 55.845 147.506 54.4421 145.355 53.4812C143.204 52.5204 140.874 52.023 138.518 52.0215H79.8758C77.6301 52.0193 75.407 52.4693 73.3389 53.3447C71.2708 54.22 69.4002 55.5029 67.8385 57.1167C66.2769 58.7306 65.0561 60.6423 64.2492 62.738C63.4422 64.8337 63.0654 67.0705 63.1414 69.3149C63.3063 73.7305 64.0626 78.104 65.3901 82.3185L65.4604 82.5421H151.292L151.381 82.3728C153.386 78.7043 154.671 74.6862 155.166 70.5351C155.42 68.2074 155.18 65.8525 154.463 63.6236C153.746 61.3948 152.567 59.3419 151.004 57.5986Z" fill="#E6E6E6"/>
<path d="M137.449 52.0215H82.0546C81.6431 53.2917 81.5379 54.6413 81.7476 55.96C81.9574 57.2786 82.476 58.529 83.2613 59.6089C84.0465 60.6888 85.0761 61.5677 86.2659 62.1737C87.4557 62.7797 88.772 63.0957 90.1072 63.0958H129.396C130.731 63.0957 132.047 62.7797 133.237 62.1737C134.427 61.5677 135.457 60.6888 136.242 59.6089C137.027 58.529 137.546 57.2786 137.755 55.96C137.965 54.6413 137.86 53.2917 137.449 52.0215Z" fill="#6C63FF"/>
<path d="M180.902 154.249C180.212 155.865 179.44 157.476 178.586 159.082H37.0831C36.156 156.135 35.3956 153.138 34.8057 150.106C35.0695 149.901 35.3745 149.756 35.6997 149.68C36.025 149.603 36.3629 149.599 36.6902 149.665C37.3646 149.879 37.9474 150.313 38.3448 150.898C39.5363 152.444 40.0346 154.402 40.5041 156.3C41.0056 155.182 41.5263 154.035 42.4015 153.173C42.7498 152.811 43.1693 152.527 43.6333 152.336C44.0973 152.145 44.5958 152.053 45.0974 152.064C45.4519 151.43 45.9577 150.893 46.5699 150.502C47.4292 149.991 48.6014 149.921 49.384 150.537C49.9092 151.011 50.2592 151.648 50.3774 152.345C50.815 154.249 50.4509 156.236 50.0867 158.159C51.0098 157.347 51.9617 156.523 53.1148 156.105C53.6367 155.914 54.1923 155.832 54.7471 155.865C54.8556 154.803 55.1361 153.765 55.5776 152.792C55.951 151.86 56.5966 151.062 57.4302 150.502C58.2894 149.991 59.4617 149.921 60.2443 150.537C60.7695 151.011 61.1195 151.648 61.2377 152.345C61.6753 154.249 61.3112 156.236 60.947 158.159C61.8701 157.347 62.822 156.523 63.9751 156.105C64.497 155.914 65.0526 155.832 65.6074 155.865C65.7159 154.803 65.9964 153.765 66.4379 152.792C66.8113 151.86 67.4569 151.062 68.2905 150.502C69.1497 149.991 70.322 149.921 71.1046 150.537C71.6298 151.011 71.9798 151.648 72.098 152.345C72.5356 154.249 72.1715 156.236 71.8073 158.159C72.7304 157.347 73.6823 156.523 74.8354 156.105C75.3573 155.914 75.9129 155.832 76.4677 155.865C76.5762 154.803 76.8567 153.765 77.2982 152.792C77.6716 151.86 78.3172 151.062 79.1508 150.502C80.01 149.991 81.1823 149.921 81.9649 150.537C82.4901 151.011 82.8401 151.648 82.9583 152.345C83.3959 154.249 83.0318 156.236 82.6676 158.159C83.5907 157.347 84.5426 156.523 85.6957 156.105C86.2176 155.914 86.7732 155.832 87.328 155.865C87.4365 154.803 87.717 153.765 88.1585 152.792C88.5319 151.86 89.1775 151.062 90.0111 150.502C90.8703 149.991 92.0426 149.921 92.8252 150.537C93.3504 151.011 93.7004 151.648 93.8186 152.345C94.2562 154.249 93.8921 156.236 93.5279 158.159C94.451 157.347 95.4029 156.523 96.556 156.105C97.0779 155.914 97.6335 155.832 98.1883 155.865C98.2968 154.803 98.5773 153.765 99.0188 152.792C99.3922 151.86 100.038 151.062 100.871 150.502C101.731 149.991 102.903 149.921 103.685 150.537C104.211 151.011 104.561 151.648 104.679 152.345C105.116 154.249 104.752 156.236 104.388 158.159C105.311 157.347 106.263 156.523 107.416 156.105C107.938 155.914 108.494 155.832 109.049 155.865C109.157 154.803 109.438 153.765 109.879 152.792C110.252 151.86 110.898 151.062 111.732 150.502C112.591 149.991 113.763 149.921 114.546 150.537C115.071 151.011 115.421 151.648 115.539 152.345C115.977 154.249 115.613 156.236 115.249 158.159C116.172 157.347 117.123 156.523 118.277 156.105C118.798 155.914 119.354 155.832 119.909 155.865C120.017 154.803 120.298 153.765 120.739 152.792C121.113 151.86 121.758 151.062 122.592 150.502C123.451 149.991 124.623 149.921 125.406 150.537C125.931 151.011 126.281 151.648 126.399 152.345C126.837 154.249 126.473 156.236 126.109 158.159C127.032 157.347 127.984 156.523 129.137 156.105C129.659 155.914 130.214 155.832 130.769 155.865C130.878 154.803 131.158 153.765 131.6 152.792C131.973 151.86 132.619 151.062 133.452 150.502C134.312 149.991 135.484 149.921 136.266 150.537C136.792 151.011 137.142 151.648 137.26 152.345C137.697 154.249 137.333 156.236 136.969 158.159C137.892 157.347 138.844 156.523 139.997 156.105C140.519 155.914 141.075 155.832 141.629 155.865C141.738 154.803 142.018 153.765 142.46 152.792C142.833 151.86 143.479 151.062 144.313 150.502C145.172 149.991 146.344 149.921 147.127 150.537C147.652 151.011 148.002 151.648 148.12 152.345C148.558 154.249 148.194 156.236 147.829 158.159C148.752 157.347 149.704 156.523 150.857 156.105C151.379 155.914 151.935 155.832 152.49 155.865C152.598 154.803 152.879 153.765 153.32 152.792C153.694 151.86 154.339 151.062 155.173 150.502C156.032 149.991 157.204 149.921 157.987 150.537C158.512 151.011 158.862 151.648 158.98 152.345C159.418 154.249 159.054 156.236 158.69 158.159C159.613 157.347 160.565 156.523 161.718 156.105C162.24 155.914 162.795 155.832 163.35 155.865C163.459 154.803 163.739 153.765 164.181 152.792C164.554 151.86 165.2 151.062 166.033 150.502C166.892 149.991 168.065 149.921 168.847 150.537C169.372 151.011 169.722 151.648 169.841 152.345C170.278 154.249 169.914 156.236 169.55 158.159C170.473 157.347 171.425 156.523 172.578 156.105C173.1 155.914 173.656 155.832 174.21 155.865C174.319 154.803 174.599 153.765 175.041 152.792C175.414 151.86 176.06 151.062 176.893 150.502C177.753 149.991 178.925 149.921 179.708 150.537C180.233 151.011 180.583 151.648 180.701 152.345C180.84 152.97 180.907 153.609 180.902 154.249Z" fill="#CCCCCC"/>
<path d="M65.3089 62.4114C67.5501 61.4226 70.2531 61.7973 72.2538 63.1623C74.3605 64.5995 75.3412 67.1303 75.0851 69.6277C74.9431 71.0607 74.3623 72.4149 73.422 73.5055L73.7608 73.3652C72.7176 73.3525 72.1462 72.1317 72.3048 71.2096C72.5194 69.961 73.9455 69.3149 75.0787 69.2212C76.6213 69.0936 78.1047 69.7625 79.4958 70.3398C80.9888 70.9642 82.5182 71.498 84.0755 71.9382C87.2428 72.8224 90.5078 73.3093 93.7953 73.3876C95.4159 73.4267 97.0374 73.3633 98.65 73.1979C100.124 73.0463 101.634 72.8591 103.017 72.2982C104.414 71.7313 105.621 70.7988 106.218 69.3816C106.512 68.754 106.631 68.0586 106.563 67.369C106.494 66.6793 106.24 66.021 105.828 65.4637C105.769 65.4051 105.695 65.3631 105.614 65.3417C105.533 65.3202 105.449 65.3202 105.368 65.3415C105.287 65.3628 105.213 65.4048 105.154 65.4633C105.094 65.5218 105.05 65.5948 105.028 65.6751C104.806 66.7686 104.816 67.8962 105.055 68.9859C105.294 70.0756 105.757 71.1035 106.415 72.0041C107.115 72.965 108.022 73.7557 109.07 74.3175C110.117 74.8794 111.277 75.1979 112.465 75.2493C115.176 75.3957 117.827 74.345 120.182 73.1003C122.642 71.7996 124.887 70.1334 127.388 68.9047C129.801 67.7195 132.581 66.8468 135.266 67.5578C137.406 68.1245 139.667 69.9935 138.961 72.45C138.689 73.399 137.928 74.1979 136.894 74.1949C136.017 74.1923 135.005 73.6376 134.899 72.689C134.772 71.552 135.861 70.6591 136.829 70.3238C138.217 69.8434 139.765 70.2034 141.185 70.324C143.515 70.5327 145.841 69.875 147.717 68.4768C149.527 67.1598 150.845 65.2767 151.463 63.1259C151.609 62.5779 151.704 62.0177 151.746 61.4523C151.795 60.8375 150.836 60.8408 150.787 61.4523C150.669 62.6054 150.324 63.7236 149.77 64.7422C149.217 65.7608 148.468 66.6596 147.565 67.3866C146.666 68.1365 145.629 68.7024 144.512 69.0521C143.299 69.3986 142.027 69.4922 140.776 69.327C139.336 69.1804 137.789 68.9174 136.399 69.4647C135.334 69.8839 134.306 70.7155 134.014 71.8694C133.446 74.1147 136.016 75.7415 137.985 74.9461C140.195 74.0537 140.536 71.0725 139.359 69.2467C137.945 67.0523 135.122 66.1987 132.628 66.3621C126.703 66.7502 122.405 71.4982 117.058 73.4747C114.535 74.4074 111.622 74.7679 109.21 73.3237C108.233 72.7164 107.416 71.884 106.826 70.8963C106.237 69.9086 105.893 68.7941 105.822 67.6461C105.79 67.0708 105.833 66.4938 105.952 65.9299L105.151 66.1413C105.748 66.9136 105.723 67.9681 105.405 68.8475C105.018 69.8323 104.277 70.6371 103.328 71.1043C102.285 71.6144 101.161 71.9421 100.007 72.0731C98.7278 72.2586 97.4392 72.3724 96.1473 72.414C90.9485 72.6045 85.7649 71.743 80.9073 69.8811C78.7183 69.0403 76.3987 67.7428 73.9885 68.4581C72.1719 68.9973 70.7791 70.7349 71.5385 72.6548C71.6775 73.0556 71.9151 73.415 72.2295 73.6999C72.5439 73.9847 72.9249 74.1859 73.3375 74.2848C73.556 74.3505 73.7901 74.3411 74.0026 74.2581C74.1972 74.1062 74.362 73.9195 74.4885 73.7076C74.8106 73.2852 75.0855 72.8289 75.3084 72.3467C76.1568 70.5011 76.3139 68.4121 75.751 66.4604C74.4163 61.9291 69.075 59.7091 64.8252 61.584C64.2622 61.8324 64.7493 62.6583 65.3089 62.4114Z" fill="#3F3D56"/>
<path d="M54.8283 90.9584C56.2001 94.263 58.289 97.2215 60.9439 99.6202C63.5988 102.019 66.7535 103.798 70.1799 104.828C71.3474 105.183 72.5445 105.431 73.7566 105.571C74.9112 105.695 76.1781 105.623 77.1339 104.89C78.5105 103.835 78.4809 100.82 76.3007 100.842C75.223 100.853 74.3211 101.84 74.1871 102.866C74.0308 104.062 74.7748 105.181 75.6665 105.904C77.6227 107.491 80.3066 107.687 82.6914 107.19C85.4303 106.619 87.8306 105.071 90.2322 103.714C92.9822 102.161 96.2501 100.601 99.4845 101.433C101.938 102.064 104.174 104.639 103.375 107.268L104.078 106.981C103.014 106.499 102.755 105.164 103.173 104.143C103.696 102.866 105.227 102.388 106.496 102.389C108.17 102.39 109.716 103.167 111.201 103.852C112.568 104.495 113.989 105.019 115.446 105.416C121.195 106.911 127.284 106.371 132.68 103.888C134.005 103.288 135.265 102.557 136.443 101.704C137.375 101.017 138.451 99.8145 137.7 98.6081C137.562 98.373 137.368 98.1755 137.136 98.033C136.903 97.8905 136.639 97.8073 136.367 97.7908C135.711 97.7873 135.424 98.243 135.219 98.7988C134.814 99.9819 134.81 101.265 135.206 102.451C136.038 105.079 138.255 106.893 140.885 107.555C143.793 108.287 146.924 107.788 149.735 106.883C155.111 105.136 159.742 101.629 162.881 96.9286C163.273 96.338 163.636 95.7292 163.975 95.1064C164.269 94.5644 163.442 94.0802 163.147 94.6227C160.569 99.3238 156.5 103.034 151.582 105.17C147.069 107.13 139.597 108.574 136.646 103.369C136.034 102.343 135.776 101.144 135.91 99.9574C135.963 99.5817 136.084 98.4943 136.635 98.8492C137.259 99.251 136.92 99.9609 136.523 100.385C135.628 101.342 134.275 102.013 133.122 102.608C131.886 103.244 130.596 103.769 129.267 104.178C123.885 105.858 118.088 105.632 112.853 103.54C110.075 102.402 106.904 100.383 103.892 102.052C103.346 102.34 102.886 102.768 102.559 103.291C102.232 103.815 102.05 104.416 102.03 105.033C101.996 106.164 102.53 107.326 103.595 107.809C103.659 107.844 103.729 107.865 103.802 107.869C103.875 107.874 103.948 107.862 104.015 107.834C104.083 107.807 104.143 107.764 104.192 107.71C104.241 107.657 104.278 107.592 104.299 107.522C104.898 105.552 104.068 103.491 102.614 102.117C100.904 100.502 98.5747 100.04 96.2915 100.355C91.1052 101.071 87.3451 105.324 82.2686 106.3C80.0787 106.721 77.3767 106.484 75.8012 104.715C75.0973 103.924 74.6999 102.323 76.0158 101.857C76.9813 101.516 77.2834 102.66 77.0681 103.365C76.403 105.541 72.7277 104.512 71.2025 104.117C69.105 103.571 67.0966 102.727 65.2385 101.611C60.9869 99.0885 57.6607 95.264 55.7524 90.7036C55.5224 90.1403 54.595 90.3868 54.8283 90.9584Z" fill="#CCCCCC"/>
<path d="M34.3358 131.601C41.6818 130.216 50.7138 128.822 56.2242 135.203C57.3172 136.442 58.0724 137.942 58.417 139.558C58.5628 140.284 58.7456 141.091 58.008 141.54C57.724 141.704 57.4032 141.793 57.0753 141.8C56.7475 141.807 56.4232 141.731 56.1327 141.579C54.5232 140.686 55.4199 138.311 56.6312 137.532C58.2809 136.472 60.403 136.925 62.0961 137.615C63.9329 138.363 65.6704 139.32 67.529 140.025C69.2858 140.691 71.0872 141.233 72.9197 141.648C76.7157 142.507 80.6132 142.833 84.4993 142.616C88.2679 142.444 91.9899 141.712 95.5427 140.443C96.9024 139.936 98.3171 139.204 99.1451 137.964C99.5258 137.413 99.721 136.755 99.7024 136.086C99.6837 135.417 99.4521 134.771 99.0413 134.242C98.6092 133.661 97.987 133.25 97.2831 133.081C96.5793 132.912 95.8384 132.995 95.1896 133.316C94.5894 133.64 94.1017 134.139 93.791 134.746C93.536 135.246 93.2033 136.235 93.5289 136.762C93.6942 137.03 94.0988 137.136 94.3637 137.266C94.8073 137.484 95.2544 137.694 95.7052 137.896C96.4935 138.25 97.2913 138.583 98.0985 138.893C99.8655 139.572 101.673 140.141 103.51 140.596C110.739 142.383 118.282 142.477 125.553 140.869C127.361 140.468 129.142 139.959 130.889 139.342C132.539 138.759 134.282 138.136 135.8 137.252C136.997 136.556 138.4 135.359 138.287 133.828C138.242 133.268 137.98 132.748 137.557 132.378C137.134 132.008 136.584 131.818 136.023 131.848C135.447 131.849 134.883 132.011 134.394 132.316C133.905 132.62 133.51 133.054 133.254 133.57C132.604 135.045 133.254 136.725 134.203 137.902C136.252 140.445 139.746 141.358 142.882 141.327C146.515 141.291 149.96 140.143 153.33 138.895C157.104 137.497 161.044 135.946 165.144 136.194C168.839 136.417 172.321 138.603 176.072 138.149C179.329 137.755 181.241 135.149 182.086 132.182C182.467 130.735 182.728 129.259 182.866 127.769C182.934 127.157 181.976 127.162 181.908 127.769C181.582 130.682 181.087 134.376 178.511 136.226C175.388 138.469 171.321 136.492 168.048 135.695C164.271 134.776 160.565 135.403 156.924 136.595C153.338 137.77 149.885 139.376 146.15 140.047C142.905 140.629 139.314 140.564 136.484 138.674C135.094 137.745 133.435 135.918 134.075 134.089C134.441 133.044 136.344 132.189 137.118 133.285C138.256 134.9 135.394 136.431 134.294 136.936C132.611 137.709 130.88 138.373 129.112 138.926C117.543 142.535 105.025 141.525 94.1844 136.107L94.4217 136.52C94.2374 134.866 95.9185 133.313 97.5231 134.184C99.0513 135.013 99.0412 136.833 97.9008 137.974C96.7777 139.099 95.1669 139.599 93.6847 140.044C92.0489 140.535 90.3832 140.921 88.6979 141.198C81.6204 142.351 74.3638 141.612 67.6641 139.055C64.6635 137.906 61.5561 135.57 58.1923 136.005C56.8506 136.179 55.5531 136.83 54.8557 138.029C54.2411 139.086 54.1089 140.475 54.7622 141.545C55.8049 143.253 59.4568 143.174 59.5199 140.778C59.5918 138.049 57.8698 135.325 55.946 133.536C49.955 127.967 41.4072 129.296 34.081 130.677C33.4758 130.791 33.7321 131.715 34.3358 131.601Z" fill="#CCCCCC"/>
<path d="M127.233 38.5804C129.563 38.1827 130.562 35.3713 130.015 33.3011C129.659 31.955 128.824 30.7998 127.895 29.7872C126.818 28.6122 125.623 27.5392 124.476 26.4345C123.072 25.0836 121.669 23.7327 120.266 22.3818C120.206 22.3236 120.132 22.2819 120.051 22.2607C119.971 22.2395 119.886 22.2396 119.805 22.2609C119.725 22.2822 119.651 22.3239 119.591 22.3822C119.532 22.4404 119.488 22.5131 119.465 22.5932C118.858 26.548 119.81 30.584 122.12 33.8507C122.711 34.6666 123.375 35.4262 124.106 36.1195C124.819 36.8046 125.583 37.4868 126.026 38.3882L127.315 39.3333C127.272 39.0799 127.208 38.8306 127.123 38.5881C127.16 38.5892 127.197 38.5867 127.233 38.5804Z" fill="#FD6584"/>
<path d="M127.16 38.3408H126.202C126.705 39.3653 126.499 40.9241 126.429 42.0345C126.351 43.2759 126.244 44.516 126.15 45.7563C125.939 48.5453 125.728 51.3343 125.516 54.1234C125.47 54.7384 126.428 54.7355 126.475 54.1234L127.037 46.7035C127.132 45.4406 127.228 44.1776 127.323 42.9146C127.401 41.3882 127.346 39.8579 127.16 38.3408Z" fill="#3F3D56"/>
<path d="M127.228 38.4494C127.43 37.8525 127.502 37.2192 127.439 36.5922C127.377 35.9651 127.181 35.3587 126.864 34.8136C126.798 34.7085 126.693 34.6332 126.573 34.6038C126.452 34.5743 126.324 34.5929 126.217 34.6556C126.11 34.7184 126.031 34.8203 125.997 34.94C125.964 35.0597 125.978 35.1878 126.037 35.2972C126.29 35.7314 126.446 36.2158 126.492 36.7164C126.538 37.2169 126.474 37.7215 126.304 38.1946C126.27 38.3171 126.286 38.4479 126.349 38.5583C126.412 38.6687 126.516 38.7497 126.639 38.7834C126.761 38.8172 126.892 38.801 127.002 38.7383C127.113 38.6757 127.194 38.5718 127.228 38.4494Z" fill="#3F3D56"/>
<path d="M89.8609 37.6222C92.1912 37.2245 93.1902 34.413 92.6426 32.3428C92.2867 30.9968 91.4514 29.8416 90.5232 28.8289C89.4461 27.654 88.2513 26.581 87.1036 25.4762C85.7003 24.1253 84.297 22.7744 82.8936 21.4235C82.8339 21.3654 82.7601 21.3237 82.6794 21.3025C82.5988 21.2813 82.514 21.2813 82.4334 21.3026C82.3527 21.3239 82.279 21.3657 82.2193 21.4239C82.1596 21.4822 82.116 21.5549 82.0928 21.6349C81.4859 25.5898 82.4379 29.6257 84.7482 32.8924C85.3385 33.7084 86.0031 34.4679 86.7336 35.1612C87.4465 35.8464 88.2108 36.5285 88.6536 37.43L89.9426 38.375C89.8998 38.1217 89.8358 37.8724 89.7512 37.6298C89.7879 37.631 89.8247 37.6284 89.8609 37.6222Z" fill="#FD6584"/>
<path d="M89.7878 37.3826H88.8295C89.3328 38.4071 89.1271 39.9658 89.0572 41.0763C88.979 42.3177 88.8718 43.5578 88.7779 44.798C88.5667 47.5871 88.3554 50.3761 88.1442 53.1651C88.0976 53.7802 89.0561 53.7772 89.1025 53.1651L89.6644 45.7453C89.7601 44.4823 89.8557 43.2193 89.9514 41.9564C90.0289 40.4299 89.9741 38.8996 89.7878 37.3826Z" fill="#3F3D56"/>
<path d="M89.8556 37.4911C90.0578 36.8942 90.13 36.261 90.0674 35.6339C90.0047 35.0068 89.8086 34.4004 89.4923 33.8553C89.426 33.7502 89.3213 33.675 89.2006 33.6455C89.0798 33.616 88.9523 33.6346 88.8449 33.6974C88.7376 33.7601 88.6588 33.8621 88.6253 33.9818C88.5917 34.1015 88.6059 34.2296 88.6649 34.339C88.9183 34.7731 89.0735 35.2575 89.1196 35.7581C89.1657 36.2587 89.1015 36.7633 88.9316 37.2364C88.898 37.3589 88.9144 37.4897 88.9772 37.6001C89.04 37.7105 89.144 37.7914 89.2664 37.8252C89.3889 37.8589 89.5197 37.8427 89.6302 37.7801C89.7406 37.7174 89.8217 37.6135 89.8556 37.4911Z" fill="#3F3D56"/>
<path d="M107.428 36.025C109.759 35.6273 110.758 32.8159 110.21 30.7456C109.854 29.3996 109.019 28.2444 108.091 27.2318C107.013 26.0568 105.819 24.9838 104.671 23.879C103.268 22.5281 101.864 21.1773 100.461 19.8264C100.401 19.7682 100.327 19.7265 100.247 19.7053C100.166 19.6841 100.081 19.6842 100.001 19.7055C99.9201 19.7267 99.8464 19.7685 99.7867 19.8268C99.727 19.885 99.6834 19.9577 99.6602 20.0378C99.0532 23.9926 100.005 28.0286 102.316 31.2952C102.906 32.1112 103.571 32.8707 104.301 33.564C105.014 34.2492 105.778 34.9313 106.221 35.8328L107.51 36.7778C107.467 36.5245 107.403 36.2752 107.319 36.0326C107.355 36.0338 107.392 36.0312 107.428 36.025Z" fill="#FD6584"/>
<path d="M107.356 35.7854H106.398C106.901 36.8099 106.695 38.3687 106.626 39.4791C106.547 40.7205 106.44 41.9606 106.346 43.2009C106.135 45.9899 105.924 48.7789 105.713 51.568C105.666 52.183 106.624 52.18 106.671 51.568L107.233 44.1481C107.328 42.8851 107.424 41.6222 107.52 40.3592C107.597 38.8328 107.542 37.3024 107.356 35.7854Z" fill="#3F3D56"/>
<path d="M107.424 35.894C107.626 35.2971 107.698 34.6638 107.636 34.0367C107.573 33.4097 107.377 32.8032 107.061 32.2582C106.994 32.153 106.89 32.0778 106.769 32.0483C106.648 32.0189 106.521 32.0375 106.413 32.1002C106.306 32.1629 106.227 32.2649 106.194 32.3846C106.16 32.5043 106.174 32.6324 106.233 32.7418C106.487 33.176 106.642 33.6604 106.688 34.1609C106.734 34.6615 106.67 35.1661 106.5 35.6392C106.466 35.7617 106.483 35.8925 106.546 36.0029C106.608 36.1133 106.712 36.1943 106.835 36.228C106.957 36.2618 107.088 36.2455 107.199 36.1829C107.309 36.1203 107.39 36.0163 107.424 35.894Z" fill="#3F3D56"/>
<path d="M120.906 93.0369C120.67 92.1347 119.767 91.3728 118.849 91.5394C118.112 91.6732 117.568 92.3494 117.365 93.0706C117.206 93.8051 117.185 94.5626 117.304 95.3046C116.481 94.4391 115.625 93.5502 114.523 93.0886C114.136 92.898 113.695 92.8439 113.273 92.9352C112.986 93.0401 112.736 93.2271 112.554 93.4731C112.372 93.719 112.267 94.013 112.252 94.3183C112.232 94.9317 112.397 95.5368 112.726 96.055C113.186 96.8484 113.817 97.5293 114.573 98.0481C115.329 98.5669 116.191 98.9104 117.097 99.0537L116.8 98.6663C118.308 98.1405 119.578 97.0929 120.381 95.7128C120.847 94.9049 121.143 93.9392 120.906 93.0369Z" fill="#6C63FF"/>
<path d="M77.4657 130.729C77.2293 129.826 76.3267 129.064 75.409 129.231C74.6715 129.365 74.128 130.041 73.9242 130.762C73.7657 131.497 73.745 132.254 73.8631 132.996C73.0403 132.131 72.1841 131.242 71.0826 130.78C70.6951 130.59 70.2545 130.536 69.8324 130.627C69.5452 130.732 69.2952 130.919 69.1136 131.165C68.932 131.411 68.8268 131.705 68.8111 132.01C68.7916 132.623 68.957 133.228 69.2859 133.747C69.7455 134.54 70.3764 135.221 71.1325 135.74C71.8887 136.259 72.751 136.602 73.6567 136.745L73.36 136.358C74.8677 135.832 76.1378 134.785 76.941 133.404C77.407 132.597 77.7021 131.631 77.4657 130.729Z" fill="#6C63FF"/>
<path d="M85.1317 74.5106C84.8953 73.6083 83.9927 72.8464 83.075 73.013C82.3375 73.1469 81.794 73.823 81.5902 74.5443C81.4317 75.2787 81.4111 76.0362 81.5292 76.7782C80.7063 75.9127 79.8501 75.0238 78.7487 74.5622C78.3611 74.3716 77.9205 74.3176 77.4984 74.4089C77.2112 74.5137 76.9612 74.7007 76.7796 74.9467C76.598 75.1926 76.4928 75.4866 76.4771 75.792C76.4576 76.4054 76.623 77.0104 76.9519 77.5286C77.4115 78.3221 78.0424 79.003 78.7985 79.5217C79.5547 80.0405 80.417 80.3841 81.3228 80.5273L81.026 80.1399C82.5337 79.6141 83.8038 78.5666 84.607 77.1864C85.073 76.3785 85.3681 75.4128 85.1317 74.5106Z" fill="#6C63FF"/>
<path d="M152.646 21.7378C151.855 25.2098 151.48 29.1461 153.588 32.2532C154.484 33.5861 155.798 34.5822 157.324 35.0838C158.869 35.5417 160.497 35.6417 162.086 35.3762C165.681 34.8782 168.876 33.0055 172.412 32.2784C173.972 31.9576 175.628 31.8515 177.13 32.469C178.256 32.9317 179.441 33.8619 179.447 35.1888C179.452 36.5514 178.269 37.4557 177.092 37.8747C175.521 38.4337 173.889 38.2173 172.26 38.1469C170.506 38.071 168.717 38.2296 167.259 39.304C166.006 40.2825 165.045 41.5858 164.48 43.0723C163.747 44.8503 163.45 46.7618 162.982 48.6168C162.563 50.2845 161.971 51.9038 161.214 53.4482C159.731 56.4751 157.651 59.1712 155.1 61.3745C153.841 62.4574 152.312 63.5606 150.594 63.6598C149.268 63.7364 147.657 63.1794 147.146 61.8369C146.957 61.2573 146.975 60.6295 147.199 60.0621C147.423 59.4948 147.838 59.0233 148.372 58.7292C149.508 58.156 150.745 58.9737 151.112 60.096C151.208 60.3547 151.242 60.6325 151.21 60.9067C151.178 61.1809 151.082 61.4437 150.929 61.6736C150.585 62.1872 151.415 62.6675 151.757 62.1573C152.551 60.9728 152.136 59.3798 151.163 58.431C150.689 57.9471 150.054 57.6525 149.378 57.6021C148.702 57.5518 148.031 57.7491 147.49 58.1572C146.928 58.5853 146.503 59.1681 146.267 59.8342C146.032 60.5003 145.996 61.2208 146.164 61.9071C146.572 63.3817 148.021 64.3197 149.468 64.5521C151.255 64.839 152.975 64.1368 154.417 63.1222C155.864 62.0776 157.18 60.8621 158.336 59.5022C160.686 56.7995 162.453 53.6406 163.526 50.2234C164.58 46.8435 164.657 42.3786 167.791 40.096C169.404 38.9215 171.38 39.0518 173.271 39.1596C174.94 39.2547 176.568 39.2374 178.099 38.4818C179.364 37.8579 180.384 36.7062 180.405 35.2389C180.426 33.7577 179.375 32.5667 178.136 31.8918C174.862 30.1091 170.931 31.5469 167.715 32.7379C164.482 33.9356 160.789 35.3414 157.352 34.081C155.766 33.4646 154.489 32.2444 153.801 30.6878C152.969 28.9229 152.851 26.9204 153.043 25.005C153.156 23.991 153.332 22.9849 153.57 21.9926C153.706 21.3922 152.783 21.1358 152.646 21.7378Z" fill="#3F3D56"/>
<path d="M158.519 11.998C157.571 15.1618 156.143 18.1611 154.283 20.8907C153.823 21.5615 153.34 22.2152 152.833 22.8519C152.439 22.136 151.962 21.4691 151.412 20.8651C149.479 18.741 146.889 17.3515 144.375 15.9588C141.861 14.5662 139.309 13.0713 137.533 10.813C136.736 9.79638 136.165 8.62133 135.859 7.36642C135.457 5.66391 135.61 3.88793 136.603 2.46651C138.047 0.399855 140.925 -0.32842 143.372 0.268896C145.822 0.866212 147.872 2.56872 149.463 4.52357C148.942 2.12153 151.475 -0.197459 153.925 0.0133587C156.375 0.22737 158.34 2.36748 158.991 4.73758C159.646 7.10449 159.221 9.64069 158.519 11.998Z" fill="#6C63FF"/>
<g opacity="0.2">
<path d="M154.284 20.8907C153.824 21.5615 153.34 22.2153 152.833 22.852C152.439 22.136 151.962 21.4692 151.412 20.8652C149.479 18.741 146.889 17.3515 144.375 15.9589C141.861 14.5662 139.309 13.0713 137.533 10.813C136.736 9.79642 136.166 8.62137 135.859 7.36646C141.511 8.14989 146.703 10.9046 150.521 15.1443C152.049 16.8656 153.317 18.8016 154.284 20.8907Z" fill="black"/>
</g>
<path d="M212.885 66.1971C213.341 66.1848 213.788 66.0727 214.196 65.8688C214.603 65.6649 214.961 65.374 215.244 65.0168C215.527 64.6596 215.729 64.2447 215.834 63.8012C215.939 63.3578 215.946 62.8967 215.854 62.4503L225.048 56.5874L219.865 54.082L211.945 60.0432C211.205 60.2477 210.566 60.7164 210.149 61.3605C209.732 62.0046 209.566 62.7793 209.681 63.5378C209.797 64.2964 210.188 64.986 210.778 65.4762C211.368 65.9663 212.118 66.2228 212.885 66.1971Z" fill="#9E616A"/>
<path d="M214.759 37.6668C214.759 37.6668 209.362 33.3026 211.504 30.2062C213.645 27.1098 219.114 30.4815 219.114 30.4815L235.034 48.5775C235.034 48.5775 218.123 63.9265 218.648 61.647C219.172 59.3675 215.25 57.5855 215.25 57.5855L222.796 49.0981L221.141 48.2958L221.816 47.9073L221.106 46.2432L214.759 37.6668Z" fill="#E6E6E6"/>
<path d="M264.202 159.521C264.202 159.571 264.193 159.62 264.174 159.667C264.154 159.713 264.127 159.755 264.091 159.79C264.056 159.825 264.014 159.853 263.968 159.872C263.922 159.892 263.872 159.901 263.822 159.901L191.943 159.911L186.922 159.914L183.609 159.917H179.945L177.946 159.92L172.394 159.923L85.0457 159.968L84.3813 159.971L45.3098 159.984H44.6646L11.4065 159.997H10.7613L0.380111 160C0.2793 160 0.182621 159.96 0.111336 159.889C0.0400516 159.817 0 159.721 0 159.62C0 159.519 0.0400516 159.422 0.111336 159.351C0.182621 159.28 0.2793 159.24 0.380111 159.24L10.8699 159.237H11.5151L44.7636 159.224H45.4088L84.1769 159.211H84.8381L117.873 159.198H118.307L171.787 159.166L177.329 159.163L179.866 159.16L183.874 159.157H187.299L192.694 159.154L263.822 159.141C263.872 159.141 263.922 159.15 263.968 159.17C264.014 159.189 264.056 159.217 264.091 159.252C264.126 159.287 264.155 159.329 264.174 159.375C264.193 159.422 264.202 159.471 264.202 159.521Z" fill="#CACACA"/>
<path d="M219.69 7.50302C218.998 6.44111 218.234 5.31893 217.059 4.84446C215.883 4.36997 214.216 4.93734 214.056 6.19494C213.937 7.13501 214.654 7.94249 215.194 8.7212C215.734 9.49991 216.085 10.6753 215.38 11.3081L214.983 11.5128C215.362 12.0028 215.851 12.397 216.41 12.6639C216.97 12.9308 217.584 13.0628 218.203 13.0494C219.436 12.9714 220.625 12.0561 220.833 10.8382C221.036 9.65061 220.348 8.51218 219.69 7.50302Z" fill="#2F2E41"/>
</g>
<defs>
<clipPath id="clip0_221_1941">
<rect width="264.202" height="160" fill="white"/>
</clipPath>
</defs>
</svg>
