<svg width="180" height="160" viewBox="0 0 180 160" fill="none" xmlns="http://www.w3.org/2000/svg">
<g clip-path="url(#clip0_221_1872)">
<path d="M35.1652 159.361C36.9717 157.835 38.069 155.423 37.7812 153.076C37.4934 150.728 35.7111 148.57 33.3992 148.072C31.0872 147.573 28.4517 148.953 27.7495 151.212C27.3631 146.857 26.9177 142.321 24.6028 138.613C22.5066 135.255 18.8761 132.853 14.9414 132.423C11.0067 131.993 6.86401 133.617 4.41009 136.722C1.95617 139.828 1.35534 144.343 3.074 147.908C4.34008 150.535 6.67264 152.489 9.11658 154.08C16.9136 159.153 26.5858 160.867 35.7891 159.513L35.1652 159.361Z" fill="#F2F2F2"/>
<path d="M8.30132 133.707C11.5479 136.351 14.5263 139.309 17.1935 142.537C19.8611 145.761 22.2096 149.237 24.206 152.915C25.322 154.978 26.3244 157.101 27.209 159.273C27.3893 159.715 26.6717 159.908 26.4933 159.471C24.9266 155.641 22.9883 151.973 20.7062 148.521C18.4351 145.082 15.8358 141.871 12.9446 138.933C11.3094 137.272 9.58412 135.703 7.77655 134.231C7.40606 133.93 7.93388 133.407 8.30132 133.707Z" fill="white"/>
<path d="M164.492 66.2005H139.78C139.407 66.2001 139.05 66.0518 138.786 65.7882C138.523 65.5246 138.374 65.1671 138.374 64.7943V61.8293C138.374 61.4565 138.523 61.0991 138.786 60.8354C139.05 60.5718 139.407 60.4235 139.78 60.4231H164.492C164.865 60.4235 165.223 60.5718 165.486 60.8354C165.75 61.0991 165.898 61.4565 165.899 61.8293V64.7943C165.898 65.1671 165.75 65.5246 165.486 65.7882C165.223 66.0518 164.865 66.2001 164.492 66.2005Z" fill="#6C63FF"/>
<path d="M161.157 61.667L150.626 52.1712C150.399 51.9665 150.107 51.8479 149.802 51.8362C149.497 51.8244 149.197 51.9203 148.955 52.107L125.907 59.717C125.578 59.8259 125.306 60.0607 125.15 60.3699C124.995 60.6791 124.968 61.0374 125.076 61.3663L126.006 64.1818C126.059 64.3449 126.144 64.4957 126.256 64.6257C126.368 64.7558 126.505 64.8624 126.658 64.9396C126.811 65.0167 126.978 65.0628 127.149 65.0753C127.32 65.0878 127.492 65.0664 127.655 65.0123L148.797 58.0315L157.423 65.8087C157.662 66.0254 157.973 66.1452 158.296 66.1447C158.319 66.1447 158.342 66.1441 158.365 66.1429C158.536 66.1345 158.704 66.0922 158.859 66.0185C159.014 65.9447 159.153 65.841 159.267 65.7132L161.253 63.5112C161.484 63.2538 161.604 62.9151 161.586 62.5694C161.568 62.2237 161.414 61.8991 161.157 61.667Z" fill="#6C63FF"/>
<path d="M44.5383 132.675C44.2188 132.675 43.9124 132.802 43.6864 133.028C43.4605 133.254 43.3334 133.561 43.333 133.88V158.592C43.3334 158.912 43.4605 159.218 43.6864 159.444C43.9124 159.67 44.2188 159.797 44.5383 159.798H47.5034C47.823 159.797 48.1294 159.67 48.3553 159.444C48.5813 159.218 48.7084 158.912 48.7087 158.592V133.88C48.7084 133.561 48.5813 133.254 48.3553 133.028C48.1294 132.802 47.823 132.675 47.5034 132.675H44.5383Z" fill="#6C63FF"/>
<path d="M53.7697 159.999H50.8047C50.4318 159.998 50.0744 159.85 49.8108 159.586C49.5472 159.323 49.3989 158.965 49.3984 158.592V133.88C49.3989 133.507 49.5472 133.15 49.8108 132.886C50.0744 132.623 50.4318 132.474 50.8047 132.474H53.7697C54.1425 132.474 54.4999 132.623 54.7636 132.886C55.0272 133.15 55.1755 133.507 55.1759 133.88V158.592C55.1755 158.965 55.0272 159.323 54.7636 159.586C54.4999 159.85 54.1425 159.998 53.7697 159.999Z" fill="#6C63FF"/>
<path d="M58.6233 135.796C58.6233 135.796 59.7435 145.869 48.4344 145.527C37.1252 145.185 41.5252 135.287 41.5252 135.287C41.5252 135.287 43.8886 133.43 49.8627 135.226C55.8368 137.022 58.6233 135.796 58.6233 135.796Z" fill="#CCCCCC"/>
<path d="M53.7644 118.653C53.1432 118.654 52.5382 118.455 52.0392 118.085C51.5402 117.715 51.1738 117.194 50.9943 116.599C50.8148 116.004 50.8318 115.368 51.0429 114.783C51.2539 114.199 51.6477 113.699 52.1658 113.356L71.537 100.535C71.691 100.433 71.8636 100.363 72.0449 100.327C72.2261 100.292 72.4126 100.293 72.5936 100.33C72.7745 100.367 72.9465 100.439 73.0996 100.542C73.2527 100.645 73.3839 100.778 73.4858 100.932L75.1223 103.404C75.3276 103.715 75.4012 104.095 75.3269 104.461C75.2526 104.826 75.0363 105.147 74.7257 105.353L55.3544 118.174C54.8831 118.486 54.33 118.653 53.7644 118.653Z" fill="#6C63FF"/>
<path d="M50.2463 106.784C55.9047 106.784 60.4916 102.197 60.4916 96.539C60.4916 90.8807 55.9047 86.2937 50.2463 86.2937C44.588 86.2937 40.001 90.8807 40.001 96.539C40.001 102.197 44.588 106.784 50.2463 106.784Z" fill="#6C63FF"/>
<path d="M50.2543 100.84C50.9185 100.821 51.745 100.798 52.3818 100.333C52.5714 100.189 52.7271 100.005 52.8382 99.7943C52.9492 99.5836 53.0129 99.3511 53.0246 99.1132C53.0361 98.9441 53.0084 98.7747 52.9436 98.6181C52.8787 98.4615 52.7786 98.322 52.6509 98.2106C52.3183 97.9296 51.8327 97.8636 51.3093 98.0174L51.8516 94.0548L51.4535 94.0002L50.816 98.6589L51.1484 98.5063C51.5338 98.3296 52.0628 98.2396 52.3915 98.5174C52.4723 98.59 52.5351 98.6803 52.5753 98.7812C52.6155 98.8821 52.6318 98.9909 52.6231 99.0991C52.6134 99.2762 52.5656 99.4491 52.4831 99.606C52.4005 99.763 52.2851 99.9003 52.1447 100.009C51.6492 100.371 50.9904 100.417 50.2432 100.438L50.2543 100.84Z" fill="#2F2E41"/>
<path d="M55.9842 94.3965H53.8203V94.7983H55.9842V94.3965Z" fill="#2F2E41"/>
<path d="M49.1532 94.3965H46.9893V94.7983H49.1532V94.3965Z" fill="#2F2E41"/>
<path d="M39.8976 137.918C39.8976 137.918 39.013 107.842 51.3973 109.906C63.7815 111.97 58.6214 141.014 58.6214 141.014C58.6214 141.014 55.9676 146.322 49.4807 140.425C42.9937 134.527 39.8976 137.918 39.8976 137.918Z" fill="#2F2E41"/>
<path d="M44.4675 87.8855C46.4609 86.532 48.977 87.4515 50.914 88.4174C52.7952 89.3555 54.915 90.5491 57.0436 89.6455C57.8749 89.2926 58.5505 88.6024 58.6679 87.6788C58.8078 86.5786 58.1425 85.5487 57.4026 84.8006C56.5985 84.0311 55.6616 83.4137 54.6373 82.9782C53.6332 82.5264 52.5755 82.2047 51.4898 82.0211C49.3393 81.6495 47.1311 81.7972 45.0491 82.4517C42.9671 83.1062 41.0717 84.2487 39.5207 85.784C38.0202 87.3144 36.8608 89.1452 36.119 91.156C35.3771 93.1667 35.0696 95.3118 35.2165 97.45C35.3858 99.7292 36.1137 102.053 37.5741 103.842C38.9442 105.521 40.9958 106.701 43.1855 106.8C43.7221 106.825 44.2596 106.781 44.7851 106.67C45.1634 106.589 45.325 107.17 44.9453 107.251C42.6647 107.737 40.3021 107.015 38.4933 105.592C36.5892 104.094 35.4209 101.827 34.9087 99.4905C33.9284 95.0197 35.1564 90.2083 37.9706 86.6292C39.3602 84.8464 41.1602 83.426 43.2173 82.489C45.3418 81.5404 47.6627 81.1145 49.9856 81.247C52.3021 81.3634 54.5494 82.0754 56.5103 83.3144C58.2641 84.4479 60.2408 86.8507 58.8104 88.9766C58.2755 89.7715 57.3876 90.2558 56.4657 90.4548C55.4078 90.6606 54.3133 90.5653 53.3069 90.1796C51.0155 89.3705 48.8962 87.5625 46.3314 87.8365C45.7724 87.8945 45.2365 88.0901 44.7716 88.4059C44.4499 88.6243 44.148 88.1024 44.4675 87.8855Z" fill="#2F2E41"/>
<path d="M132.001 41.2225C131.537 40.9245 131.172 40.4955 130.952 39.9899C130.731 39.4842 130.666 38.9247 130.764 38.382C130.862 37.8392 131.118 37.3377 131.501 36.9408C131.884 36.5439 132.376 36.2694 132.915 36.1521L155.613 31.211C155.951 31.1377 156.305 31.2017 156.596 31.3888C156.888 31.5759 157.093 31.871 157.167 32.2092L157.797 35.1064C157.834 35.2739 157.837 35.447 157.806 35.6158C157.776 35.7845 157.713 35.9457 157.62 36.0899C157.527 36.2342 157.407 36.3588 157.266 36.4566C157.125 36.5544 156.967 36.6235 156.799 36.66L134.101 41.6011C134.003 41.6225 133.903 41.6387 133.803 41.6496C133.171 41.7185 132.535 41.5677 132.001 41.2225Z" fill="#6C63FF"/>
<path d="M130.143 39.5849C130.129 39.5311 130.117 39.4767 130.107 39.4216C129.92 38.4386 130.261 37.4036 131.066 36.5072C131.941 35.5762 133.084 34.9399 134.336 34.686L144.684 32.422C144.854 32.3847 145.03 32.382 145.202 32.414C145.374 32.4459 145.537 32.512 145.683 32.6082C145.828 32.7044 145.953 32.8288 146.05 32.9741C146.147 33.1194 146.213 33.2826 146.246 33.454L147.149 38.2098C147.214 38.5441 147.145 38.8906 146.957 39.1747C146.77 39.4588 146.478 39.6579 146.145 39.7289L135.731 42.0071C135.262 42.1107 134.782 42.1635 134.302 42.1644C132.25 42.1644 130.542 41.1652 130.143 39.5849Z" fill="#2F2E41"/>
<path d="M131.953 28.9433C137.612 28.9433 142.199 24.3563 142.199 18.698C142.199 13.0396 137.612 8.45264 131.953 8.45264C126.295 8.45264 121.708 13.0396 121.708 18.698C121.708 24.3563 126.295 28.9433 131.953 28.9433Z" fill="#6C63FF"/>
<path d="M140.599 22.3962C141.263 22.3777 142.09 22.3547 142.726 21.8895C142.916 21.7454 143.072 21.5614 143.183 21.3507C143.294 21.14 143.358 20.9075 143.369 20.6696C143.381 20.5005 143.353 20.3311 143.288 20.1745C143.223 20.0179 143.123 19.8784 142.996 19.767C142.663 19.4859 142.177 19.42 141.654 19.5738L142.196 15.6112L141.798 15.5566L141.161 20.2152L141.493 20.0627C141.879 19.886 142.408 19.796 142.736 20.0738C142.817 20.1464 142.88 20.2367 142.92 20.3376C142.96 20.4385 142.977 20.5472 142.968 20.6555C142.958 20.8325 142.91 21.0054 142.828 21.1624C142.745 21.3194 142.63 21.4567 142.489 21.5651C141.994 21.927 141.335 21.9737 140.588 21.9946L140.599 22.3962Z" fill="#2F2E41"/>
<path d="M139.499 15.9529H137.335V16.3547H139.499V15.9529Z" fill="#2F2E41"/>
<path d="M131.237 8.4225C131.161 7.2114 130.827 6.03064 130.255 4.96017C129.684 3.8897 128.889 2.95451 127.925 2.21792C126.928 1.48013 125.779 0.976388 124.561 0.744131C123.343 0.511874 122.089 0.557079 120.891 0.876387C119.7 1.18567 118.596 1.76112 117.66 2.55935C116.725 3.35758 115.983 4.35776 115.49 5.48449C114.994 6.60285 114.747 7.81546 114.765 9.03871C114.82 10.3689 115.15 11.6733 115.735 12.8691C116.34 14.1853 117.101 15.4202 117.763 16.7069C118.415 17.9757 118.977 19.2885 119.446 20.6357C120.4 23.3807 120.963 26.2463 121.118 29.1481C121.364 33.7225 120.926 40.4008 115.762 42.1563C114.449 42.6027 113.032 42.6858 111.656 42.6822C110.205 42.6999 108.759 42.5305 107.352 42.1782C104.915 41.5272 102.6 39.9986 101.562 37.6237C101.322 37.0752 101.162 36.4957 101.085 35.9022C101.063 35.7395 101.239 35.6024 101.386 35.6009C101.465 35.6028 101.541 35.6351 101.597 35.6912C101.653 35.7473 101.686 35.8229 101.687 35.9022C102.024 38.433 104.133 40.3738 106.422 41.2463C107.76 41.7312 109.166 42.0031 110.588 42.0521C112.003 42.1236 113.473 42.1126 114.859 41.7868C116.093 41.5198 117.216 40.8817 118.076 39.9582C118.843 39.0749 119.416 38.0397 119.755 36.9202C120.571 34.4322 120.656 31.6967 120.513 29.1035C120.351 26.2112 119.776 23.3569 118.806 20.6273C118.316 19.2492 117.724 17.9091 117.037 16.618C116.366 15.3552 115.62 14.128 115.054 12.8117C114.502 11.6019 114.198 10.2934 114.161 8.96402C114.157 7.73625 114.401 6.52032 114.88 5.38958C115.35 4.25436 116.055 3.23144 116.949 2.38802C117.842 1.54459 118.904 0.899718 120.065 0.495753C121.245 0.0847702 122.499 -0.0748118 123.745 0.02725C124.991 0.129312 126.202 0.490762 127.3 1.0884C128.344 1.68885 129.26 2.49037 129.993 3.44663C130.725 4.40289 131.262 5.49494 131.57 6.65964C131.72 7.2365 131.81 7.82721 131.839 8.4225C131.859 8.81012 131.257 8.80905 131.237 8.4225Z" fill="#2F2E41"/>
<path d="M129.233 8.63408C129.069 7.51629 128.509 6.49462 127.655 5.75477C126.747 4.99403 125.584 4.60785 124.402 4.67489C124.014 4.69428 124.015 4.09156 124.402 4.07222C125.687 4.01428 126.948 4.4307 127.946 5.24228C128.944 6.05387 129.609 7.20399 129.815 8.47387C129.872 8.85328 129.292 9.01685 129.233 8.63408Z" fill="#2F2E41"/>
<path d="M127.967 8.66875C127.875 8.3905 127.897 8.08715 128.029 7.82544C128.161 7.56373 128.391 7.36509 128.67 7.27322L131.531 6.32842C131.809 6.23654 132.113 6.25897 132.374 6.39075C132.636 6.52254 132.835 6.75289 132.927 7.03114C133.018 7.30938 132.996 7.61273 132.864 7.87444C132.732 8.13615 132.502 8.33479 132.224 8.42667L129.362 9.37147C129.225 9.41702 129.079 9.43497 128.935 9.4243C128.79 9.41363 128.649 9.37455 128.519 9.30929C128.389 9.24403 128.274 9.15387 128.179 9.04397C128.084 8.93406 128.012 8.80656 127.967 8.66875Z" fill="#2F2E41"/>
<path d="M150.312 22.5899C150.128 22.629 149.957 22.7193 149.822 22.8506C149.686 22.9819 149.589 23.1489 149.544 23.3323C149.499 23.5157 149.506 23.7082 149.565 23.8877C149.624 24.0673 149.732 24.2265 149.878 24.3473L154.299 28.0212C154.364 28.0759 154.418 28.1427 154.457 28.2177C154.493 28.2935 154.514 28.376 154.517 28.4601L154.793 35.198C154.798 35.4185 154.877 35.6309 155.017 35.801C155.157 35.9712 155.351 36.0893 155.566 36.1362L155.574 36.138C155.787 36.19 156.011 36.1693 156.211 36.0792C156.41 35.9892 156.574 35.8348 156.676 35.6409L158.271 32.7321C158.325 32.6364 158.403 32.5569 158.498 32.5024C158.593 32.4478 158.702 32.4201 158.811 32.4223C158.892 32.4227 158.972 32.4399 159.045 32.4726C159.119 32.5053 159.185 32.553 159.24 32.6125L166.894 40.7797C167.004 40.8983 167.142 40.9882 167.295 41.0416C167.448 41.0951 167.612 41.1105 167.772 41.0865C167.932 41.0628 168.083 41.001 168.214 40.9063C168.345 40.8117 168.451 40.687 168.524 40.5427L179.747 18.089C179.832 17.92 179.867 17.7304 179.849 17.5421C179.831 17.3538 179.76 17.1745 179.645 17.0247C179.529 16.8749 179.374 16.7607 179.196 16.6953C179.019 16.6299 178.826 16.6159 178.641 16.6549L178.278 16.7309L150.312 22.5899ZM150.133 24.0387C150.046 23.966 149.981 23.8703 149.946 23.7624C149.911 23.6546 149.907 23.5391 149.934 23.429C149.962 23.3189 150.019 23.2188 150.101 23.1401C150.183 23.0613 150.285 23.0072 150.396 22.9839L178.353 17.127L178.725 17.0489C178.836 17.026 178.951 17.0348 179.057 17.0742C179.163 17.1135 179.256 17.1819 179.325 17.2715C179.394 17.3611 179.437 17.4683 179.448 17.581C179.459 17.6936 179.438 17.8071 179.388 17.9086L168.165 40.3623C168.122 40.449 168.058 40.5239 167.979 40.5806C167.901 40.6374 167.809 40.6743 167.713 40.6883C167.617 40.7022 167.519 40.6928 167.428 40.6608C167.336 40.6288 167.254 40.5751 167.187 40.5044L159.533 32.3373C159.458 32.2556 159.37 32.1874 159.272 32.1358L178.721 18.0266C178.797 17.9722 178.852 17.8929 178.876 17.8023C178.901 17.7116 178.892 17.6154 178.853 17.5302C178.814 17.445 178.746 17.3762 178.661 17.3357C178.577 17.2952 178.481 17.2856 178.39 17.3085C178.367 17.3138 178.346 17.3212 178.325 17.3308L154.711 27.8716C154.665 27.813 154.613 27.7597 154.555 27.7127L150.133 24.0387Z" fill="#CCCCCC"/>
<path d="M150.312 22.5899C150.128 22.629 149.957 22.7193 149.822 22.8506C149.686 22.9819 149.589 23.1489 149.544 23.3323C149.499 23.5157 149.506 23.7082 149.565 23.8877C149.624 24.0673 149.732 24.2265 149.878 24.3473L154.299 28.0212C154.364 28.0759 154.418 28.1427 154.457 28.2177C154.493 28.2935 154.514 28.376 154.517 28.4601L154.793 35.198C154.798 35.4185 154.877 35.6309 155.017 35.801C155.157 35.9712 155.351 36.0893 155.566 36.1362L155.574 36.138C155.787 36.19 156.011 36.1693 156.211 36.0792C156.41 35.9892 156.574 35.8348 156.676 35.6409L158.271 32.7321C158.325 32.6364 158.403 32.5569 158.498 32.5024C158.593 32.4478 158.702 32.4201 158.811 32.4223C158.892 32.4227 158.972 32.4399 159.045 32.4726C159.119 32.5053 159.185 32.553 159.24 32.6125L166.894 40.7797C167.004 40.8983 167.142 40.9882 167.295 41.0416C167.448 41.0951 167.612 41.1105 167.772 41.0865C167.932 41.0628 168.083 41.001 168.214 40.9063C168.345 40.8117 168.451 40.687 168.524 40.5427L179.747 18.089C179.832 17.92 179.867 17.7304 179.849 17.5421C179.831 17.3538 179.76 17.1745 179.645 17.0247C179.529 16.8749 179.374 16.7607 179.196 16.6953C179.019 16.6299 178.826 16.6159 178.641 16.6549L178.278 16.7309L150.312 22.5899ZM150.133 24.0387C150.046 23.966 149.981 23.8703 149.946 23.7624C149.911 23.6546 149.907 23.5391 149.934 23.429C149.962 23.3189 150.019 23.2188 150.101 23.1401C150.183 23.0613 150.285 23.0072 150.396 22.9839L178.353 17.127L178.725 17.0489C178.836 17.026 178.951 17.0348 179.057 17.0742C179.163 17.1135 179.256 17.1819 179.325 17.2715C179.394 17.3611 179.437 17.4683 179.448 17.581C179.459 17.6936 179.438 17.8071 179.388 17.9086L168.165 40.3622C168.122 40.4489 168.058 40.5239 167.979 40.5806C167.901 40.6374 167.809 40.6743 167.713 40.6883C167.617 40.7022 167.519 40.6928 167.428 40.6608C167.336 40.6288 167.254 40.5751 167.187 40.5044L159.533 32.3373C159.458 32.2556 159.37 32.1874 159.272 32.1358C159.132 32.0606 158.976 32.0207 158.816 32.0197C158.794 32.0187 158.771 32.0197 158.748 32.0206L158.746 32.0202C158.576 32.0291 158.41 32.0813 158.266 32.1721C158.121 32.2629 158.002 32.3891 157.92 32.5388L156.324 35.4495C156.263 35.5664 156.165 35.6592 156.044 35.713C155.924 35.7668 155.789 35.7783 155.661 35.7458L155.657 35.7449C155.528 35.7176 155.411 35.647 155.327 35.5448C155.243 35.4425 155.196 35.3146 155.194 35.1821L154.918 28.4442C154.916 28.373 154.906 28.3023 154.888 28.2334L154.888 28.2314C154.871 28.1652 154.847 28.1011 154.817 28.04C154.787 27.9802 154.752 27.9238 154.711 27.8716C154.665 27.813 154.613 27.7597 154.555 27.7127L150.133 24.0387Z" fill="#3F3D56"/>
<path d="M154.71 27.8717L178.325 17.3308C178.346 17.3213 178.367 17.3138 178.389 17.3085C178.48 17.2857 178.577 17.2953 178.661 17.3358C178.746 17.3763 178.814 17.4451 178.853 17.5302C178.892 17.6154 178.9 17.7117 178.876 17.8023C178.852 17.893 178.797 17.9723 178.721 18.0266L159.272 32.1358L158.929 32.3853L158.694 32.0599L158.746 32.0203L158.748 32.0207L178.484 17.7008L154.888 28.2315L154.888 28.2334L154.785 28.278L154.621 27.9111L154.71 27.8717Z" fill="#3F3D56"/>
<path d="M125.206 59.8569C124.914 59.8573 124.633 59.9738 124.426 60.1809C124.218 60.388 124.102 60.6689 124.102 60.9618V64.9796C124.102 65.2725 124.218 65.5534 124.426 65.7605C124.633 65.9676 124.914 66.0842 125.206 66.0845H138.063C138.356 66.0842 138.637 65.9676 138.844 65.7605C139.051 65.5534 139.168 65.2725 139.168 64.9796V60.9618C139.168 60.6689 139.051 60.388 138.844 60.1809C138.637 59.9738 138.356 59.8573 138.063 59.8569H125.206Z" fill="#2F2E41"/>
<path d="M123.691 39.4767C123.077 41.2559 122.963 43.1694 123.36 45.0091C124.382 50.0182 124.001 55.9398 122.997 62.2676C122.997 62.9333 123.461 63.4729 124.033 63.4729H139.74C140.312 63.4729 140.776 62.9333 140.776 62.2676V43.4845C140.776 37.9339 137.003 33.3918 132.283 33.1507C132.152 33.1427 132.019 33.1387 131.886 33.1387C128.205 33.1387 125.039 35.7563 123.691 39.4767Z" fill="#2F2E41"/>
<path d="M128.693 63.8546V40.625C128.693 39.8855 128.987 39.1763 129.51 38.6533C130.033 38.1304 130.742 37.8367 131.482 37.8367C132.221 37.8367 132.93 38.1304 133.453 38.6533C133.976 39.1763 134.27 39.8855 134.27 40.625V63.8546C134.27 64.2008 134.132 64.5327 133.887 64.7775C133.642 65.0223 133.31 65.16 132.964 65.1604H129.999C129.653 65.16 129.321 65.0223 129.076 64.7775C128.831 64.5327 128.694 64.2008 128.693 63.8546Z" fill="#6C63FF"/>
<path d="M133.463 47.2166L129.248 47.0311C128.902 47.0155 128.577 46.8633 128.343 46.6079C128.109 46.3526 127.986 46.015 128.001 45.6691L128.297 38.9458C128.316 38.497 128.423 38.0564 128.612 37.6491C128.802 37.2418 129.069 36.8758 129.4 36.5721C129.731 36.2684 130.119 36.033 130.541 35.8793C130.963 35.7256 131.411 35.6566 131.86 35.6764C132.308 35.6962 132.749 35.8042 133.156 35.9944C133.562 36.1846 133.928 36.4532 134.231 36.7848C134.534 37.1164 134.768 37.5045 134.921 37.9269C135.074 38.3492 135.142 38.7976 135.121 39.2462L134.825 45.9696C134.81 46.3053 134.666 46.6225 134.424 46.855C134.181 47.0875 133.858 47.2175 133.522 47.2179C133.502 47.2179 133.483 47.2174 133.463 47.2166Z" fill="#2F2E41"/>
<path d="M140.776 51.5199C141.275 51.5199 141.68 50.2157 141.68 48.607C141.68 46.9982 141.275 45.6941 140.776 45.6941C140.277 45.6941 139.872 46.9982 139.872 48.607C139.872 50.2157 140.277 51.5199 140.776 51.5199Z" fill="#2F2E41"/>
<path d="M91.2332 84.8674C94.0069 84.8674 96.2554 82.6189 96.2554 79.8452C96.2554 77.0715 94.0069 74.823 91.2332 74.823C88.4595 74.823 86.2109 77.0715 86.2109 79.8452C86.2109 82.6189 88.4595 84.8674 91.2332 84.8674Z" fill="#CCCCCC"/>
<path d="M140.899 84.8675H102.329C101.903 84.8675 101.494 84.6982 101.192 84.3968C100.891 84.0954 100.722 83.6867 100.722 83.2604C100.722 82.8342 100.891 82.4254 101.192 82.124C101.494 81.8226 101.903 81.6533 102.329 81.6533H140.899C141.326 81.6533 141.734 81.8226 142.036 82.124C142.337 82.4254 142.507 82.8342 142.507 83.2604C142.507 83.6867 142.337 84.0954 142.036 84.3968C141.734 84.6982 141.326 84.8675 140.899 84.8675Z" fill="#CCCCCC"/>
<path d="M130.453 78.0372H102.329C101.903 78.0372 101.494 77.8679 101.192 77.5665C100.891 77.2651 100.722 76.8563 100.722 76.4301C100.722 76.0039 100.891 75.5951 101.192 75.2937C101.494 74.9923 101.903 74.823 102.329 74.823H130.453C130.879 74.823 131.288 74.9923 131.59 75.2937C131.891 75.5951 132.06 76.0039 132.06 76.4301C132.06 76.8563 131.891 77.2651 131.59 77.5665C131.288 77.8679 130.879 78.0372 130.453 78.0372Z" fill="#CCCCCC"/>
<path d="M91.2332 103.952C94.0069 103.952 96.2554 101.703 96.2554 98.9297C96.2554 96.156 94.0069 93.9075 91.2332 93.9075C88.4595 93.9075 86.2109 96.156 86.2109 98.9297C86.2109 101.703 88.4595 103.952 91.2332 103.952Z" fill="#CCCCCC"/>
<path d="M140.899 103.952H102.329C101.903 103.952 101.494 103.783 101.192 103.481C100.891 103.18 100.722 102.771 100.722 102.345C100.722 101.919 100.891 101.51 101.192 101.209C101.494 100.907 101.903 100.738 102.329 100.738H140.899C141.326 100.738 141.734 100.907 142.036 101.209C142.337 101.51 142.507 101.919 142.507 102.345C142.507 102.771 142.337 103.18 142.036 103.481C141.734 103.783 141.326 103.952 140.899 103.952Z" fill="#CCCCCC"/>
<path d="M130.453 97.1217H102.329C101.903 97.1217 101.494 96.9524 101.192 96.651C100.891 96.3496 100.722 95.9408 100.722 95.5146C100.722 95.0883 100.891 94.6796 101.192 94.3782C101.494 94.0768 101.903 93.9075 102.329 93.9075H130.453C130.879 93.9075 131.288 94.0768 131.59 94.3782C131.891 94.6796 132.06 95.0883 132.06 95.5146C132.06 95.9408 131.891 96.3496 131.59 96.651C131.288 96.9524 130.879 97.1217 130.453 97.1217Z" fill="#CCCCCC"/>
<path d="M91.2332 123.237C94.0069 123.237 96.2554 120.989 96.2554 118.215C96.2554 115.441 94.0069 113.193 91.2332 113.193C88.4595 113.193 86.2109 115.441 86.2109 118.215C86.2109 120.989 88.4595 123.237 91.2332 123.237Z" fill="#CCCCCC"/>
<path d="M140.899 123.237H102.329C101.903 123.237 101.494 123.068 101.192 122.767C100.891 122.465 100.722 122.057 100.722 121.63C100.722 121.204 100.891 120.795 101.192 120.494C101.494 120.193 101.903 120.023 102.329 120.023H140.899C141.326 120.023 141.734 120.193 142.036 120.494C142.337 120.795 142.507 121.204 142.507 121.63C142.507 122.057 142.337 122.465 142.036 122.767C141.734 123.068 141.326 123.237 140.899 123.237Z" fill="#CCCCCC"/>
<path d="M130.453 116.407H102.329C101.903 116.407 101.494 116.238 101.192 115.936C100.891 115.635 100.722 115.226 100.722 114.8C100.722 114.374 100.891 113.965 101.192 113.664C101.494 113.362 101.903 113.193 102.329 113.193H130.453C130.879 113.193 131.288 113.362 131.59 113.664C131.891 113.965 132.06 114.374 132.06 114.8C132.06 115.226 131.891 115.635 131.59 115.936C131.288 116.238 130.879 116.407 130.453 116.407Z" fill="#CCCCCC"/>
<path d="M154.336 132.277H74.3819C73.4765 132.276 72.6084 131.916 71.9682 131.276C71.328 130.636 70.9678 129.768 70.9668 128.862V69.1983C70.9678 68.2929 71.328 67.4248 71.9682 66.7846C72.6084 66.1444 73.4765 65.7842 74.3819 65.7832H154.336C155.241 65.7842 156.109 66.1444 156.749 66.7846C157.39 67.4248 157.75 68.2929 157.751 69.1983V128.862C157.75 129.768 157.39 130.636 156.749 131.276C156.109 131.916 155.241 132.276 154.336 132.277ZM74.3819 66.185C73.583 66.1859 72.8171 66.5036 72.2522 67.0686C71.6873 67.6335 71.3695 68.3994 71.3686 69.1983V128.862C71.3695 129.661 71.6873 130.427 72.2522 130.992C72.8171 131.557 73.583 131.875 74.3819 131.876H154.336C155.135 131.875 155.901 131.557 156.465 130.992C157.03 130.427 157.348 129.661 157.349 128.862V69.1983C157.348 68.3994 157.03 67.6335 156.465 67.0686C155.901 66.5036 155.135 66.1859 154.336 66.185H74.3819Z" fill="#3F3D56"/>
<path d="M72.3728 78.0374C78.5859 78.0374 83.6226 73.0007 83.6226 66.7876C83.6226 60.5745 78.5859 55.5378 72.3728 55.5378C66.1597 55.5378 61.123 60.5745 61.123 66.7876C61.123 73.0007 66.1597 78.0374 72.3728 78.0374Z" fill="#6C63FF"/>
<path d="M71.258 71.0791C71.0049 71.0795 70.7585 70.9977 70.556 70.8459L70.5434 70.8364L67.8996 68.8123C67.7772 68.7185 67.6745 68.6014 67.5972 68.4679C67.52 68.3344 67.4699 68.187 67.4496 68.034C67.4294 67.8811 67.4394 67.7257 67.4793 67.5767C67.5191 67.4277 67.5879 67.288 67.6817 67.1655C67.7755 67.0431 67.8925 66.9403 68.026 66.8631C68.1595 66.7859 68.307 66.7357 68.4599 66.7155C68.6128 66.6953 68.7682 66.7053 68.9172 66.7452C69.0662 66.785 69.206 66.8537 69.3284 66.9476L71.0408 68.2606L75.0876 62.9831C75.1814 62.8607 75.2985 62.7579 75.4321 62.6808C75.5656 62.6036 75.713 62.5535 75.866 62.5333C76.0189 62.5131 76.1743 62.5232 76.3233 62.5631C76.4723 62.603 76.612 62.6718 76.7344 62.7657L76.7092 62.7998L76.735 62.7662C76.982 62.9559 77.1435 63.2359 77.1843 63.5446C77.225 63.8534 77.1416 64.1656 76.9524 64.413L72.1925 70.6207C72.0824 70.7637 71.9408 70.8795 71.7788 70.959C71.6167 71.0385 71.4385 71.0796 71.258 71.0791Z" fill="white"/>
<path d="M72.287 134.053C72.0892 134.053 71.8937 134.011 71.7134 133.929L50.5187 124.421C50.1724 124.266 49.8599 124.044 49.5993 123.769C49.3387 123.493 49.135 123.168 48.9999 122.813C48.8647 122.459 48.8008 122.081 48.8117 121.702C48.8227 121.322 48.9083 120.949 49.0636 120.603C49.2189 120.256 49.441 119.944 49.7171 119.684C49.9931 119.423 50.3178 119.22 50.6726 119.085C51.0273 118.95 51.4051 118.886 51.7845 118.898C52.1638 118.909 52.5373 118.995 52.8834 119.15L74.0781 128.658C74.2466 128.734 74.3986 128.842 74.5253 128.976C74.6521 129.11 74.7511 129.268 74.8168 129.441C74.8825 129.613 74.9136 129.797 74.9082 129.982C74.9029 130.166 74.8612 130.348 74.7856 130.517L73.5721 133.222C73.4605 133.469 73.28 133.679 73.052 133.827C72.8241 133.974 72.5584 134.053 72.287 134.053Z" fill="#6C63FF"/>
<path d="M76.7396 160H0.200889C0.14761 160 0.0965128 159.979 0.0588389 159.941C0.0211649 159.903 0 159.852 0 159.799C0 159.746 0.0211649 159.695 0.0588389 159.657C0.0965128 159.619 0.14761 159.598 0.200889 159.598H76.7396C76.7929 159.598 76.8439 159.619 76.8816 159.657C76.9193 159.695 76.9405 159.746 76.9405 159.799C76.9405 159.852 76.9193 159.903 76.8816 159.941C76.8439 159.979 76.7929 160 76.7396 160Z" fill="#3F3D56"/>
</g>
<defs>
<clipPath id="clip0_221_1872">
<rect width="179.853" height="160" fill="white"/>
</clipPath>
</defs>
</svg>
