<svg width="40" height="40" viewBox="0 0 40 40" fill="none" xmlns="http://www.w3.org/2000/svg">
<path d="M10.0625 20C10.07 22.078 10.3303 24.1474 10.8375 26.1625H18.9375V14.3125H10.725C10.2934 16.1778 10.0712 18.0854 10.0625 20Z" fill="#EF9D33"/>
<path d="M21.0469 14.3125V26.1625H29.1469C29.6752 24.15 29.9564 22.0805 29.9844 20C29.9798 18.0859 29.7618 16.1783 29.3344 14.3125H21.0469Z" fill="#EF9D33"/>
<path d="M20 0C16.0444 0 12.1776 1.17298 8.8886 3.37061C5.59962 5.56823 3.03617 8.69181 1.52242 12.3463C0.00866562 16.0009 -0.387401 20.0222 0.384303 23.9018C1.15601 27.7814 3.06082 31.3451 5.85787 34.1421C8.65492 36.9392 12.2186 38.844 16.0982 39.6157C19.9778 40.3874 23.9992 39.9913 27.6537 38.4776C31.3082 36.9638 34.4318 34.4004 36.6294 31.1114C38.827 27.8224 40 23.9556 40 20C40 14.6957 37.8929 9.60859 34.1421 5.85786C30.3914 2.10714 25.3043 0 20 0ZM35.275 28.3875H30.75C29.8944 31.066 28.6295 33.5959 27 35.8875C25.7971 36.4101 24.5392 36.7959 23.25 37.0375C25.5596 34.5283 27.337 31.5773 28.475 28.3625H21.075V37.3H18.9625V28.3875H11.525C12.6615 31.6068 14.4389 34.5622 16.75 37.075C15.4874 36.8361 14.255 36.4588 13.075 35.95C11.4398 33.6392 10.1746 31.0878 9.32501 28.3875H4.72501C4.32591 27.6589 3.9792 26.9028 3.68751 26.125H8.68751C8.21899 24.1166 7.97583 22.0623 7.96251 20C7.96429 18.0885 8.16538 16.1823 8.56251 14.3125H3.45001C3.71335 13.537 4.03079 12.781 4.40001 12.05H9.16251C10.057 9.07415 11.4428 6.2688 13.2625 3.75C14.4174 3.27292 15.6201 2.92091 16.85 2.7C14.3624 5.36809 12.4856 8.54587 11.35 12.0125H18.9625V2.5H21.075V12.05H28.6875C27.554 8.58892 25.6816 5.41564 23.2 2.75C24.428 2.95478 25.6306 3.29001 26.7875 3.75C28.5967 6.2506 29.9779 9.03431 30.875 11.9875H35.5875C35.9567 12.7185 36.2742 13.4745 36.5375 14.25H31.4625C31.8682 16.1398 32.0735 18.0671 32.075 20C32.0686 22.0743 31.8296 24.1414 31.3625 26.1625H36.3625C36.053 26.9289 35.6896 27.6724 35.275 28.3875Z" fill="#EF9D33"/>
</svg>
