<svg width="322" height="160" viewBox="0 0 322 160" fill="none" xmlns="http://www.w3.org/2000/svg">
<g clip-path="url(#clip0_221_1844)">
<path d="M87.6597 130.861C96.3758 130.861 103.442 123.795 103.442 115.079C103.442 106.363 96.3758 99.2976 87.6597 99.2976C78.9437 99.2976 71.8779 106.363 71.8779 115.079C71.8779 123.795 78.9437 130.861 87.6597 130.861Z" fill="white"/>
<path opacity="0.2" d="M76.0068 104.538C74.5347 107.982 74.335 111.837 75.4434 115.414C76.5517 118.991 78.896 122.057 82.0571 124.065C85.2183 126.073 88.9905 126.891 92.6995 126.374C96.4085 125.857 99.8128 124.038 102.304 121.241C101.405 123.345 100.059 125.228 98.3594 126.76C96.6601 128.292 94.6481 129.437 92.4626 130.114C90.2772 130.791 87.9707 130.985 85.7028 130.682C83.435 130.38 81.2601 129.587 79.3288 128.361C77.3975 127.134 75.7559 125.502 74.5179 123.578C73.2799 121.654 72.4751 119.484 72.1591 117.218C71.8431 114.952 72.0235 112.644 72.6879 110.455C73.3523 108.265 74.4847 106.247 76.0068 104.538Z" fill="black"/>
<path d="M87.7029 115.08H87.746L88.5266 159.823H86.8789L87.7029 115.08Z" fill="#3F3D56"/>
<path d="M55.7281 101.43C73.3013 101.43 87.5471 87.1846 87.5471 69.6114C87.5471 52.0383 73.3013 37.7925 55.7281 37.7925C38.155 37.7925 23.9092 52.0383 23.9092 69.6114C23.9092 87.1846 38.155 101.43 55.7281 101.43Z" fill="white"/>
<path opacity="0.2" d="M32.2345 48.3589C29.2665 55.3016 28.8639 63.0734 31.0986 70.2856C33.3333 77.4978 38.0597 83.6804 44.4332 87.7286C50.8067 91.7768 58.412 93.4268 65.8901 92.3838C73.3682 91.3409 80.2317 87.6728 85.2543 82.0351C83.4412 86.2768 80.7277 90.0736 77.3016 93.1625C73.8755 96.2513 69.8187 98.5583 65.4125 99.9237C61.0063 101.289 56.3559 101.68 51.7835 101.07C47.2111 100.46 42.8261 98.8625 38.9322 96.3893C35.0384 93.916 31.7288 90.6258 29.2327 86.7465C26.7367 82.8672 25.1139 78.4916 24.4768 73.9228C23.8397 69.3541 24.2036 64.7015 25.5431 60.2873C26.8826 55.8732 29.1658 51.803 32.2345 48.3589Z" fill="black"/>
<path d="M55.816 69.6113H55.9036L57.4771 159.823H54.1553L55.816 69.6113Z" fill="#3F3D56"/>
<path d="M265.512 113.13H119.668V156.365H265.512V113.13Z" fill="#CBB4F4"/>
<path d="M201.092 122.065H184.087V156.365H201.092V122.065Z" fill="#441616"/>
<path d="M257.009 62.1135H128.17V101.889H257.009V62.1135Z" fill="#CBB4F4"/>
<path d="M270.071 64.5635H115.109C114.85 64.5635 114.597 64.4861 114.383 64.3413C114.168 64.1965 114.002 63.9909 113.905 63.7509C113.809 63.511 113.786 63.2476 113.84 62.9946C113.895 62.7416 114.023 62.5107 114.21 62.3314L156.561 21.6229V3.89111C156.562 3.54723 156.698 3.21755 156.941 2.97439C157.185 2.73124 157.514 2.59446 157.858 2.59407H166.217C166.561 2.59445 166.89 2.73122 167.134 2.97438C167.377 3.21754 167.513 3.54723 167.514 3.89111V11.0952L170.713 8.02034C175.947 2.98867 182.892 0.1247 190.152 0.00397713C197.412 -0.116745 204.448 2.51473 209.848 7.36957L270.938 62.3018C271.133 62.4773 271.271 62.7078 271.332 62.9629C271.394 63.218 271.376 63.4857 271.282 63.7307C271.188 63.9757 271.022 64.1865 270.806 64.3352C270.59 64.4838 270.334 64.5635 270.071 64.5635Z" fill="#441616"/>
<path d="M162.181 72.2017C163.26 72.2017 164.328 72.4141 165.325 72.827C166.322 73.2398 167.227 73.8449 167.99 74.6076C168.753 75.3704 169.358 76.276 169.771 77.2726C170.183 78.2693 170.396 79.3375 170.396 80.4162V91.5131H153.967V80.4162C153.967 79.3375 154.179 78.2693 154.592 77.2726C155.005 76.276 155.61 75.3704 156.373 74.6076C157.136 73.8449 158.041 73.2398 159.038 72.827C160.034 72.4141 161.103 72.2017 162.181 72.2017Z" fill="white"/>
<path d="M192.59 72.3457C194.768 72.3457 196.858 73.2112 198.398 74.7517C199.939 76.2922 200.804 78.3816 200.804 80.5602V91.6571H184.375V80.5602C184.375 78.3816 185.24 76.2922 186.781 74.7517C188.322 73.2112 190.411 72.3457 192.59 72.3457Z" fill="white"/>
<path d="M222.998 72.4897C225.176 72.4897 227.266 73.3552 228.806 74.8957C230.347 76.4363 231.212 78.5257 231.212 80.7043V91.8012H214.783V80.7043C214.783 78.5257 215.649 76.4363 217.189 74.8957C218.73 73.3552 220.819 72.4897 222.998 72.4897Z" fill="white"/>
<path d="M235.103 121.633C237.282 121.633 239.371 122.499 240.912 124.039C242.452 125.58 243.318 127.669 243.318 129.848V140.944H226.889V129.848C226.889 127.669 227.754 125.58 229.295 124.039C230.835 122.499 232.925 121.633 235.103 121.633Z" fill="white"/>
<path d="M153.823 121.633C156.002 121.633 158.091 122.499 159.632 124.039C161.172 125.58 162.038 127.669 162.038 129.848V140.944H145.608V129.848C145.608 128.769 145.821 127.701 146.234 126.704C146.647 125.707 147.252 124.802 148.014 124.039C148.777 123.276 149.683 122.671 150.679 122.258C151.676 121.846 152.744 121.633 153.823 121.633Z" fill="white"/>
<path d="M286.819 113.805L259.46 101.7C259.314 101.635 259.155 101.601 258.994 101.601H128.607C128.458 101.601 128.31 101.63 128.173 101.686L98.3926 113.792C98.1449 113.892 97.9399 114.076 97.8127 114.311C97.6855 114.546 97.6439 114.818 97.6952 115.081C97.7465 115.343 97.8875 115.58 98.0939 115.75C98.3003 115.92 98.5593 116.013 98.8267 116.013H106.553V155.788H105.689V159.823H279.491V155.788H278.05V116.013H286.353C286.617 116.013 286.873 115.922 287.079 115.755C287.284 115.589 287.426 115.357 287.481 115.098C287.535 114.839 287.499 114.57 287.379 114.334C287.259 114.099 287.061 113.912 286.819 113.805ZM275.744 155.788H108.859V116.013H275.744V155.788Z" fill="#441616"/>
<path d="M172.414 89.9277H151.373V93.3865H172.414V89.9277Z" fill="#441616"/>
<path d="M203.255 89.9277H182.214V93.3865H203.255V89.9277Z" fill="#441616"/>
<path d="M234.094 89.9277H213.054V93.3865H234.094V89.9277Z" fill="#441616"/>
<path d="M245.624 139.792H224.583V143.25H245.624V139.792Z" fill="#441616"/>
<path d="M164.055 139.792H143.015V143.25H164.055V139.792Z" fill="#441616"/>
<path d="M320.706 160H0.353201C0.259526 160 0.169688 159.963 0.10345 159.897C0.0372119 159.83 0 159.741 0 159.647C0 159.553 0.0372119 159.463 0.10345 159.397C0.169688 159.331 0.259526 159.294 0.353201 159.294H320.706C320.8 159.294 320.89 159.331 320.956 159.397C321.022 159.463 321.06 159.553 321.06 159.647C321.06 159.741 321.022 159.83 320.956 159.897C320.89 159.963 320.8 160 320.706 160Z" fill="#3F3D56"/>
<path d="M240.129 61.5204C240.129 61.7465 240.126 61.976 240.122 62.2021C240.119 62.474 240.112 62.7425 240.101 63.0144C240.091 63.2511 240.08 63.4842 240.066 63.7173C240.023 64.4979 239.956 65.275 239.864 66.0555C239.843 66.2533 239.819 66.4476 239.79 66.6453C239.769 66.7972 239.748 66.9527 239.723 67.108C239.698 67.2811 239.674 67.4542 239.645 67.6273C239.589 67.9946 239.525 68.3619 239.455 68.7292C239.419 68.9129 239.384 69.0966 239.345 69.2802C239.271 69.644 239.19 70.0114 239.105 70.3752C239.098 70.4034 239.091 70.4352 239.084 70.4635C239.042 70.6436 238.999 70.8202 238.953 71.0003C238.939 71.0533 238.929 71.1028 238.911 71.1557C238.879 71.2899 238.844 71.4242 238.808 71.5584C238.759 71.7456 238.71 71.9292 238.657 72.1164C238.572 72.4061 238.487 72.6922 238.399 72.9818C238.388 73.0119 238.378 73.0425 238.37 73.0736C238.201 73.6211 238.021 74.1615 237.823 74.6983C237.721 74.9809 237.611 75.267 237.502 75.5495C237.392 75.8321 237.279 76.1147 237.163 76.3937C237.049 76.6657 236.933 76.9376 236.816 77.206C236.788 77.2696 236.76 77.3332 236.728 77.3968C236.604 77.6758 236.477 77.9478 236.347 78.2197C236.343 78.2233 236.343 78.2303 236.34 78.2339C236.237 78.4528 236.128 78.6718 236.018 78.8873C236.018 78.8938 236.015 78.9001 236.011 78.9049C235.905 79.1169 235.796 79.3288 235.683 79.5372L235.502 79.8798L235.481 79.9186C235.255 80.3389 235.022 80.7557 234.775 81.169C234.722 81.2608 234.669 81.3526 234.616 81.4409C234.563 81.5327 234.506 81.6246 234.45 81.7129C234.415 81.7765 234.376 81.84 234.333 81.9036C234.259 82.0237 234.185 82.1473 234.107 82.2674C234.093 82.2921 234.076 82.3169 234.061 82.3416C233.927 82.55 233.793 82.7548 233.659 82.9632C233.493 83.214 233.323 83.4612 233.15 83.7085L229.314 89.8471L229.148 89.7093L229.102 89.667H229.099L228.947 89.5398L228.53 89.1866C228.403 89.3102 228.279 89.4338 228.152 89.5539C228.103 89.6033 228.05 89.6493 228 89.6987C227.962 89.7341 227.926 89.7693 227.887 89.8047C221.256 96.2806 212.435 100.031 203.17 100.312H203.16C196.146 100.505 189.204 98.8664 183.017 95.5583C182.879 95.4876 182.745 95.417 182.611 95.3357C181.805 94.8978 181.018 94.4351 180.244 93.9406C180.241 93.9371 180.237 93.9371 180.234 93.9335C179.336 93.2978 178.46 92.6196 177.606 91.8991C173.02 88.0339 169.392 83.159 167.007 77.6567C164.621 72.1544 163.543 66.1742 163.856 60.1852C163.866 59.9486 163.88 59.7155 163.898 59.4788C163.955 58.6241 164.042 57.7728 164.159 56.9252C164.191 56.6885 164.227 56.4519 164.262 56.2188H239.769C239.917 57.2995 240.02 58.3862 240.076 59.4788C240.112 60.1606 240.129 60.8387 240.129 61.5204Z" fill="#CBB4F4"/>
<path d="M239.77 56.219C238.41 47.179 233.852 38.9269 226.924 32.9627C219.996 26.9985 211.158 23.7183 202.016 23.7183C192.874 23.7183 184.036 26.9985 177.108 32.9627C170.18 38.9269 165.622 47.179 164.262 56.219C164.227 56.4522 164.192 56.6888 164.16 56.9254C164.043 57.7731 163.956 58.6243 163.898 59.4791H240.077C240.02 58.3877 239.918 57.301 239.77 56.219Z" fill="#6C63FF"/>
<path d="M204.489 95.5575H182.612V78.0576C183.016 70.0601 189.851 69.4143 196.274 69.8435C197.353 69.8434 198.421 70.0558 199.418 70.4686C200.414 70.8814 201.32 71.4864 202.083 72.2492C202.846 73.0119 203.451 73.9175 203.863 74.9141C204.276 75.9107 204.489 76.9789 204.489 78.0576V95.5575Z" fill="#6C63FF"/>
<path d="M182.611 83.1152V83.1187C182.611 83.1222 182.614 83.1222 182.618 83.1222L182.611 83.1152ZM173.812 56.2189C173.798 56.3072 173.781 56.3955 173.766 56.4838C173.781 56.3955 173.798 56.3072 173.816 56.2189H173.812ZM173.374 59.479C173.364 59.6132 173.353 59.7474 173.346 59.8816C173.353 59.7474 173.364 59.6132 173.378 59.479C173.377 59.4542 173.379 59.4294 173.381 59.4048C173.378 59.4295 173.378 59.4542 173.374 59.479ZM182.611 83.1187C182.611 83.1222 182.614 83.1222 182.618 83.1222L182.611 83.1152V83.1187ZM173.812 56.2189C173.798 56.3072 173.781 56.3955 173.766 56.4838C173.781 56.3955 173.798 56.3072 173.816 56.2189H173.812ZM173.346 59.8816C173.353 59.7474 173.364 59.6132 173.378 59.479C173.377 59.4542 173.379 59.4294 173.381 59.4048C173.378 59.4295 173.378 59.4542 173.374 59.479C173.364 59.6132 173.353 59.7474 173.346 59.8816ZM282.464 124.856C282.395 124.784 282.322 124.715 282.245 124.652L282.242 124.648L264.751 109.888L264.299 109.506L262.579 108.055L262.148 107.691L259.697 105.621L259.026 105.056L257.638 103.883L256.928 103.283L250.231 97.6352L246.392 94.3964L245.876 93.962L234.563 84.4149C234.736 84.1677 234.906 83.9205 235.072 83.6697C235.206 83.4613 235.34 83.2564 235.474 83.0481C235.488 83.0233 235.506 82.9986 235.52 82.9739C235.598 82.8538 235.672 82.7302 235.746 82.6101C235.789 82.5465 235.827 82.4829 235.863 82.4194C235.919 82.3311 235.976 82.2392 236.029 82.1474C236.082 82.0591 236.135 81.9673 236.188 81.8755C236.435 81.4622 236.668 81.0454 236.894 80.6251L236.915 80.5862L237.095 80.2436C237.208 80.0353 237.318 79.8233 237.424 79.6114C237.428 79.6066 237.431 79.6003 237.431 79.5938C237.54 79.3783 237.65 79.1593 237.752 78.9404C237.756 78.9368 237.756 78.9298 237.759 78.9262C237.89 78.6543 238.017 78.3823 238.141 78.1033C238.173 78.0397 238.201 77.9761 238.229 77.9125C238.346 77.6441 238.462 77.3722 238.575 77.1002C238.692 76.8212 238.805 76.5386 238.914 76.256C239.024 75.9735 239.133 75.6874 239.236 75.4048C239.43 74.8644 239.613 74.3228 239.783 73.7801C239.791 73.749 239.8 73.7184 239.812 73.6883C239.9 73.3987 239.985 73.1125 240.069 72.8229C240.122 72.6357 240.172 72.4521 240.221 72.2649C240.256 72.1306 240.292 71.9964 240.324 71.8622C240.341 71.8093 240.352 71.7598 240.366 71.7068C240.412 71.5267 240.454 71.3501 240.497 71.17C240.504 71.1417 240.511 71.1099 240.518 71.0817C240.603 70.7179 240.684 70.3505 240.758 69.9867C240.797 69.8031 240.832 69.6194 240.868 69.4357C240.935 69.0684 241.002 68.7011 241.058 68.3338C241.087 68.1607 241.111 67.9876 241.136 67.8145C241.161 67.6592 241.182 67.5037 241.203 67.3518C241.231 67.1541 241.256 66.9598 241.277 66.762C241.369 65.9814 241.436 65.2044 241.479 64.4238C241.493 64.1907 241.503 63.9576 241.514 63.7209C241.524 63.449 241.532 63.1805 241.535 62.9086C241.539 62.6825 241.542 62.453 241.542 62.2269C241.542 61.5452 241.524 60.8671 241.489 60.1854C241.433 59.094 241.33 58.0073 241.182 56.9253C239.916 47.6766 235.365 39.1922 228.359 33.023C221.354 26.8537 212.362 23.4116 203.027 23.3259C193.693 23.2401 184.639 26.5165 177.521 32.5561C170.404 38.5957 165.697 46.995 164.262 56.2189C164.227 56.452 164.191 56.6887 164.159 56.9253C164.043 57.773 163.956 58.6242 163.898 59.479C163.88 59.7156 163.866 59.9487 163.856 60.1854C163.543 66.1744 164.621 72.1546 167.007 77.6569C169.392 83.1592 173.02 88.0341 177.606 91.8993C178.46 92.6198 179.336 93.298 180.234 93.9337C180.237 93.9372 180.241 93.9372 180.244 93.9408C180.544 94.1527 180.845 94.3611 181.148 94.5659C181.632 94.8838 182.12 95.1946 182.611 95.4913C182.649 95.5125 182.688 95.5372 182.727 95.5585C183.151 95.8128 183.578 96.0564 184.006 96.2931H184.009C185.6 97.1678 187.252 97.9279 188.951 98.5677C193.936 100.443 199.253 101.278 204.573 101.019H204.583C210.793 100.719 216.839 98.9293 222.212 95.8022C222.992 95.3501 223.762 94.8662 224.514 94.3505C224.702 94.2233 224.892 94.0926 225.076 93.962C225.302 93.803 225.528 93.637 225.754 93.471C225.758 93.471 225.758 93.4675 225.761 93.4675C225.778 93.4534 225.796 93.4404 225.814 93.4286C225.966 93.3121 226.121 93.1955 226.27 93.0825C226.309 93.0542 226.347 93.026 226.386 92.9942C226.397 92.987 226.406 92.9787 226.415 92.9695C226.503 92.9059 226.588 92.8352 226.676 92.7681C226.764 92.701 226.849 92.6304 226.937 92.5598C226.952 92.5503 226.966 92.5397 226.98 92.528C227.079 92.4467 227.178 92.369 227.276 92.2878C227.379 92.2066 227.478 92.1218 227.573 92.0405C227.672 91.9593 227.767 91.8781 227.866 91.7933C227.951 91.7226 228.039 91.6485 228.124 91.5708C228.152 91.5496 228.177 91.5249 228.205 91.5001C228.216 91.4897 228.228 91.4802 228.241 91.4719C228.357 91.373 228.47 91.2705 228.583 91.1681C228.612 91.1434 228.636 91.1187 228.665 91.0939C228.838 90.9385 229.011 90.7831 229.18 90.6207C229.219 90.5853 229.261 90.5465 229.3 90.5112C229.339 90.4758 229.374 90.4405 229.413 90.4052C229.463 90.3558 229.516 90.3098 229.565 90.2604C229.692 90.1403 229.816 90.0167 229.943 89.8931L230.36 90.2463L230.512 90.3734H230.515L230.561 90.4158L230.727 90.5536L233.193 92.6375L233.246 92.6833L233.288 92.7151L233.567 92.9518L234.125 93.4251L234.683 93.8948L234.764 93.962L237.36 96.1518L237.721 96.4556L240.225 98.5677L253.187 109.506L253.639 109.888L271.381 124.856L275.93 128.696L277.622 130.123C277.981 130.427 278.396 130.657 278.844 130.8C279.292 130.943 279.764 130.996 280.233 130.957C280.702 130.918 281.158 130.786 281.576 130.57C281.994 130.355 282.365 130.058 282.669 129.699C282.923 129.401 283.125 129.061 283.266 128.696C283.522 128.048 283.583 127.338 283.44 126.656C283.298 125.973 282.958 125.348 282.464 124.856ZM180.152 42.9809C183.696 38.7819 188.355 35.671 193.591 34.0075C198.828 32.3441 204.428 32.196 209.745 33.5804C215.062 34.9648 219.879 37.8252 223.639 41.8311C227.4 45.837 229.95 50.825 230.996 56.2189C231.042 56.4556 231.084 56.6887 231.123 56.9253C231.268 57.7695 231.374 58.6242 231.437 59.479C231.455 59.7156 231.472 59.9487 231.483 60.1854C231.515 60.7152 231.529 61.2485 231.529 61.7783C231.531 64.9921 230.999 68.1838 229.954 71.2229V71.2264C228.786 74.634 226.993 77.7939 224.666 80.5439C224.617 80.6004 224.567 80.6605 224.514 80.717C224.048 81.2679 223.557 81.7977 223.052 82.3028C223.049 82.3064 223.045 82.3134 223.042 82.317C222.868 82.49 222.692 82.6666 222.515 82.8291C222.155 83.1788 221.788 83.5108 221.413 83.8287C220.852 84.3196 220.276 84.78 219.686 85.2097C219.488 85.3545 219.291 85.4958 219.089 85.6371C218.891 85.7783 218.69 85.9126 218.489 86.0468C218.086 86.3152 217.676 86.573 217.263 86.8168C217.058 86.9403 216.846 87.0604 216.638 87.177C216.43 87.297 216.218 87.4101 216.006 87.5196C215.794 87.6326 215.582 87.7421 215.367 87.8481C214.939 88.0635 214.508 88.2648 214.07 88.452C213.851 88.5509 213.632 88.6428 213.413 88.7275C213.275 88.784 213.141 88.8406 213.004 88.89C212.95 88.9149 212.894 88.9361 212.838 88.9536C212.763 88.9854 212.689 89.0136 212.615 89.0384C212.591 89.0493 212.566 89.0587 212.541 89.0666C212.389 89.1267 212.241 89.1797 212.085 89.2327C211.863 89.3139 211.64 89.3881 211.414 89.4587C211.188 89.5329 210.966 89.6035 210.74 89.6671C210.513 89.7378 210.284 89.8013 210.058 89.8613C209.828 89.9249 209.602 89.985 209.373 90.0379C209.129 90.1015 208.885 90.1581 208.638 90.211C208.423 90.2605 208.211 90.3028 207.995 90.3417C207.794 90.3841 207.589 90.4194 207.388 90.4547C207.105 90.5042 206.822 90.5501 206.536 90.589C206.381 90.6137 206.229 90.6349 206.074 90.649C206.007 90.6596 205.943 90.6666 205.879 90.6737C205.682 90.702 205.484 90.7232 205.29 90.7408C205.237 90.7443 205.187 90.7514 205.138 90.7549C204.922 90.7762 204.703 90.7938 204.488 90.8115C204.025 90.8432 203.566 90.8644 203.103 90.875C202.87 90.8786 202.633 90.8821 202.4 90.8821C202.167 90.8821 201.934 90.8786 201.701 90.8715C201.701 90.8715 201.701 90.875 201.698 90.8715C201.694 90.875 201.694 90.875 201.69 90.8715C201.69 90.872 201.689 90.8724 201.689 90.8726C201.688 90.8729 201.688 90.873 201.687 90.873C201.686 90.873 201.686 90.8729 201.685 90.8726C201.684 90.8724 201.684 90.872 201.683 90.8715C201.672 90.875 201.66 90.875 201.648 90.8715C201.482 90.8715 201.316 90.8644 201.154 90.8538C201.034 90.8503 200.91 90.8468 200.786 90.8362C200.62 90.8291 200.454 90.8185 200.288 90.8044C200.235 90.8044 200.182 90.7974 200.129 90.7938C200.105 90.7932 200.08 90.7909 200.055 90.7868C199.886 90.7726 199.713 90.7585 199.543 90.7408C199.458 90.7338 199.37 90.7267 199.285 90.7161C199.027 90.6878 198.77 90.656 198.515 90.6208C198.226 90.5854 197.936 90.543 197.65 90.49C197.516 90.4724 197.385 90.4477 197.254 90.423C197.081 90.3947 196.908 90.3629 196.735 90.3276C196.555 90.2923 196.375 90.2569 196.195 90.2145C196.05 90.1827 195.902 90.151 195.757 90.1157C195.686 90.1015 195.615 90.0839 195.548 90.0662C195.177 89.9779 194.81 89.8826 194.446 89.7766C194.217 89.713 193.987 89.6459 193.761 89.5753C193.45 89.4799 193.143 89.3775 192.836 89.268C192.716 89.2291 192.599 89.1868 192.479 89.1408C192.359 89.102 192.242 89.0561 192.122 89.0102C192.013 88.9713 191.903 88.9289 191.797 88.8865C191.621 88.8194 191.448 88.7488 191.275 88.6782C190.918 88.5333 190.568 88.3814 190.218 88.219C190.021 88.1236 189.823 88.0318 189.629 87.9364C188.862 87.5656 188.108 87.1535 187.365 86.7002C187.181 86.5907 186.997 86.4742 186.814 86.3576C186.584 86.2164 186.362 86.068 186.139 85.9197C186.015 85.8349 185.895 85.7537 185.775 85.6689C185.553 85.5135 185.334 85.3545 185.118 85.1956C185.005 85.1143 184.892 85.0296 184.783 84.9448C184.391 84.6481 184.006 84.3373 183.628 84.0194C183.448 83.8675 183.268 83.7121 183.091 83.5532C183.017 83.4896 182.943 83.4225 182.868 83.3554C182.784 83.2777 182.699 83.2035 182.618 83.1222L182.611 83.1152C182.487 83.0057 182.363 82.8892 182.243 82.7726C182.056 82.596 181.872 82.4159 181.696 82.2323C181.512 82.0521 181.336 81.8649 181.162 81.6812C180.986 81.4976 180.816 81.3104 180.65 81.1196C180.481 80.9324 180.315 80.7417 180.152 80.5475C179.993 80.3638 179.838 80.1731 179.69 79.9859C179.329 79.5408 178.986 79.0876 178.658 78.626C178.506 78.4141 178.362 78.2022 178.22 77.9868C178.068 77.7677 177.924 77.5453 177.786 77.3227C177.641 77.1002 177.503 76.8741 177.369 76.6446C177.366 76.6367 177.361 76.6296 177.355 76.6234C177.09 76.1748 176.836 75.7227 176.599 75.2635C176.355 74.7973 176.126 74.3264 175.91 73.8507C175.801 73.6141 175.695 73.3739 175.596 73.1338C175.391 72.6498 175.2 72.166 175.024 71.675C174.935 71.4384 174.854 71.2017 174.773 70.9615C174.77 70.9457 174.766 70.9302 174.759 70.9157C174.596 70.4282 174.448 69.9373 174.317 69.4428C174.314 69.4358 174.314 69.4287 174.31 69.4217C174.243 69.1779 174.18 68.9342 174.123 68.687C174.067 68.4715 174.017 68.2561 173.971 68.0371C173.918 67.7933 173.865 67.5497 173.819 67.3024C173.795 67.1753 173.77 67.0481 173.749 66.921C173.728 66.815 173.71 66.7055 173.692 66.5996C173.675 66.4936 173.657 66.3841 173.639 66.2746C173.604 66.0592 173.572 65.8437 173.544 65.6283C173.509 65.3739 173.48 65.1196 173.452 64.8618C173.42 64.5545 173.392 64.2472 173.367 63.9364C173.35 63.728 173.339 63.5161 173.328 63.3042C173.318 63.1099 173.307 62.9157 173.304 62.7214C173.3 62.7111 173.3 62.6999 173.304 62.6896C173.303 62.6892 173.303 62.6886 173.303 62.688C173.302 62.6874 173.302 62.6868 173.302 62.6861C173.302 62.6854 173.302 62.6848 173.303 62.6842C173.303 62.6836 173.303 62.683 173.304 62.6826C173.3 62.679 173.3 62.679 173.304 62.6755C173.303 62.675 173.303 62.6745 173.303 62.6739C173.302 62.6733 173.302 62.6726 173.302 62.672C173.302 62.6713 173.302 62.6707 173.303 62.67C173.303 62.6694 173.303 62.6689 173.304 62.6684C173.3 62.5907 173.297 62.513 173.297 62.4353C173.29 62.2058 173.286 61.9762 173.286 61.7466C173.286 61.5382 173.29 61.3333 173.293 61.125C173.3 60.8353 173.311 60.5457 173.325 60.2561C173.325 60.1925 173.332 60.1325 173.336 60.0689C173.339 60.0053 173.343 59.9452 173.346 59.8816C173.353 59.7474 173.364 59.6132 173.378 59.479C173.377 59.4542 173.379 59.4294 173.381 59.4048C173.392 59.2529 173.406 59.1011 173.42 58.9492C173.449 58.6455 173.484 58.3382 173.523 58.0344C173.544 57.8826 173.562 57.7307 173.586 57.5788C173.6 57.4729 173.618 57.3634 173.636 57.2539C173.65 57.1444 173.668 57.0349 173.689 56.9254C173.713 56.7806 173.738 56.6322 173.766 56.4838C173.781 56.3955 173.798 56.3072 173.816 56.2189C173.883 55.8657 173.957 55.5126 174.038 55.1594C174.12 54.8027 174.211 54.4494 174.31 54.0962C174.406 53.7395 174.512 53.3828 174.625 53.026C174.678 52.8459 174.734 52.6693 174.798 52.4927C174.914 52.136 175.038 51.7828 175.176 51.4331C175.239 51.26 175.306 51.0834 175.38 50.9104C175.522 50.5607 175.67 50.211 175.822 49.8684C175.9 49.6954 175.977 49.5223 176.062 49.3492C176.221 49.0066 176.387 48.664 176.567 48.3285C176.74 47.9859 176.928 47.6503 177.118 47.3183C177.309 46.9863 177.507 46.6543 177.715 46.3258C177.811 46.1634 177.916 45.9974 178.026 45.8384C178.238 45.5135 178.46 45.1885 178.686 44.8706C179.142 44.2277 179.633 43.5955 180.152 42.9809ZM173.374 59.479C173.364 59.6132 173.353 59.7474 173.346 59.8816C173.353 59.7474 173.364 59.6132 173.378 59.479C173.377 59.4542 173.379 59.4294 173.381 59.4048C173.378 59.4295 173.378 59.4542 173.374 59.479ZM173.812 56.2189C173.798 56.3072 173.781 56.3955 173.766 56.4838C173.781 56.3955 173.798 56.3072 173.816 56.2189H173.812ZM182.611 83.1152V83.1187C182.611 83.1222 182.614 83.1222 182.618 83.1222L182.611 83.1152Z" fill="#3F3D56"/>
<path opacity="0.3" d="M183.628 84.019C178.042 79.3045 174.432 72.6615 173.517 65.409C172.601 58.1565 174.447 50.825 178.687 44.8701C178.13 45.4309 177.591 46.0181 177.072 46.6319C174.605 49.5547 172.739 52.9347 171.579 56.5788C170.419 60.2229 169.988 64.0599 170.311 67.8705C170.634 71.6811 171.704 75.3909 173.461 78.7879C175.217 82.185 177.626 85.2028 180.548 87.669C186.451 92.6498 194.091 95.0818 201.787 94.4298C209.483 93.7778 216.605 90.0953 221.585 84.1924C222.104 83.5778 222.592 82.9484 223.05 82.3042C217.894 87.4855 210.977 90.538 203.674 90.8557C196.371 91.1733 189.215 88.7329 183.628 84.019Z" fill="black"/>
</g>
<defs>
<clipPath id="clip0_221_1844">
<rect width="321.06" height="160" fill="white"/>
</clipPath>
</defs>
</svg>
