<svg width="34" height="34" viewBox="0 0 34 34" fill="none" xmlns="http://www.w3.org/2000/svg">
<path d="M17 12.8668C16.1825 12.8668 15.3833 13.1092 14.7036 13.5634C14.0239 14.0176 13.4941 14.6631 13.1813 15.4184C12.8684 16.1737 12.7866 17.0047 12.9461 17.8065C13.1056 18.6083 13.4992 19.3448 14.0773 19.9229C14.6553 20.5009 15.3918 20.8946 16.1936 21.0541C16.9954 21.2136 17.8265 21.1317 18.5817 20.8189C19.337 20.506 19.9825 19.9762 20.4367 19.2965C20.8909 18.6168 21.1333 17.8177 21.1333 17.0002C21.1333 16.4574 21.0264 15.9199 20.8187 15.4184C20.611 14.9169 20.3065 14.4613 19.9227 14.0775C19.5389 13.6936 19.0832 13.3892 18.5817 13.1815C18.0803 12.9737 17.5428 12.8668 17 12.8668ZM33.55 8.7835C33.5412 7.49643 33.3042 6.22111 32.85 5.01683C32.5154 4.1356 31.9979 3.33532 31.3313 2.6688C30.6648 2.00229 29.8645 1.48469 28.9833 1.15016C27.779 0.695936 26.5037 0.458931 25.2166 0.450163C23.0666 0.333496 22.4333 0.333496 17 0.333496C11.5666 0.333496 10.9333 0.333496 8.78331 0.450163C7.49624 0.458931 6.22093 0.695936 5.01665 1.15016C4.13541 1.48469 3.33514 2.00229 2.66862 2.6688C2.00211 3.33532 1.48451 4.1356 1.14998 5.01683C0.695753 6.22111 0.458748 7.49643 0.44998 8.7835C0.333313 10.9335 0.333313 11.5668 0.333313 17.0002C0.333313 22.4335 0.333313 23.0668 0.44998 25.2168C0.467919 26.5084 0.704604 27.7876 1.14998 29.0002C1.48303 29.8774 2.00019 30.673 2.66665 31.3335C3.3303 32.004 4.13229 32.5216 5.01665 32.8502C6.22093 33.3044 7.49624 33.5414 8.78331 33.5502C10.9333 33.6668 11.5666 33.6668 17 33.6668C22.4333 33.6668 23.0666 33.6668 25.2166 33.5502C26.5037 33.5414 27.779 33.3044 28.9833 32.8502C29.8677 32.5216 30.6697 32.004 31.3333 31.3335C31.9998 30.673 32.5169 29.8774 32.85 29.0002C33.3038 27.79 33.5407 26.5093 33.55 25.2168C33.6666 23.0668 33.6666 22.4335 33.6666 17.0002C33.6666 11.5668 33.6666 10.9335 33.55 8.7835ZM29.3166 22.1168C29.2632 23.1453 29.0437 24.1584 28.6666 25.1168C28.3431 25.9163 27.8621 26.6426 27.2522 27.2524C26.6424 27.8623 25.9161 28.3433 25.1166 28.6668C24.1492 29.0228 23.1304 29.2198 22.1 29.2502H11.9C10.8695 29.2198 9.85079 29.0228 8.88331 28.6668C8.05682 28.3597 7.31044 27.8697 6.69998 27.2335C6.09609 26.6356 5.62972 25.9133 5.33331 25.1168C4.97591 24.1504 4.78432 23.1305 4.76665 22.1002V11.9002C4.78432 10.8699 4.97591 9.84997 5.33331 8.8835C5.64045 8.057 6.13044 7.31062 6.76665 6.70016C7.3672 6.09954 8.08875 5.63365 8.88331 5.3335C9.85079 4.97751 10.8695 4.78051 11.9 4.75016H22.1C23.1304 4.78051 24.1492 4.97751 25.1166 5.3335C25.9431 5.64063 26.6895 6.13062 27.3 6.76683C27.9039 7.36474 28.3702 8.08705 28.6666 8.8835C29.0226 9.85098 29.2196 10.8697 29.25 11.9002V17.0002C29.25 20.4335 29.3666 20.7835 29.3166 22.1002V22.1168ZM26.65 9.71683C26.4515 9.17847 26.1387 8.68957 25.733 8.28385C25.3272 7.87814 24.8383 7.56527 24.3 7.36683C23.5608 7.1106 22.7822 6.98648 22 7.00016H12C11.2138 7.00785 10.4351 7.15455 9.69998 7.4335C9.16986 7.62292 8.68613 7.92302 8.28095 8.31383C7.87577 8.70464 7.55841 9.17723 7.34998 9.70016C7.10794 10.4424 6.98969 11.2195 6.99998 12.0002V22.0002C7.0165 22.7855 7.16293 23.5627 7.43331 24.3002C7.63175 24.8385 7.94462 25.3274 8.35034 25.7331C8.75605 26.1389 9.24495 26.4517 9.78331 26.6502C10.4944 26.9117 11.2427 27.058 12 27.0835H22C22.7862 27.0758 23.5649 26.9291 24.3 26.6502C24.8383 26.4517 25.3272 26.1389 25.733 25.7331C26.1387 25.3274 26.4515 24.8385 26.65 24.3002C26.9289 23.565 27.0756 22.7864 27.0833 22.0002V12.0002C27.0838 11.2132 26.9368 10.433 26.65 9.70016V9.71683ZM17 23.3668C16.1647 23.3668 15.3376 23.202 14.5661 22.8819C13.7946 22.5617 13.0938 22.0925 12.5039 21.5011C11.9141 20.9096 11.4467 20.2077 11.1286 19.4353C10.8104 18.663 10.6478 17.8355 10.65 17.0002C10.65 15.7402 11.0238 14.5087 11.7241 13.4613C12.4244 12.414 13.4198 11.5979 14.5841 11.1166C15.7484 10.6352 17.0294 10.5101 18.2649 10.7571C19.5003 11.0041 20.6347 11.6121 21.5245 12.5042C22.4142 13.3962 23.0192 14.5322 23.263 15.7683C23.5068 17.0044 23.3783 18.2851 22.8939 19.4482C22.4094 20.6112 21.5908 21.6044 20.5416 22.302C19.4925 22.9995 18.2599 23.3701 17 23.3668ZM23.6666 11.8835C23.2982 11.8445 22.9573 11.6705 22.7095 11.3951C22.4616 11.1197 22.3245 10.7623 22.3245 10.3918C22.3245 10.0213 22.4616 9.66396 22.7095 9.38855C22.9573 9.11313 23.2982 8.93916 23.6666 8.90016C24.0351 8.93916 24.376 9.11313 24.6238 9.38855C24.8716 9.66396 25.0088 10.0213 25.0088 10.3918C25.0088 10.7623 24.8716 11.1197 24.6238 11.3951C24.376 11.6705 24.0351 11.8445 23.6666 11.8835Z" fill="#EEE6FB"/>
</svg>
