<svg width="34" height="34" viewBox="0 0 34 34" fill="none" xmlns="http://www.w3.org/2000/svg">
<path d="M29.6267 0C30.6089 0 31.5508 0.390171 32.2453 1.08468C32.9398 1.77919 33.33 2.72115 33.33 3.70333V29.6267C33.33 30.6089 32.9398 31.5508 32.2453 32.2453C31.5508 32.9398 30.6089 33.33 29.6267 33.33H3.70333C2.72115 33.33 1.77919 32.9398 1.08468 32.2453C0.390171 31.5508 0 30.6089 0 29.6267V3.70333C0 2.72115 0.390171 1.77919 1.08468 1.08468C1.77919 0.390171 2.72115 0 3.70333 0H29.6267ZM28.7008 28.7008V18.887C28.7008 17.286 28.0649 15.7506 26.9328 14.6186C25.8008 13.4865 24.2654 12.8506 22.6644 12.8506C21.0905 12.8506 19.2573 13.8134 18.3685 15.2577V13.2024H13.2024V28.7008H18.3685V19.5721C18.3685 18.1463 19.5166 16.9798 20.9424 16.9798C21.6299 16.9798 22.2893 17.2529 22.7754 17.7391C23.2616 18.2252 23.5347 18.8846 23.5347 19.5721V28.7008H28.7008ZM7.18447 10.2953C8.0095 10.2953 8.80075 9.96752 9.38414 9.38414C9.96752 8.80075 10.2953 8.0095 10.2953 7.18447C10.2953 5.46242 8.90652 4.05515 7.18447 4.05515C6.35452 4.05515 5.55857 4.38485 4.97171 4.97171C4.38485 5.55857 4.05515 6.35452 4.05515 7.18447C4.05515 8.90652 5.46242 10.2953 7.18447 10.2953ZM9.75828 28.7008V13.2024H4.62917V28.7008H9.75828Z" fill="#EEE6FB"/>
</svg>
