<svg width="231" height="160" viewBox="0 0 231 160" fill="none" xmlns="http://www.w3.org/2000/svg">
<g clip-path="url(#clip0_221_1917)">
<path d="M86.9209 31.2381C85.1643 24.8337 99.3322 19.3417 103.053 24.4992C103.57 23.766 105.482 23.3206 106.359 23.5455C107.236 23.7705 107.974 24.3328 108.694 24.8771C109.684 25.6374 110.709 26.4246 111.317 27.5178C111.928 28.6064 112.023 30.091 111.2 31.0356C110.547 31.7869 108.622 32.2727 107.641 32.4707C106.957 32.6101 106.382 32.7226 105.887 32.8036C105.446 32.1603 105.221 31.364 105.302 30.5858C104.636 31.0266 104.186 31.7824 104.114 32.5832C104.101 32.7496 109.643 53.1415 109.643 53.1415C109.072 53.4789 108.365 53.7938 107.551 54.0817C106.17 51.9989 105.037 49.5427 104.29 46.974C104.119 48.562 104.146 50.2849 104.353 52.0349C104.461 52.9661 104.623 53.9018 104.83 54.8375C98.2437 56.259 88.3379 55.7912 84.0283 49.7451C84.0276 49.7201 84.0268 49.6951 84.0261 49.67C83.9953 48.5387 82.4517 48.2576 82.0387 49.3113C81.9342 49.578 81.8379 49.8089 81.7521 49.9926C80.497 45.503 82.1209 40.3072 86.9209 31.2381Z" fill="#2F2E41"/>
<path d="M176.442 82.0247C174.884 83.8729 172.123 84.108 170.274 82.5497C170.095 82.3988 169.929 82.2337 169.776 82.0561L148.978 88.6435L145.741 83.3386L170.501 75.6953C172.444 74.2621 175.18 74.675 176.613 76.6175C177.813 78.2429 177.742 80.4784 176.442 82.0247Z" fill="#FFB6B6"/>
<path d="M102.786 65.5635C102.786 65.5635 111.997 55.2038 116.009 59.6045C120.021 64.0052 132.538 83.2893 132.538 83.2893L161.757 77.1247L164.583 84.8358L131.406 95.5869C128.912 96.3951 126.178 95.557 124.566 93.4896L102.786 65.5635Z" fill="#6C63FF"/>
<path d="M122.79 160H77.1069L77.0653 159.643L77.0385 159.406L76.6462 156.077L76.0905 151.337L75.8765 149.515C75.8616 149.423 75.8467 149.333 75.8349 149.241C75.6476 148.055 75.5406 146.864 75.502 145.675C75.4455 144.04 75.5198 142.409 75.6952 140.798V140.789C75.7903 139.918 75.9121 139.056 76.0637 138.203C76.2539 137.106 76.4828 136.028 76.7473 134.973C77.0504 133.748 77.3952 132.556 77.7726 131.406C78.2066 130.06 78.6821 128.77 79.1725 127.551C79.226 127.421 79.2795 127.29 79.33 127.162L79.333 127.159C81.9186 120.855 84.855 116.549 84.855 116.549H118.136C118.136 116.549 119.675 123.304 120.439 128.883C120.561 129.765 120.662 130.616 120.737 131.406C120.87 132.865 120.909 134.12 120.793 134.973C120.722 135.502 120.591 135.876 120.389 136.048C118.558 137.612 120.653 140.928 120.653 140.928C120.653 140.928 122.223 143.327 120.855 144.676C120.585 144.944 120.43 145.288 120.356 145.675C120.237 146.314 120.341 147.057 120.505 147.714C120.668 148.373 120.894 148.947 121.019 149.241C121.075 149.372 121.111 149.446 121.111 149.446L121.343 151.28L121.569 153.046L121.952 156.077L122.068 156.612L122.665 159.406L122.716 159.643L122.79 160Z" fill="#2F2E41"/>
<path d="M99.7148 51.3904L85.7469 52.6344L83.1725 60.6457L80.3669 61.052C75.5727 61.7461 72.7194 66.7743 74.5822 71.2461L77.0507 77.172C77.0507 77.172 73.4247 88.3641 77.878 93.0667L79.7732 113.778L75.4983 127.432L125.468 129.045L116.956 111.919L116.704 101.285C116.704 101.285 122.143 82.0641 117.1 75.9503L115.133 58.561L104.882 57.0235L99.7148 51.3904Z" fill="#6C63FF"/>
<path d="M109.171 41.1121C110.61 34.904 106.744 28.7045 100.536 27.2651C94.3281 25.8258 88.1285 29.6916 86.6892 35.8998C85.2498 42.1079 89.1157 48.3075 95.3239 49.7468C101.532 51.1862 107.732 47.3203 109.171 41.1121Z" fill="#FFB6B6"/>
<path d="M80.623 32.138C78.8664 25.7336 93.0344 20.2416 96.7548 25.3991C97.2722 24.6659 99.1841 24.2205 100.061 24.4454C100.939 24.6704 101.676 25.2327 102.396 25.777C103.386 26.5373 104.411 27.3245 105.019 28.4177C105.63 29.5063 105.725 30.9909 104.902 31.9356C104.249 32.6868 102.324 33.1727 101.343 33.3706C100.66 33.51 100.084 33.6225 99.5889 33.7035C99.1481 33.0602 98.9231 32.2639 99.0041 31.4857C98.3383 31.9265 97.8885 32.6823 97.8165 33.4831C97.803 33.6495 103.345 54.0414 103.345 54.0414C102.774 54.3788 102.068 54.6937 101.253 54.9816C99.8724 52.8988 98.7387 50.4426 97.9919 47.8739C97.821 49.4619 97.848 51.1848 98.0549 52.9348C98.1629 53.866 98.3249 54.8017 98.5318 55.7374C91.9459 57.1589 82.0401 56.6911 77.7305 50.645C77.7297 50.62 77.729 50.595 77.7283 50.5699C77.6975 49.4386 76.1539 49.1575 75.7409 50.2112C75.6363 50.4779 75.5401 50.7088 75.4542 50.8925C74.1991 46.4029 75.8231 41.2071 80.623 32.138Z" fill="#2F2E41"/>
<path d="M179.262 159.643H24.1214L0.0478516 159.94L168.878 149.861C174.51 149.525 179.262 154.001 179.262 159.643Z" fill="#3F3D56"/>
<path d="M217.256 159.406V160H0V0H0.594409V159.406H217.256Z" fill="#3F3D56"/>
<path d="M194.01 37.0077H154.466C153.554 37.0077 152.812 36.2684 152.812 35.3599C152.812 34.4513 153.554 33.7124 154.466 33.7124H194.01C194.922 33.7124 195.664 34.4513 195.664 35.3599C195.664 36.2684 194.922 37.0077 194.01 37.0077Z" fill="#6C63FF"/>
<path d="M174.223 42.3217C174.076 41.9575 173.565 41.9575 173.417 42.3218C172.386 44.8635 170.919 47.7099 169.322 49.8852C169.066 50.2334 169.419 50.6988 169.825 50.5518L173.247 49.3137V70.4996H174.393V49.3136L177.817 50.552C178.223 50.6989 178.575 50.2336 178.32 49.8853C176.723 47.71 175.255 44.8635 174.223 42.3217Z" fill="#3F3D56"/>
<path d="M229.628 49.1183H205.248C204.686 49.1183 204.229 48.6625 204.229 48.1024C204.229 47.5422 204.686 47.0867 205.248 47.0867H229.628C230.19 47.0867 230.647 47.5422 230.647 48.1024C230.647 48.6625 230.19 49.1183 229.628 49.1183Z" fill="#F2F2F2"/>
<path d="M217.429 52.3945C217.338 52.1699 217.023 52.1699 216.932 52.3946C216.296 53.9616 215.391 55.7164 214.407 57.0575C214.249 57.2722 214.467 57.5592 214.717 57.4686L216.827 56.7052V69.7669H217.533V56.7052L219.644 57.4686C219.895 57.5592 220.112 57.2723 219.954 57.0576C218.97 55.7165 218.065 53.9616 217.429 52.3945Z" fill="#F2F2F2"/>
<path d="M217.442 82.3703C220.368 82.3703 222.74 79.9985 222.74 77.0727C222.74 74.147 220.368 71.7751 217.442 71.7751C214.516 71.7751 212.145 74.147 212.145 77.0727C212.145 79.9985 214.516 82.3703 217.442 82.3703Z" fill="#F2F2F2"/>
<path d="M151.463 19.1005H127.083C126.521 19.1005 126.063 18.6447 126.063 18.0846C126.063 17.5244 126.521 17.0688 127.083 17.0688H151.463C152.025 17.0688 152.482 17.5244 152.482 18.0846C152.482 18.6447 152.025 19.1005 151.463 19.1005Z" fill="#F2F2F2"/>
<path d="M139.264 22.3769C139.173 22.1523 138.858 22.1524 138.767 22.377C138.131 23.944 137.226 25.6988 136.242 27.0399C136.084 27.2547 136.302 27.5416 136.552 27.451L138.662 26.6876V39.7493H139.368V26.6876L141.479 27.4511C141.73 27.5417 141.947 27.2547 141.789 27.04C140.805 25.6989 139.9 23.944 139.264 22.3769Z" fill="#F2F2F2"/>
<path d="M139.277 52.3525C142.203 52.3525 144.575 49.9807 144.575 47.0549C144.575 44.1291 142.203 41.7573 139.277 41.7573C136.351 41.7573 133.979 44.1291 133.979 47.0549C133.979 49.9807 136.351 52.3525 139.277 52.3525Z" fill="#F2F2F2"/>
<path d="M77.8584 149.704C79.1085 147.635 78.4445 144.944 76.3754 143.694C76.175 143.573 75.9652 143.468 75.7479 143.381L75.3092 121.569L69.2461 120.207L69.9566 146.11C69.223 148.409 70.4926 150.868 72.7924 151.602C74.7168 152.216 76.8112 151.431 77.8584 149.704Z" fill="#FFB6B6"/>
<path d="M82.0757 63.6464C82.0757 63.6464 74.6456 61.8632 72.268 66.9156C69.8903 71.9681 69.688 93.9542 69.688 93.9542L68.4043 138.542L77.8291 138.127L85.3449 83.2619L82.0757 63.6464Z" fill="#6C63FF"/>
<path d="M78.7406 156.283C78.9079 156.493 79.1619 156.615 79.4301 156.613H127.678C128.169 156.613 128.566 156.215 128.565 155.724C128.565 155.664 128.559 155.603 128.546 155.543L127.797 151.986C127.734 151.691 127.526 151.448 127.244 151.341C127.144 151.302 127.037 151.281 126.929 151.281H80.1761C80.0683 151.281 79.9615 151.302 79.8611 151.341C79.5794 151.448 79.3714 151.691 79.3083 151.986L78.5594 155.543C78.5054 155.805 78.572 156.077 78.7406 156.283Z" fill="#CCCCCC"/>
<path d="M60.2695 76.6445V132.299C60.2707 133.776 61.4676 134.973 62.9444 134.974H145.419C146.895 134.973 148.092 133.776 148.093 132.299V76.6445C148.09 75.1692 146.894 73.9745 145.419 73.9727H62.9444C61.469 73.9745 60.2731 75.1692 60.2695 76.6445Z" fill="#E6E6E6"/>
<path d="M114.495 123.072C114.397 123.04 114.293 123.025 114.189 123.025H94.8946C94.3269 123.025 93.8633 123.486 93.8633 124.053V154.535H115.217V124.053C115.217 123.604 114.926 123.206 114.495 123.072ZM106.756 138.063C106.75 139.324 105.725 140.34 104.465 140.334C103.213 140.325 102.203 139.315 102.197 138.063V134.527C102.209 133.27 103.24 132.259 104.497 132.271C105.74 132.283 106.744 133.287 106.756 134.527V138.063Z" fill="#CCCCCC"/>
</g>
<defs>
<clipPath id="clip0_221_1917">
<rect width="230.647" height="160" fill="white"/>
</clipPath>
</defs>
</svg>
