<svg width="80" height="94" viewBox="0 0 80 94" fill="none" xmlns="http://www.w3.org/2000/svg">
<path d="M40.4829 93.1191L0 70.423L0 23.1795L40.4829 0.000427246L80 23.1795V70.423L40.4829 93.1191Z" fill="#CDFFCF"/>
<path d="M42.5199 44.0934C44.1398 41.8301 45.0107 39.1166 45.0107 36.3334C45.0107 33.5502 44.1398 30.8367 42.5199 28.5734C44.0367 27.5402 45.8313 26.9916 47.6666 27.0001C50.1419 27.0001 52.5159 27.9834 54.2662 29.7338C56.0166 31.4841 56.9999 33.8581 56.9999 36.3334C56.9999 38.8088 56.0166 41.1827 54.2662 42.9331C52.5159 44.6834 50.1419 45.6667 47.6666 45.6667C45.8313 45.6753 44.0367 45.1266 42.5199 44.0934ZM22.3333 36.3334C22.3333 34.4875 22.8807 32.683 23.9063 31.1481C24.9318 29.6132 26.3895 28.417 28.0949 27.7106C29.8004 27.0041 31.677 26.8193 33.4875 27.1794C35.2979 27.5396 36.961 28.4285 38.2663 29.7338C39.5716 31.039 40.4605 32.7021 40.8206 34.5126C41.1807 36.3231 40.9959 38.1997 40.2895 39.9051C39.5831 41.6105 38.3868 43.0682 36.8519 44.0938C35.3171 45.1193 33.5126 45.6667 31.6666 45.6667C29.1913 45.6667 26.8173 44.6834 25.067 42.9331C23.3166 41.1827 22.3333 38.8088 22.3333 36.3334ZM27.6666 36.3334C27.6666 37.1245 27.9012 37.8979 28.3408 38.5557C28.7803 39.2135 29.405 39.7262 30.1359 40.0289C30.8668 40.3317 31.6711 40.4109 32.447 40.2565C33.2229 40.1022 33.9356 39.7212 34.495 39.1618C35.0544 38.6024 35.4354 37.8897 35.5898 37.1138C35.7441 36.3378 35.6649 35.5336 35.3621 34.8027C35.0594 34.0718 34.5467 33.4471 33.8889 33.0075C33.2311 32.568 32.4577 32.3334 31.6666 32.3334C30.6058 32.3334 29.5883 32.7548 28.8382 33.505C28.0881 34.2551 27.6666 35.2725 27.6666 36.3334ZM50.3332 61.6667V67H13V61.6667C13 61.6667 13 51 31.6666 51C50.3332 51 50.3332 61.6667 50.3332 61.6667ZM44.9999 61.6667C44.6266 59.5867 41.4533 56.3334 31.6666 56.3334C21.88 56.3334 18.52 59.8267 18.3333 61.6667M50.1999 51C51.8343 52.2713 53.1706 53.885 54.115 55.7277C55.0594 57.5704 55.589 59.5975 55.6666 61.6667V67H66.3332V61.6667C66.3332 61.6667 66.3332 51.9867 50.1732 51H50.1999Z" fill="#208B31"/>
</svg>
