<svg width="28" height="22" viewBox="0 0 28 22" fill="none" xmlns="http://www.w3.org/2000/svg">
<path d="M24.6666 0.333496H3.33329C1.86663 0.333496 0.679959 1.5335 0.679959 3.00016L0.666626 19.0002C0.666626 20.4668 1.86663 21.6668 3.33329 21.6668H24.6666C26.1333 21.6668 27.3333 20.4668 27.3333 19.0002V3.00016C27.3333 1.5335 26.1333 0.333496 24.6666 0.333496ZM24.1333 6.00016L14.7066 11.8935C14.28 12.1602 13.72 12.1602 13.2933 11.8935L3.86663 6.00016C3.73293 5.92511 3.61585 5.82371 3.52248 5.7021C3.4291 5.58049 3.36138 5.4412 3.32339 5.29266C3.28541 5.14411 3.27796 4.98941 3.3015 4.83791C3.32504 4.6864 3.37907 4.54125 3.46033 4.41123C3.54159 4.28121 3.64839 4.16904 3.77426 4.08149C3.90013 3.99394 4.04245 3.93284 4.19262 3.90189C4.34279 3.87094 4.49767 3.87079 4.6479 3.90143C4.79813 3.93207 4.94058 3.99287 5.06663 4.08016L14 9.66683L22.9333 4.08016C23.0593 3.99287 23.2018 3.93207 23.352 3.90143C23.5022 3.87079 23.6571 3.87094 23.8073 3.90189C23.9575 3.93284 24.0998 3.99394 24.2257 4.08149C24.3515 4.16904 24.4583 4.28121 24.5396 4.41123C24.6208 4.54125 24.6749 4.6864 24.6984 4.83791C24.722 4.98941 24.7145 5.14411 24.6765 5.29266C24.6385 5.4412 24.5708 5.58049 24.4774 5.7021C24.3841 5.82371 24.267 5.92511 24.1333 6.00016Z" fill="#EEE6FB"/>
</svg>
