<svg width="1520" height="877" viewBox="0 0 1520 877" fill="none" xmlns="http://www.w3.org/2000/svg">
<path d="M947.349 485.068C935.525 493.067 920.067 495.459 906.376 491.402C904.84 490.952 903.172 490.292 902.472 488.843C901.419 486.676 903.1 484.231 903.406 481.84C904.276 474.975 894.503 472.013 891.389 465.839C890.159 463.399 890.06 460.567 889.853 457.845C887.953 433.692 875.373 411.93 864.772 390.141C864.007 388.557 863.227 386.835 863.548 385.095C863.869 383.363 865.858 381.866 867.404 382.721C866.251 386.826 868.772 391.615 872.804 392.992C874.647 385.965 875.646 376.735 869.351 373.12C867.209 371.89 864.643 371.671 862.171 371.551C852.45 371.068 842.677 371.614 833.076 373.177C831.468 373.435 829.713 373.699 828.32 372.871C827.081 372.139 826.445 370.729 825.575 369.579C823.217 366.426 816.931 364.71 813.591 367.461C809.889 370.519 812.715 377.168 805.622 378.095C801.599 378.617 797.743 376.549 794.218 374.545C790.443 372.403 786.588 370.192 783.836 366.843C782.861 365.643 782 364.299 780.698 363.48C778.187 361.901 774.958 362.757 771.997 362.724C769.035 362.7 765.42 360.542 766.218 357.692C766.467 356.807 767.112 356.099 767.619 355.325C771.346 349.612 766.413 341.472 759.917 339.404C753.415 337.337 746.394 339.395 739.883 341.448C730.129 344.529 720.366 347.614 710.603 350.686C706.915 351.853 703.053 353.029 699.246 352.336C695.988 351.739 692.567 349.81 689.588 351.259C685.546 353.221 686.2 359.243 683.761 363.018C681.427 366.624 676.452 367.782 674.046 371.347C671.261 375.475 672.917 380.99 672.629 385.962C672.059 395.548 664.177 402.824 657.249 409.479C650.318 416.128 643.285 424.796 645.065 434.235C645.611 437.134 646.979 439.87 647.183 442.807C647.345 445.247 646.7 447.653 646.055 450.002C644.027 457.431 641.998 464.86 639.961 472.289C646.778 484.339 654.318 495.984 662.53 507.13C666.578 512.627 670.877 518.094 676.485 521.979C682.087 525.874 689.243 528.049 695.84 526.294C698.793 525.505 701.553 523.968 704.596 523.653C708.838 523.212 713.006 525.208 717.254 525.022C722.22 524.811 726.535 521.712 730.525 518.751C734.516 515.789 738.854 512.723 743.82 512.576C748.795 512.432 754.147 516.746 753.091 521.598C752.857 522.66 752.344 523.713 752.497 524.794C752.818 527.104 755.813 527.899 758.114 527.587C760.424 527.272 762.888 526.42 764.979 527.443C767.829 528.844 768.15 532.859 767.208 535.892C765.93 540.006 763.176 543.474 761.348 547.369C759.521 551.272 758.765 556.214 761.363 559.643C762.708 561.422 764.751 562.518 766.419 563.997C769.194 566.451 770.854 569.92 772.198 573.373C777.977 588.15 779.255 604.625 776.044 620.149C774.619 627.005 770.257 632.601 768.882 638.935C767.337 646.082 773.035 654.066 776.374 659.884C781.469 668.744 784.487 678.798 785.13 688.994C785.379 693.059 785.307 697.317 787.167 700.938C788.568 703.651 790.917 705.727 792.859 708.085C800.279 717.141 801.212 729.703 801.824 741.399C803.384 743.484 806.612 743.46 808.971 742.356C811.329 741.246 813.228 739.338 815.524 738.107C821.278 735.017 828.311 736.625 834.798 735.893C845.969 734.63 855.771 725.407 857.703 714.332C858.243 711.257 858.249 708.031 859.579 705.214C861.568 700.965 866.348 698.082 866.99 693.431C867.239 691.589 866.78 689.672 867.182 687.853C868.454 682.114 877.233 680.311 877.992 674.478C878.361 671.678 876.648 669.092 875.562 666.485C872.333 658.744 875.055 648.962 881.806 643.997C884.332 642.136 887.287 640.93 889.862 639.145C902.271 630.534 901.998 611.853 896.766 597.679C894.722 592.15 892.097 586.566 892.475 580.682C892.724 576.803 894.278 573.124 896.088 569.689C900.636 561.044 906.937 553.327 914.495 547.146C919.422 543.123 925.081 539.502 927.889 533.795C929.611 530.311 930.094 526.342 931.438 522.696C933.884 516.047 939.002 510.818 942.996 504.973C946.995 499.137 949.957 491.651 947.349 485.068ZM874.977 628.989C874.638 631.419 871.901 633.696 869.801 632.433C869.72 625.937 868.328 619.54 866.936 613.188C866.267 610.146 865.6 607.104 864.931 604.07C864.625 602.654 864.19 601.076 862.927 600.392C862.018 599.9 860.86 599.981 860.029 599.378C858.781 598.468 858.871 596.512 857.832 595.36C856.479 593.863 853.944 594.394 852.231 593.323C850.532 592.261 850.13 590.007 849.896 588.012L847.313 566.016C847.217 565.17 847.127 564.246 847.58 563.514C848.078 562.701 849.077 562.386 849.971 562.05C853.812 560.591 857.061 557.624 858.841 553.921C859.597 552.343 860.113 550.639 861.142 549.229C864.883 544.158 869.897 545.67 870.326 550.645C870.92 557.558 868.178 556.682 864.307 559.112C861.337 560.972 856.227 564.102 854.181 567.201C851.099 571.879 853.836 573.19 855.96 577.736C857.925 581.951 856.05 587.628 859.141 591.111C861.136 593.374 864.493 593.776 867.044 595.393C871.028 597.919 872.501 603.032 872.765 607.731C873.032 612.438 872.42 617.245 873.602 621.809C874.215 624.191 875.316 626.558 874.977 628.989Z" fill="#B1C7EF"/>
<path d="M913.614 639.021C911.084 643.651 916.254 649.019 915.837 654.278C915.408 659.667 909.371 663.052 908.141 668.314C907.634 670.481 908.003 672.752 908.504 674.921C909.467 679.077 910.913 683.118 912.81 686.938C913.419 688.168 914.094 689.398 915.096 690.337C918.189 693.23 923.53 692.258 926.534 689.275C929.537 686.293 930.695 681.939 931.325 677.751C931.955 673.565 932.204 669.242 933.873 665.347C936.3 659.685 941.68 654.906 941.374 648.755C941.221 645.682 939.612 642.886 938.904 639.892C938.193 636.897 938.796 633.093 941.602 631.832C941.905 633.798 942.211 635.76 942.514 637.725C950.483 635.235 940.71 608.894 932.051 622.222C928.526 627.65 932.015 631.304 925.015 634.11C921.244 635.622 915.891 634.857 913.614 639.021Z" fill="#D4DEEF"/>
<path d="M1519.92 169.452C1519.71 168.561 1519 167.853 1518.3 167.223C1513.49 162.815 1508.14 159.008 1502.39 155.965C1506.01 155.65 1509.77 155.308 1513 153.577C1516.22 151.873 1518.82 148.407 1518.35 144.786C1517.54 138.593 1508.77 134.998 1509.66 128.829C1510.08 126.048 1512.5 123.24 1511.18 120.746C1510.27 119.042 1508.06 118.595 1506.12 118.331C1495.99 116.966 1485.86 115.601 1475.7 114.262C1476.15 118.121 1475.07 122.424 1471.95 124.761C1468.8 127.071 1463.5 126.309 1462 122.715C1461.51 121.454 1461.45 119.984 1460.59 118.91C1458.78 116.6 1455.13 117.938 1452.35 119.015C1446.39 121.325 1439.57 121.325 1433.61 118.988C1432.46 118.517 1431.2 117.887 1430.73 116.732C1430.02 115.028 1431.2 113.164 1431.3 111.325C1431.46 108.178 1428.2 105.735 1425.05 105.447C1421.93 105.186 1418.89 106.443 1415.87 107.416C1407.13 110.251 1396.77 110.617 1389.57 104.895C1387.45 103.215 1385.69 101.064 1383.41 99.6205C1380.18 97.5742 1376.22 97.1542 1372.41 96.7611C1362.62 95.765 1352.86 94.7658 1343.07 93.7697C1342.13 93.6647 1341.05 93.6137 1340.26 94.1627C1339 95.0809 1339.21 96.9981 1338.79 98.4923C1338.01 101.406 1334.7 102.927 1331.71 103.137C1328.69 103.347 1325.65 102.639 1322.65 102.981C1320.42 103.218 1318.24 104.058 1316.01 103.926C1313.75 103.794 1311.31 102.219 1311.37 99.9895C1308.56 101.748 1306.69 104.949 1306.59 108.283C1300.89 108.913 1293.73 104.844 1294.96 99.2274C1295.3 97.7842 1296.14 96.497 1296.27 95.0299C1297.04 85.8966 1274.47 83.8773 1269.38 87.8139C1267.98 88.891 1266.91 90.3342 1265.6 91.4864C1260.06 96.314 1250.14 94.3998 1246.78 87.8379C1238.8 86.8418 1230.69 86.8928 1222.69 87.9429C1219.44 82.4312 1210.99 85.0295 1205.58 88.468C1200.17 91.9064 1192.3 95.2909 1188.18 90.3853C1201.83 87.2888 1214.77 81.096 1225.76 72.4338C1226.86 71.5667 1228.07 70.3875 1227.81 68.9683C1227.65 67.9962 1226.81 67.3151 1226 66.739C1220.93 63.2226 1214.71 61.3593 1208.55 61.5153C1204.03 61.6203 1198.68 62.4335 1195.82 58.971C1194.03 56.8437 1193.85 53.5643 1191.67 51.806C1189.6 50.1258 1186.63 50.5188 1184.01 50.9659C1178.21 52.016 1172.38 53.0662 1166.58 54.1133C1165.69 54.2694 1164.69 54.4794 1164.06 55.1365C1163.25 56.0276 1163.3 57.3928 1163.22 58.6259C1162.72 66.289 1153.09 71.6957 1146.27 68.1252C1144.14 66.9971 1142.33 65.2118 1140.02 64.5037C1137.11 63.6366 1133.99 64.6358 1131.13 65.6319C1119.08 69.8055 1107.06 73.976 1095.04 78.1496C1098.27 80.3549 1102.5 81.063 1106.27 80.0639C1107.4 82.0861 1104.46 83.8684 1102.2 84.3424C1093.02 86.2597 1083.86 88.1739 1074.68 90.0642C1079.92 94.0517 1085.02 98.2793 1089.9 102.714C1092.26 101.061 1094.49 105.363 1093.6 108.121C1092.73 110.875 1091.08 114.286 1093.18 116.255C1090.37 115.31 1087.95 113.236 1086.59 110.56C1088.06 109.483 1089.48 108.382 1090.95 107.281C1087.75 107.938 1084.23 105.837 1083.26 102.714C1077.4 101.586 1071.81 99.0654 1067.12 95.3929C1066.17 97.5982 1067.46 100.485 1069.74 101.298C1067.59 101.586 1065.41 101.85 1063.26 102.111C1063.97 105.471 1066.99 108.199 1070.4 108.592C1066.1 109.693 1061.29 108.67 1057.78 105.942C1060.98 101.115 1056.28 93.4516 1050.51 94.1327C1053.81 94.5798 1054.37 99.3295 1052.92 102.321C1051.45 105.339 1048.88 108.043 1048.94 111.376C1048.99 115.472 1052.79 120.377 1049.62 122.976C1053.48 126.204 1060.66 120.326 1063.89 124.158C1064.89 125.364 1064.99 127.017 1065.41 128.514C1066.67 133.003 1071.61 136.123 1076.2 135.337C1073.55 139.535 1067.25 135.391 1064.36 131.35C1061.5 127.308 1055.05 123.294 1052.55 127.569C1051.74 128.985 1051.9 130.693 1051.9 132.292C1051.74 143.969 1038.04 153.235 1027.15 149.01C1031.3 143.891 1041.03 145.914 1044.21 140.165C1045.49 137.804 1045.15 134.917 1044.76 132.265C1043.47 123.606 1042.21 114.944 1040.93 106.284C1041.69 102.297 1041.98 98.2013 1041.79 94.1598C1037.23 95.762 1029.88 95.552 1030.04 90.7213C1026.16 97.1512 1022.27 103.554 1018.39 109.984C1016.03 113.842 1014.24 119.93 1018.28 121.949C1020.99 120.848 1024.14 123.129 1024.9 125.964C1025.68 128.772 1024.69 131.764 1023.4 134.389C1017.57 118.277 988.103 125.703 980.439 110.377C976.923 111.742 980.124 117.149 983.668 118.433C987.238 119.72 992.117 122 990.806 125.544C989.81 128.325 985.978 128.325 983.038 128.115C974.535 127.512 965.848 129.481 958.395 133.678C957.738 130.687 957.057 127.722 956.4 124.755C950.207 129.138 943.988 133.519 937.795 137.93C934.776 140.054 931.575 142.259 927.899 142.652C924.227 143.018 919.999 140.816 919.528 137.168C919.057 133.492 924.383 130.291 926.744 133.126C927.767 126.408 918.583 120.791 913.071 124.782C916.72 130.975 916.825 139.109 913.281 145.383C911.97 147.717 909.948 149.922 907.323 150.342C904.673 150.735 901.628 148.452 902.18 145.83C898.819 148.794 896.932 153.334 897.166 157.795C891.708 159.581 885.201 157.453 881.813 152.782C882.233 155.38 882.653 157.951 883.073 160.55C879.137 164.774 870.529 161.732 870.136 155.956C870.031 154.252 870.478 152.572 870.478 150.864C870.478 145.038 865.335 140.708 860.663 137.219C867.645 139.868 874.678 142.52 881.657 145.17C885.594 146.664 889.791 148.188 893.914 147.399C899.951 146.244 903.833 138.137 898.48 133.936C888.849 126.405 877.748 120.734 865.992 117.35C862.608 116.378 858.986 115.592 855.653 116.669C852.922 117.536 849.277 119.267 847.806 116.825C850.537 117.218 853.474 116.168 855.338 114.094C849.643 112.834 843.87 112.021 838.043 111.733C831.325 117.692 826.759 126.141 828.7 134.644C831.691 147.741 848.698 158.707 842.478 170.598C848.332 169.287 854.443 168 860.243 169.47C863.367 170.232 866.385 172.068 868.431 174.535C868.404 174.403 868.431 174.274 868.458 174.142C870.19 173.565 872.053 172.962 873.838 173.46C875.596 173.932 877.039 176.005 876.148 177.634C875.545 178.762 873.97 179.707 874.522 180.862C874.888 181.598 875.86 181.703 876.622 181.94C878.774 182.597 879.98 185.378 878.984 187.397C875.887 187.214 872.791 187.055 869.694 186.926C868.644 189.183 867.228 191.334 866.229 193.593C862.055 203.014 865.101 213.825 865.443 224.113C865.599 229.388 864.393 235.266 861.77 239.832C862.401 239.7 863.031 239.571 863.661 239.466C875.338 237.471 888.669 240.439 895.834 249.884C902.972 259.332 900.584 275.576 889.614 280.011C885.441 281.691 880.586 281.637 876.781 284.025C875.233 284.971 874.078 286.651 873.553 288.409C880.64 284.394 887.934 280.536 895.939 279.042C894.181 282.822 890.691 285.706 886.674 286.705C888.012 287.572 887.565 289.828 886.227 290.692C884.889 291.559 883.13 291.4 881.582 291.085C880.007 290.77 878.381 290.35 876.832 290.743C875.467 291.085 874.393 292.132 873.868 293.42C873.607 293.999 873.475 294.626 873.475 295.256C873.475 295.703 873.553 296.096 873.685 296.516C877.754 293.105 884.261 293 888.408 296.333C890.01 297.617 891.267 299.297 892.975 300.453C894.865 301.713 897.331 302.289 898.774 304.074C900.191 305.886 899.194 309.508 896.965 309.034C896.887 310.162 898.066 310.975 899.17 311.185C900.272 311.395 901.481 311.317 902.477 311.815C904.787 313.021 904.367 316.748 902.345 318.377C900.326 320.003 897.517 320.135 894.919 320.162C888.096 320.267 881.036 320.318 874.792 317.537C871.852 316.25 869.202 314.335 866.157 313.258C863.139 312.181 859.466 312.076 856.997 314.149C855.842 315.122 855.082 316.484 853.978 317.534C851.329 320.078 846.84 320.42 843.849 318.296C841.383 316.511 840.174 313.204 840.753 310.213C837.92 313.072 835.505 316.379 833.771 319.976C835.268 324.228 836.762 328.53 838.259 332.782C838.757 334.174 839.231 335.536 839.729 336.902C841.173 341.075 843.534 345.957 847.918 346.245C853.48 346.614 859.043 339.056 863.454 345.879C864.294 347.19 864.555 348.765 864.555 350.34C864.528 353.437 868.779 357.322 871.063 354.907C870.802 352.678 870.565 350.289 871.588 348.267C872.611 346.272 875.419 345.039 877.204 346.431C878.411 347.376 878.648 349.08 878.726 350.577C878.831 352.807 878.726 355.066 878.438 357.268C877.757 362.543 875.656 368.028 871.195 370.863C867.705 373.068 862.719 374.644 865.551 379.312C866.208 380.335 868.857 379.156 869.592 380.152C871.246 382.463 870.091 384.902 870.328 387.632C870.775 393.432 877.36 396.346 880.955 400.912C885.942 407.21 884.892 416.238 887.358 423.901C892.372 439.569 912.105 449.621 911.001 466.021C910.554 472.397 907.431 480.402 912.681 484.077C916.198 486.517 921.001 484.786 924.884 482.976C932.154 479.616 939.448 476.231 946.745 472.847C949.709 471.482 952.86 469.934 954.381 467.02C955.167 465.499 955.431 463.714 956.532 462.403C958.158 460.485 960.967 460.224 963.355 459.438C968.735 457.626 972.329 452.561 975.033 447.551C977.946 442.117 980.229 436.344 981.856 430.388C982.276 428.813 982.669 427.16 982.276 425.561C980.86 419.761 970.703 419.209 970.178 413.253C969.968 410.76 971.699 408.554 972.512 406.193C973.326 403.832 972.434 400.342 969.941 400.366C968.444 404.774 966.818 409.367 963.484 412.596C960.124 415.851 954.456 417.213 950.783 414.354C948.053 412.254 947.162 408.608 945.299 405.719C942.463 401.257 937.321 398.554 934.854 393.882C932.388 389.211 936.009 381.338 940.891 383.36C943.279 392.205 949.34 399.973 957.372 404.432C962.332 402.751 967.109 400.495 971.57 397.714C973.8 395.929 976.74 399.262 976.977 402.097C977.214 404.957 976.767 408.422 979.077 410.075C980.259 410.943 981.832 410.994 983.302 410.994C995.322 410.994 1007.31 409.601 1018.99 406.847C1016.6 413.829 1023.03 422.224 1030.41 421.702C1029.52 424.561 1026.65 426.689 1023.66 426.716C1025.11 429.524 1026.63 432.461 1029.2 434.352C1031.77 436.215 1035.68 436.635 1037.94 434.406C1040.07 432.332 1040.35 428.474 1043.11 427.319C1046.31 425.981 1049.48 429.995 1049.22 433.461C1048.96 436.926 1046.78 439.89 1045.63 443.17C1043.29 449.861 1045.47 457.209 1047.62 463.954C1051.8 476.969 1056.13 490.327 1064.65 501.036C1067.72 498.149 1070.8 495.29 1073.87 492.401C1078.01 493.109 1078.14 499.068 1076.83 503.028C1075.49 507.043 1074.26 512.422 1077.85 514.601C1081.08 516.542 1085.41 513.421 1086.12 509.746C1086.83 506.046 1085.15 502.398 1083.52 499.013C1081.4 494.684 1079.3 490.327 1077.2 485.971C1076.46 484.473 1075.7 482.874 1075.83 481.194C1075.94 479.751 1076.64 478.464 1077.25 477.152C1079.14 472.928 1079.74 468.097 1078.9 463.534C1090.16 457.812 1099.58 448.523 1105.38 437.289C1106.27 435.609 1107.11 433.827 1108.66 432.695C1113.28 429.335 1121.04 434.061 1125.14 430.046C1130.83 432.17 1135.64 436.527 1138.34 441.988C1140.31 445.975 1142.15 451.277 1146.58 451.619C1139.78 454.4 1135.16 461.802 1135.69 469.123C1142.54 470.855 1150.1 464.374 1149.41 457.365C1152.09 455.844 1155.63 457.707 1157.05 460.434C1158.47 463.165 1158.31 466.417 1158.13 469.462C1157.6 478.725 1157.05 487.963 1156.52 497.201C1156.37 499.956 1156.26 502.923 1157.78 505.206C1159.23 507.358 1161.96 508.567 1162.95 510.979C1164.45 514.523 1161.46 518.984 1163.4 522.315C1164.45 524.073 1166.52 524.859 1168.12 526.092C1171.54 528.717 1172.69 533.308 1175.16 536.852C1177.62 540.395 1183.32 542.702 1185.99 539.318C1180.3 534.856 1176.65 527.874 1176.28 520.634C1176.21 518.981 1176.26 517.25 1175.58 515.753C1174.74 513.862 1172.93 512.629 1171.4 511.24C1162.48 503.079 1163.58 488.986 1165.39 477.021C1169.54 483.081 1176.18 487.36 1183.42 488.62C1181.09 493.424 1183.11 499.851 1187.75 502.476C1188.07 497.777 1191.58 493.475 1196.12 492.242C1198.09 491.69 1200.19 491.662 1202.06 490.849C1207.65 488.434 1208.25 480.876 1207.96 474.815C1207.86 472.427 1207.72 469.934 1206.44 467.941C1204.29 464.662 1199.93 463.9 1196.52 461.958C1190.4 458.496 1187.41 450.332 1189.88 443.719C1192.32 437.133 1199.9 432.882 1206.81 434.271C1209.09 435.267 1208.07 438.888 1206.07 440.386C1204.07 441.88 1201.35 442.774 1200.43 445.108C1199.12 448.31 1203 451.88 1206.39 451.145C1209.77 450.437 1211.95 446.842 1212.19 443.377C1212.4 439.911 1211.14 436.554 1209.88 433.299C1217.17 434.898 1225.2 432.326 1230.22 426.818C1231.63 425.27 1232.89 423.457 1234.71 422.41C1238.25 420.337 1243.31 421.465 1246.23 418.552C1248.46 416.322 1248.3 412.752 1248.98 409.682C1250.27 403.961 1254.68 399.58 1257.3 394.356C1259.87 389.133 1262.44 381.104 1261.06 375.331C1260.06 371.133 1257.88 367.326 1256.38 363.284C1255.31 360.425 1254.57 357.457 1254.18 354.415C1254.02 353.182 1253.92 351.817 1254.49 350.715C1255.52 348.747 1258.04 348.276 1259.92 347.121C1262.73 345.39 1264.2 341.741 1263.36 338.567C1255.57 341.165 1246.44 339.197 1240.43 333.58C1242.16 330.22 1246.02 328.647 1249.35 326.862C1252.71 325.104 1256.2 322.218 1256.04 318.413C1258.17 318.413 1260.27 318.413 1262.37 318.386C1262.52 321.849 1260.9 325.341 1258.17 327.465C1261.06 329.959 1265.38 327.597 1268.8 325.812C1272.18 324.027 1277.85 324.027 1278.27 327.831C1278.66 331.48 1273.13 333.946 1273.89 337.541C1277.77 336.229 1281.92 341.399 1279.82 344.916C1279.24 345.861 1278.32 346.779 1278.48 347.88C1278.66 349.218 1280.24 349.743 1281.42 350.4C1284.7 352.132 1286.12 356.647 1284.44 359.954C1286.72 358.168 1289 356.41 1291.29 354.628C1291.81 356.728 1294.17 358.144 1296.3 357.67C1298.4 357.172 1299.87 354.811 1299.4 352.711C1298.95 350.637 1297.04 349.194 1296.41 347.199C1295.46 344.181 1297.61 340.823 1296.57 337.829C1295.75 335.494 1293.26 334.261 1291.24 332.791C1289.22 331.321 1287.4 328.671 1288.61 326.493C1289.35 325.155 1290.92 324.603 1292.21 323.817C1298.64 319.829 1300 308.464 1307.56 308.203C1309.08 308.149 1310.58 308.623 1312.07 308.413C1316.37 307.81 1317.87 302.586 1319.89 298.727C1324.35 290.146 1334.75 285.973 1339.44 277.497C1343.04 270.989 1342.62 263.038 1344.75 255.873C1346.29 250.676 1349.23 245.269 1347.42 240.154C1345.17 233.778 1334.85 232.517 1331.12 238.185C1331.73 234.984 1332.33 231.782 1332.96 228.554C1330.7 235.824 1315.72 229.262 1328.76 222.151C1337.48 217.428 1345.27 210.945 1351.54 203.282C1353.67 200.683 1355.69 197.875 1358.47 195.985C1368.73 189.057 1382.85 197.638 1394.87 194.619C1395.29 195.801 1395.68 196.981 1396.1 198.163C1392.87 199.501 1389.67 200.866 1386.47 202.204C1393.24 205.379 1400.54 197.848 1408.02 198.163C1410.19 198.241 1413.34 198.268 1413.47 196.117C1411.45 195.801 1408.86 194.7 1409.22 192.705C1409.35 191.97 1409.88 191.394 1410.4 190.869C1412.34 188.796 1414.31 186.749 1416.28 184.676C1419.56 181.211 1424.86 177.538 1428.62 180.529C1431.45 182.813 1430.14 188.297 1426.57 189.06C1428.91 191.397 1432.87 189.27 1435.21 186.908C1437.54 184.571 1440.56 181.739 1443.65 182.945C1444.52 181.214 1444.52 179.086 1443.71 177.355C1446.2 175.963 1449.27 175.651 1451.97 176.488C1450.32 177.88 1449.19 179.899 1448.85 182.051C1448.61 183.443 1448.72 184.859 1448.3 186.197C1446.8 191.184 1440.14 191.76 1435.44 194.043C1427.15 198.058 1424.26 208.688 1416.81 214.068C1414.97 215.406 1412.9 216.405 1411.37 218.083C1408.09 221.704 1408.51 227.345 1410.03 231.992C1411.61 236.637 1414.1 241.099 1414.39 245.98C1414.45 246.898 1414.42 247.816 1414.34 248.711C1414 251.966 1417.99 253.775 1420.27 251.465C1420.82 250.889 1421.37 250.337 1421.93 249.785C1424.57 247.054 1427.33 244.249 1428.67 240.679C1429.59 238.158 1430.01 235.089 1432.34 233.778C1434.05 232.806 1436.17 233.226 1438.12 232.886C1440.06 232.571 1442.13 230.603 1441.16 228.872C1437.99 226.616 1438.54 220.921 1442.05 219.268C1443.52 219.949 1444.99 220.66 1446.46 221.368C1449.95 219.766 1444.67 214.047 1446.59 210.713C1447.33 209.426 1449.08 208.64 1449.03 207.17C1448.98 205.334 1446.38 205.019 1444.57 205.307C1443.36 199.351 1447.48 192.816 1453.36 191.346C1453.26 192.579 1453.15 193.839 1453.05 195.072C1455.96 193.236 1458.87 191.397 1461.79 189.534C1462.31 190.95 1462.81 192.369 1463.31 193.812C1466.8 195.621 1469.53 187.67 1473.15 189.141C1473.93 189.483 1474.46 190.191 1475.12 190.716C1477.71 192.84 1482.39 191.214 1483.09 187.934C1485.8 175.495 1500.91 174.919 1513.59 173.869C1516.53 173.625 1520.6 172.338 1519.92 169.452ZM960.316 321.32C958.191 323.238 955.119 323.76 952.287 323.316C951.606 323.892 952.104 325.074 952.863 325.545C953.625 326.016 954.57 326.148 955.224 326.778C956.406 327.906 955.932 329.848 956.115 331.45C956.457 334.075 958.686 336.067 959.29 338.615C960.367 343.208 955.404 347.433 950.681 347.457C940.813 347.535 933.885 339.533 931.341 330.925C929.871 326.016 927.062 312.661 934.62 311.899C932.337 308.908 934.725 305.601 933.309 302.4C932.523 300.669 930.579 299.829 929.268 298.436C926.642 295.655 927.038 290.956 929.268 287.833C931.497 284.709 935.067 282.873 938.635 281.481C942.124 280.116 946.061 279.066 949.499 280.485C952.965 281.901 955.035 286.81 952.464 289.513C949.682 292.427 943.988 290.746 941.443 293.897C939.841 295.838 940.393 298.91 941.995 300.852C943.622 302.793 946.037 303.87 948.371 304.788C949.682 305.313 951.102 305.916 951.627 307.204C952.44 309.121 950.786 311.062 949.736 312.844C948.713 314.657 948.923 317.804 950.997 317.804C953.016 317.777 953.334 314.918 954.462 313.237C956.037 310.876 960.103 311.242 961.678 313.63C963.229 315.995 962.416 319.43 960.316 321.32ZM1206.66 229.55C1206.21 230.417 1205.66 231.281 1205.37 232.226C1205.06 233.277 1205.06 234.405 1204.79 235.455C1204.01 238.602 1201.1 240.652 1198.47 242.566C1196.63 243.877 1194.82 245.347 1193.72 247.315C1193.27 248.129 1192.96 249.02 1192.46 249.836C1189.86 254.219 1182.07 255.11 1186.98 248.996C1189.99 245.191 1194.51 239.601 1198.26 236.295C1199.54 235.167 1201.12 234.222 1201.99 232.751C1203.4 230.336 1202.62 227.318 1202.72 224.536C1202.8 221.755 1204.93 218.422 1207.6 219.211C1208.6 222.595 1208.26 226.373 1206.66 229.55ZM871.09 181.105C871.117 181.394 871.117 181.682 871.09 181.997C871.012 183.074 870.775 184.097 870.433 185.093C870.853 185.12 871.246 185.12 871.561 185.093C872.194 183.755 871.801 182.444 871.09 181.105ZM850.594 247.684C855.581 247.318 859.307 244.168 861.773 239.838C857.051 240.964 852.406 243.274 850.594 247.684Z" fill="#D4DEEF"/>
<path d="M889.618 280.015C885.444 281.695 880.59 281.641 876.785 284.03C875.237 284.975 874.082 286.655 873.557 288.413C872.927 288.755 872.297 289.121 871.666 289.463C860.592 295.761 864.739 281.905 854.372 281.983C844.27 282.061 847.183 298.99 842.668 297.493C841.512 300.064 843.403 303.136 842.59 305.837C842.301 306.782 841.722 307.595 841.302 308.486C841.041 309.038 840.855 309.614 840.75 310.217C837.918 313.077 835.503 316.383 833.768 319.981C833.636 319.588 833.507 319.218 833.375 318.825C830.909 316.386 826.393 318.981 825.607 322.342C824.818 325.699 826.288 329.138 827.287 332.444C828.284 335.751 828.626 339.792 826.159 342.232C824.872 343.519 822.775 344.41 824.638 347.35C825.295 348.427 826.606 348.847 827.866 348.661C830.543 348.268 832.826 353.228 830.204 353.384C825.376 353.96 821.833 348.895 820.312 344.251C818.814 339.633 817.764 334.253 813.699 331.574C811.703 330.263 809 329.633 808.031 327.455C806.405 323.806 811.127 319.531 809.396 315.933C807.689 312.417 801.97 313.704 799.003 311.105C796.509 308.876 796.851 304.597 794.436 302.314C793.203 301.132 791.496 300.688 789.923 300.085C784.937 298.168 780.817 294.18 778.744 289.271C775.885 289.796 776.305 294.048 777.67 296.619C782.917 306.434 791.265 314.571 801.208 319.582C797.98 321.208 796.38 324.883 795.066 328.268C793.047 333.305 791.052 338.37 789.056 343.435C786.011 343.069 782.836 342.622 780.397 340.785C777.958 338.949 776.644 335.196 778.456 332.756C781.789 335.985 788.246 334.83 790.238 330.656C792.234 326.431 789.083 320.71 784.466 320.185C786.407 314.673 780.214 309.845 774.756 307.772C769.299 305.699 762.605 303.073 761.951 297.273C759.457 295.044 755.443 296.172 752.739 298.114C750.036 300.082 747.78 302.785 744.605 303.862C741.458 304.94 736.969 303.127 737.152 299.794C735.526 301.21 733.897 302.602 732.271 304.018C735.97 305.069 733.873 311 730.461 312.759C727.05 314.49 722.405 315.594 721.565 319.344C721.223 320.842 721.67 322.414 721.643 323.989C721.616 326.35 720.515 328.583 719.438 330.707C716.761 335.931 713.323 341.755 707.55 342.832C704.166 343.462 698.996 343.828 699.467 347.215C694.586 342.964 687.763 340.995 681.36 342.019C681.753 339.027 682.146 336.036 682.515 333.068C680.31 332.726 678.08 332.411 675.875 332.096C679.286 327.374 680.52 321.1 679.154 315.432C678.392 312.258 677.474 307.796 680.547 306.668C678.893 305.198 677.687 303.229 677.081 301.078C681.675 299.059 687.027 298.849 691.804 300.448C693.877 301.129 695.846 302.152 697.946 302.782C703.878 304.568 711.016 302.572 714.427 297.43C717.839 292.26 716.422 284.231 710.989 281.263C708.129 279.715 704.664 279.583 701.855 277.903C699.101 276.223 697.658 271.605 700.439 269.952C702.723 273.441 707.97 274.518 711.436 272.235C709.81 269.454 709.101 266.174 709.416 262.973C711.964 261.923 715.243 264.338 714.928 267.092C719.441 267.197 723.851 264.101 725.295 259.822C725.82 258.352 726.03 256.726 727.053 255.52C728.418 253.921 730.779 253.684 732.748 252.949C737.629 251.112 740.516 245.153 738.913 240.221C745.211 237.307 752.244 235.996 759.148 236.389C756.709 231.877 754.189 227.073 754.426 221.93C754.663 216.812 758.833 211.513 763.925 211.984C764.711 214.975 764.66 218.177 763.82 221.168C765.317 221.51 766.784 221.825 768.281 222.164C765.053 224.841 761.774 230.01 765.131 232.531C767.807 234.526 771.639 231.955 774.921 232.636C776.419 232.951 777.703 233.947 779.173 234.289C785.813 235.942 792.243 225.024 797.856 228.936C799.747 230.247 800.506 232.924 803.734 232.531C805.519 232.294 807.068 231.166 807.932 229.59C809.795 226.362 809.192 222.635 809.558 219.068C809.873 215.972 811.37 212.533 814.386 211.72C817.692 210.829 820.867 213.556 824.278 213.925C830.024 214.582 834.539 206.682 831.05 202.065C826.693 205.398 821.104 207.051 815.619 206.604C813.993 203.769 817.377 200.699 820.341 199.361C830.549 194.822 842.124 193.429 853.118 195.425C855.086 193.588 852.251 190.702 849.838 189.547C847.423 188.419 844.747 185.322 846.82 183.642C839.577 180.729 833.225 190.885 825.406 191.251C817.401 191.644 812.756 180.939 815.724 173.486C818.715 166.06 826.141 161.52 833.096 157.53C828.503 150.314 816.486 149.735 811.235 156.479C811.892 161.991 809.66 167.764 805.463 171.385C801.133 175.112 794.073 178.523 795.543 184.059C796.83 188.914 804.571 191.251 803.521 196.184C802.576 200.723 795.15 200.777 793.392 205.053C792.132 208.176 794.574 212.008 793.077 215.026C791.556 218.072 787.226 218.177 784.496 220.223C782.632 221.615 781.582 223.818 779.878 225.393C778.147 226.941 775.023 227.544 773.763 225.576C772.53 223.635 774.156 221.246 775.047 219.119C777.778 212.848 773.841 205.866 770.034 200.171C762.32 199.541 758.329 214.132 751.164 211.168C749.145 210.328 747.963 208.281 746.94 206.34C744.104 201.092 741.245 195.737 740.168 189.859C739.117 183.981 740.141 177.419 744.26 173.117C749.745 167.395 758.956 167.056 765.044 162.015C771.867 156.374 773.52 145.903 780.841 140.943C785.225 137.979 791.943 136.377 792.468 131.102C787.64 131.495 782.809 131.888 777.982 132.284C780.187 128.243 785.408 126.142 789.764 127.535C787.952 123.652 792.441 119.478 796.719 118.875C800.998 118.299 805.483 119.532 809.606 118.299C812.966 117.276 815.643 114.783 818.868 113.391C821.65 112.184 824.746 111.896 827.791 111.737C831.203 111.578 834.641 111.578 838.053 111.737C831.335 117.696 826.768 126.145 828.71 134.649C831.701 147.745 848.707 158.712 842.488 170.602C848.341 169.291 854.453 168.004 860.253 169.474C863.376 170.236 866.395 172.073 868.441 174.539C868.153 176.822 870.016 178.974 871.09 181.101C871.117 181.389 871.117 181.677 871.09 181.992C871.012 183.069 870.775 184.092 870.433 185.088C865.396 184.905 853.559 182.463 859.227 190.729C861.747 187.738 862.926 189.652 865.84 189.337C867.046 189.205 868.177 187.945 867.73 186.817C868.387 186.844 869.041 186.871 869.698 186.922C868.648 189.178 867.232 191.329 866.233 193.588C862.059 203.01 865.105 213.82 865.447 224.109C865.603 229.383 864.396 235.261 861.774 239.828C862.404 239.696 863.034 239.567 863.664 239.462C875.342 237.466 888.673 240.434 895.838 249.879C902.976 259.336 900.587 275.581 889.618 280.015Z" fill="#D4DEEF"/>
<path d="M671.507 234.934C671.489 237.841 674.291 240.469 673.517 243.272C672.752 246.041 668.83 247.298 668.662 250.167C668.473 253.371 672.935 254.529 676.082 253.887C681.897 252.705 687.193 249.164 690.514 244.247C692.137 241.84 692.773 237.712 690.034 236.755C693.788 235.438 697.538 234.117 701.291 232.8C704.238 235.312 707.406 239.545 704.976 242.561C703.407 244.505 699.716 245.849 700.829 248.087C701.282 248.999 702.489 249.455 702.702 250.455C702.927 251.508 701.925 252.369 701.099 253.062C697.547 256.044 695.456 260.692 695.585 265.331C700.919 260.404 708.255 257.716 715.51 258.028C717.209 258.1 719.105 258.271 720.404 257.176C721.703 256.08 721.127 253.257 719.453 253.53C721.484 252.072 723.516 250.614 725.547 249.152C726.006 248.822 726.483 248.468 726.708 247.952C727.233 246.737 726.051 245.414 724.8 244.988C723.549 244.562 722.15 244.625 720.95 244.064C718.301 242.822 717.857 239.356 716.942 236.578C716.029 233.799 712.771 230.982 710.524 232.857C711.088 230.187 711.637 227.321 710.584 224.804C709.531 222.287 706.17 220.574 703.974 222.197C702.705 220.316 705.645 218.575 707.187 216.91C708.868 215.098 708.834 211.947 707.085 210.201C705.333 208.458 702.138 208.461 700.427 210.243C700.661 205.1 701.751 198.77 706.653 197.203C708 196.771 709.468 196.798 710.806 196.342C712.144 195.883 713.422 194.659 713.203 193.261C713.437 194.899 716.081 194.983 717.062 193.654C718.043 192.325 717.836 190.492 717.587 188.859C713.767 187.764 712.12 194.197 708.336 195.412C706.596 195.97 704.607 195.307 702.921 196.012C698.927 197.683 700.001 205.115 695.828 206.274C694.841 206.547 693.751 206.361 692.809 206.766C690.91 207.582 690.7 210.207 691.162 212.223C691.624 214.24 692.44 216.409 691.567 218.284C691.087 219.313 690.103 220.337 690.502 221.399C691.027 222.803 693.091 222.425 694.508 222.923C698.066 224.186 696.125 228.372 694.28 230.022C691.969 232.086 688.075 231.546 685.353 231.168C681.264 230.589 671.558 227.018 671.507 234.934Z" fill="#D4DEEF"/>
<path d="M760.739 318.408C760.256 318.006 759.77 317.604 759.287 317.202C760.793 316.842 761.798 315.278 761.885 313.73C761.972 312.185 761.312 310.682 760.445 309.401C759.404 307.858 757.601 306.412 755.843 307.018C753.607 307.789 753.571 310.961 754.321 313.202C755.071 315.443 756.131 318.063 754.768 319.995C755.602 319.797 756.533 320.064 757.136 320.676C753.883 322.764 753.118 329.401 757.925 329.788C762.719 330.175 763.662 324.016 758.813 322.896C758.903 322.596 760.79 318.45 760.739 318.408Z" fill="#D4DEEF"/>
<path d="M1304.77 370.378C1305.03 367.789 1305.3 364.773 1307.49 363.36C1308.19 365.154 1309.51 366.703 1311.16 367.684C1312.66 366.823 1313.47 365.172 1314.34 363.684C1315.21 362.196 1316.4 360.666 1318.1 360.387C1319.8 360.108 1321.72 362.007 1320.82 363.48C1325.27 365.235 1328.22 358.76 1332.34 356.345C1334.52 355.073 1337.16 354.977 1339.6 354.353C1342.04 353.729 1344.62 352.172 1344.96 349.675C1345.17 348.217 1344.55 346.771 1344.5 345.298C1344.4 342.153 1346.8 339.588 1348.35 336.852C1351.05 332.075 1351.18 325.939 1348.67 321.057C1347.31 318.411 1345.23 316.08 1344.56 313.181C1343.88 310.283 1345.56 306.502 1348.54 306.544C1349.36 309.074 1350.46 311.909 1352.95 312.854C1355.43 313.799 1358.76 310.64 1356.96 308.681C1359.76 307.913 1362.69 307.658 1365.57 307.931C1366.79 306.136 1366.5 303.478 1364.93 301.99C1374.04 298.809 1381.89 292.535 1387.91 284.98C1379.59 290.144 1371.29 295.308 1362.98 300.469C1361.99 301.081 1360.82 301.714 1359.74 301.3C1358.75 300.925 1358.28 299.841 1357.78 298.911C1355.54 294.711 1350.84 291.95 1346.08 292.046C1346.46 296.019 1346.85 299.992 1347.24 303.964C1344.41 303.448 1341.84 306.109 1341.19 308.912C1340.53 311.714 1341.19 314.63 1341.42 317.496C1342.26 327.574 1337.49 337.938 1329.29 343.857C1329.26 342.228 1329.22 340.602 1329.19 338.973C1324.86 339.606 1326.84 347.689 1322.94 349.678C1321.85 350.236 1320.55 350.131 1319.32 350.26C1313.21 350.905 1313.31 357.182 1306.71 354.68C1306.05 362.697 1295.87 361.284 1296.6 369.355C1297.21 376.175 1303.64 381.378 1304.77 370.378Z" fill="#B1C7EF"/>
<path d="M1358.32 243.524C1358.43 244.103 1358.53 244.697 1358.44 245.282C1358.27 246.401 1357.41 247.295 1357.09 248.381C1356.55 250.274 1357.76 252.228 1359.19 253.59C1360.61 254.955 1362.33 256.098 1363.23 257.847C1364.75 260.77 1363.67 264.772 1365.85 267.245C1365.17 268.925 1362.62 268.415 1361.15 267.362C1359.67 266.309 1357.86 264.928 1356.26 265.793C1354.39 268.496 1355.43 272.219 1356.91 275.16C1358.39 278.097 1360.32 281.101 1360.02 284.377C1359.88 285.919 1358.71 287.702 1357.2 287.341C1356.62 287.203 1356.16 286.774 1355.74 286.36C1353.71 284.404 1351.57 282.229 1351.19 279.438C1350.91 277.404 1351.62 275.388 1352.13 273.402C1353.18 269.306 1353.39 264.998 1352.73 260.821C1352.44 259.03 1352 257.241 1352.07 255.429C1352.19 252.069 1353.96 248.333 1352.01 245.597C1351.39 244.742 1350.41 243.791 1350.87 242.848C1351.71 241.132 1355.43 237.907 1356.74 236.557C1357.59 238.738 1357.89 241.168 1358.32 243.524Z" fill="#B1C7EF"/>
<path d="M1146.31 527.641C1149.06 529.663 1152.48 531.112 1154.08 534.122C1155.32 536.444 1155.32 539.469 1157.23 541.281C1158.25 542.25 1159.68 542.706 1160.72 543.66C1163.14 545.896 1162.61 549.82 1163.77 552.904C1165.43 557.276 1170.52 559.871 1171.49 564.447C1171.82 566.01 1171.63 567.699 1172.31 569.146C1173.61 571.906 1177.33 572.491 1179.41 574.72C1180.43 575.819 1181 577.262 1181.88 578.48C1184.36 581.921 1189.51 583.086 1193.24 581.051C1191.91 579.023 1191.17 576.623 1191.11 574.201C1191.08 572.773 1191.28 571.327 1191.01 569.926C1190.35 566.535 1187.11 564.153 1186.22 560.817C1187.74 559.703 1189.72 561.339 1190.86 562.842C1191.99 564.345 1193.89 566.037 1195.47 565.02C1192.59 561.252 1189.29 557.795 1185.67 554.735C1185.95 556.103 1184.11 557.117 1182.8 556.64C1181.48 556.16 1180.69 554.852 1180 553.631C1179.49 552.712 1178.95 551.722 1179.05 550.675C1179.13 549.799 1179.64 549.016 1179.8 548.152C1180.13 546.337 1178.82 544.611 1177.33 543.522C1175.85 542.433 1174.09 541.695 1172.79 540.381C1170.2 537.767 1169.76 533.225 1166.53 531.473C1164.98 530.635 1163.09 530.644 1161.53 529.846C1156.65 527.359 1155.72 520.146 1150.15 517.923C1142.24 514.76 1140.57 523.41 1146.31 527.641Z" fill="#B1C7EF"/>
<path d="M1195.05 582.219C1193.89 583.836 1192.73 585.453 1191.57 587.073C1191.32 587.424 1191.06 587.805 1191.06 588.234C1191.07 589.438 1192.79 589.615 1193.98 589.45C1197.75 588.931 1201.62 589.123 1205.31 590.011C1211.56 591.508 1217.5 594.979 1223.9 594.577C1224.87 594.517 1225.85 594.364 1226.81 594.511C1227.85 594.667 1228.81 595.156 1229.81 595.456C1232.14 596.147 1234.76 595.76 1236.79 594.424C1235.07 592.759 1232.37 592.882 1229.98 592.705C1227.59 592.528 1224.75 591.436 1224.46 589.057C1224.38 588.412 1224.52 587.745 1224.36 587.115C1224.01 585.777 1222.47 585.111 1221.09 585.03C1219.71 584.949 1218.32 585.258 1216.96 584.997C1214.67 584.559 1212.92 582.438 1210.64 582.123C1208.34 581.805 1207.33 583.554 1205.48 583.641C1201.65 583.821 1198.63 577.226 1195.05 582.219Z" fill="#B1C7EF"/>
<path d="M1249.25 595.795C1251.26 595.837 1253.23 597.421 1255.12 596.725C1255.6 596.548 1256.03 596.233 1256.54 596.188C1257.16 596.134 1257.74 596.506 1258.31 596.77C1263.83 599.317 1270.17 592.044 1275.83 594.256C1274.51 599.626 1267.41 601.322 1264.61 606.095C1269.43 605.39 1273.97 602.936 1277.2 599.293C1278.07 598.303 1278.88 597.208 1279.99 596.5C1280.64 596.092 1281.36 595.828 1282 595.414C1283.49 594.442 1284.39 592.632 1284.26 590.856C1282.62 590.817 1280.97 591.222 1279.53 592.017C1278.46 592.605 1277.48 593.415 1276.29 593.688C1274.32 594.142 1272.35 592.998 1270.34 592.713C1266.09 592.113 1262.01 596.533 1258.14 595.801C1256.63 595.513 1255.84 593.797 1253.9 593.307C1252.33 592.914 1249.84 593.587 1248.06 593.334C1246.08 593.052 1242 591.045 1240.51 593.154C1236.11 599.371 1248.16 595.774 1249.25 595.795Z" fill="#B1C7EF"/>
<path d="M1248.17 601.688C1249.03 600.737 1250.66 601.334 1251.5 602.294C1252.34 603.254 1252.87 604.529 1253.95 605.199C1255.04 605.874 1256.57 605.73 1257.51 604.862C1258.07 604.352 1258.42 603.527 1258.14 602.828C1257.85 602.12 1257.05 601.793 1256.33 601.538C1255.62 601.292 1254.92 601.043 1254.22 600.797C1252.98 600.362 1251.7 599.924 1250.4 600.101C1249.11 600.278 1247.82 601.28 1247.8 602.588" fill="#B1C7EF"/>
<path d="M1213.72 564.425C1211.4 564.671 1208.36 564.875 1207.46 562.721C1206.93 561.452 1207.53 560.02 1207.56 558.649C1207.62 556.396 1206.17 554.431 1205.13 552.429C1203.31 548.928 1202.66 544.835 1203.29 540.944C1203.45 539.96 1203.72 538.937 1204.41 538.213C1204.85 537.751 1205.42 537.448 1205.98 537.154C1208.14 536.02 1210.3 534.886 1212.46 533.752C1215.29 532.267 1218.12 530.778 1220.77 529.002C1227.4 524.571 1232.82 518.36 1236.31 511.192C1237.52 509.908 1239.76 511.117 1240.57 512.683C1241.38 514.249 1241.58 516.175 1242.82 517.43C1244.73 519.35 1248.9 519.776 1248.58 522.461C1248.45 523.523 1247.55 524.292 1246.82 525.069C1244.23 527.79 1243.16 531.865 1244.08 535.504C1245 539.144 1247.87 542.225 1251.44 543.395C1248.17 543.71 1243.96 544.985 1243.95 548.268C1243.94 550.335 1245.78 552.513 1244.65 554.242C1243.47 556.042 1240.31 555.199 1238.92 556.837C1237.79 558.151 1238.49 560.125 1238.73 561.836C1239.32 566.114 1236 570.552 1231.74 571.197C1229.93 571.47 1227.83 570.981 1226.92 569.403C1226.45 568.575 1226.37 567.575 1225.98 566.702C1224.41 563.192 1222.06 565.304 1219.75 565.271C1218.15 565.247 1215.88 564.197 1213.72 564.425Z" fill="#B1C7EF"/>
<path d="M1277.37 539.291C1277.76 539.162 1278.14 539.036 1278.52 538.907C1277.7 538.37 1276.6 538.538 1275.81 539.102C1275.01 539.669 1274.44 540.494 1273.79 541.223C1271.54 543.744 1268.06 545.115 1264.69 544.815C1262.57 544.626 1260.46 543.822 1258.37 544.224C1255.81 544.719 1253.87 547.005 1253.11 549.501C1252.73 550.759 1253.1 552.673 1254.4 552.568C1255.13 550.324 1257.17 548.673 1259.42 547.959C1261.67 547.245 1264.11 547.362 1266.43 547.782C1268.25 548.109 1270.09 548.622 1271.92 548.382C1273.76 548.142 1275.63 546.885 1275.85 545.046C1276.01 543.714 1275.3 542.282 1275.87 541.067C1276.37 540.011 1277.77 539.072 1277.22 538.046C1276.62 538.16 1277.97 539.177 1277.37 539.291Z" fill="#D4DEEF"/>
<path d="M1249.18 568.948C1250.02 572.743 1251.8 576.71 1250.42 580.346C1251.95 581.036 1253.78 579.746 1254.29 578.153C1254.81 576.56 1254.4 574.828 1254.01 573.202C1253.61 571.573 1253.24 569.833 1253.8 568.254C1253.93 567.891 1254.16 567.504 1254.54 567.423C1254.72 567.381 1254.92 567.423 1255.1 567.474C1257.17 568.065 1258.58 570.034 1259.23 572.086C1259.89 574.135 1259.93 576.319 1260.22 578.45C1260.41 579.779 1260.78 581.228 1261.89 581.975C1263.73 583.205 1266.34 581.561 1267.03 579.461C1267.72 577.364 1267.16 575.089 1266.87 572.902C1266.46 569.863 1266.23 566.196 1263.54 564.723C1262.43 564.117 1260.89 563.844 1260.53 562.635C1260.1 561.182 1261.82 560.063 1263.28 559.634C1264.6 559.247 1265.95 558.965 1267.31 558.797C1268.94 558.596 1271.06 558.134 1271.22 556.502C1271.39 554.804 1269.25 553.957 1267.57 553.672C1265.54 553.327 1263.48 552.985 1261.45 553.246C1259.41 553.51 1257.36 554.476 1256.29 556.226C1256.06 556.595 1255.85 557.024 1255.45 557.186C1254.88 557.417 1254.25 556.997 1253.91 556.487C1253.58 555.977 1253.41 555.365 1253.03 554.891C1248.64 549.454 1248.85 567.471 1249.18 568.948Z" fill="#B1C7EF"/>
<path d="M1285.78 565.146C1283.55 564.618 1281.18 564.672 1278.96 565.302C1278.56 565.416 1278.1 565.638 1278.08 566.052C1278.06 566.496 1278.56 566.76 1278.99 566.874C1281.11 567.453 1283.45 567.21 1285.41 566.205C1285.11 565.329 1283.96 564.876 1283.15 565.317" fill="#B1C7EF"/>
<path d="M1295.39 563.97C1294.27 563.394 1292.8 563.559 1291.84 564.375C1290.88 565.189 1290.46 566.602 1290.84 567.805C1293.08 568.372 1295.34 565.729 1297.48 566.602C1298.88 567.175 1299.59 569.101 1301.1 569.182C1302.39 569.251 1303.3 567.442 1302.48 566.449C1301.79 565.609 1300.47 565.618 1299.63 564.925C1298.11 563.661 1299.05 561.213 1300.09 559.533C1298.39 559.164 1297.12 561.159 1296.9 562.884C1296.8 563.643 1296.79 564.441 1296.43 565.123C1296.08 565.804 1295.24 566.314 1294.54 565.993" fill="#B1C7EF"/>
<path d="M1285.87 553.45C1285.84 554.071 1285.83 554.722 1286.11 555.277C1286.4 555.832 1287.08 556.231 1287.65 555.979C1288.08 555.79 1288.3 555.316 1288.48 554.884C1289.06 553.489 1289.63 551.886 1288.99 550.524C1288.7 549.912 1288.18 549.414 1287.95 548.772C1287.29 546.864 1289.6 545.822 1291.08 545.973C1290.73 543.557 1288.68 545.267 1288.67 542.642C1288.67 542.243 1293.2 540.509 1289.43 539.876C1284.51 539.048 1285.99 550.248 1285.87 553.45Z" fill="#D4DEEF"/>
<path d="M1306.28 550.45C1304 550.624 1301.51 550.561 1299.72 549.139C1298.04 550.54 1299.14 553.459 1301 554.623C1302.85 555.791 1305.17 555.995 1307.1 557.042C1309.02 558.089 1310.47 560.75 1309.07 562.436C1310.61 562.836 1312.15 563.238 1313.7 563.637C1314.05 565.086 1312.41 566.13 1311.16 566.952C1309.92 567.774 1308.91 569.802 1310.2 570.544C1310.8 571.831 1312.72 571.621 1313.97 570.943C1315.22 570.262 1316.55 569.283 1317.91 569.698C1318.79 569.968 1319.39 570.763 1320.04 571.423C1322.76 574.198 1326.92 574.864 1330.41 576.577C1333.91 578.288 1337.07 582.434 1335.18 585.834C1334.46 587.121 1333.17 587.967 1332.2 589.074C1331.22 590.178 1330.58 591.882 1331.42 593.095C1334.49 593.305 1337.63 592.324 1340.04 590.4C1342.51 593.05 1345.43 595.522 1348.97 596.293C1352.52 597.061 1356.75 595.606 1358.14 592.258C1358.41 591.594 1358.6 590.841 1359.15 590.382C1359.93 589.743 1361.08 589.956 1362.05 590.229C1365.03 591.069 1367.94 592.149 1370.74 593.458C1371.28 593.707 1371.85 594.004 1372.1 594.538C1372.47 595.312 1372.02 596.2 1371.9 597.046C1371.46 600.188 1375.34 602 1378.46 602.552C1382.7 603.302 1387 603.689 1391.3 603.71C1391.44 601.553 1389.11 600.08 1387 599.606C1384.89 599.131 1382.53 599.065 1380.93 597.616C1379.04 595.909 1378.86 592.822 1376.87 591.225C1375.39 590.028 1372.76 589.236 1373.17 587.37C1373.6 585.369 1377.11 585.633 1377.79 583.7C1378.2 582.506 1377.16 581.24 1375.98 580.793C1374.8 580.346 1373.49 580.427 1372.25 580.19C1369.14 579.602 1366.58 576.814 1366.26 573.667C1366.14 572.476 1366.3 571.219 1365.82 570.124C1365.09 568.467 1363.17 567.744 1361.45 567.189C1352.27 564.231 1343.1 561.272 1333.92 558.314C1332.6 557.888 1331.17 557.465 1329.86 557.921C1326.34 559.154 1326.59 565.485 1322.92 566.154C1321.01 566.502 1319.33 564.978 1317.99 563.577C1316.68 562.205 1314.79 560.231 1314.63 558.224C1314.51 556.844 1315.92 555.641 1315.78 554.422C1315.27 549.745 1309.89 550.174 1306.28 550.45Z" fill="#B1C7EF"/>
<path d="M1377.63 579.388C1377.89 579.793 1378.38 579.967 1378.84 580.096C1382.66 581.149 1386.88 580.717 1390.4 578.905C1391.54 578.323 1392.65 577.588 1393.92 577.453C1394.75 577.366 1395.6 577.543 1396.43 577.456C1397.26 577.369 1398.15 576.892 1398.31 576.07C1398.46 575.263 1397.87 574.333 1398.35 573.663C1398.85 572.964 1400.07 573.237 1400.62 572.577C1401.24 571.845 1400.5 570.777 1399.81 570.117C1396.98 567.444 1394.22 564.557 1391.2 562.133C1390.93 565.952 1393.72 570.357 1390.73 573.63C1388.99 575.536 1376.72 577.978 1377.63 579.388Z" fill="#B1C7EF"/>
<path d="M1415.22 591.316C1416.61 591.778 1418.08 591.985 1419.44 592.531C1420.8 593.077 1422.1 594.061 1422.51 595.471C1422.5 595.405 1422.49 595.342 1422.49 595.279C1422.01 591.523 1418.19 589.176 1414.8 587.406C1414.35 587.175 1413.88 586.917 1413.65 586.473C1413.5 586.194 1408.97 589.248 1415.22 591.316Z" fill="#D4DEEF"/>
<path d="M1455.05 664C1454.71 662.443 1454.16 660.885 1453.13 659.67C1452.1 658.455 1450.5 657.63 1448.92 657.846C1447.56 660.822 1449.92 664.219 1452.62 666.064C1454.52 667.363 1456.68 668.194 1458.82 668.929C1456.12 669.385 1455.5 666.061 1455.05 664Z" fill="#D4DEEF"/>
<path d="M1463.95 636.834C1465.2 639.882 1466.11 643.075 1466.64 646.327C1468.15 645.466 1468.57 643.168 1467.47 641.827C1468.55 642.787 1468.56 644.425 1468.81 645.85C1469.45 649.583 1472.42 652.808 1476.08 653.774C1476.64 652.679 1476.18 651.302 1475.39 650.354C1474.6 649.406 1473.53 648.737 1472.64 647.887C1470.95 646.285 1469.93 644.014 1469.84 641.695C1469.75 639.603 1470.13 636.951 1468.3 635.94C1467.98 636.843 1467.67 637.749 1467.35 638.652C1466.83 638.598 1466.48 638.079 1466.28 637.593C1465.01 634.56 1466.29 630.215 1463.43 628.013C1462.99 629.354 1462.13 630.752 1460.65 630.932C1460.62 633.104 1463.09 634.758 1463.95 636.834Z" fill="#D4DEEF"/>
<path d="M1427.22 592.284C1429.31 593.178 1432.01 592.842 1433.6 594.48C1435.16 596.095 1434.83 598.831 1436.16 600.64C1436.78 601.495 1437.72 602.065 1438.41 602.872C1439.09 603.683 1439.46 604.961 1438.77 605.765C1437.91 606.773 1436.13 606.149 1435.47 605.003C1434.81 603.857 1434.87 602.455 1434.71 601.141C1434.55 599.827 1433.99 598.372 1432.73 597.946C1431.53 597.538 1429.93 598.174 1429.09 597.22C1428.8 596.902 1428.69 596.47 1428.54 596.074C1427.32 592.845 1423.19 591.249 1422.48 587.979C1424.12 589.245 1425.12 591.39 1427.22 592.284Z" fill="#D4DEEF"/>
<path d="M1304.41 586.887C1302.3 588.678 1300.4 590.703 1298.73 592.915C1300 593.533 1301.66 593.206 1302.59 592.152C1303.52 591.099 1303.65 589.413 1302.88 588.231" fill="#B1C7EF"/>
<path d="M1318.36 578.099C1319.6 579.032 1320.72 580.352 1320.76 581.906C1320.8 583.458 1319.27 585.045 1317.8 584.556C1318.08 582.332 1318.37 580.109 1318.66 577.886" fill="#B1C7EF"/>
<path d="M1304.99 611.833C1303.9 609.546 1300.69 608.595 1298.52 609.921C1300.41 611.494 1300.59 614.701 1298.89 616.474C1298.02 617.38 1296.82 617.884 1295.83 618.65C1292.55 621.182 1292.41 626.808 1295.56 629.502C1294.04 630.291 1292.51 631.08 1290.99 631.872C1289.92 627.87 1286.86 624.452 1283 622.946C1277.75 626.241 1273.83 631.611 1272.31 637.621C1271.7 637.726 1271.09 637.834 1270.48 637.939C1270.2 639.715 1269.92 641.495 1269.64 643.271C1268.28 641.465 1267.74 639.079 1268.17 636.865C1265 637.495 1263.21 640.871 1262.34 643.985C1261.46 647.099 1260.94 650.544 1258.65 652.827C1256.97 654.498 1254.61 655.249 1252.34 655.945C1248.87 657.01 1245.39 658.078 1241.91 659.143C1239.04 660.022 1235.92 661.093 1234.38 663.665C1233.12 665.747 1232.32 669.074 1229.91 668.783C1228.89 668.66 1228.09 667.823 1227.1 667.571C1225.05 667.055 1223.22 669.314 1223.13 671.427C1223.04 673.539 1224.04 675.522 1224.59 677.566C1225.14 679.609 1225.09 682.126 1223.43 683.434C1225.36 683.551 1227.35 684.304 1228.49 685.868C1229.63 687.431 1229.62 689.873 1228.15 691.133C1226.68 692.391 1223.9 691.673 1223.57 689.768C1227.8 701.296 1230.78 713.276 1232.47 725.44C1233.15 730.412 1233.55 735.767 1231.14 740.169C1235.33 743.325 1241.45 743.655 1245.95 740.97C1248.48 739.464 1250.47 737.142 1253.12 735.851C1257.72 733.604 1263.3 734.906 1268.21 733.421C1272.7 732.062 1276.35 728.443 1280.97 727.63C1284.46 727.015 1288.34 728.026 1291.4 726.235C1292.84 725.389 1293.9 724.009 1295.28 723.079C1296.84 722.038 1298.73 721.615 1300.6 721.506C1308.01 721.083 1315.61 726.187 1317.28 733.421C1317.69 735.23 1317.77 737.133 1318.48 738.849C1319.19 740.562 1320.81 742.11 1322.66 741.945C1323.13 736.278 1328.51 731.468 1334.2 731.648C1334.47 733.472 1333.16 735.146 1331.77 736.359C1330.38 737.574 1328.77 738.675 1328.04 740.373C1327.32 742.071 1328.13 744.562 1329.97 744.694C1330.9 742.932 1332.19 741.357 1333.73 740.094C1336.62 742.668 1335.26 748.339 1331.51 749.317C1335.11 748.252 1340.2 747.895 1341.4 751.445C1341.74 752.45 1341.63 753.542 1341.73 754.598C1342.26 760.083 1348 763.29 1353.02 765.549C1354.04 766.009 1355.14 766.48 1356.24 766.294C1358.14 765.976 1359.15 763.962 1360.26 762.384C1361.37 760.806 1363.63 759.426 1365.08 760.698C1366.33 761.796 1365.82 763.965 1366.81 765.303C1368.15 767.116 1371.16 766.147 1372.63 764.436C1374.1 762.726 1374.97 760.434 1376.88 759.228C1380.43 756.986 1386.87 758.736 1387.93 754.67C1388.5 752.459 1386.63 750.421 1386.03 748.222C1385.08 744.781 1387.3 741.267 1389.86 738.774C1392.41 736.278 1395.49 734.126 1397 730.895C1399.53 725.494 1396.88 719.067 1397.9 713.189C1398.92 707.291 1403.59 701.425 1401.14 695.958C1400.18 693.813 1398.23 692.202 1397.42 689.996C1396.65 687.866 1396.97 685.28 1395.52 683.536C1394.6 682.432 1393.16 681.925 1392 681.085C1388.13 678.295 1388.02 672.72 1386.54 668.183C1383.85 659.917 1376.09 654.543 1370.73 647.703C1369.74 646.439 1368.81 645.08 1368.39 643.532C1367.89 641.732 1368.12 639.823 1367.97 637.963C1367.61 633.433 1364.88 629.157 1360.93 626.925C1360.06 626.436 1359.12 626.016 1358.51 625.23C1357.65 624.113 1357.7 622.577 1357.65 621.17C1357.48 615.868 1355.38 610.648 1351.82 606.708C1349.47 618.347 1347.12 629.982 1344.77 641.621C1343.4 642.659 1341.74 643.304 1340.03 643.457C1339.35 640.484 1338.67 637.51 1338 634.54C1334.64 634.711 1331.12 634.852 1328.11 633.37C1325.09 631.887 1322.89 628.188 1324.24 625.113C1324.97 623.432 1326.64 621.563 1325.54 620.093C1328.54 621.221 1331.17 616.345 1328.97 614.011C1325.5 610.335 1321.72 615.664 1318.15 615.472C1313.72 615.229 1309.75 609.03 1304.99 611.833Z" fill="#B1C7EF"/>
<path d="M1368.75 793.303C1368.73 794.164 1368.7 795.214 1369.44 795.655C1369.74 795.832 1370.1 795.862 1370.44 795.886C1372.97 796.057 1376.16 795.721 1377.02 793.339C1377.72 791.425 1376.4 789.21 1377.11 787.302C1377.35 786.672 1377.78 786.144 1378.15 785.583C1379.07 784.185 1379.61 782.429 1379.16 780.815C1378.71 779.201 1377.06 777.881 1375.41 778.196C1374.51 778.37 1373.75 778.973 1372.86 779.207C1370.02 779.954 1361.85 773.86 1362.55 780.692C1362.77 782.834 1365.73 784.518 1366.82 786.261C1368.13 788.358 1368.83 790.834 1368.75 793.303Z" fill="#B1C7EF"/>
<path d="M1463.01 805.269C1461.12 805.896 1459.03 806.169 1457.45 807.381C1455.86 808.593 1455.15 811.267 1456.7 812.527C1457.89 813.493 1459.66 813.1 1461.12 813.568C1464.4 814.615 1464.69 819.068 1464.36 822.491C1466.65 823.472 1469.14 821.465 1470.41 819.317C1471.68 817.168 1472.55 814.585 1474.67 813.274C1476.06 812.419 1477.87 812.185 1478.89 810.922C1480.33 809.142 1479.38 806.478 1479.92 804.252C1481.25 798.668 1489.3 798.182 1491.45 792.733C1492.94 788.947 1495.67 781.536 1491.19 780.756C1480.01 778.796 1472.7 802.065 1463.01 805.269Z" fill="#D4DEEF"/>
<path d="M1498.2 784.646C1498.2 784.943 1498.2 785.258 1498.36 785.507C1498.75 786.128 1499.74 785.879 1500.31 785.414C1503.58 782.726 1501.6 776.986 1504.12 773.574C1504.95 772.446 1506.19 771.705 1507.29 770.835C1510.81 768.039 1512.98 763.607 1513.03 759.109C1511.4 759.992 1509.74 760.889 1507.91 761.144C1506.08 761.399 1504.03 760.883 1502.93 759.394C1501.59 757.564 1502.04 754.876 1500.77 752.994C1499.3 750.828 1496.13 750.519 1494.37 748.587C1492.75 746.814 1492.71 744.176 1492.35 741.806C1491.98 739.436 1490.76 736.735 1488.38 736.405C1483.68 741.8 1492.91 748.56 1494.11 753.163C1495.26 757.576 1492.99 758.812 1491.22 762.518C1489.38 766.373 1488.15 769.416 1491.81 772.413C1494.16 774.339 1496.11 771.402 1498.15 774.969C1499.33 777.022 1498.23 782.365 1498.2 784.646Z" fill="#D4DEEF"/>
<path d="M1252.21 461.61C1251.95 462.363 1251.69 463.134 1251.7 463.933C1251.75 466.663 1254.9 468.517 1255.13 471.239C1255.23 472.322 1254.83 473.393 1254.83 474.479C1254.84 475.565 1255.5 476.822 1256.59 476.834C1257.53 476.843 1258.18 475.955 1258.85 475.298C1259.52 474.641 1260.77 474.221 1261.3 474.998C1261.53 475.343 1261.51 475.793 1261.47 476.207C1261.18 479.121 1260.38 481.98 1259.13 484.626C1260.7 485.25 1262.54 484.233 1263.41 482.787C1264.28 481.341 1264.42 479.586 1264.54 477.902C1264.6 477.065 1264.66 476.189 1264.32 475.418C1263.81 474.26 1262.56 473.639 1261.73 472.679C1260.19 470.893 1260.36 468.169 1261.21 465.976C1262.07 463.783 1263.52 461.856 1264.39 459.666C1264.61 459.096 1264.8 458.484 1264.71 457.878C1264.62 457.248 1264.24 456.705 1263.97 456.135C1263.28 454.718 1263.2 453.092 1262.9 451.547C1260.27 438.027 1253.03 459.237 1252.21 461.61Z" fill="#D4DEEF"/>
<path d="M1278.06 482.659C1278.35 485.164 1277.3 487.787 1275.36 489.398C1274.92 489.761 1274.43 490.091 1274.16 490.589C1273.23 492.299 1275.39 493.928 1276.94 495.102C1281.8 498.786 1282.4 506.893 1278.11 511.244C1277.71 511.655 1277.27 512.045 1277.02 512.561C1276.77 513.068 1276.73 513.65 1276.73 514.214C1276.7 516.771 1277.15 519.333 1278.07 521.724C1275.53 522.993 1272.37 520.899 1271.4 518.235C1270.43 515.57 1270.99 512.627 1271.45 509.831C1271.63 508.792 1271.76 507.634 1271.17 506.761C1270.22 505.348 1267.9 505.639 1266.71 506.854C1265.51 508.069 1265.11 509.828 1264.63 511.463C1264.16 513.101 1263.45 514.838 1261.96 515.663C1260.83 509.975 1265.49 503.833 1271.27 503.401C1272.54 503.308 1273.88 503.431 1275.01 502.858C1276.14 502.282 1276.82 500.595 1275.88 499.737C1274.78 499.773 1274.34 498.303 1274.44 497.205C1274.54 496.107 1274.72 494.763 1273.83 494.114C1272.92 493.448 1271.58 494.138 1270.97 495.093C1270.37 496.047 1270.18 497.217 1269.59 498.18C1268.7 499.626 1266.88 500.436 1265.21 500.13C1265.11 497.613 1266.61 495.105 1268.87 493.988C1266.86 493.28 1264.79 492.134 1264.01 490.154C1263.23 488.174 1264.6 485.377 1266.72 485.548C1267.48 487.496 1268.24 489.443 1269 491.387C1270.64 492.419 1272.97 491.381 1273.92 489.692C1274.88 488.003 1274.8 485.929 1274.53 484.006C1276.68 485.104 1279.14 482.083 1278.26 479.841C1277.76 478.554 1276.57 477.663 1275.38 477.492C1276.73 478.869 1277.84 480.721 1278.06 482.659Z" fill="#D4DEEF"/>
<path d="M956.365 110.38C957.826 109.339 956.716 106.813 955.014 106.243C953.313 105.673 951.465 106.228 949.671 106.285C947.876 106.339 945.713 105.49 945.521 103.704C945.464 103.176 945.596 102.645 945.803 102.156C947.054 99.1827 950.586 97.9976 952.89 95.7413C956.479 92.2308 956.794 86.455 959.941 82.5425C964.298 77.1328 972.528 76.8987 978.109 72.7582C979.861 71.459 981.325 69.7878 983.146 68.5816C987.866 65.4582 993.987 65.9773 999.642 65.8272C1007.05 65.6292 1014.43 64.06 1021.28 61.2246C1019.83 68.0925 1011.6 70.6639 1004.8 72.3801C1000.22 73.5353 995.685 74.8735 991.211 76.3857C985.52 78.3089 979.822 80.5772 975.165 84.3698C970.509 88.1623 966.974 93.728 966.887 99.7348C966.842 102.888 970.613 109.702 968.522 112.145C966.068 115.019 959.053 111.58 956.365 110.38Z" fill="#D4DEEF"/>
<path d="M1129.67 30.1855C1127.95 30.7346 1126.24 31.2837 1124.52 31.8327C1126.1 34.2691 1129.38 35.4602 1132.16 34.6081C1135.06 33.717 1137.9 30.8696 1140.63 32.2108C1141.33 33.522 1139.72 34.8242 1138.42 35.5382C1137.11 36.2523 1135.72 37.9476 1136.78 38.9917C1137.04 39.2438 1137.39 39.3728 1137.73 39.4838C1143.72 41.404 1150.55 39.7718 1156.27 42.3672C1158.08 43.1833 1159.83 44.4284 1161.8 44.3414C1163.78 44.2544 1165.63 41.7521 1164.27 40.3209C1163.38 39.3848 1161.56 39.3698 1161.2 38.1306C1160.55 35.8533 1165.92 34.9352 1164.87 32.8109C1160.99 32.9309 1157.11 33.0509 1153.23 33.1709C1151.91 33.2099 1150.29 33.0839 1149.72 31.8958C1149.4 31.2237 1149.52 30.3686 1149.08 29.7685C1148.53 29.0364 1147.45 29.0544 1146.54 29.1474C1144.49 29.3544 1142.44 29.5615 1140.38 29.7685C1144.88 29.3154 1150.75 26.9271 1155.26 25.8349C1149.28 19.069 1132.01 19.8851 1129.67 30.1855Z" fill="#D4DEEF"/>
<path d="M1183.9 40.0456C1183.8 37.5223 1180.32 36.4151 1178.04 37.4983C1175.76 38.5814 1174.38 40.8977 1172.84 42.893C1170.98 45.2843 1168.73 47.3366 1166.49 49.3769C1172.37 48.6178 1178.25 47.8587 1184.13 47.1026C1186.4 46.8085 1189.13 46.1574 1189.81 43.9701C1187.53 42.4159 1184.86 41.4348 1182.12 41.1317" fill="#D4DEEF"/>
<path d="M1338.1 75.7054C1338.85 75.2554 1339.54 74.6643 1340.37 74.4213C1343.72 73.4491 1346.59 78.3938 1349.99 77.5897C1351.42 77.2507 1352.44 75.9485 1353.81 75.4234C1357.04 74.1962 1360.63 77.5687 1363.69 75.4924C1367.68 72.7831 1365.96 70.4607 1362.82 69.2366C1359.94 68.1114 1355.48 69.2966 1352.24 68.3635C1349.84 67.6734 1347.76 66.3442 1345.48 65.372C1340.13 63.0857 1331.66 59.2572 1328.02 66.1582C1324.74 72.357 1332 79.3659 1338.1 75.7054Z" fill="#D4DEEF"/>
<path d="M1385.58 74.0188C1383.2 72.0745 1380.44 70.5953 1377.51 69.6982C1377.09 69.5692 1376.66 69.4522 1376.23 69.4732C1374.66 69.5422 1373.68 71.4894 1374.18 72.9716C1374.68 74.4538 1376.21 75.387 1377.75 75.681C1379.29 75.975 1380.87 75.762 1382.43 75.654C1385.72 75.429 1389.04 75.693 1392.25 76.4341C1392.85 74.3788 1390.83 72.3086 1388.7 72.0235C1386.58 71.7385 1384.5 72.6746 1382.57 73.5897" fill="#D4DEEF"/>
<path d="M1355.36 85.966C1353.54 85.0928 1351.59 84.4898 1349.59 84.1777C1348.53 84.0127 1346.97 84.4447 1347.23 85.4859C1347.34 85.9329 1347.78 86.206 1348.19 86.428C1350.92 87.9132 1353.83 89.0804 1356.84 89.8965C1358.23 90.2745 1360.15 90.3105 1360.62 88.9513C1360.95 87.9972 1360.26 86.9951 1359.48 86.356C1357.58 84.7988 1354.9 84.2527 1352.54 84.9398" fill="#D4DEEF"/>
<path d="M770.941 42.9224C773.495 44.4256 776.603 44.7076 779.241 46.0608C782.331 47.642 784.608 50.7264 785.211 54.1439C785.58 56.2382 785.397 58.5395 786.562 60.3187C788.251 62.9021 792.304 63.0851 794.768 61.2218C797.231 59.3586 798.251 56.0821 798.239 52.9947C798.227 50.5674 797.804 47.756 799.544 46.0638C800.291 45.3377 801.309 44.9806 802.296 44.6506C804.225 44.0055 806.259 43.3754 808.266 43.7205C810.274 44.0625 812.212 45.7037 812.17 47.741C812.122 50.1953 809.371 52.4726 810.457 54.6749C814.339 54.6209 818.225 54.5669 822.107 54.5129C823.451 53.1537 822.506 50.7084 820.919 49.6433C819.332 48.5781 817.343 48.3381 815.593 47.564C813.847 46.7899 812.203 45.0256 812.692 43.1774C813.427 40.39 817.385 40.7441 820.262 40.8461C827.934 41.1221 835.015 33.8911 834.574 26.2281C827.76 25.187 824.394 32.64 818.738 34.5872C814.066 36.1954 811.507 33.4771 807.228 33.8791C802.671 34.3082 801.588 37.2186 798.068 38.0617C792.595 39.3699 788.656 36.6605 782.991 35.9074C778.571 35.3133 759.36 36.1114 770.941 42.9224Z" fill="#B1C7EF"/>
<path d="M702.255 10.383C697.922 17.893 690.58 23.6088 682.236 25.9671C678.302 27.0772 673.928 27.5963 670.961 30.4047C669.121 32.1449 668.086 34.5453 667.096 36.8736C665.149 41.4582 663.168 46.1808 663.063 51.1615C662.958 56.1422 665.164 61.5009 669.646 63.6732C663.399 66.7666 662.787 77.094 668.626 80.9015C666.244 86.8483 656.264 83.5269 651.554 87.8685C647.893 91.2439 649.313 97.2898 651.518 101.754C653.723 106.216 656.52 111.209 654.743 115.859C648.046 113.249 641.346 110.636 634.65 108.025C632.12 113.486 639.39 120.255 644.659 117.344C639.591 126.463 626.071 124.665 616.575 128.98C606.437 133.586 600.982 145.431 590.733 149.785C585.689 151.927 579.952 152.02 574.926 154.207C569.901 156.395 565.559 162.195 567.924 167.139C568.392 168.117 569.115 169.08 568.986 170.155C568.851 171.286 567.84 172.069 566.972 172.807C558.739 179.825 558.646 192.286 559.222 203.087C556.288 205.283 552.147 202.301 550.53 199.009C548.913 195.721 548.079 191.682 544.982 189.723C541.898 187.77 537.76 188.703 534.385 187.314C531.307 186.045 529.335 183.065 527.553 180.251C524.214 174.976 520.877 169.699 517.538 164.424C514.726 159.98 511.849 155.369 511.063 150.172C510.277 144.972 512.152 138.989 516.821 136.568C520.118 134.858 525.477 132.271 523.089 129.427C522.554 128.791 521.735 128.488 520.952 128.209C514.9 126.058 508.846 123.906 502.794 121.755C505.149 114.461 513.604 109.744 521.048 111.572C523.791 107.191 517.451 102.387 512.287 102.471C507.12 102.558 501.363 104.434 497.171 101.412C501.072 95.9755 500.868 88.2765 497.723 82.3687C494.582 76.4609 488.923 72.2063 482.799 69.509C480.069 68.3058 477.167 67.3637 474.185 67.3217C469.471 67.2527 464.953 69.416 460.242 69.446C453.569 69.488 447.478 65.1614 443.653 59.6947C439.827 54.2279 437.868 47.7051 435.969 41.3082C441.342 44.2786 448.429 44.4466 453.428 40.8791C458.427 37.3116 460.482 29.7986 457.218 24.5959C464.011 23.0747 470.806 21.5535 477.599 20.0323C479.319 19.6483 481.074 19.2462 482.562 18.3071C484.461 17.1039 485.742 15.1386 487.465 13.6954C490.768 10.9291 495.323 10.341 499.607 9.86393C511.075 8.58876 522.539 7.31358 534.004 6.03841C536.206 5.79237 538.472 5.55234 540.614 6.12242C546.249 7.62262 551.358 14.4515 556.417 11.5471C556.618 9.32685 555.955 7.03755 554.593 5.27331C561.041 2.30891 568.491 3.21803 575.587 3.32004C589.887 3.53007 604.036 0.220635 618.333 0.0106071C632.363 -0.196421 646.429 2.62995 659.289 8.24071C654.986 11.2141 650.075 13.2994 644.947 14.3285C648.295 14.1185 651.689 14.6976 654.779 15.9998C652.319 14.9616 641.178 23.7528 639.405 25.337C645.466 30.0476 658.785 20.2963 665.05 17.3109C676.907 11.6582 689.017 8.42672 702.255 10.383Z" fill="#D4DEEF"/>
<path d="M680.756 163.23C677.546 164.545 674.545 166.366 671.896 168.604C669.442 170.68 666.699 173.3 663.546 172.67C660.347 172.028 658.838 168.466 657.434 165.52C656.03 162.573 653.182 159.399 650.095 160.461C651.772 158.442 653.452 156.419 655.13 154.4C651.13 153.818 647.134 153.233 643.134 152.651C642.156 152.51 641.091 152.318 640.449 151.568C638.948 149.816 641.187 147.22 643.398 146.566C648.376 145.096 653.858 147.331 657.596 150.932C659.159 152.438 661.149 154.343 663.15 153.497C664.473 152.936 665.037 151.409 665.922 150.278C668.043 147.565 672.007 147.208 675.431 147.607C681.209 148.282 692.746 144.046 695.002 150.962C697.534 158.715 685.404 161.328 680.756 163.23Z" fill="#B1C7EF"/>
<path d="M182.845 109.985C167.726 116.277 152.042 122.544 135.669 122.343C128.57 122.256 121.549 120.948 114.573 119.643C99.4003 116.808 84.0682 113.924 69.9513 107.68C66.1798 106.012 62.3903 104.08 58.2738 103.828C53.6741 103.546 49.2305 105.406 45.102 107.452C32.5903 113.66 21.1287 121.983 11.3534 131.963C21.5218 133.562 30.9731 139.314 37.0669 147.61C32.2632 149.941 25.7854 147.796 23.322 143.058C16.8712 141.186 9.35513 146.287 8.71605 152.975C8.07696 159.662 14.4918 166.095 21.1797 165.477C23.5531 162.33 27.2226 160.19 31.1321 159.68C32.9743 162.78 34.8136 165.882 36.6558 168.982C33.4424 172.861 27.7926 173.26 22.881 174.373C17.9693 175.487 12.4366 178.949 13.0036 183.954C13.9488 192.292 29.9589 192.994 29.2568 201.356C29.4939 198.518 62.5913 196.306 46.5842 215.308C44.0758 218.284 40.3043 220.439 36.4278 220.097C37.5049 223.145 37.2619 226.937 34.8616 229.107C32.4613 231.276 27.7566 230.493 27.0035 227.352C24.4382 232.833 17.3692 234.132 11.3474 234.727C10.6333 237.148 9.91922 239.572 9.20512 241.994C8.71906 238.972 4.72552 237.184 2.11816 238.786C-0.489188 240.391 -0.73523 244.691 1.63509 246.626C3.84039 248.426 7.05082 247.991 9.8472 247.46C10.8913 247.262 12.0825 246.953 12.5356 245.99C12.8116 245.399 12.7276 244.715 12.7486 244.064C12.8536 240.883 15.638 238.363 18.6144 237.232C21.5908 236.104 24.8432 235.975 27.9427 235.255C33.0674 234.06 37.685 231.252 41.7835 227.955C46.2451 224.363 50.2597 220.112 55.3184 217.426C57.2566 216.397 59.3239 215.611 61.1902 214.456C74.914 205.947 66.1618 191.215 86.4656 188.682C86.7536 191.5 84.8183 194.383 82.103 195.187C88.6078 199.994 95.7248 184.86 103.346 187.572C105.494 188.337 106.883 190.381 108.729 191.716C112.152 194.191 116.728 194.017 120.934 194.374C137.694 195.799 152.982 208.227 157.8 224.342C165.13 222.179 171.233 230.01 174.882 236.725C180.906 247.811 186.928 258.901 192.953 269.987C196.779 277.026 200.64 284.158 202.626 291.92C205.468 303.022 204.324 314.828 206.98 325.975C209.635 337.121 218.219 348.463 229.675 348.16C231.532 365.625 236.645 382.74 244.677 398.36C240.761 402.332 247.062 408.222 252.418 409.779C257.774 411.336 264.828 415.306 262.487 420.371C268.806 413.341 260.762 402.737 253.069 397.243C245.376 391.75 236.345 382.653 241.161 374.515C243.786 371.869 248.382 374.956 249.619 378.473C250.855 381.989 250.744 386.154 253.225 388.932C255.4 391.366 258.92 391.981 261.728 393.646C271.906 399.689 269.769 416.857 279.62 423.419C283.217 425.813 287.949 426.371 291.066 429.366C293.305 431.517 294.349 434.59 295.813 437.326C300.986 446.996 311.391 452.472 321.199 457.384C324.059 458.815 326.918 460.246 329.78 461.68C346.16 469.88 362.539 478.08 378.918 486.281C380.493 487.07 382.312 487.874 383.95 487.226C390.683 484.561 376.932 472.587 382.648 468.149C374.604 464.27 366.559 460.393 358.515 456.514C363.535 452.031 364.201 443.492 359.935 438.286C362.902 437.587 365.359 435.073 365.995 432.093C362.452 428.409 355.968 431.457 353.217 435.763C350.465 440.071 349.358 445.487 345.65 449.004C337.254 456.964 322.399 448.517 319.153 437.413C315.907 426.308 319.621 414.538 320.86 403.034C321.361 398.387 321.754 393.091 325.433 390.208C333.846 383.619 346.232 397.514 355.995 393.169C359.734 391.507 361.936 387.528 365.455 385.446C371.525 381.857 379.779 385.185 383.986 390.844C388.189 396.505 389.369 403.787 390.425 410.76C392.411 414.019 397.932 410.418 397.623 406.614C397.314 402.812 394.178 399.962 392.111 396.754C386.83 388.566 389.224 376.385 397.212 370.804C404.311 365.841 416.006 363.9 416.465 355.25C416.762 349.66 411.452 345.078 411.232 339.483C411.037 334.559 414.767 330.46 418.244 326.971C428.074 317.103 437.9 307.234 447.729 297.369C450.037 295.053 452.827 292.553 456.076 292.919C459.326 293.285 461.135 298.656 458.045 299.721C469.632 300.168 485.159 297.372 486.09 285.814C481.409 289.919 475.855 293.021 469.908 294.855C469.29 289.352 470.905 283.627 474.31 279.259C469.995 271.821 459.668 269.774 451.459 272.334C443.25 274.896 436.67 280.942 430.387 286.817C439.823 275.682 452.452 266.354 466.95 264.659C472.411 264.02 478.264 264.401 483.014 261.631C489.624 257.779 495.472 248.072 502.133 251.835C497.269 260.368 492.408 268.901 487.545 277.431C492.789 277.041 498.031 276.651 503.276 276.261C505.406 279.898 506.444 284.161 506.225 288.368C512.64 287.921 521.467 283.693 518.602 277.935C517.147 275.01 513.345 274.275 510.819 272.205C503.876 266.516 509.283 254.826 505.805 246.551C504.065 242.414 500.27 239.581 496.795 236.737C482.039 224.642 470.473 208.695 463.563 190.912C461.876 195.133 460.025 199.574 456.377 202.283C452.728 204.996 446.703 205.041 444.303 201.179C442.986 199.064 443.061 196.393 442.377 193.996C440.822 188.565 435.635 185.127 430.822 182.168C424.983 178.577 418.103 174.85 411.626 177.089C405.148 179.327 403.644 190.99 410.416 192.064C404.109 192.292 404.317 202.091 407.914 207.279C411.512 212.467 416.567 218.926 413.12 224.213C410.062 228.9 402.315 228.441 399.237 233.112C396.269 237.616 399.495 243.419 401.751 248.318C404.007 253.218 403.947 260.923 398.658 261.97C394.139 262.864 390.863 257.629 390.017 253.101C388.687 245.972 389.627 238.243 386.296 231.804C382.966 225.362 372.269 222.329 368.918 228.759C367.078 222.206 361.768 216.739 355.272 214.711C349.991 213.061 344.113 213.562 339.097 211.221C331.596 207.723 328.229 199.094 325.55 191.263C335.343 185.664 345.779 179.36 350.141 168.961C351.314 166.161 352.082 163.026 354.3 160.953C356.295 159.086 359.133 158.42 361.354 156.827C363.574 155.234 364.99 151.729 362.995 149.863C365.872 148.105 369.389 147.427 372.713 147.985C378.399 155.699 360.964 168.841 369.173 173.782C373.598 176.447 378.381 170.974 380.667 166.344C384.244 167.787 387.82 169.228 391.397 170.671C396.008 166.923 390.593 159.758 385.309 157.037C380.025 154.316 373.334 149.416 375.984 144.096C380.712 144.012 385.441 143.925 390.17 143.841C390.467 139.326 387.469 134.792 383.197 133.295C385.633 129.541 388.066 125.785 390.503 122.031C388.291 119.595 384.703 118.503 381.507 119.289C391.082 117.879 400.431 114.953 409.099 110.651C416.195 118.749 422.871 127.216 429.091 136.001C430.09 137.411 431.116 138.96 431.08 140.685C430.999 144.456 426.441 146.068 423.147 147.91C419.853 149.749 417.863 155.594 421.521 156.524C421.02 159.314 416.831 159.287 414.476 157.715C412.121 156.14 409.954 153.665 407.125 153.83C401.775 154.139 402.654 163.572 407.773 165.168C412.892 166.761 418.121 163.458 422.466 160.319C432.466 169.342 444.387 176.222 457.202 180.365C452.032 179.288 448.263 173.68 449.218 168.487C455.218 170.215 460.934 172.927 466.071 176.483C470.43 171.178 464.844 163.473 459.131 159.668C453.415 155.864 446.259 151.153 447.156 144.345C454.654 144.162 462.092 148.438 465.708 155.009C468.549 150.97 471.394 146.929 474.235 142.89C471.022 132.263 450.52 135.518 448.383 124.621C447.972 122.517 448.386 120.105 447.069 118.413C445.02 115.784 440.924 117.072 437.594 116.97C425.94 116.607 418.886 97.089 408.13 101.593C412.625 93.1734 399.84 82.516 392.366 88.4508C396.47 89.978 400.938 92.0963 402.432 96.2128C403.929 100.329 399.564 105.958 395.744 103.813C391.883 101.644 393.725 95.5257 391.595 91.6432C388.999 86.9146 381.189 87.8567 378.048 92.2403C374.907 96.6239 375.3 102.598 376.557 107.845C373.961 107.782 371.366 107.716 368.774 107.653C368.204 100.314 369.632 92.8284 372.863 86.2155C369.821 81.6789 362.911 86.0355 359.565 90.353C356.049 94.8897 352.424 99.6513 351.329 105.283C350.231 110.918 352.533 117.66 357.9 119.688C361.345 120.99 365.323 120.159 368.75 121.509C376.587 124.597 373.499 139.224 365.08 138.882C362.479 134.606 360.958 129.682 360.694 124.684C356.637 125.872 352.857 127.984 349.718 130.814C345.605 120.657 339.88 111.155 332.826 102.772C334.503 99.5283 336.18 96.2848 337.858 93.0414C344.608 95.9938 353.262 88.7658 351.557 81.5948C345.947 80.0226 340.051 78.4384 334.365 79.7226C328.679 81.0038 323.423 86.2005 324.215 91.9732C324.692 95.4357 327.149 98.3101 328.055 101.686C328.964 105.061 326.936 109.778 323.489 109.211C321.688 117.414 339.07 117.609 339.847 125.974C340.393 131.84 332.433 134.147 326.543 134.066C328.265 139.719 327.998 145.957 325.802 151.441C321.382 143.145 323.801 131.831 331.224 126.064C326.768 119.214 316.468 117.057 309.639 121.542C312.192 125.446 316.237 128.347 320.749 129.514C318.367 132.275 315.985 135.038 313.602 137.798C308.442 134.087 301.373 137 295.027 137.363C288.681 137.726 280.967 130.717 285.449 126.211C281.633 123.904 276.457 123.114 272.83 125.716C269.205 128.314 268.902 134.915 272.947 136.796C264.516 138.963 250.54 123.457 244.44 135.338C240.62 123.249 234.479 119.646 222.378 119.028C214.346 118.617 190.535 112.67 186.433 119.421C186.049 118.569 182.686 110.054 182.845 109.985Z" fill="#B1C7EF"/>
<path d="M205.16 78.2788C200.591 78.7679 198.043 83.8926 197.458 88.4502C196.873 93.0078 197.317 97.9045 195.073 101.916C194.518 102.906 193.798 103.848 193.621 104.967C193.111 108.172 197.269 110.221 200.474 109.711C209.811 108.22 215.674 95.4592 224.996 97.0464C225.089 99.5487 225.182 102.051 225.272 104.553C231.411 104.607 237.559 103.716 243.431 101.928C245.219 103.086 244.217 106.126 242.308 107.068C240.4 108.013 238.144 107.695 236.023 107.89C233.901 108.085 231.486 109.234 231.258 111.352C235.356 110.164 239.644 108.964 243.836 109.765C248.027 110.566 252.039 114.053 251.901 118.316C245.957 118.049 239.989 118.265 234.081 118.964C237.334 122.829 243.236 122.37 248.258 122.913C253.278 123.456 259.24 127.479 257.466 132.208C264.268 125.04 275.616 122.637 284.74 126.429C287.02 127.377 289.184 128.677 291.605 129.163C294.026 129.649 296.889 129.091 298.242 127.026C299.595 124.962 298.248 121.455 295.782 121.536C298.98 121.095 301.785 118.55 302.533 115.406C297.03 117.194 290.408 114.146 288.188 108.805C286.174 103.959 287.369 97.7305 283.759 93.923C286.906 94.8711 290.042 91.1236 289.28 87.9251C288.521 84.7267 285.073 82.7254 281.785 82.6444C279.619 82.5904 277.302 83.3105 276.024 85.0597C274.746 86.809 274.983 89.6774 276.858 90.7575C274.323 89.5243 271.79 88.2882 269.255 87.052C268.247 93.2568 280.441 96.9593 277.581 102.558C275.757 106.126 269.552 103.875 268.817 99.9358C268.334 97.3434 268.931 93.8929 266.558 92.7468C262.03 90.5595 258.727 101.664 254.4 99.1046C254.673 96.6143 254.946 94.124 255.216 91.6366C249.638 91.1926 243.908 93.2058 239.836 97.0434C240.343 94.631 240.847 92.2187 241.354 89.8034C235.303 86.4459 229.305 98.3395 222.77 96.0802C229.056 98.2555 243.131 85.9719 232.062 80.7722C229.41 79.524 223.871 81.4712 220.925 81.2642C215.746 80.8982 210.36 77.7238 205.16 78.2788Z" fill="#D4DEEF"/>
<path d="M232.663 52.5329C228.369 50.3876 223.146 52.7159 219.506 55.8393C215.864 58.9657 212.836 62.9743 208.486 65.0026C206.427 65.9627 203.991 66.5538 202.719 68.435C209.944 68.336 217.163 67.8469 224.337 66.9708C223.932 69.4102 222.71 71.7025 220.913 73.3977C224.274 74.6249 227.07 70.3943 227.532 66.8478C227.676 65.7437 227.808 64.4955 228.687 63.8144C229.392 63.2653 230.358 63.2623 231.244 63.1183C234.286 62.6293 236.962 59.7428 236.593 56.6824C236.221 53.622 232.204 51.4707 229.722 53.298" fill="#D4DEEF"/>
<path d="M255.221 72.65C256.106 72.1759 256.592 71.0598 256.334 70.0876C251.845 70.2347 247.57 66.5082 247.105 62.0406C244.548 60.4083 240.642 61.6775 239.535 64.5009C238.428 67.3243 240.429 70.9128 243.411 71.4528C239.061 73.3131 234.71 75.1733 230.359 77.0336C238.67 81.5132 248.53 71.7589 257.765 73.7151C257.762 74.8313 257.756 75.9474 257.753 77.0636C253.769 77.1116 249.841 78.9508 247.249 81.9782C254.126 82.5903 261.186 80.8711 267.009 77.1656C268.657 76.1185 270.292 74.8823 272.224 74.6093C273.922 74.3692 275.618 74.9063 277.316 75.1463C281.33 75.7134 286.422 73.4391 286.278 69.3855C283.569 68.4794 280.676 68.1254 277.829 68.3534C276.956 63.0847 270.376 59.6702 265.569 61.9895C265.647 65.617 267.339 69.1815 270.103 71.5338C267.372 73.9222 263.106 74.3542 259.952 72.557C258.455 71.7048 257.078 70.3697 255.356 70.3607C253.508 70.3517 251.104 71.6868 250.165 70.0936" fill="#D4DEEF"/>
<path d="M260.396 46.3573C253.621 45.5502 246.624 46.7143 240.477 49.6697C243.798 51.1699 247.122 52.6671 250.444 54.1673C251.2 54.5094 251.989 54.8574 252.817 54.8424C253.549 54.8304 254.245 54.5364 254.921 54.2453C258.122 52.8711 261.326 51.494 264.528 50.1168C263.973 49.3037 263.418 48.4935 262.863 47.6804C264.291 48.6496 266.448 47.2394 266.541 45.5172C266.634 43.7919 265.179 42.2767 263.532 41.7667C261.881 41.2566 260.096 41.5356 258.416 41.9347C256.463 42.3997 254.545 43.0208 252.691 43.7949C253.666 45.8412 255.593 47.4074 257.792 47.9445C257.828 48.7516 257.864 49.5587 257.9 50.3688" fill="#D4DEEF"/>
<path d="M307.754 47.3722C306.281 47.4472 305.405 45.6979 305.339 44.2247C305.273 42.7515 305.594 41.1643 304.865 39.8802C303.077 36.7207 298.234 39.0611 294.652 38.485C292.521 38.1429 290.769 36.6547 288.747 35.9046C286.725 35.1545 283.856 35.5746 283.274 37.6509C282.623 39.9732 285.467 41.8424 287.88 41.8904C290.292 41.9384 292.779 41.0803 295.072 41.8454C295.501 41.9894 295.927 42.1995 296.197 42.5595C297.901 44.8338 291.777 46.4961 292.341 49.2804C292.62 50.6486 294.334 51.0777 295.72 51.2247C297.781 51.4467 299.842 51.6657 301.904 51.8878C304.049 52.1188 306.425 52.2898 308.15 50.9937C309.876 49.6975 309.918 46.343 307.823 45.824" fill="#D4DEEF"/>
<path d="M318.664 69.1283C319.867 67.7241 319.132 65.3808 317.625 64.3066C316.119 63.2295 314.154 63.0945 312.306 63.0824C306.908 63.0464 301.504 63.7395 296.293 65.1407C294.678 65.5758 293.001 66.0799 291.366 65.7318C289.731 65.3838 288.215 63.8266 288.578 62.1943C286.346 64.7057 289.031 68.8792 292.278 69.7464C295.524 70.6135 298.963 69.6113 302.317 69.7914C305.672 69.9714 309.518 72.2787 309.164 75.6211C309.08 76.4193 308.762 77.2564 309.089 77.9885C309.482 78.8616 310.601 79.1256 311.559 79.0806C316.026 78.8706 319.444 73.6049 317.817 69.4403C316.743 69.6083 315.597 68.9843 315.15 67.9941C317.109 67.223 318.642 65.4468 319.12 63.3945C315.474 62.0173 311.223 62.3474 307.835 64.2706" fill="#D4DEEF"/>
<path d="M316.769 87.6104C318.626 86.2602 317.399 82.9418 315.197 82.2907C312.994 81.6396 310.669 82.8068 308.851 84.2079C308.737 86.0952 308.62 87.9825 308.506 89.8727C306.327 89.4107 303.969 89.8697 302.121 91.1149C305.34 91.976 307.984 94.7184 308.719 97.9708C305.655 100.071 300.801 98.5979 299.423 95.1444C298.784 93.5392 298.553 91.3819 296.909 90.8509C294.587 90.0978 293.231 93.7762 294.302 95.9695C297.137 101.769 305.769 101.391 310.588 105.688C312.319 107.233 314.947 109.438 316.415 107.641C317.582 106.213 316.064 104.191 314.65 103.002C316.358 103.218 318.173 103.375 319.721 102.627C321.269 101.88 322.343 99.8851 321.503 98.3849C321.068 97.6048 320.246 97.1397 319.547 96.5786C316.994 94.5203 316.067 90.6798 317.402 87.6824C316.481 87.2954 315.563 86.9053 314.641 86.5183" fill="#D4DEEF"/>
<path d="M401.322 72.23C395.489 68.7255 388.252 67.6454 381.652 69.2926C376.881 70.4838 372.422 73.0281 367.517 73.3732C360.346 73.8742 353.487 69.3766 349.577 63.3458C355.011 59.6223 362.959 66.9253 368.684 63.6668C370.334 62.7277 371.48 61.0235 373.214 60.2554C374.985 59.4693 377.025 59.7963 378.933 60.1384C388.102 61.7796 397.275 63.4238 406.444 65.065C407.524 61.1435 404.173 56.6609 400.104 56.5859C404.908 54.6506 409.714 52.7154 414.518 50.7801C416.942 49.805 419.538 48.6828 420.861 46.4295C422.181 44.1732 421.245 40.5157 418.653 40.1887C429.715 36.3392 440.432 31.5025 450.637 25.7507C449.611 23.9745 448.582 22.1982 447.555 20.422C454.651 21.1541 462.005 18.9818 467.568 14.5142C459.602 13.8571 451.522 14.6132 443.817 16.7345C457.07 18.4057 470.791 16.1764 482.831 10.3976C478.505 6.62614 470.632 11.5348 466.368 7.69128C465.09 6.53912 464.457 4.79888 463.155 3.67372C461.552 2.29054 459.275 2.09852 457.163 1.98451C435.536 0.826351 413.816 1.43844 392.288 3.81476C388.735 4.20781 384.256 5.579 384.052 9.14648C378.897 8.93345 373.742 8.72041 368.588 8.50738C364.879 13.5031 357.576 15.4413 351.878 12.945C350.588 14.9883 349.301 17.0315 348.014 19.0778C351.614 21.5591 356.115 22.6993 360.46 22.2342C363.118 27.71 371.732 28.9101 375.786 24.3705C377.589 30.5754 386.866 29.4112 392.372 26.0268C397.875 22.6423 404.944 18.3217 410.098 22.2162C403.251 27.5149 394.478 30.2603 385.831 29.8103C387.997 32.4146 390.161 35.022 392.327 37.6293C387.016 37.9564 382.306 34.5809 377.658 31.9856C373.01 29.3902 366.923 27.566 362.629 30.7104C366.511 33.8758 370.391 37.0412 374.274 40.2097C363.577 34.5749 352.884 28.9432 342.187 23.3084C339.052 21.6582 335.427 19.9629 332.106 21.1961C328.784 22.4293 327.785 28.232 331.203 29.1652C328.553 29.6512 326.27 31.7635 325.586 34.3709C331.923 34.8809 338.155 36.6422 343.819 39.5256C341.152 40.3807 338.488 41.2388 335.82 42.0939C341.911 44.0772 348.002 46.0605 354.096 48.0467C355.338 48.4518 356.754 48.8418 357.897 48.2117C359.046 47.5757 359.461 46.1685 360.103 45.0193C362.017 41.5899 366.932 40.2697 370.304 42.2799C369.53 44.1192 368.756 45.9554 367.985 47.7947C370.862 47.8127 373.739 47.8277 376.62 47.8457C376.668 49.4239 376.716 51.0051 376.764 52.5833C380.937 53.2284 385.228 53.1084 389.36 52.2323C387.847 57.8281 379.725 58.3201 374.661 55.5057C369.596 52.6884 365.602 47.8607 360.025 46.2825C361.804 50.4441 364.654 54.1435 368.228 56.9249C360.787 55.7278 353.043 56.4659 345.962 59.0522C345.269 57.561 344.579 56.0668 343.885 54.5756C338.065 56.9909 338.941 65.4191 340.837 71.4289C341.395 73.1931 341.977 75.0054 343.147 76.4396C345.8 79.689 350.537 80.064 354.729 80.1871C361.039 80.3671 367.349 80.5501 373.658 80.7302C382.441 80.9702 401.658 85.0987 401.322 72.23Z" fill="#D4DEEF"/>
<path d="M332.102 65.4433C333.831 64.2492 336.96 65.2573 337.758 63.313C338.358 61.8488 336.798 60.4566 335.418 59.6825C334.038 58.9084 332.396 57.7053 332.774 56.1691C331.544 56.3431 330.257 56.076 329.198 55.431C331.835 54.7379 334.473 54.0418 337.11 53.3487C338.115 53.0846 339.39 52.1755 338.796 51.3234C338.592 51.0324 338.226 50.9064 337.881 50.8194C336.246 50.3993 334.467 50.3453 333.032 49.4572C331.598 48.569 330.794 46.3397 332.045 45.2056C331.142 45.1246 330.236 45.0436 329.333 44.9596C329.294 44.2425 329.255 43.5224 329.216 42.8053C324.541 42.6792 319.873 42.2982 315.237 41.6621C314.559 44.7885 317.568 48.122 320.749 47.7679C321.262 47.7109 321.832 47.5879 322.258 47.8819C322.636 48.143 322.75 48.638 322.948 49.0551C323.545 50.2943 325.198 50.8914 326.45 50.3183C326.084 51.2184 325.462 52.0165 324.679 52.5926C326.189 53.3967 327.848 53.9158 329.546 54.1198C328.208 55.1819 326.627 55.932 324.955 56.2951C325.643 56.8532 326.333 57.4112 327.02 57.9693C325.255 58.0053 323.491 58.0383 321.727 58.0743C321.19 59.7336 322.807 61.3268 324.427 61.9718C326.222 62.6859 334.95 68.2427 329.714 70.721C326.741 72.1282 325.495 67.2226 326.546 65.3473C328.208 69.1908 327.701 74.5496 330.614 77.913C332.738 80.3643 335.973 80.8204 338.037 77.586C341.611 71.9932 332.966 70.316 332.102 65.4433Z" fill="#D4DEEF"/>
<path d="M384.372 498.291C382.298 503.848 388.983 510.338 394.477 508.096C396.061 507.451 397.441 506.275 399.128 505.978C403.847 505.153 406.56 511.091 407.559 515.777C408.702 521.139 409.818 526.867 407.82 531.971C405.425 538.088 398.873 542.358 398.105 548.884C397.477 554.216 400.994 559.718 399.188 564.774C398.369 567.066 396.544 568.887 395.686 571.168C394.147 575.251 395.986 579.758 397.792 583.73C403.805 596.935 409.818 610.14 415.831 623.342C417.184 626.312 418.633 629.406 421.226 631.386C423.29 632.961 425.885 633.672 428.073 635.067C431.649 637.345 433.833 641.218 435.877 644.933C439.654 651.804 443.48 658.801 445.094 666.473C447.296 676.938 445.223 687.776 443.15 698.268C440.119 713.609 437.086 728.95 434.055 744.294C430.719 761.171 427.385 778.052 424.049 794.929C427.616 792.766 430.266 789.138 431.238 785.082C432.939 796.057 430.776 807.591 425.21 817.201C424.727 813.057 424.244 808.914 423.761 804.77C419.68 813.577 417.574 823.292 417.64 832.998C417.652 834.744 417.802 836.659 419.014 837.916C420.166 839.11 421.952 839.374 423.422 840.142C426.614 841.813 427.983 846.254 426.284 849.431C427.974 849.821 429.663 850.212 431.349 850.605C433.965 852.675 427.791 855.576 427.818 858.913C427.827 860.269 428.928 861.334 429.945 862.231C434.721 866.441 439.498 870.647 444.275 874.857C447.602 875.841 451.062 876.834 454.491 876.3C457.918 875.766 461.299 873.237 461.617 869.783C462.052 865.04 457.12 861.871 453.93 858.334C448.979 852.843 447.773 844.766 449.021 837.478C450.27 830.193 453.663 823.475 457.014 816.886C454.848 816.07 452.682 815.254 450.516 814.441C450.675 809.574 455.64 806.556 458.779 802.832C464.482 796.066 463.855 784.866 457.432 778.775C459.808 777.101 462.184 775.426 464.561 773.752C466.511 776.87 468.461 779.984 470.411 783.098C475.287 779.186 477.111 771.91 474.663 766.161C485.71 768.993 498.192 759.941 498.933 748.564C496.2 748.471 494.039 745.329 494.931 742.743C495.822 740.157 499.458 739.013 501.669 740.625C500.451 743.784 504.058 747.229 507.418 746.818C510.779 746.403 513.293 743.385 514.424 740.193C515.555 737 515.651 733.55 516.279 730.222C517.287 724.885 519.702 719.82 523.215 715.676C526.138 712.232 529.876 709.297 531.581 705.115C532.829 702.052 532.838 698.652 533.366 695.388C535.094 684.736 542.946 675.3 553.105 671.666C553.525 676.428 561.045 675.444 564.57 672.218C569.839 667.397 573.394 660.739 574.471 653.679C575.413 647.483 574.579 640.798 577.511 635.262C578.753 632.919 580.631 630.879 581.342 628.322C581.951 626.132 581.63 623.807 581.75 621.539C582.392 609.354 595.447 599.735 593.926 587.631C592.939 579.77 586.101 574.138 579.782 569.362C570.13 562.065 559.868 554.512 547.864 553.015C540.24 552.064 532.034 553.567 525.181 550.096C528.229 549.91 530.392 546.726 530.545 543.678C530.698 540.627 529.381 537.719 528.088 534.95C527.218 533.081 526.345 531.208 525.472 529.339C521.931 521.745 516.125 512.831 507.832 514.022C505.363 514.376 502.66 515.615 500.556 514.274C498.63 513.044 498.417 510.368 497.373 508.336C493.283 500.379 477.783 503.626 475.434 494.99C474.822 492.74 475.332 490.013 473.715 488.336C472.404 486.973 470.27 486.949 468.38 487.021C459.808 487.336 451.233 487.655 442.661 487.97C442.372 491.333 440.176 494.468 437.11 495.885C437.557 497.859 438.004 499.83 438.451 501.804C437.749 505.309 431.856 504.88 430.317 501.654C428.775 498.429 430.263 494.6 432.075 491.516C433.887 488.435 436.108 485.293 436.06 481.717C432.168 479.859 428.232 483.904 425.423 487.174C422.615 490.445 417.112 493.283 414.538 489.824C414.868 493.382 415.201 496.944 415.531 500.502C410.004 505.327 400.046 503.218 396.949 496.566C394.813 499.206 392.464 501.99 389.193 502.912C385.923 503.833 381.644 501.78 381.656 498.384C383.328 505.729 390.592 511.385 398.123 511.205" fill="#D4DEEF"/>
<path d="M376.57 427.913C379.19 430.55 383.237 426.581 386.925 426.122C390.486 425.678 393.406 428.672 396.079 431.07C398.752 433.467 402.92 435.48 405.698 433.209C407.03 438.763 414.751 441.535 419.311 438.097C418.897 440.056 421.477 441.397 423.452 441.049C425.426 440.704 427.184 439.459 429.182 439.315C432.069 439.105 434.856 441.667 434.895 444.559C434.958 445.619 433.473 446.009 432.447 445.742C431.421 445.474 430.281 444.943 429.374 445.499C428.738 445.889 428.492 446.678 428.051 447.278C426.443 449.468 423.062 448.634 420.493 447.749C417.925 446.861 414.27 446.609 413.292 449.141C421.357 450.734 429.756 450.611 437.77 448.778C437.11 449.408 437.596 450.626 438.43 450.998C439.264 451.367 440.227 451.16 441.115 450.947C444.536 450.125 447.956 449.303 451.379 448.478C453.438 449.726 456.189 449.735 458.253 448.499C458.112 449.438 457.968 450.38 457.827 451.319C461.845 453.06 467.03 451.394 469.283 447.641C463.591 446.699 457.902 445.757 452.211 444.814C448.127 444.139 443.938 443.425 440.374 441.328C436.857 439.258 434.064 435.906 430.182 434.646C424.763 432.888 418.54 435.645 413.271 433.479C408.168 431.379 404.96 425.03 399.445 424.928C397.654 424.895 395.761 425.558 394.132 424.811C390.003 422.914 390.546 418.999 385.196 421.039C384.188 421.42 377.47 428.819 376.57 427.913Z" fill="#D4DEEF"/>
<path d="M833.778 319.982C831.179 325.335 830 331.294 831.023 337.145C832.782 347.223 840.604 356.539 838.398 366.537C834.987 365.646 831.576 364.752 828.164 363.887" fill="#D4DEEF"/>
<path d="M870.438 185.093C870.228 185.723 869.964 186.326 869.703 186.929L870.438 185.093Z" fill="#D4DEEF"/>
<path d="M871.087 181.106C871.036 178.69 870.01 176.434 868.438 174.544L871.087 181.106Z" fill="#D4DEEF"/>
<path d="M442.291 286.645C442.291 301.913 414.645 335.237 414.645 335.237C414.645 335.237 387 301.913 387 286.645C387 271.378 399.378 259 414.645 259C429.913 259 442.291 271.378 442.291 286.645Z" fill="#43BCCD"/>
<path d="M415 357.236C419.418 357.236 423 353.655 423 349.236C423 344.818 419.418 341.236 415 341.236C410.582 341.236 407 344.818 407 349.236C407 353.655 410.582 357.236 415 357.236Z" fill="#7998CD"/>
<path d="M1426.29 656.645C1426.29 671.913 1398.65 705.237 1398.65 705.237C1398.65 705.237 1371 671.911 1371 656.645C1371 641.378 1383.38 629 1398.65 629C1413.91 629 1426.29 641.378 1426.29 656.645Z" fill="#A0C261"/>
<path d="M1399.04 727.313C1403.48 727.313 1407.08 723.714 1407.08 719.275C1407.08 714.835 1403.48 711.236 1399.04 711.236C1394.6 711.236 1391 714.835 1391 719.275C1391 723.714 1394.6 727.313 1399.04 727.313Z" fill="#7998CD"/>
<path d="M990.291 347.645C990.291 362.913 962.645 396.239 962.645 396.239C962.645 396.239 935 362.913 935 347.645C935 332.378 947.378 320 962.645 320C977.913 320 990.291 332.378 990.291 347.645Z" fill="#662E9B"/>
<path d="M963.038 418.316C967.478 418.316 971.077 414.717 971.077 410.278C971.077 405.838 967.478 402.239 963.038 402.239C958.599 402.239 955 405.838 955 410.278C955 414.717 958.599 418.316 963.038 418.316Z" fill="#7998CD"/>
</svg>
