<svg width="168" height="160" viewBox="0 0 168 160" fill="none" xmlns="http://www.w3.org/2000/svg">
<g clip-path="url(#clip0_221_1742)">
<path d="M131.33 56.721C131.33 57.0779 131.289 57.4435 131.202 57.8092L127.587 73.1922C127.075 75.3793 124.883 76.7335 122.698 76.2165L108.211 71.7212L107.503 71.5027C106.679 72.0997 105.528 72.3745 104.326 72.1625C102.223 71.7904 100.767 70.0793 101.074 68.3378C101.381 66.5985 103.335 65.4888 105.438 65.8587C106.64 66.0707 107.629 66.7218 108.2 67.5634L108.211 67.5655L108.248 67.572L120.857 69.1318L121.917 56.3424C122.119 53.8979 124.161 52.0181 126.614 52.0181C129.275 52.0181 131.33 54.1922 131.33 56.721Z" fill="#ED9DA0"/>
<path d="M131.329 56.721C131.329 57.0779 131.288 57.4435 131.202 57.8092L128.236 73.8412C127.723 76.0283 125.532 77.3825 123.347 76.8655L108.859 72.8374L109.508 66.5639L120.541 68.0782L121.917 56.3424C122.118 53.8979 124.16 52.0181 126.613 52.0181C129.274 52.0181 131.329 54.1922 131.329 56.721Z" fill="#2F2E43"/>
<path d="M0 159.801H13.106H24.7554H25.2237H35.4792H105.711H122.424H167.052" stroke="#090814" stroke-width="1.5" stroke-miterlimit="10"/>
<path d="M150.145 141.199L146.646 143.779L149.225 147.278L152.725 144.698L150.145 141.199Z" fill="#ED9DA0"/>
<path d="M154.475 148.322L147.037 153.806C146.401 154.274 145.655 154.6 144.879 154.747L143.021 155.098C142.637 155.171 142.239 155.015 142.007 154.7C141.735 154.331 141.743 153.822 142.026 153.461L144.278 150.593L147.242 144.481L147.26 144.497C147.688 144.888 148.339 145.478 148.388 145.506C149.303 145.709 150.006 145.595 150.477 145.168C151.299 144.423 151.133 142.962 151.132 142.948L151.13 142.936L151.14 142.931C151.364 142.799 151.58 142.769 151.781 142.843C152.209 142.999 152.432 143.561 152.464 143.647C152.882 143.705 153.968 144.951 154.056 145.052C154.681 145.165 155.111 145.399 155.335 145.749C155.53 146.055 155.568 146.444 155.447 146.907C155.302 147.464 154.957 147.967 154.475 148.322Z" fill="#2F2E43"/>
<path d="M120.137 151.41H115.79V155.757H120.137V151.41Z" fill="#ED9DA0"/>
<path d="M119.395 159.712H110.154C109.364 159.712 108.571 159.531 107.859 159.189L106.155 158.37C105.803 158.2 105.575 157.839 105.575 157.448C105.575 156.989 105.884 156.584 106.325 156.462L109.84 155.489L115.853 152.329L115.857 152.351C115.97 152.921 116.144 153.781 116.166 153.833C116.783 154.54 117.416 154.865 118.049 154.801C119.152 154.689 119.886 153.415 119.893 153.402L119.899 153.392L119.91 153.393C120.169 153.42 120.36 153.524 120.478 153.703C120.73 154.083 120.577 154.667 120.551 154.756C120.853 155.051 120.988 156.698 120.998 156.831C121.434 157.293 121.642 157.737 121.614 158.151C121.59 158.513 121.389 158.849 121.018 159.15C120.57 159.512 119.994 159.712 119.395 159.712Z" fill="#2F2E43"/>
<path d="M137.876 83.4509H117.04L113.719 152.573H121.056L125.797 121.154L144.821 146.289L151.766 140.005L137.876 121.154V83.4509Z" fill="#2F2E43"/>
<path d="M132.512 38.0247C132.512 38.0247 138.253 38.0123 136.108 32.481C133.964 26.9496 129.971 29.4263 129.971 29.4263C129.971 29.4263 128.288 30.3151 128.635 32.298" fill="#2F2E43"/>
<path d="M133.086 40.6779C133.086 36.437 129.648 32.999 125.407 32.999C121.167 32.999 117.729 36.437 117.729 40.6779C117.729 44.1173 119.99 47.0282 123.107 48.0057L124.591 57.8162L132.159 51.5099C132.159 51.5099 130.524 49.4276 129.647 47.0796C131.719 45.7044 133.086 43.3512 133.086 40.6779Z" fill="#ED9DA0"/>
<path d="M129.097 47.1647C129.097 47.1647 130.117 43.2551 128.45 41.4575C126.786 39.664 126.571 42.4546 126.571 42.4546L125.371 42.1937C125.371 42.1937 125.58 39.4798 123.231 39.0101L124.744 35.7742C124.744 35.7742 118.95 36.8993 118.79 36.3381C117.533 31.9222 129.522 28.1499 132.834 34.887C137.985 45.3654 129.097 47.1647 129.097 47.1647Z" fill="#2F2E43"/>
<path d="M133.3 73.9753L136.703 84.0033L117.45 83.787L120.321 74.6243L133.3 73.9753Z" fill="#ED9DA0"/>
<path d="M131.562 48.5237L123.024 51.4919L114.952 93.1621L131.562 95.19L132.773 88.8367L133.928 95.19H139.681L133.478 53.7521C133.2 51.8974 132.548 50.1185 131.562 48.5237Z" fill="#6C63FF"/>
<path d="M129.169 97.4854L129.317 90.6361L125.318 90.5493L125.17 97.3987C124.423 98.0913 123.931 99.1676 123.904 100.388C123.858 102.523 125.253 104.285 127.02 104.323C128.787 104.361 130.257 102.662 130.303 100.527C130.33 99.3064 129.884 98.2098 129.169 97.4854Z" fill="#ED9DA0"/>
<path d="M123.647 63.2041V96.4036H130.593L132.645 63.4844" fill="#2F2E43"/>
<path d="M137.633 98.4179C137.512 98.4179 137.39 98.4136 137.267 98.4043C135.808 98.2946 134.552 97.5121 133.535 96.0789C129.706 90.6837 121.985 72.8296 121.985 67.7525C121.985 62.9006 123.042 51.7807 123.078 51.614L130.876 47.2966C134.617 48.1749 137.221 51.6007 137.068 55.4425C136.694 64.8288 137.656 86.2259 143.953 95.0929L144.004 95.1661L143.942 95.2307C143.812 95.3655 140.83 98.4179 137.633 98.4179Z" fill="#2F2E43"/>
<path d="M93.1259 160H40.7096C33.8798 160 28.3232 154.444 28.3232 147.614V12.3863C28.3232 5.55645 33.8798 0 40.7096 0H93.1259C99.9558 0 105.512 5.55645 105.512 12.3863V147.614C105.512 154.444 99.9558 160 93.1259 160Z" fill="#2F2E41"/>
<path d="M93.1794 156.657H40.6563C35.5316 156.657 31.3623 152.488 31.3623 147.363V11.877C31.3623 6.75235 35.5316 2.58301 40.6563 2.58301H93.1794C98.3041 2.58301 102.473 6.75234 102.473 11.877V147.363C102.473 152.488 98.3041 156.657 93.1794 156.657Z" fill="white"/>
<path d="M75.123 11.396H58.4088C56.4818 11.396 54.9141 9.82835 54.9141 7.90127C54.9141 5.97419 56.4818 4.40649 58.4088 4.40649H75.123C77.0501 4.40649 78.6178 5.97419 78.6178 7.90127C78.6178 9.82835 77.0501 11.396 75.123 11.396Z" fill="#2F2E41"/>
<path d="M43.248 37.8379H61.2725" stroke="#090814" stroke-width="2" stroke-miterlimit="10"/>
<path d="M43.248 44.6697H81.1635" stroke="#090814" stroke-width="2" stroke-miterlimit="10"/>
<path d="M43.248 41.5955H97.5593" stroke="#090814" stroke-width="2" stroke-miterlimit="10"/>
<path d="M39.1484 42.6201C40.8463 42.6201 42.2227 41.2438 42.2227 39.5459C42.2227 37.8481 40.8463 36.4717 39.1484 36.4717C37.4506 36.4717 36.0742 37.8481 36.0742 39.5459C36.0742 41.2438 37.4506 42.6201 39.1484 42.6201Z" fill="#6C63FF"/>
<path d="M43.248 58.0627H61.2725" stroke="#090814" stroke-width="2" stroke-miterlimit="10"/>
<path d="M43.248 64.8945H81.1635" stroke="#090814" stroke-width="2" stroke-miterlimit="10"/>
<path d="M43.248 61.8203H97.5593" stroke="#090814" stroke-width="2" stroke-miterlimit="10"/>
<path d="M39.1484 62.845C40.8463 62.845 42.2227 61.4686 42.2227 59.7708C42.2227 58.0729 40.8463 56.6965 39.1484 56.6965C37.4506 56.6965 36.0742 58.0729 36.0742 59.7708C36.0742 61.4686 37.4506 62.845 39.1484 62.845Z" fill="#6C63FF"/>
<path d="M43.248 78.2876H61.2725" stroke="#090814" stroke-width="2" stroke-miterlimit="10"/>
<path d="M43.248 85.1191H81.1635" stroke="#090814" stroke-width="2" stroke-miterlimit="10"/>
<path d="M43.248 82.0449H97.5593" stroke="#090814" stroke-width="2" stroke-miterlimit="10"/>
<path d="M39.1484 83.0698C40.8463 83.0698 42.2227 81.6935 42.2227 79.9956C42.2227 78.2978 40.8463 76.9214 39.1484 76.9214C37.4506 76.9214 36.0742 78.2978 36.0742 79.9956C36.0742 81.6935 37.4506 83.0698 39.1484 83.0698Z" fill="#6C63FF"/>
</g>
<defs>
<clipPath id="clip0_221_1742">
<rect width="167.052" height="160" fill="white"/>
</clipPath>
</defs>
</svg>
