<svg width="20" height="26" viewBox="0 0 20 26" fill="none" xmlns="http://www.w3.org/2000/svg">
<path d="M5.17915 0.305662C5.87928 0.094569 6.6306 0.129639 7.30802 0.405033C7.98544 0.680427 8.54811 1.17953 8.90235 1.81926L9.02075 2.05766L10.08 4.41126C10.4008 5.12576 10.5048 5.91873 10.3791 6.69181C10.2534 7.46488 9.90345 8.18403 9.37275 8.76006L9.15995 8.97126L7.49115 10.5281C7.19035 10.8129 7.41595 11.9153 8.50395 13.8001C9.48315 15.4961 10.28 16.2881 10.672 16.3313H10.7408L10.8256 16.3153L14.1056 15.3121C14.5464 15.1769 15.0168 15.1715 15.4606 15.2967C15.9044 15.4218 16.3027 15.6721 16.608 16.0177L16.7536 16.2017L18.9248 19.2097C19.3503 19.7992 19.5623 20.5162 19.526 21.2424C19.4896 21.9686 19.207 22.6607 18.7248 23.2049L18.5296 23.4065L17.6624 24.2289C16.8836 24.9663 15.9095 25.4647 14.8558 25.6646C13.8021 25.8646 12.7131 25.7578 11.7184 25.3569C8.62235 24.1089 5.80955 21.2577 3.25435 16.8321C0.694353 12.3953 -0.369647 8.52806 0.105553 5.21606C0.249351 4.21489 0.661617 3.27135 1.29857 2.48566C1.93552 1.69996 2.77338 1.10144 3.72315 0.753662L4.03195 0.651262L5.17915 0.305662Z" fill="#EEE6FB"/>
</svg>
