<svg width="25" height="33" viewBox="0 0 25 33" fill="none" xmlns="http://www.w3.org/2000/svg">
<path d="M6.97388 1.13202C7.84904 0.86815 8.78818 0.911987 9.63496 1.25623C10.4817 1.60047 11.1851 2.22435 11.6279 3.02402L11.7759 3.32202L13.0999 6.26402C13.5009 7.15714 13.6309 8.14836 13.4738 9.1147C13.3166 10.081 12.8792 10.98 12.2159 11.7L11.9499 11.964L9.86388 13.91C9.48788 14.266 9.76988 15.644 11.1299 18C12.3539 20.12 13.3499 21.11 13.8399 21.164H13.9259L14.0319 21.144L18.1319 19.89C18.6829 19.721 19.2709 19.7143 19.8257 19.8708C20.3804 20.0272 20.8783 20.3401 21.2599 20.772L21.4419 21.002L24.1559 24.762C24.6878 25.499 24.9528 26.3952 24.9074 27.3029C24.8619 28.2106 24.5087 29.0758 23.9059 29.756L23.6619 30.008L22.5779 31.036C21.6045 31.9579 20.3868 32.5808 19.0697 32.8307C17.7525 33.0807 16.3913 32.9472 15.1479 32.446C11.2779 30.886 7.76188 27.322 4.56788 21.79C1.36788 16.244 0.0378799 11.41 0.63188 7.27002C0.811627 6.01855 1.32696 4.83913 2.12315 3.85701C2.91934 2.87489 3.96666 2.12674 5.15388 1.69202L5.53988 1.56402L6.97388 1.13202Z" fill="#15138C"/>
</svg>
