<svg width="40" height="40" viewBox="0 0 40 40" fill="none" xmlns="http://www.w3.org/2000/svg">
<path d="M3.77634 1.16215C5.9086 -0.0313173 8.62761 -0.310958 11.2268 0.348195C12.4926 0.667785 13.5738 1.48923 14.2229 2.62028L16.465 6.53025C17.2642 7.9242 17.495 9.57262 17.1094 11.1324C16.7239 12.6923 15.7517 14.0433 14.3952 14.9045L12.4227 16.1579C11.6063 16.6747 11.3067 17.4662 11.4939 18.0929C12.1631 20.335 13.6437 22.8218 15.2716 24.5246C15.7559 25.034 16.6448 25.1538 17.5137 24.647L18.6048 24.0103C19.3207 23.593 20.1126 23.3224 20.9342 23.2144C21.7558 23.1063 22.5907 23.1629 23.3902 23.3809C24.1897 23.5989 24.9378 23.974 25.5908 24.4841C26.2438 24.9943 26.7887 25.6293 27.1938 26.3523L29.2037 29.9352C29.8603 31.1087 29.9677 32.5094 29.5033 33.7703C28.577 36.2745 26.7918 38.2944 24.5971 39.3056C22.3675 40.3318 19.7583 40.2894 17.3963 38.7139C13.6561 36.2221 9.14944 32.0275 5.06718 25.0315C0.932491 17.9406 -0.108671 11.9058 0.00867834 7.40663C0.0835821 4.52783 1.60663 2.37559 3.77634 1.16215ZM26.7269 0.213369C26.5836 0.133693 26.426 0.0830196 26.2631 0.0642417C26.1003 0.0454638 25.9353 0.0589493 25.7776 0.103928C25.62 0.148907 25.4727 0.224497 25.3443 0.326385C25.2158 0.428272 25.1087 0.554461 25.029 0.697746C24.9494 0.841031 24.8987 0.998607 24.8799 1.16148C24.8611 1.32434 24.8746 1.48932 24.9196 1.64697C24.9646 1.80463 25.0402 1.95188 25.1421 2.08033C25.2439 2.20877 25.3701 2.31589 25.5134 2.39557L26.4722 2.92988C29.4674 4.59375 32.0152 6.95808 33.8978 9.82079C35.7805 12.6835 36.9421 15.9595 37.2833 19.3688L37.3632 20.1553C37.3726 20.3236 37.416 20.4883 37.4908 20.6394C37.5657 20.7905 37.6703 20.9248 37.7984 21.0344C37.9266 21.1439 38.0756 21.2264 38.2365 21.2768C38.3974 21.3272 38.5668 21.3445 38.7346 21.3276C38.9024 21.3107 39.0649 21.26 39.2126 21.1786C39.3602 21.0972 39.4898 20.9867 39.5936 20.8538C39.6973 20.7209 39.7731 20.5684 39.8163 20.4054C39.8595 20.2424 39.8693 20.0724 39.845 19.9056L39.7676 19.1216C39.3867 15.3104 38.0885 11.6483 35.984 8.44809C33.8795 5.24792 31.0314 2.60497 27.6831 0.745186L26.7269 0.213369ZM23.8006 6.90477C23.9712 6.62107 24.2474 6.41671 24.5686 6.33665C24.8898 6.25658 25.2297 6.30736 25.5134 6.47782L25.823 6.66258C27.8384 7.87091 29.5674 9.50249 30.8904 11.4445C32.2134 13.3866 33.0989 15.5928 33.4857 17.9106L33.5955 18.5773C33.6279 18.7412 33.627 18.91 33.593 19.0736C33.5589 19.2372 33.4923 19.3923 33.3972 19.5297C33.3021 19.6671 33.1804 19.784 33.0393 19.8735C32.8981 19.9629 32.7405 20.0232 32.5756 20.0506C32.4108 20.078 32.2421 20.0721 32.0796 20.0331C31.9171 19.9941 31.7641 19.9229 31.6296 19.8237C31.4951 19.7245 31.382 19.5993 31.2968 19.4555C31.2116 19.3117 31.1561 19.1523 31.1337 18.9868L31.0213 18.3226C30.695 16.3613 29.9466 14.4942 28.8279 12.8505C27.7092 11.2068 26.247 9.82554 24.5422 8.80233L24.2326 8.61757C24.0919 8.53333 23.9692 8.42219 23.8714 8.29051C23.7737 8.15883 23.7029 8.00919 23.663 7.85014C23.6231 7.69108 23.615 7.52572 23.639 7.36352C23.6631 7.20131 23.7163 7.04543 23.8006 6.90477Z" fill="#EF9D33"/>
</svg>
