<svg width="120" height="120" viewBox="0 0 120 120" fill="none" xmlns="http://www.w3.org/2000/svg">
<rect x="0.5" y="0.5" width="119" height="119" rx="59.5" stroke="white"/>
<path d="M42.612 68.072C41.876 68.456 41.092 68.648 40.26 68.648C39.236 68.52 38.244 68.264 37.284 67.88C36.356 67.496 35.668 67.032 35.22 66.488C34.964 64.92 34.756 63.48 34.596 62.168C34.436 60.856 34.308 59.624 34.212 58.472C34.116 57.288 34.052 56.168 34.02 55.112C33.988 54.024 33.972 52.936 33.972 51.848C33.972 50.408 33.988 48.888 34.02 47.288C34.052 45.688 34.084 43.992 34.116 42.2C34.18 40.376 34.228 38.44 34.26 36.392C34.292 34.312 34.308 32.056 34.308 29.624C34.724 29.624 35.348 29.752 36.18 30.008C37.012 30.232 37.828 30.504 38.628 30.824C39.46 31.144 40.196 31.48 40.836 31.832C41.476 32.152 41.828 32.424 41.892 32.648C41.572 33.544 41.284 34.712 41.028 36.152C40.804 37.592 40.612 39.192 40.452 40.952C40.324 42.712 40.228 44.568 40.164 46.52C40.1 48.472 40.068 50.408 40.068 52.328C40.068 53.768 40.084 55.064 40.116 56.216C40.148 57.336 40.18 58.36 40.212 59.288C40.276 60.184 40.356 61.032 40.452 61.832C40.548 62.6 40.66 63.368 40.788 64.136C41.684 61.416 42.66 58.696 43.716 55.976C44.804 53.256 45.908 50.648 47.028 48.152C48.18 45.624 49.316 43.272 50.436 41.096C51.556 38.92 52.612 37.032 53.604 35.432C54.628 33.8 55.54 32.52 56.34 31.592C57.14 30.632 57.796 30.12 58.308 30.056C58.66 30.12 59.028 30.264 59.412 30.488C59.828 30.68 60.212 30.92 60.564 31.208C60.916 31.496 61.236 31.816 61.524 32.168C61.812 32.52 62.036 32.872 62.196 33.224C61.012 33.64 59.732 34.616 58.356 36.152C57.012 37.688 55.652 39.544 54.276 41.72C52.9 43.864 51.556 46.216 50.244 48.776C48.964 51.304 47.796 53.784 46.74 56.216C45.716 58.648 44.836 60.92 44.1 63.032C43.364 65.144 42.868 66.824 42.612 68.072ZM76.1407 68.552C76.0768 68.584 76.0128 68.6 75.9488 68.6C75.8848 68.6 75.7568 68.6 75.5648 68.6C75.1168 68.6 74.5888 68.52 73.9808 68.36C73.4048 68.232 72.8288 68.056 72.2528 67.832C71.7088 67.64 71.2288 67.416 70.8128 67.16C70.4288 66.904 70.1888 66.68 70.0928 66.488C70.0608 66.04 70.0448 65.576 70.0448 65.096C70.0448 64.616 70.0448 64.152 70.0448 63.704C70.0448 60.12 70.3008 56.376 70.8128 52.472C71.3568 48.568 72.2368 44.344 73.4528 39.8C73.5808 39.352 73.7088 38.792 73.8368 38.12C73.9968 37.416 74.1568 36.664 74.3168 35.864C73.5488 36.472 72.6368 37.448 71.5808 38.792C70.5248 40.104 69.4048 41.672 68.2208 43.496C67.0688 45.288 65.9008 47.272 64.7168 49.448C63.5648 51.592 62.5088 53.784 61.5488 56.024C60.5888 58.232 59.7568 60.424 59.0528 62.6C58.3808 64.776 57.9648 66.792 57.8047 68.648C56.2688 68.2 55.1968 67.752 54.5888 67.304C54.0128 66.856 53.7248 66.312 53.7248 65.672C53.7248 65.096 53.9008 64.28 54.2528 63.224C54.6048 62.168 55.1008 60.92 55.7408 59.48C56.3808 58.04 57.1648 56.44 58.0928 54.68C59.0208 52.888 60.0448 50.968 61.1648 48.92C62.4448 46.584 63.6928 44.392 64.9088 42.344C66.1568 40.296 67.3728 38.44 68.5568 36.776C69.7408 35.112 70.8928 33.672 72.0128 32.456C73.1648 31.24 74.3008 30.312 75.4208 29.672C75.8688 29.672 76.4608 29.784 77.1968 30.008C77.9648 30.232 78.7008 30.504 79.4048 30.824C80.1408 31.144 80.7808 31.48 81.3248 31.832C81.9008 32.152 82.2208 32.424 82.2848 32.648C81.8368 33.544 81.3088 34.888 80.7008 36.68C80.0928 38.472 79.4688 40.504 78.8288 42.776C78.2208 45.048 77.6288 47.464 77.0528 50.024C76.5088 52.552 76.0768 54.984 75.7568 57.32C76.4928 55.56 77.3408 53.736 78.3008 51.848C79.2928 49.928 80.3328 48.04 81.4208 46.184C82.5088 44.296 83.6128 42.472 84.7328 40.712C85.8848 38.952 87.0048 37.352 88.0928 35.912C89.1808 34.44 90.1888 33.16 91.1168 32.072C92.0768 30.984 92.9248 30.184 93.6608 29.672C94.1088 29.672 94.7008 29.784 95.4368 30.008C96.2048 30.232 96.9408 30.504 97.6448 30.824C98.3808 31.144 99.0208 31.48 99.5648 31.832C100.141 32.152 100.461 32.424 100.525 32.648C99.5008 34.472 98.6048 36.696 97.8368 39.32C97.0688 41.944 96.4128 44.696 95.8688 47.576C95.3568 50.456 94.9568 53.32 94.6688 56.168C94.4128 58.984 94.2848 61.512 94.2848 63.752C94.2848 64.488 94.2848 65.256 94.2848 66.056C94.2848 66.856 94.3168 67.688 94.3808 68.552C93.9328 68.552 93.3888 68.488 92.7488 68.36C92.1408 68.264 91.5328 68.12 90.9248 67.928C90.3488 67.736 89.8208 67.512 89.3408 67.256C88.8608 67.032 88.5248 66.776 88.3328 66.488C88.3008 66.04 88.2848 65.576 88.2848 65.096C88.2848 64.616 88.2848 64.152 88.2848 63.704C88.2848 60.12 88.5408 56.376 89.0528 52.472C89.5968 48.568 90.4768 44.344 91.6928 39.8C91.8208 39.352 91.9648 38.744 92.1248 37.976C92.2848 37.208 92.4448 36.408 92.6048 35.576C91.7088 36.024 90.6848 36.888 89.5328 38.168C88.4128 39.416 87.2608 40.952 86.0768 42.776C84.9248 44.568 83.7728 46.568 82.6208 48.776C81.5008 50.984 80.4768 53.24 79.5488 55.544C78.6528 57.816 77.8848 60.088 77.2448 62.36C76.6368 64.6 76.2688 66.664 76.1407 68.552Z" fill="#F3EEFC"/>
<path d="M23.06 92.4L25.84 79.1H26.98L23.62 94H21.4L18.42 80.14C17.8867 80.14 17.44 80.2333 17.08 80.42C16.7333 80.5933 16.4533 80.8333 16.24 81.14C16.04 81.4333 15.8933 81.7733 15.8 82.16C15.72 82.5333 15.68 82.92 15.68 83.32C15.68 83.8933 15.76 84.4067 15.92 84.86C16.08 85.3133 16.3133 85.7333 16.62 86.12C16.3533 86.12 16.0867 86.08 15.82 86C15.5533 85.92 15.3133 85.78 15.1 85.58C14.8867 85.38 14.7133 85.1133 14.58 84.78C14.4467 84.4333 14.38 84 14.38 83.48C14.38 82.88 14.4933 82.3067 14.72 81.76C14.9467 81.2133 15.28 80.74 15.72 80.34C16.16 79.9267 16.7 79.6 17.34 79.36C17.98 79.12 18.7133 79 19.54 79C19.6867 79 19.8267 79.0067 19.96 79.02C20.1067 79.0333 20.2533 79.0533 20.4 79.08L23.06 92.4ZM33.348 86.5C33.348 87.4333 32.9613 88.2133 32.188 88.84C31.428 89.4667 30.368 89.8533 29.008 90C29.0613 90.5333 29.1546 90.9667 29.288 91.3C29.4346 91.6333 29.608 91.9 29.808 92.1C30.008 92.2867 30.2346 92.42 30.488 92.5C30.7546 92.5667 31.028 92.6 31.308 92.6C31.948 92.6 32.548 92.4333 33.108 92.1C33.668 91.7667 34.1213 91.2067 34.468 90.42H35.108C34.9346 90.9133 34.6946 91.3867 34.388 91.84C34.0813 92.28 33.7213 92.6733 33.308 93.02C32.8946 93.3533 32.448 93.62 31.968 93.82C31.488 94.02 30.9946 94.12 30.488 94.12C30.0213 94.12 29.568 94.04 29.128 93.88C28.7013 93.72 28.3213 93.46 27.988 93.1C27.6546 92.7267 27.3813 92.2467 27.168 91.66C26.968 91.0733 26.868 90.3533 26.868 89.5C26.868 88.94 26.928 88.3333 27.048 87.68C27.1813 87.0267 27.3946 86.42 27.688 85.86C27.9946 85.3 28.388 84.8333 28.868 84.46C29.3613 84.0867 29.968 83.9 30.688 83.9C31.0213 83.9 31.3413 83.94 31.648 84.02C31.968 84.0867 32.2546 84.22 32.508 84.42C32.7613 84.6067 32.9613 84.8667 33.108 85.2C33.268 85.5333 33.348 85.9667 33.348 86.5ZM28.988 89.22C29.9346 89.0733 30.6813 88.74 31.228 88.22C31.788 87.7 32.068 87.06 32.068 86.3C32.068 85.7933 31.9813 85.4333 31.808 85.22C31.6346 84.9933 31.388 84.88 31.068 84.88C30.7213 84.88 30.4146 85.0133 30.148 85.28C29.8946 85.5467 29.6813 85.8933 29.508 86.32C29.3346 86.7333 29.2013 87.2 29.108 87.72C29.028 88.2267 28.988 88.7267 28.988 89.22ZM36.4513 84V85.52C36.6513 85.16 36.8513 84.8733 37.0513 84.66C37.2646 84.4333 37.4779 84.2667 37.6913 84.16C37.9046 84.0533 38.1046 83.9867 38.2913 83.96C38.4913 83.92 38.6779 83.9 38.8513 83.9C39.4513 83.9 39.9313 84.0133 40.2913 84.24C40.6646 84.4667 40.9446 84.76 41.1313 85.12C41.3179 85.4667 41.4379 85.8533 41.4913 86.28C41.5579 86.6933 41.5913 87.0933 41.5913 87.48C41.5913 87.72 41.5846 87.9867 41.5713 88.28C41.5579 88.56 41.5446 88.8533 41.5313 89.16C41.5179 89.4533 41.5046 89.7533 41.4913 90.06C41.4779 90.3533 41.4713 90.6267 41.4713 90.88C41.4713 90.9867 41.4779 91.14 41.4913 91.34C41.5046 91.5267 41.5379 91.7133 41.5913 91.9C41.6446 92.0867 41.7313 92.2533 41.8513 92.4C41.9713 92.5333 42.1446 92.6 42.3713 92.6C42.6779 92.6 42.9513 92.4267 43.1913 92.08C43.4446 91.7333 43.6513 91.18 43.8112 90.42H44.5512C44.4046 91.26 44.2179 91.9267 43.9913 92.42C43.7646 92.9 43.5246 93.2667 43.2713 93.52C43.0179 93.7733 42.7646 93.9333 42.5113 94C42.2579 94.08 42.0246 94.12 41.8113 94.12C41.3846 94.12 41.0246 94.04 40.7313 93.88C40.4379 93.7067 40.1979 93.48 40.0113 93.2C39.8246 92.92 39.6846 92.5933 39.5913 92.22C39.5113 91.8467 39.4713 91.46 39.4713 91.06C39.4713 90.94 39.4713 90.72 39.4713 90.4C39.4846 90.0667 39.4913 89.7133 39.4913 89.34C39.5046 88.9667 39.5113 88.6133 39.5113 88.28C39.5246 87.9467 39.5313 87.7133 39.5313 87.58C39.5313 87.1533 39.4979 86.8 39.4313 86.52C39.3646 86.24 39.2713 86.02 39.1513 85.86C39.0313 85.7 38.8913 85.5867 38.7313 85.52C38.5846 85.4533 38.4246 85.42 38.2513 85.42C37.8379 85.42 37.4779 85.5867 37.1713 85.92C36.8779 86.2533 36.6379 86.8133 36.4513 87.6V94H34.4513V84H36.4513ZM45.7872 80V87.26L49.2272 84H51.1672L47.8272 86.7H48.0272C48.6272 86.7 49.1005 86.8 49.4472 87C49.8072 87.2 50.0805 87.46 50.2672 87.78C50.4672 88.0867 50.5939 88.4267 50.6472 88.8C50.7139 89.16 50.7472 89.5 50.7472 89.82C50.7472 89.9533 50.7405 90.1067 50.7272 90.28C50.7272 90.44 50.7205 90.6067 50.7072 90.78C50.7072 90.94 50.7005 91.0933 50.6872 91.24C50.6872 91.3733 50.6872 91.48 50.6872 91.56C50.6872 91.6533 50.6939 91.76 50.7072 91.88C50.7205 92 50.7539 92.1133 50.8072 92.22C50.8605 92.3267 50.9405 92.42 51.0472 92.5C51.1539 92.5667 51.2939 92.6 51.4672 92.6C51.8139 92.6 52.1072 92.4267 52.3472 92.08C52.6005 91.7333 52.8072 91.18 52.9672 90.42H53.7072C53.5472 91.2867 53.3539 91.9667 53.1272 92.46C52.9005 92.94 52.6539 93.3067 52.3872 93.56C52.1339 93.8133 51.8739 93.9667 51.6072 94.02C51.3539 94.0867 51.1272 94.12 50.9272 94.12C50.5272 94.12 50.1805 94.06 49.8872 93.94C49.6072 93.82 49.3739 93.66 49.1872 93.46C49.0139 93.2467 48.8805 93 48.7872 92.72C48.7072 92.44 48.6672 92.1467 48.6672 91.84C48.6672 91.7867 48.6672 91.6733 48.6672 91.5C48.6672 91.3133 48.6672 91.12 48.6672 90.92C48.6805 90.72 48.6872 90.5333 48.6872 90.36C48.6872 90.1733 48.6872 90.0467 48.6872 89.98C48.6872 89.2867 48.5605 88.82 48.3072 88.58C48.0539 88.34 47.7605 88.22 47.4272 88.22C47.0805 88.22 46.7672 88.3333 46.4872 88.56C46.2205 88.7867 45.9872 89.1867 45.7872 89.76V94H43.7872V80.28L45.7872 80ZM59.6878 84V95.58C59.6878 96.2067 59.6211 96.7333 59.4878 97.16C59.3545 97.6 59.1678 97.9533 58.9278 98.22C58.7011 98.5 58.4345 98.7 58.1278 98.82C57.8345 98.94 57.5211 99 57.1878 99C56.5211 99 56.0011 98.8067 55.6278 98.42C55.2545 98.0467 55.0678 97.5867 55.0678 97.04C55.0678 96.6933 55.1411 96.38 55.2878 96.1C55.4478 95.82 55.6478 95.56 55.8878 95.32C56.1411 95.0933 56.4211 94.8867 56.7278 94.7C57.0478 94.5267 57.3678 94.3733 57.6878 94.24V92.98C57.4211 93.3667 57.1145 93.6533 56.7678 93.84C56.4345 94.0267 56.0945 94.12 55.7478 94.12C55.3611 94.12 54.9945 94.0667 54.6478 93.96C54.3011 93.8533 54.0011 93.68 53.7478 93.44C53.4945 93.1867 53.2945 92.8667 53.1478 92.48C53.0011 92.08 52.9278 91.5933 52.9278 91.02V84H54.9278V90.8C54.9278 91.4533 55.0411 91.92 55.2678 92.2C55.4945 92.4667 55.7811 92.6 56.1278 92.6C56.3145 92.6 56.5011 92.5533 56.6878 92.46C56.8745 92.3533 57.0411 92.2067 57.1878 92.02C57.3345 91.8333 57.4545 91.6067 57.5478 91.34C57.6411 91.0733 57.6878 90.7667 57.6878 90.42V84H59.6878ZM56.8078 97.96C57.1678 97.96 57.4011 97.82 57.5078 97.54C57.6278 97.2733 57.6878 96.9067 57.6878 96.44V95.04C57.0211 95.3467 56.5478 95.6467 56.2678 95.94C55.9878 96.2467 55.8478 96.5867 55.8478 96.96C55.8478 97.2667 55.9278 97.5067 56.0878 97.68C56.2611 97.8667 56.5011 97.96 56.8078 97.96ZM71.9594 94L70.1794 83.72L68.5594 94H67.3594L69.5594 80C68.7194 80.1867 68.0727 80.5933 67.6194 81.22C67.166 81.8333 66.9394 82.7 66.9394 83.82C66.9394 84.2733 66.966 84.6467 67.0194 84.94C67.086 85.22 67.1594 85.4467 67.2394 85.62C67.3194 85.7933 67.3994 85.92 67.4794 86C67.5727 86.0667 67.6394 86.1133 67.6794 86.14C66.9594 86.14 66.3794 85.96 65.9394 85.6C65.4994 85.2267 65.2794 84.6467 65.2794 83.86C65.2794 83.2067 65.4394 82.5867 65.7594 82C66.0794 81.4 66.486 80.88 66.9794 80.44C67.4727 80 68.0127 79.6533 68.5994 79.4C69.1994 79.1333 69.7794 79 70.3394 79C70.5527 79 70.7594 79.02 70.9594 79.06C71.1727 79.1 71.3727 79.1733 71.5594 79.28L73.5594 90.9L75.8994 79.28H78.1794L79.2994 94H77.0194L76.2194 83.52L74.0994 94H71.9594ZM87.5784 84V90.8C87.5784 90.9333 87.5851 91.1 87.5984 91.3C87.6118 91.5 87.6451 91.7 87.6984 91.9C87.7651 92.0867 87.8584 92.2533 87.9784 92.4C88.0984 92.5333 88.2651 92.6 88.4784 92.6C89.1318 92.6 89.6118 91.8733 89.9184 90.42H90.6584C90.5118 91.26 90.3251 91.9267 90.0984 92.42C89.8718 92.9 89.6318 93.2667 89.3784 93.52C89.1251 93.7733 88.8651 93.9333 88.5984 94C88.3318 94.08 88.0918 94.12 87.8784 94.12C87.5718 94.12 87.3051 94.0667 87.0784 93.96C86.8651 93.8533 86.6784 93.7133 86.5184 93.54C86.3718 93.3667 86.2518 93.1667 86.1584 92.94C86.0651 92.7133 85.9918 92.48 85.9384 92.24C85.6851 92.8933 85.3518 93.3733 84.9384 93.68C84.5251 93.9733 84.0918 94.12 83.6384 94.12C83.2518 94.12 82.8851 94.0667 82.5384 93.96C82.1918 93.8533 81.8918 93.68 81.6384 93.44C81.3851 93.1867 81.1851 92.8667 81.0384 92.48C80.8918 92.08 80.8184 91.5933 80.8184 91.02V84H82.8184V90.8C82.8184 91.4533 82.9318 91.92 83.1584 92.2C83.3851 92.4667 83.6718 92.6 84.0184 92.6C84.2051 92.6 84.3918 92.5533 84.5784 92.46C84.7651 92.3533 84.9318 92.2067 85.0784 92.02C85.2251 91.8333 85.3451 91.6067 85.4384 91.34C85.5318 91.0733 85.5784 90.7667 85.5784 90.42V84H87.5784ZM97.6005 90.42C97.2138 90.9533 96.8138 91.4 96.4005 91.76C96.0005 92.1067 95.6071 92.4133 95.2205 92.68C95.0738 92.9467 94.8871 93.1733 94.6605 93.36C94.4338 93.5333 94.1871 93.68 93.9205 93.8C93.6671 93.9067 93.4071 93.9867 93.1405 94.04C92.8871 94.0933 92.6538 94.12 92.4405 94.12C91.8538 94.12 91.3671 94.0267 90.9805 93.84C90.6071 93.6533 90.3071 93.42 90.0805 93.14C89.8538 92.8467 89.6938 92.5267 89.6005 92.18C89.5071 91.82 89.4605 91.48 89.4605 91.16C89.4605 90.8133 89.5271 90.5133 89.6605 90.26C89.8071 89.9933 89.9805 89.8067 90.1805 89.7C90.5271 88.7 90.8671 87.7133 91.2005 86.74C91.5338 85.7533 91.7538 84.7667 91.8605 83.78L93.8805 83.38C94.2005 84.6467 94.4605 85.68 94.6605 86.48C94.8738 87.28 95.0405 87.96 95.1605 88.52C95.2938 89.0667 95.3871 89.5533 95.4405 89.98C95.5071 90.3933 95.5405 90.8533 95.5405 91.36C95.7671 91.2133 95.9805 91.06 96.1805 90.9C96.3805 90.7267 96.5738 90.5667 96.7605 90.42H97.6005ZM93.4205 91.22C93.4205 90.8067 93.3938 90.44 93.3405 90.12C93.3005 89.8 93.2338 89.4467 93.1405 89.06C93.0471 88.6733 92.9271 88.2067 92.7805 87.66C92.6471 87.1 92.4871 86.3867 92.3005 85.52C92.2205 86.2667 92.0538 86.98 91.8005 87.66C91.5605 88.34 91.3405 89.04 91.1405 89.76C91.2605 89.84 91.3605 89.9533 91.4405 90.1C91.5338 90.2333 91.5805 90.4133 91.5805 90.64C91.5805 90.8933 91.5138 91.0867 91.3805 91.22C91.2471 91.3533 91.1005 91.42 90.9405 91.42C90.7271 91.42 90.5471 91.3267 90.4005 91.14C90.5071 91.6067 90.6938 91.9733 90.9605 92.24C91.2271 92.4933 91.5805 92.62 92.0205 92.62C92.4471 92.62 92.7871 92.5133 93.0405 92.3C93.2938 92.0733 93.4205 91.7133 93.4205 91.22ZM98.7564 80.96V84H100.296V84.7H98.7564V90.8C98.7564 90.96 98.7631 91.1467 98.7764 91.36C98.7897 91.56 98.8231 91.7533 98.8764 91.94C98.9431 92.1267 99.0364 92.2867 99.1564 92.42C99.2897 92.54 99.4697 92.6 99.6964 92.6C100.056 92.6 100.396 92.42 100.716 92.06C101.05 91.7 101.31 91.1533 101.496 90.42H102.236C102.01 91.26 101.763 91.9267 101.496 92.42C101.243 92.9 100.976 93.2667 100.696 93.52C100.416 93.7733 100.136 93.9333 99.8564 94C99.5897 94.08 99.3431 94.12 99.1164 94.12C98.6364 94.12 98.2431 94.0333 97.9364 93.86C97.6297 93.6733 97.3897 93.44 97.2164 93.16C97.0431 92.88 96.9231 92.5733 96.8564 92.24C96.7897 91.8933 96.7564 91.5533 96.7564 91.22V84.7H96.0764V84H96.7564V81.24L98.7564 80.96ZM101.123 81.12C101.123 80.76 101.25 80.4467 101.503 80.18C101.756 79.9133 102.07 79.78 102.443 79.78C102.803 79.78 103.116 79.9133 103.383 80.18C103.65 80.4467 103.783 80.76 103.783 81.12C103.783 81.4933 103.65 81.8067 103.383 82.06C103.116 82.3133 102.803 82.44 102.443 82.44C102.07 82.44 101.756 82.3133 101.503 82.06C101.25 81.8067 101.123 81.4933 101.123 81.12ZM103.483 84V90.8C103.483 90.96 103.483 91.1467 103.483 91.36C103.496 91.56 103.53 91.7533 103.583 91.94C103.65 92.1267 103.736 92.2867 103.843 92.42C103.963 92.54 104.136 92.6 104.363 92.6C104.47 92.6 104.596 92.5867 104.743 92.56C104.903 92.5333 105.023 92.5067 105.103 92.48C105.116 92.5467 105.123 92.6067 105.123 92.66C105.136 92.7133 105.143 92.7733 105.143 92.84C105.143 93.0667 105.09 93.2667 104.983 93.44C104.89 93.6 104.763 93.7333 104.603 93.84C104.443 93.9333 104.263 94 104.063 94.04C103.863 94.0933 103.663 94.12 103.463 94.12C103.063 94.12 102.736 94.04 102.483 93.88C102.23 93.7067 102.023 93.4867 101.863 93.22C101.716 92.94 101.616 92.6333 101.563 92.3C101.51 91.9667 101.483 91.6333 101.483 91.3V84H103.483Z" fill="white"/>
</svg>
