<svg width="84" height="84" viewBox="0 0 84 84" fill="none" xmlns="http://www.w3.org/2000/svg">
<rect x="0.5" y="0.5" width="83" height="83" rx="41.5" stroke="black"/>
<path d="M30.408 39.048C29.9173 39.304 29.3947 39.432 28.84 39.432C28.1573 39.3467 27.496 39.176 26.856 38.92C26.2373 38.664 25.7787 38.3547 25.48 37.992C25.3093 36.9467 25.1707 35.9867 25.064 35.112C24.9573 34.2373 24.872 33.416 24.808 32.648C24.744 31.8587 24.7013 31.112 24.68 30.408C24.6587 29.6827 24.648 28.9573 24.648 28.232C24.648 27.272 24.6587 26.2587 24.68 25.192C24.7013 24.1253 24.7227 22.9947 24.744 21.8C24.7867 20.584 24.8187 19.2933 24.84 17.928C24.8613 16.5413 24.872 15.0373 24.872 13.416C25.1493 13.416 25.5653 13.5013 26.12 13.672C26.6747 13.8213 27.2187 14.0027 27.752 14.216C28.3067 14.4293 28.7973 14.6533 29.224 14.888C29.6507 15.1013 29.8853 15.2827 29.928 15.432C29.7147 16.0293 29.5227 16.808 29.352 17.768C29.2027 18.728 29.0747 19.7947 28.968 20.968C28.8827 22.1413 28.8187 23.3787 28.776 24.68C28.7333 25.9813 28.712 27.272 28.712 28.552C28.712 29.512 28.7227 30.376 28.744 31.144C28.7653 31.8907 28.7867 32.5733 28.808 33.192C28.8507 33.7893 28.904 34.3547 28.968 34.888C29.032 35.4 29.1067 35.912 29.192 36.424C29.7893 34.6107 30.44 32.7973 31.144 30.984C31.8693 29.1707 32.6053 27.432 33.352 25.768C34.12 24.0827 34.8773 22.5147 35.624 21.064C36.3707 19.6133 37.0747 18.3547 37.736 17.288C38.4187 16.2 39.0267 15.3467 39.56 14.728C40.0933 14.088 40.5307 13.7467 40.872 13.704C41.1067 13.7467 41.352 13.8427 41.608 13.992C41.8853 14.12 42.1413 14.28 42.376 14.472C42.6107 14.664 42.824 14.8773 43.016 15.112C43.208 15.3467 43.3573 15.5813 43.464 15.816C42.6747 16.0933 41.8213 16.744 40.904 17.768C40.008 18.792 39.1013 20.0293 38.184 21.48C37.2667 22.9093 36.3707 24.4773 35.496 26.184C34.6427 27.8693 33.864 29.5227 33.16 31.144C32.4773 32.7653 31.8907 34.28 31.4 35.688C30.9093 37.096 30.5787 38.216 30.408 39.048ZM52.7605 39.368C52.7178 39.3893 52.6752 39.4 52.6325 39.4C52.5898 39.4 52.5045 39.4 52.3765 39.4C52.0778 39.4 51.7258 39.3467 51.3205 39.24C50.9365 39.1547 50.5525 39.0373 50.1685 38.888C49.8058 38.76 49.4858 38.6107 49.2085 38.44C48.9525 38.2693 48.7925 38.12 48.7285 37.992C48.7072 37.6933 48.6965 37.384 48.6965 37.064C48.6965 36.744 48.6965 36.4347 48.6965 36.136C48.6965 33.7467 48.8672 31.2507 49.2085 28.648C49.5712 26.0453 50.1578 23.2293 50.9685 20.2C51.0538 19.9013 51.1392 19.528 51.2245 19.08C51.3312 18.6107 51.4378 18.1093 51.5445 17.576C51.0325 17.9813 50.4245 18.632 49.7205 19.528C49.0165 20.4027 48.2698 21.448 47.4805 22.664C46.7125 23.8587 45.9338 25.1813 45.1445 26.632C44.3765 28.0613 43.6725 29.5227 43.0325 31.016C42.3925 32.488 41.8378 33.9493 41.3685 35.4C40.9205 36.8507 40.6432 38.1947 40.5365 39.432C39.5125 39.1333 38.7978 38.8347 38.3925 38.536C38.0085 38.2373 37.8165 37.8747 37.8165 37.448C37.8165 37.064 37.9338 36.52 38.1685 35.816C38.4032 35.112 38.7338 34.28 39.1605 33.32C39.5872 32.36 40.1098 31.2933 40.7285 30.12C41.3472 28.9253 42.0298 27.6453 42.7765 26.28C43.6298 24.7227 44.4618 23.2613 45.2725 21.896C46.1045 20.5307 46.9152 19.2933 47.7045 18.184C48.4938 17.0747 49.2618 16.1147 50.0085 15.304C50.7765 14.4933 51.5338 13.8747 52.2805 13.448C52.5792 13.448 52.9738 13.5227 53.4645 13.672C53.9765 13.8213 54.4672 14.0027 54.9365 14.216C55.4272 14.4293 55.8538 14.6533 56.2165 14.888C56.6005 15.1013 56.8138 15.2827 56.8565 15.432C56.5578 16.0293 56.2058 16.9253 55.8005 18.12C55.3952 19.3147 54.9792 20.6693 54.5525 22.184C54.1472 23.6987 53.7525 25.3093 53.3685 27.016C53.0058 28.7013 52.7178 30.3227 52.5045 31.88C52.9952 30.7067 53.5605 29.4907 54.2005 28.232C54.8618 26.952 55.5552 25.6933 56.2805 24.456C57.0058 23.1973 57.7418 21.9813 58.4885 20.808C59.2565 19.6347 60.0032 18.568 60.7285 17.608C61.4538 16.6267 62.1258 15.7733 62.7445 15.048C63.3845 14.3227 63.9498 13.7893 64.4405 13.448C64.7392 13.448 65.1338 13.5227 65.6245 13.672C66.1365 13.8213 66.6272 14.0027 67.0965 14.216C67.5872 14.4293 68.0138 14.6533 68.3765 14.888C68.7605 15.1013 68.9738 15.2827 69.0165 15.432C68.3338 16.648 67.7365 18.1307 67.2245 19.88C66.7125 21.6293 66.2752 23.464 65.9125 25.384C65.5712 27.304 65.3045 29.2133 65.1125 31.112C64.9418 32.9893 64.8565 34.6747 64.8565 36.168C64.8565 36.6587 64.8565 37.1707 64.8565 37.704C64.8565 38.2373 64.8778 38.792 64.9205 39.368C64.6218 39.368 64.2592 39.3253 63.8325 39.24C63.4272 39.176 63.0218 39.08 62.6165 38.952C62.2325 38.824 61.8805 38.6747 61.5605 38.504C61.2405 38.3547 61.0165 38.184 60.8885 37.992C60.8672 37.6933 60.8565 37.384 60.8565 37.064C60.8565 36.744 60.8565 36.4347 60.8565 36.136C60.8565 33.7467 61.0272 31.2507 61.3685 28.648C61.7312 26.0453 62.3178 23.2293 63.1285 20.2C63.2138 19.9013 63.3098 19.496 63.4165 18.984C63.5232 18.472 63.6298 17.9387 63.7365 17.384C63.1392 17.6827 62.4565 18.2587 61.6885 19.112C60.9418 19.944 60.1738 20.968 59.3845 22.184C58.6165 23.3787 57.8485 24.712 57.0805 26.184C56.3338 27.656 55.6512 29.16 55.0325 30.696C54.4352 32.2107 53.9232 33.7253 53.4965 35.24C53.0912 36.7333 52.8458 38.1093 52.7605 39.368Z" fill="#8033A5"/>
<path d="M16.342 56.88L18.288 47.57H19.086L16.734 58H15.18L13.094 48.298C12.7207 48.298 12.408 48.3633 12.156 48.494C11.9133 48.6153 11.7173 48.7833 11.568 48.998C11.428 49.2033 11.3253 49.4413 11.26 49.712C11.204 49.9733 11.176 50.244 11.176 50.524C11.176 50.9253 11.232 51.2847 11.344 51.602C11.456 51.9193 11.6193 52.2133 11.834 52.484C11.6473 52.484 11.4607 52.456 11.274 52.4C11.0873 52.344 10.9193 52.246 10.77 52.106C10.6207 51.966 10.4993 51.7793 10.406 51.546C10.3127 51.3033 10.266 51 10.266 50.636C10.266 50.216 10.3453 49.8147 10.504 49.432C10.6627 49.0493 10.896 48.718 11.204 48.438C11.512 48.1487 11.89 47.92 12.338 47.752C12.786 47.584 13.2993 47.5 13.878 47.5C13.9807 47.5 14.0787 47.5047 14.172 47.514C14.2747 47.5233 14.3773 47.5373 14.48 47.556L16.342 56.88ZM23.5436 52.75C23.5436 53.4033 23.2729 53.9493 22.7316 54.388C22.1996 54.8267 21.4576 55.0973 20.5056 55.2C20.5429 55.5733 20.6082 55.8767 20.7016 56.11C20.8042 56.3433 20.9256 56.53 21.0656 56.67C21.2056 56.8007 21.3642 56.894 21.5416 56.95C21.7282 56.9967 21.9196 57.02 22.1156 57.02C22.5636 57.02 22.9836 56.9033 23.3756 56.67C23.7676 56.4367 24.0849 56.0447 24.3276 55.494H24.7756C24.6542 55.8393 24.4862 56.1707 24.2716 56.488C24.0569 56.796 23.8049 57.0713 23.5156 57.314C23.2262 57.5473 22.9136 57.734 22.5776 57.874C22.2416 58.014 21.8962 58.084 21.5416 58.084C21.2149 58.084 20.8976 58.028 20.5896 57.916C20.2909 57.804 20.0249 57.622 19.7916 57.37C19.5582 57.1087 19.3669 56.7727 19.2176 56.362C19.0776 55.9513 19.0076 55.4473 19.0076 54.85C19.0076 54.458 19.0496 54.0333 19.1336 53.576C19.2269 53.1187 19.3762 52.694 19.5816 52.302C19.7962 51.91 20.0716 51.5833 20.4076 51.322C20.7529 51.0607 21.1776 50.93 21.6816 50.93C21.9149 50.93 22.1389 50.958 22.3536 51.014C22.5776 51.0607 22.7782 51.154 22.9556 51.294C23.1329 51.4247 23.2729 51.6067 23.3756 51.84C23.4876 52.0733 23.5436 52.3767 23.5436 52.75ZM20.4916 54.654C21.1542 54.5513 21.6769 54.318 22.0596 53.954C22.4516 53.59 22.6476 53.142 22.6476 52.61C22.6476 52.2553 22.5869 52.0033 22.4656 51.854C22.3442 51.6953 22.1716 51.616 21.9476 51.616C21.7049 51.616 21.4902 51.7093 21.3036 51.896C21.1262 52.0827 20.9769 52.3253 20.8556 52.624C20.7342 52.9133 20.6409 53.24 20.5756 53.604C20.5196 53.9587 20.4916 54.3087 20.4916 54.654ZM25.7159 51V52.064C25.8559 51.812 25.9959 51.6113 26.1359 51.462C26.2852 51.3033 26.4345 51.1867 26.5839 51.112C26.7332 51.0373 26.8732 50.9907 27.0039 50.972C27.1439 50.944 27.2745 50.93 27.3959 50.93C27.8159 50.93 28.1519 51.0093 28.4039 51.168C28.6652 51.3267 28.8612 51.532 28.9919 51.784C29.1225 52.0267 29.2065 52.2973 29.2439 52.596C29.2905 52.8853 29.3139 53.1653 29.3139 53.436C29.3139 53.604 29.3092 53.7907 29.2999 53.996C29.2905 54.192 29.2812 54.3973 29.2719 54.612C29.2625 54.8173 29.2532 55.0273 29.2439 55.242C29.2345 55.4473 29.2299 55.6387 29.2299 55.816C29.2299 55.8907 29.2345 55.998 29.2439 56.138C29.2532 56.2687 29.2765 56.3993 29.3139 56.53C29.3512 56.6607 29.4119 56.7773 29.4959 56.88C29.5799 56.9733 29.7012 57.02 29.8599 57.02C30.0745 57.02 30.2659 56.8987 30.4339 56.656C30.6112 56.4133 30.7559 56.026 30.8679 55.494H31.3859C31.2832 56.082 31.1525 56.5487 30.9939 56.894C30.8352 57.23 30.6672 57.4867 30.4899 57.664C30.3125 57.8413 30.1352 57.9533 29.9579 58C29.7805 58.056 29.6172 58.084 29.4679 58.084C29.1692 58.084 28.9172 58.028 28.7119 57.916C28.5065 57.7947 28.3385 57.636 28.2079 57.44C28.0772 57.244 27.9792 57.0153 27.9139 56.754C27.8579 56.4927 27.8299 56.222 27.8299 55.942C27.8299 55.858 27.8299 55.704 27.8299 55.48C27.8392 55.2467 27.8439 54.9993 27.8439 54.738C27.8532 54.4767 27.8579 54.2293 27.8579 53.996C27.8672 53.7627 27.8719 53.5993 27.8719 53.506C27.8719 53.2073 27.8485 52.96 27.8019 52.764C27.7552 52.568 27.6899 52.414 27.6059 52.302C27.5219 52.19 27.4239 52.1107 27.3119 52.064C27.2092 52.0173 27.0972 51.994 26.9759 51.994C26.6865 51.994 26.4345 52.1107 26.2199 52.344C26.0145 52.5773 25.8465 52.9693 25.7159 53.52V58H24.3159V51H25.7159ZM32.251 48.2V53.282L34.659 51H36.017L33.679 52.89H33.819C34.239 52.89 34.5704 52.96 34.813 53.1C35.065 53.24 35.2564 53.422 35.387 53.646C35.527 53.8607 35.6157 54.0987 35.653 54.36C35.6997 54.612 35.723 54.85 35.723 55.074C35.723 55.1673 35.7184 55.2747 35.709 55.396C35.709 55.508 35.7044 55.6247 35.695 55.746C35.695 55.858 35.6904 55.9653 35.681 56.068C35.681 56.1613 35.681 56.236 35.681 56.292C35.681 56.3573 35.6857 56.432 35.695 56.516C35.7044 56.6 35.7277 56.6793 35.765 56.754C35.8024 56.8287 35.8584 56.894 35.933 56.95C36.0077 56.9967 36.1057 57.02 36.227 57.02C36.4697 57.02 36.675 56.8987 36.843 56.656C37.0204 56.4133 37.165 56.026 37.277 55.494H37.795C37.683 56.1007 37.5477 56.5767 37.389 56.922C37.2304 57.258 37.0577 57.5147 36.871 57.692C36.6937 57.8693 36.5117 57.9767 36.325 58.014C36.1477 58.0607 35.989 58.084 35.849 58.084C35.569 58.084 35.3264 58.042 35.121 57.958C34.925 57.874 34.7617 57.762 34.631 57.622C34.5097 57.4727 34.4164 57.3 34.351 57.104C34.295 56.908 34.267 56.7027 34.267 56.488C34.267 56.4507 34.267 56.3713 34.267 56.25C34.267 56.1193 34.267 55.984 34.267 55.844C34.2764 55.704 34.281 55.5733 34.281 55.452C34.281 55.3213 34.281 55.2327 34.281 55.186C34.281 54.7007 34.1924 54.374 34.015 54.206C33.8377 54.038 33.6324 53.954 33.399 53.954C33.1564 53.954 32.937 54.0333 32.741 54.192C32.5544 54.3507 32.391 54.6307 32.251 55.032V58H30.851V48.396L32.251 48.2ZM41.9815 51V59.106C41.9815 59.5447 41.9348 59.9133 41.8415 60.212C41.7481 60.52 41.6175 60.7673 41.4495 60.954C41.2908 61.15 41.1041 61.29 40.8895 61.374C40.6841 61.458 40.4648 61.5 40.2315 61.5C39.7648 61.5 39.4008 61.3647 39.1395 61.094C38.8781 60.8327 38.7475 60.5107 38.7475 60.128C38.7475 59.8853 38.7988 59.666 38.9015 59.47C39.0135 59.274 39.1535 59.092 39.3215 58.924C39.4988 58.7653 39.6948 58.6207 39.9095 58.49C40.1335 58.3687 40.3575 58.2613 40.5815 58.168V57.286C40.3948 57.5567 40.1801 57.7573 39.9375 57.888C39.7041 58.0187 39.4661 58.084 39.2235 58.084C38.9528 58.084 38.6961 58.0467 38.4535 57.972C38.2108 57.8973 38.0008 57.776 37.8235 57.608C37.6461 57.4307 37.5061 57.2067 37.4035 56.936C37.3008 56.656 37.2495 56.3153 37.2495 55.914V51H38.6495V55.76C38.6495 56.2173 38.7288 56.544 38.8875 56.74C39.0461 56.9267 39.2468 57.02 39.4895 57.02C39.6201 57.02 39.7508 56.9873 39.8815 56.922C40.0121 56.8473 40.1288 56.7447 40.2315 56.614C40.3341 56.4833 40.4181 56.3247 40.4835 56.138C40.5488 55.9513 40.5815 55.7367 40.5815 55.494V51H41.9815ZM39.9655 60.772C40.2175 60.772 40.3808 60.674 40.4555 60.478C40.5395 60.2913 40.5815 60.0347 40.5815 59.708V58.728C40.1148 58.9427 39.7835 59.1527 39.5875 59.358C39.3915 59.5727 39.2935 59.8107 39.2935 60.072C39.2935 60.2867 39.3495 60.4547 39.4615 60.576C39.5828 60.7067 39.7508 60.772 39.9655 60.772ZM50.5716 58L49.3256 50.804L48.1916 58H47.3516L48.8916 48.2C48.3036 48.3307 47.8509 48.6153 47.5336 49.054C47.2162 49.4833 47.0576 50.09 47.0576 50.874C47.0576 51.1913 47.0762 51.4527 47.1136 51.658C47.1602 51.854 47.2116 52.0127 47.2676 52.134C47.3236 52.2553 47.3796 52.344 47.4356 52.4C47.5009 52.4467 47.5476 52.4793 47.5756 52.498C47.0716 52.498 46.6656 52.372 46.3576 52.12C46.0496 51.8587 45.8956 51.4527 45.8956 50.902C45.8956 50.4447 46.0076 50.0107 46.2316 49.6C46.4556 49.18 46.7402 48.816 47.0856 48.508C47.4309 48.2 47.8089 47.9573 48.2196 47.78C48.6396 47.5933 49.0456 47.5 49.4376 47.5C49.5869 47.5 49.7316 47.514 49.8716 47.542C50.0209 47.57 50.1609 47.6213 50.2916 47.696L51.6916 55.83L53.3296 47.696H54.9256L55.7096 58H54.1136L53.5536 50.664L52.0696 58H50.5716ZM61.5049 51V55.76C61.5049 55.8533 61.5096 55.97 61.5189 56.11C61.5282 56.25 61.5516 56.39 61.5889 56.53C61.6356 56.6607 61.7009 56.7773 61.7849 56.88C61.8689 56.9733 61.9856 57.02 62.1349 57.02C62.5922 57.02 62.9282 56.5113 63.1429 55.494H63.6609C63.5582 56.082 63.4276 56.5487 63.2689 56.894C63.1102 57.23 62.9422 57.4867 62.7649 57.664C62.5876 57.8413 62.4056 57.9533 62.2189 58C62.0322 58.056 61.8642 58.084 61.7149 58.084C61.5002 58.084 61.3136 58.0467 61.1549 57.972C61.0056 57.8973 60.8749 57.7993 60.7629 57.678C60.6602 57.5567 60.5762 57.4167 60.5109 57.258C60.4456 57.0993 60.3942 56.936 60.3569 56.768C60.1796 57.2253 59.9462 57.5613 59.6569 57.776C59.3676 57.9813 59.0642 58.084 58.7469 58.084C58.4762 58.084 58.2196 58.0467 57.9769 57.972C57.7342 57.8973 57.5242 57.776 57.3469 57.608C57.1696 57.4307 57.0296 57.2067 56.9269 56.936C56.8242 56.656 56.7729 56.3153 56.7729 55.914V51H58.1729V55.76C58.1729 56.2173 58.2522 56.544 58.4109 56.74C58.5696 56.9267 58.7702 57.02 59.0129 57.02C59.1436 57.02 59.2742 56.9873 59.4049 56.922C59.5356 56.8473 59.6522 56.7447 59.7549 56.614C59.8576 56.4833 59.9416 56.3247 60.0069 56.138C60.0722 55.9513 60.1049 55.7367 60.1049 55.494V51H61.5049ZM68.5203 55.494C68.2497 55.8673 67.9697 56.18 67.6803 56.432C67.4003 56.6747 67.125 56.8893 66.8543 57.076C66.7517 57.2627 66.621 57.4213 66.4623 57.552C66.3037 57.6733 66.131 57.776 65.9443 57.86C65.767 57.9347 65.585 57.9907 65.3983 58.028C65.221 58.0653 65.0577 58.084 64.9083 58.084C64.4977 58.084 64.157 58.0187 63.8863 57.888C63.625 57.7573 63.415 57.594 63.2563 57.398C63.0977 57.1927 62.9857 56.9687 62.9203 56.726C62.855 56.474 62.8223 56.236 62.8223 56.012C62.8223 55.7693 62.869 55.5593 62.9623 55.382C63.065 55.1953 63.1863 55.0647 63.3263 54.99C63.569 54.29 63.807 53.5993 64.0403 52.918C64.2737 52.2273 64.4277 51.5367 64.5023 50.846L65.9163 50.566C66.1403 51.4527 66.3223 52.176 66.4623 52.736C66.6117 53.296 66.7283 53.772 66.8123 54.164C66.9057 54.5467 66.971 54.8873 67.0083 55.186C67.055 55.4753 67.0783 55.7973 67.0783 56.152C67.237 56.0493 67.3863 55.942 67.5263 55.83C67.6663 55.7087 67.8017 55.5967 67.9323 55.494H68.5203ZM65.5943 56.054C65.5943 55.7647 65.5757 55.508 65.5383 55.284C65.5103 55.06 65.4637 54.8127 65.3983 54.542C65.333 54.2713 65.249 53.9447 65.1463 53.562C65.053 53.17 64.941 52.6707 64.8103 52.064C64.7543 52.5867 64.6377 53.086 64.4603 53.562C64.2923 54.038 64.1383 54.528 63.9983 55.032C64.0823 55.088 64.1523 55.1673 64.2083 55.27C64.2737 55.3633 64.3063 55.4893 64.3063 55.648C64.3063 55.8253 64.2597 55.9607 64.1663 56.054C64.073 56.1473 63.9703 56.194 63.8583 56.194C63.709 56.194 63.583 56.1287 63.4803 55.998C63.555 56.3247 63.6857 56.5813 63.8723 56.768C64.059 56.9453 64.3063 57.034 64.6143 57.034C64.913 57.034 65.151 56.9593 65.3283 56.81C65.5057 56.6513 65.5943 56.3993 65.5943 56.054ZM69.3295 48.872V51H70.4075V51.49H69.3295V55.76C69.3295 55.872 69.3342 56.0027 69.3435 56.152C69.3528 56.292 69.3762 56.4273 69.4135 56.558C69.4602 56.6887 69.5255 56.8007 69.6095 56.894C69.7028 56.978 69.8288 57.02 69.9875 57.02C70.2395 57.02 70.4775 56.894 70.7015 56.642C70.9348 56.39 71.1168 56.0073 71.2475 55.494H71.7655C71.6068 56.082 71.4342 56.5487 71.2475 56.894C71.0702 57.23 70.8835 57.4867 70.6875 57.664C70.4915 57.8413 70.2955 57.9533 70.0995 58C69.9128 58.056 69.7402 58.084 69.5815 58.084C69.2455 58.084 68.9702 58.0233 68.7555 57.902C68.5408 57.7713 68.3728 57.608 68.2515 57.412C68.1302 57.216 68.0462 57.0013 67.9995 56.768C67.9528 56.5253 67.9295 56.2873 67.9295 56.054V51.49H67.4535V51H67.9295V49.068L69.3295 48.872ZM70.9861 48.984C70.9861 48.732 71.0747 48.5127 71.2521 48.326C71.4294 48.1393 71.6487 48.046 71.9101 48.046C72.1621 48.046 72.3814 48.1393 72.5681 48.326C72.7547 48.5127 72.8481 48.732 72.8481 48.984C72.8481 49.2453 72.7547 49.4647 72.5681 49.642C72.3814 49.8193 72.1621 49.908 71.9101 49.908C71.6487 49.908 71.4294 49.8193 71.2521 49.642C71.0747 49.4647 70.9861 49.2453 70.9861 48.984ZM72.6381 51V55.76C72.6381 55.872 72.6381 56.0027 72.6381 56.152C72.6474 56.292 72.6707 56.4273 72.7081 56.558C72.7547 56.6887 72.8154 56.8007 72.8901 56.894C72.9741 56.978 73.0954 57.02 73.2541 57.02C73.3287 57.02 73.4174 57.0107 73.5201 56.992C73.6321 56.9733 73.7161 56.9547 73.7721 56.936C73.7814 56.9827 73.7861 57.0247 73.7861 57.062C73.7954 57.0993 73.8001 57.1413 73.8001 57.188C73.8001 57.3467 73.7627 57.4867 73.6881 57.608C73.6227 57.72 73.5341 57.8133 73.4221 57.888C73.3101 57.9533 73.1841 58 73.0441 58.028C72.9041 58.0653 72.7641 58.084 72.6241 58.084C72.3441 58.084 72.1154 58.028 71.9381 57.916C71.7607 57.7947 71.6161 57.6407 71.5041 57.454C71.4014 57.258 71.3314 57.0433 71.2941 56.81C71.2567 56.5767 71.2381 56.3433 71.2381 56.11V51H72.6381Z" fill="black"/>
</svg>
