<svg width="185" height="160" viewBox="0 0 185 160" fill="none" xmlns="http://www.w3.org/2000/svg">
<g clip-path="url(#clip0_221_1808)">
<path d="M83.8771 16.8107C82.3769 15.2548 81.9636 13.2196 82.9539 12.265C83.9442 11.3104 85.9628 11.798 87.4633 13.3546C88.0713 13.9681 88.5234 14.7184 88.782 15.5425L95.0553 22.215L92.4104 24.689L86.0161 18.2088C85.2017 17.9203 84.4682 17.4408 83.8771 16.8107Z" fill="#FFB6B6"/>
<path d="M90.6611 17.7092L89.47 15.9858L85.8398 18.7475L87.8141 19.7345L90.6611 17.7092Z" fill="#6C63FF"/>
<path d="M125.482 39.8774L123.642 30.1811L105.475 28.4626L90.3458 16.804L86.7119 19.3681L99.2422 37.039L125.482 39.8774Z" fill="#2F2E41"/>
<path d="M113.525 24.1135C112.347 23.5924 110.727 24.6716 109.909 26.5239C109.572 27.2597 109.415 28.0657 109.454 28.8744L108.494 31.1163L108.477 31.1184L104.07 38.7566L97.7628 29.5415C96.798 28.1319 95.0312 27.5098 93.3961 28.0039C90.7183 28.8132 89.7269 32.0872 91.506 34.2461L101.923 46.8867C103.015 48.2126 105.116 47.9508 105.85 46.3972L111.994 31.9751L112.746 30.3296C113.369 29.8135 113.86 29.1556 114.177 28.411C114.996 26.5582 114.704 24.6345 113.525 24.1135Z" fill="#FFB6B6"/>
<path d="M184.257 152.584C184.257 152.816 184.071 153.002 183.839 153.002H0.417911C0.186139 153.002 0 152.816 0 152.584C0 152.353 0.186139 152.167 0.417911 152.167H183.839C184.071 152.167 184.257 152.353 184.257 152.584Z" fill="#3F3D56"/>
<path d="M113.955 24.8299L114.139 17.2849L118.529 14.8689L122.141 20.4858L113.955 24.8299Z" fill="#FFB6B6"/>
<path d="M122.484 19.6855L112.659 24.144L112.195 29.9743L124.084 23.5724L122.484 19.6855Z" fill="#6C63FF"/>
<path d="M127.58 45.7308L127.577 45.7448C126.864 50.0047 125.912 53.067 125.912 53.067L126.207 59.873L126.829 74.1031L122.962 74.4437L116.869 74.9775L116.279 75.0302L112.241 75.3849L106.021 75.9292L104.191 49.4077C104.191 49.4077 106.457 43.592 108.62 38.0538C110.081 34.3172 111.496 30.7035 112.132 29.0916C112.195 28.9335 112.251 28.7966 112.297 28.6807C113.038 26.8194 116.729 24.5086 119.587 22.9493C121.529 21.8852 123.092 21.1653 123.092 21.1653L124.652 24.038L124.771 24.2592C127.11 27.1109 128.069 31.0793 128.29 35.1601C128.307 35.455 128.318 35.75 128.328 36.045C128.43 39.4375 128.058 42.858 127.58 45.7308Z" fill="#2F2E41"/>
<path d="M117.068 150.18L112.98 150.142L111.183 134.356L117.216 134.413L117.068 150.18Z" fill="#FFB6B6"/>
<path d="M103.064 149.957C102.934 150.17 102.861 150.861 102.858 151.111C102.851 151.877 103.467 152.504 104.233 152.511L116.892 152.629C117.415 152.634 117.843 152.214 117.847 151.691L117.852 151.164C117.852 151.164 118.493 149.586 117.222 147.622C117.222 147.622 115.606 149.135 113.233 146.719L112.539 145.433L107.393 149.123L104.557 149.446C103.936 149.516 103.387 149.423 103.064 149.957Z" fill="#2F2E41"/>
<path d="M137.992 145.146L134.28 146.858L125.908 133.356L131.387 130.829L137.992 145.146Z" fill="#FFB6B6"/>
<path d="M125.236 150.93C125.211 151.178 125.44 151.834 125.544 152.061C125.865 152.756 126.689 153.06 127.385 152.739L138.88 147.435C139.355 147.216 139.562 146.654 139.343 146.179L139.122 145.701C139.122 145.701 139.027 144 137.038 142.767C137.038 142.767 136.224 144.827 133.046 143.656L131.869 142.79L128.794 148.326L126.368 149.829C125.837 150.158 125.301 150.309 125.236 150.93Z" fill="#2F2E41"/>
<path d="M107.094 72.9058L107.513 108.39L110.997 145.438H117.455L122.713 96.9905C122.713 96.9905 130.312 85.2745 125.879 74.8251V69.6428L107.094 72.9058Z" fill="#2F2E41"/>
<path d="M117.963 106.49L136.012 138.471L130.945 143.538L116.696 122.956L117.963 106.49Z" fill="#2F2E41"/>
<path d="M98.8202 26.6591L91.5037 24.144C91.5037 24.144 85.3305 31.4605 88.5315 40.3773L89.446 51.1233C89.446 51.1233 76.8709 61.6407 75.9564 75.1303C75.0418 88.62 45.3189 124.288 45.3189 124.288C45.3189 124.288 34.3442 124.973 33.6583 129.089C32.9724 133.204 37.5452 138.463 36.6306 143.036C35.7161 147.609 43.1783 160.87 58.9957 159.955C74.8132 159.04 123.742 150.124 124.428 139.835C125.114 129.546 99.9634 52.9524 99.9634 52.9524L103.622 42.6637C103.622 42.6637 106.137 38.5482 102.478 34.2041C98.8202 29.86 98.8202 26.6591 98.8202 26.6591Z" fill="white"/>
<path d="M91.1514 24.6026L91.3364 24.1439L92.6471 19.7998L99.2776 22.0862L98.8203 26.6589L91.1514 24.6026Z" fill="#FFB6B6"/>
<path d="M116.009 19.9153C120.45 19.9153 124.05 16.3149 124.05 11.8735C124.05 7.4322 120.45 3.83179 116.009 3.83179C111.567 3.83179 107.967 7.4322 107.967 11.8735C107.967 16.3149 111.567 19.9153 116.009 19.9153Z" fill="#FFB6B6"/>
<path d="M114.834 15.3213L111.451 12.0352L112.387 9.47948C112.387 9.47948 105.701 11.9615 107.36 6.73363C109.019 1.50577 117.483 2.03353 119.236 3.30907C120.989 4.5846 126.669 7.5378 125.212 11.6786C123.754 15.8194 120.989 19.5456 120.989 19.5456L118.803 18.2763C118.803 18.2763 118.733 13.5071 117.653 13.7396C116.572 13.9721 114.834 15.3213 114.834 15.3213Z" fill="#2F2E41"/>
<path d="M99.0109 23.0551C103.11 23.0551 106.432 19.7325 106.432 15.634C106.432 11.5354 103.11 8.21289 99.0109 8.21289C94.9124 8.21289 91.5898 11.5354 91.5898 15.634C91.5898 19.7325 94.9124 23.0551 99.0109 23.0551Z" fill="#FFB6B6"/>
<path d="M98.4186 5.65675C98.6333 5.7821 98.9209 5.59245 98.9898 5.35353C99.0587 5.1146 98.9784 4.86093 98.8989 4.62535L98.4985 3.4394C98.2145 2.5983 97.9131 1.7278 97.2981 1.08762C96.3698 0.121357 94.8946 -0.124456 93.5665 0.0536272C91.8611 0.28232 90.1784 1.2058 89.3854 2.7329C88.5924 4.26 88.93 6.39085 90.3629 7.3436C88.3208 9.68424 87.6089 12.2928 87.7213 15.3971C87.8337 18.5013 91.2166 21.3582 93.4227 23.5451C93.9153 23.2464 94.3632 21.8468 94.0923 21.3384C93.8214 20.83 94.2095 20.2409 93.874 19.7726C93.5385 19.3043 93.2578 20.05 93.597 19.5844C93.811 19.2905 92.9756 18.6145 93.2938 18.4386C94.8327 17.588 95.3445 15.6698 96.311 14.2009C97.4768 12.4292 99.4721 11.2293 101.584 11.0303C102.747 10.9206 103.975 11.1192 104.929 11.7945C105.882 12.4698 106.499 13.6765 106.278 14.8237C106.851 14.2424 107.136 13.3904 107.028 12.5815C106.921 11.7726 106.423 11.0246 105.719 10.613C106.147 9.19628 105.78 7.56668 104.786 6.4704C103.792 5.37412 99.758 5.56084 98.3063 5.84936" fill="#2F2E41"/>
<path d="M98.1928 11.0732C96.2702 11.2808 94.8819 12.9462 93.7097 14.4843C93.0341 15.3708 92.3263 16.3498 92.3433 17.4643C92.3604 18.591 93.1138 19.5575 93.4739 20.6253C94.0624 22.3708 93.4888 24.4474 92.0879 25.6433C93.4721 25.906 94.9686 24.8681 95.2075 23.4796C95.4857 21.8631 94.2604 20.303 94.4055 18.6693C94.5333 17.2299 95.6676 16.1221 96.6319 15.0459C97.5962 13.9697 98.5019 12.5416 98.0583 11.1664" fill="#2F2E41"/>
<path d="M170.854 114.766C169.744 114.886 168.533 115.065 167.244 115.327C161.783 116.44 161.669 120.148 161.717 120.999L161.68 120.975C161.131 121.856 160.787 122.748 160.579 123.589L160.329 112.223C160.491 111.886 160.638 111.503 160.76 111.111C161.169 112.37 161.839 113.56 162.417 113.481C163.168 113.378 163.496 111.168 163.356 109.597C164.311 110.828 165.919 112.143 166.525 111.738C167.01 111.413 166.723 110.079 166.193 108.865C167.296 109.529 168.517 109.966 168.896 109.544C169.413 108.969 168.174 107.005 167.031 105.909C168.561 106.051 170.506 105.808 170.633 105.112C170.738 104.538 169.581 103.814 168.342 103.349C169.586 103.02 170.75 102.449 170.712 101.883C170.666 101.211 168.938 100.761 167.447 100.692C168.572 99.8127 169.605 98.5967 169.289 98.0468C168.998 97.5412 167.647 97.7371 166.4 98.1823C167.138 97.1276 167.657 95.9392 167.262 95.5324C166.77 95.0258 165.024 95.9003 163.832 96.8669C164.064 95.361 163.947 93.4602 163.271 93.2882C162.706 93.1443 161.905 94.2501 161.356 95.4546C161.114 94.1905 160.622 92.9905 160.055 92.9905C159.248 92.9905 158.593 95.4256 158.593 97.0121C158.593 97.1018 158.595 97.1862 158.599 97.2668C158.518 97.1728 158.425 97.0747 158.319 96.9718C157.181 95.8665 154.978 94.6397 154.416 95.2191C154.021 95.6258 154.539 96.8143 155.277 97.869C154.03 97.4237 152.679 97.2278 152.389 97.7334C151.999 98.4127 153.667 100.109 155.023 100.931C154.941 100.921 154.856 100.913 154.764 100.907C153.182 100.799 150.708 101.286 150.653 102.092C150.614 102.658 151.778 103.229 153.022 103.557C151.783 104.023 150.626 104.747 150.731 105.32C150.858 106.017 152.803 106.26 154.333 106.118C153.19 107.214 151.951 109.178 152.468 109.753C152.847 110.175 154.068 109.738 155.171 109.074C154.642 110.288 154.354 111.622 154.839 111.946C155.479 112.375 157.236 110.884 158.162 109.601C158.068 111.17 158.443 113.327 159.188 113.412C159.5 113.448 159.83 113.115 160.128 112.603L159.284 124.821C159.087 126.244 160.349 127.173 160.462 127.759L160.644 136.032C160.438 135.443 160.162 134.84 159.789 134.242L159.751 134.265C159.799 133.414 159.686 129.706 154.224 128.594C152.936 128.331 151.725 128.152 150.615 128.033C149.305 127.892 148.794 129.685 149.977 130.265C151.692 131.104 153.304 132.161 154.145 133.413C156.294 136.613 159.263 134.763 159.685 134.476C160.156 135.261 160.466 136.052 160.661 136.804L160.758 141.198C160.734 141.302 160.717 141.36 160.716 141.364L160.761 141.378L160.995 152.011L163.166 151.994L162.39 141.125C162.52 140.538 162.921 138.541 162.39 136.467L161.613 127.927C161.611 127.92 161.657 128.151 161.613 127.927L160.601 124.571C160.748 123.533 161.09 122.365 161.784 121.21C162.206 121.497 165.175 123.347 167.324 120.147C168.164 118.895 169.777 117.838 171.491 116.999C172.675 116.419 172.164 114.626 170.854 114.766ZM160.938 139.925L160.898 138.065C160.98 138.768 160.976 139.403 160.938 139.925Z" fill="#8960E3"/>
<path d="M27.2179 114.766C26.1078 114.886 24.8968 115.065 23.6087 115.327C18.1469 116.44 18.0335 120.148 18.0814 120.999L18.0443 120.975C17.4951 121.856 17.1511 122.748 16.9432 123.589L16.6931 112.223C16.8549 111.886 17.002 111.503 17.1247 111.111C17.5335 112.37 18.2037 113.56 18.7814 113.481C19.5327 113.378 19.8602 111.168 19.72 109.597C20.6753 110.828 22.283 112.143 22.8895 111.738C23.3742 111.413 23.0868 110.079 22.5577 108.865C23.6602 109.529 24.8812 109.966 25.2601 109.544C25.7771 108.969 24.5382 107.005 23.3956 105.909C24.925 106.051 26.8702 105.808 26.9977 105.112C27.1028 104.538 25.9451 103.814 24.706 103.349C25.9506 103.02 27.1144 102.449 27.0758 101.883C27.03 101.211 25.3021 100.761 23.8114 100.692C24.9358 99.8127 25.9689 98.5967 25.6529 98.0468C25.3625 97.5412 24.0113 97.7371 22.7648 98.1823C23.5025 97.1276 24.0211 95.9392 23.6261 95.5324C23.1341 95.0258 21.3878 95.9003 20.1961 96.8669C20.4281 95.361 20.3108 93.4602 19.6354 93.2882C19.0703 93.1443 18.2695 94.2501 17.7204 95.4546C17.4778 94.1905 16.9865 92.9905 16.4196 92.9905C15.6119 92.9905 14.9572 95.4256 14.9572 97.0121C14.9572 97.1018 14.9596 97.1862 14.9637 97.2668C14.8826 97.1728 14.7897 97.0747 14.6837 96.9718C13.5456 95.8665 11.3426 94.6397 10.7799 95.2191C10.3849 95.6258 10.9036 96.8143 11.6413 97.869C10.3947 97.4237 9.04354 97.2278 8.7531 97.7334C8.36284 98.4127 10.031 100.109 11.387 100.931C11.3054 100.921 11.2198 100.913 11.1287 100.907C9.54587 100.799 7.07183 101.286 7.01684 102.092C6.97825 102.658 8.14208 103.229 9.38664 103.557C8.14755 104.023 6.9899 104.747 7.09498 105.32C7.2225 106.017 9.16763 106.26 10.697 106.118C9.55446 107.214 8.31553 109.178 8.83257 109.753C9.21147 110.175 10.4325 109.738 11.535 109.074C11.0058 110.288 10.7185 111.622 11.2031 111.946C11.8436 112.375 13.6001 110.884 14.5262 109.601C14.4318 111.17 14.8074 113.327 15.5527 113.412C15.8643 113.448 16.1945 113.115 16.4926 112.603L15.6485 124.821C15.4512 126.244 16.7133 127.173 16.8261 127.759L17.0081 136.032C16.8027 135.443 16.5259 134.84 16.1528 134.242L16.1157 134.265C16.1636 133.414 16.0501 129.706 10.5884 128.594C9.30028 128.331 8.0893 128.152 6.97922 128.033C5.66889 127.892 5.15776 129.685 6.34149 130.265C8.05578 131.104 9.66838 132.161 10.5089 133.413C12.6578 136.613 15.627 134.763 16.0491 134.476C16.5207 135.261 16.8298 136.052 17.0251 136.804L17.1218 141.198C17.0981 141.302 17.0817 141.36 17.0804 141.364L17.1258 141.378L17.3597 152.011L19.5303 151.994L18.7539 141.125C18.8844 140.538 19.2857 138.541 18.7539 136.467L17.9776 127.927C17.9756 127.92 18.0216 128.151 17.9776 127.927L16.9648 124.571C17.1121 123.533 17.4539 122.365 18.148 121.21C18.5701 121.497 21.5393 123.347 23.6882 120.147C24.5287 118.895 26.1413 117.838 27.8556 116.999C29.0393 116.419 28.5282 114.626 27.2179 114.766ZM17.3027 139.925L17.2618 138.065C17.3443 138.768 17.3401 139.403 17.3027 139.925Z" fill="#8960E3"/>
<path d="M89.4102 51.6068L100.161 51.5721C100.839 51.5699 100.841 50.5164 100.161 50.5186L89.4102 50.5533C88.7324 50.5555 88.7311 51.609 89.4102 51.6068Z" fill="#6C63FF"/>
<path d="M118.747 72.9006C118.141 72.1475 117.363 71.5505 116.479 71.1596L115.893 70.4677L115.922 70.4392L104.523 51.628L98.3448 33.2571C97.63 31.1315 95.2967 30.0205 93.196 30.8054C91.0945 31.5906 90.0617 33.9608 90.9172 36.0346L98.1364 53.5331L112.813 73.4598L113.167 73.8997C113.386 74.8411 113.827 75.7163 114.453 76.4524C115.995 78.3161 118.206 79.0311 119.392 78.05C120.577 77.069 120.289 74.7635 118.747 72.9006Z" fill="#FFB6B6"/>
<path d="M122.931 76.8886C122.443 79.5961 120.651 81.5393 118.928 81.229C117.205 80.9186 116.204 78.4724 116.692 75.764C116.872 74.6794 117.309 73.6537 117.967 72.7727L120.176 61.3269L124.7 62.2122L122.779 73.6395C123.088 74.6949 123.14 75.809 122.931 76.8886Z" fill="#FFB6B6"/>
<path d="M118.802 69.2188L117.911 71.7321L123.466 73.4196L123.013 70.647L118.802 69.2188Z" fill="#6C63FF"/>
<path d="M128.329 36.045L128.065 40.7158L127.581 45.7308L127.577 45.7448L126.208 59.873L125.172 70.5842L124.975 72.5895L123.268 72.2067L123.029 72.154L121.291 71.7642L118.292 71.0864L118.151 71.0583L117.551 70.9213L119.078 45.8361L119.317 35.0512L119.528 25.5902L119.588 22.9493C121.53 21.8852 123.093 21.1653 123.093 21.1653L124.652 24.038L124.771 24.2592C127.11 27.1109 128.069 31.0793 128.29 35.1601C128.308 35.455 128.318 35.75 128.329 36.045Z" fill="#2F2E41"/>
</g>
<defs>
<clipPath id="clip0_221_1808">
<rect width="184.257" height="160" fill="white"/>
</clipPath>
</defs>
</svg>
