<svg width="28" height="28" viewBox="0 0 28 28" fill="none" xmlns="http://www.w3.org/2000/svg">
<path fill-rule="evenodd" clip-rule="evenodd" d="M14 0.666504C6.63596 0.666504 0.666626 6.63584 0.666626 13.9998C0.666626 16.5198 1.36663 18.8798 2.58396 20.8905L1.39463 24.9332C1.32634 25.1653 1.32185 25.4115 1.38162 25.6459C1.44139 25.8804 1.56322 26.0944 1.73431 26.2655C1.90539 26.4366 2.1194 26.5584 2.35385 26.6182C2.5883 26.678 2.83452 26.6735 3.06663 26.6052L7.10929 25.4158C9.18753 26.6733 11.5709 27.3365 14 27.3332C21.364 27.3332 27.3333 21.3638 27.3333 13.9998C27.3333 6.63584 21.364 0.666504 14 0.666504ZM10.984 17.0172C13.6813 19.7132 16.256 20.0692 17.1653 20.1025C18.548 20.1532 19.8946 19.0972 20.4186 17.8718C20.4848 17.7194 20.5088 17.552 20.4881 17.3871C20.4675 17.2222 20.403 17.0659 20.3013 16.9345C19.5706 16.0012 18.5826 15.3305 17.6173 14.6638C17.4157 14.5245 17.1681 14.4686 16.9262 14.5079C16.6843 14.5471 16.4671 14.6785 16.32 14.8745L15.52 16.0945C15.4779 16.1601 15.4124 16.2071 15.3368 16.226C15.2612 16.2448 15.1812 16.234 15.1133 16.1958C14.5706 15.8852 13.78 15.3572 13.212 14.7892C12.644 14.2212 12.148 13.4665 11.8693 12.9585C11.8347 12.894 11.8248 12.8191 11.8412 12.7477C11.8576 12.6764 11.8993 12.6134 11.9586 12.5705L13.1906 11.6558C13.3664 11.503 13.4799 11.2908 13.5094 11.0597C13.5389 10.8285 13.4824 10.5946 13.3506 10.4025C12.7533 9.52784 12.0573 8.41584 11.048 7.6785C10.9177 7.58411 10.7651 7.52525 10.6052 7.50772C10.4453 7.49018 10.2836 7.51458 10.136 7.5785C8.90929 8.10384 7.84796 9.4505 7.89863 10.8358C7.93196 11.7452 8.28796 14.3198 10.984 17.0172Z" fill="#EEE6FB"/>
</svg>
