<svg width="34" height="34" viewBox="0 0 34 34" fill="none" xmlns="http://www.w3.org/2000/svg">
<path d="M4.76143 0C2.1352 0 0 2.1352 0 4.76143V28.5686C0 31.1948 2.1352 33.33 4.76143 33.33H28.5686C31.1948 33.33 33.33 31.1948 33.33 28.5686V4.76143C33.33 2.1352 31.1948 0 28.5686 0H4.76143ZM26.8649 6.24938L19.1424 15.0729L28.2263 27.0806H21.114L15.549 19.7971L9.17319 27.0806H5.63932L13.8974 17.6396L5.18549 6.24938H12.4764L17.5131 12.9079L23.331 6.24938H26.8649ZM24.0527 24.9677L11.4125 8.25066H9.30711L22.0886 24.9677H24.0452H24.0527Z" fill="#EEE6FB"/>
</svg>
