<svg width="80" height="94" viewBox="0 0 80 94" fill="none" xmlns="http://www.w3.org/2000/svg">
<path d="M40.4829 93.1191L0 70.423L0 23.1795L40.4829 0.000427246L80 23.1795V70.423L40.4829 93.1191Z" fill="#FFCCEE"/>
<path opacity="0.6" d="M31.4325 43H28.0039V28.6C28.0039 27.7152 28.7702 27 29.7182 27H50.2896C51.2376 27 52.0039 27.7152 52.0039 28.6V38.2H48.5753V30.2H31.4325V43Z" fill="#D149AB"/>
<path fill-rule="evenodd" clip-rule="evenodd" d="M43.3333 41H58.3333C59.255 41 60 41.7264 60 42.625V65.375C60 66.2736 59.255 67 58.3333 67H21.6667C20.745 67 20 66.2736 20 65.375V49.125C20 48.2264 20.745 47.5 21.6667 47.5H36.6667C37.5883 47.5 38.3333 48.2264 38.3333 49.125V63.75H41.6667V42.625C41.6667 41.7264 42.4117 41 43.3333 41ZM26.6629 62.1255H31.6629V58.8755H26.6629V62.1255ZM31.6629 55.6258H26.6629V52.3758H31.6629V55.6258ZM48.3371 62.1255H53.3371V58.8755H48.3371V62.1255ZM53.3371 55.6258H48.3371V52.3758H53.3371V55.6258ZM48.3371 49.1247H53.3371V45.8747H48.3371V49.1247Z" fill="#D149AB"/>
</svg>
