<svg width="34" height="28" viewBox="0 0 34 28" fill="none" xmlns="http://www.w3.org/2000/svg">
<path fill-rule="evenodd" clip-rule="evenodd" d="M17 0.666504C18.425 0.666504 19.8866 0.703171 21.3033 0.763171L22.9766 0.84317L24.5783 0.938171L26.0783 1.03984L27.4483 1.1465C28.9351 1.2603 30.3341 1.89475 31.3992 2.93824C32.4643 3.98172 33.1274 5.3674 33.2716 6.8515L33.3383 7.55984L33.4633 9.0765C33.58 10.6482 33.6666 12.3615 33.6666 13.9998C33.6666 15.6382 33.58 17.3515 33.4633 18.9232L33.3383 20.4398C33.3166 20.6832 33.295 20.9182 33.2716 21.1482C33.1273 22.6325 32.464 24.0184 31.3986 25.0619C30.3331 26.1055 28.9337 26.7397 27.4466 26.8532L26.08 26.9582L24.58 27.0615L22.9766 27.1565L21.3033 27.2365C19.8697 27.2988 18.4349 27.331 17 27.3332C15.565 27.331 14.1303 27.2988 12.6966 27.2365L11.0233 27.1565L9.42165 27.0615L7.92165 26.9582L6.55165 26.8532C5.0649 26.7394 3.6659 26.1049 2.60077 25.0614C1.53564 24.018 0.872603 22.6323 0.728313 21.1482L0.661646 20.4398L0.536646 18.9232C0.409209 17.2851 0.341386 15.6429 0.333313 13.9998C0.333313 12.3615 0.41998 10.6482 0.536646 9.0765L0.661646 7.55984C0.683313 7.3165 0.70498 7.0815 0.728313 6.8515C0.872547 5.36767 1.53534 3.9822 2.60013 2.93874C3.66492 1.89529 5.06353 1.26067 6.54998 1.1465L7.91831 1.03984L9.41831 0.938171L11.0216 0.84317L12.695 0.763171C14.1291 0.700892 15.5645 0.668663 17 0.666504ZM13.6666 9.95817V18.0415C13.6666 18.8115 14.5 19.2915 15.1666 18.9082L22.1666 14.8665C22.319 14.7788 22.4455 14.6525 22.5335 14.5004C22.6214 14.3482 22.6678 14.1756 22.6678 13.9998C22.6678 13.8241 22.6214 13.6514 22.5335 13.4993C22.4455 13.3471 22.319 13.2209 22.1666 13.1332L15.1666 9.09317C15.0146 9.00537 14.8421 8.95917 14.6665 8.9592C14.4909 8.95922 14.3184 9.00549 14.1664 9.09333C14.0143 9.18118 13.8881 9.3075 13.8004 9.45961C13.7127 9.61172 13.6665 9.78425 13.6666 9.95984V9.95817Z" fill="#EEE6FB"/>
</svg>
